#N canvas 992 82 927 998 10;
#X obj 370 279 bonk~;
#X obj 371 317 bng 15 250 50 0 empty empty empty 17 7 0 10 -262144
-1 -1;
#X obj 397 344 t b b;
#X obj 397 317 unpack;
#X obj 397 386 timer;
#X floatatom 399 432 5 0 0 0 - - -;
#X obj 314 195 adc~;
#X obj 296 404 print [bonk];
#X obj 485 61 t b b b;
#X obj 504 36 bng 15 250 50 0 empty empty empty 17 7 0 10 -262144 -1
-1;
#X msg 461 112 debounce 0;
#X msg 542 107 minvel 10;
#X msg 360 113 thresh 20 60;
#X connect 0 0 1 0;
#X connect 0 1 3 0;
#X connect 0 1 7 0;
#X connect 2 0 4 0;
#X connect 2 1 4 1;
#X connect 3 0 2 0;
#X connect 4 0 5 0;
#X connect 8 0 11 0;
#X connect 8 1 10 0;
#X connect 8 2 12 0;
#X connect 9 0 8 0;
#X connect 10 0 0 0;
#X connect 11 0 0 0;
#X connect 12 0 0 0;
