#N canvas 217 146 657 608 10;
#X obj 185 149 hsl 128 15 0 20000 0 0 empty empty empty -2 -8 0 10
-262144 -1 -1 1100 1;
#X floatatom 178 202 10 0 0 0 - - -;
#X obj 147 230 lop~;
#X obj 125 431 dac~;
#X obj 234 446 metro 100;
#X obj 237 478 tabwrite~ lop;
#X obj 237 415 tgl 15 0 empty empty empty 17 7 0 10 -262144 -1 -1 1
1;
#X obj 244 380 loadbang;
#X obj 155 288 *~;
#X obj 215 260 vsl 15 128 0 0.5 0 0 empty empty empty 0 -9 0 10 -262144
-1 -1 12700 1;
#X obj 325 339 receive size0;
#X obj 112 63 noise~;
#X connect 0 0 1 0;
#X connect 1 0 2 1;
#X connect 2 0 8 0;
#X connect 4 0 5 0;
#X connect 6 0 4 0;
#X connect 7 0 6 0;
#X connect 8 0 5 0;
#X connect 8 0 3 1;
#X connect 8 0 3 0;
#X connect 9 0 8 1;
#X connect 10 0 5 0;
