#N canvas 519 232 731 750 10;
#X obj 166 624 dac~;
#X obj 177 70 openpanel;
#X msg 178 106 open \$1;
#X obj 255 107 tgl 15 0 empty empty empty 17 7 0 10 -262144 -1 -1 0
1;
#X obj 410 14 loadbang;
#X obj 305 259 rmstodb;
#X obj 305 235 env~ 16384;
#X floatatom 490 218 5 0 0 0 threshold - -;
#X obj 270 582 *~;
#X obj 306 309 >;
#X obj 297 345 pack f f;
#X msg 295 407 \$1 \$2;
#X floatatom 494 237 5 0 0 0 attack - -;
#X obj 299 368 t a b;
#X msg 353 440 0 \$1;
#X obj 351 419 int;
#X obj 341 393 delay;
#X floatatom 494 271 5 0 0 0 decay - -;
#X floatatom 493 253 5 0 0 0 hold - -;
#X obj 302 485 line~;
#X obj 118 36 bng 15 250 50 0 empty empty empty 17 7 0 10 -262144 -1
-1;
#X obj 183 157 readsf~ 2;
#X obj 272 168 bng 15 250 50 0 empty empty empty 17 7 0 10 -262144
-1 -1;
#X msg 58 127 start;
#X obj 457 179 >~;
#X floatatom 247 288 5 0 0 0 - - -;
#X connect 1 0 2 0;
#X connect 2 0 21 0;
#X connect 3 0 21 0;
#X connect 4 0 1 0;
#X connect 5 0 9 0;
#X connect 5 0 25 0;
#X connect 6 0 5 0;
#X connect 7 0 9 1;
#X connect 8 0 0 1;
#X connect 9 0 10 0;
#X connect 9 0 19 0;
#X connect 10 0 13 0;
#X connect 11 0 19 0;
#X connect 12 0 10 1;
#X connect 13 0 11 0;
#X connect 13 1 16 0;
#X connect 14 0 19 0;
#X connect 15 0 14 0;
#X connect 16 0 15 0;
#X connect 17 0 15 1;
#X connect 18 0 16 1;
#X connect 19 0 8 1;
#X connect 20 0 1 0;
#X connect 21 0 8 0;
#X connect 21 0 6 0;
#X connect 21 2 22 0;
#X connect 22 0 2 0;
#X connect 23 0 21 0;
