#N canvas 992 82 927 998 10;
#X msg 257 77 200;
#X obj 170 273 ../compt;
#X obj 121 255 bng 15 250 50 0 empty empty empty 17 7 0 10 -262144
-1 -1;
#X floatatom 95 314 5 0 0 0 - - -;
#X obj 165 313 moses 2;
#X obj 82 348 bng 15 250 50 0 empty empty empty 17 7 0 10 -262144 -1
-1;
#X msg 117 823 list 1000 1/1;
#X obj 85 391 t b b;
#X obj 121 899 print [rythme];
#X msg 70 441 set list;
#X obj 201 420 f;
#X obj 177 378 bng 15 250 50 0 empty empty empty 17 7 0 10 -262144
-1 -1;
#X obj 462 384 f;
#X floatatom 246 459 5 0 0 0 - - -;
#X obj 168 346 moses 1;
#X obj 433 408 /;
#X obj 458 476 moses 0.96;
#X obj 532 478 bng 15 250 50 0 beat empty beat 17 7 0 10 -262144 -1
-1;
#X obj 532 500 bng 15 250 50 0 15_16th empty 15_16th 17 7 0 10 -262144
-1 -1;
#X obj 532 521 bng 15 250 50 0 7_8th empty 7_8th 17 7 0 10 -262144
-1 -1;
#X obj 532 544 bng 15 250 50 0 5_6th empty 5_6th 17 7 0 10 -262144
-1 -1;
#X obj 532 565 bng 15 250 50 0 13_16th empty 13_16th 17 7 0 10 -262144
-1 -1;
#X obj 532 587 bng 15 250 50 0 3_4th empty 3_4th 17 7 0 10 -262144
-1 -1;
#X obj 532 609 bng 15 250 50 0 11_16th empty 11_16th 17 7 0 10 -262144
-1 -1;
#X obj 532 631 bng 15 250 50 0 2_3rd empty 2_3rd 17 7 0 10 -262144
-1 -1;
#X obj 458 498 moses 0.906;
#X obj 458 520 moses 0.854;
#X obj 458 542 moses 0.823;
#X obj 458 564 moses 0.781;
#X obj 458 586 moses 0.719;
#X obj 458 608 moses 0.677;
#X obj 458 630 moses 0.646;
#X obj 532 653 bng 15 250 50 0 5_8th empty 5_8th 17 7 0 10 -262144
-1 -1;
#X obj 532 675 bng 15 250 50 0 9_16th empty 9_16th 17 7 0 10 -262144
-1 -1;
#X obj 532 697 bng 15 250 50 0 half empty half 17 7 0 10 -262144 -1
-1;
#X obj 532 719 bng 15 250 50 0 7_16th empty 7_16th 17 7 0 10 -262144
-1 -1;
#X obj 532 741 bng 15 250 50 0 3_8th empty 3_8th 17 7 0 10 -262144
-1 -1;
#X obj 532 762 bng 15 250 50 0 1_3rd empty 1_3rd 17 7 0 10 -262144
-1 -1;
#X obj 532 784 bng 15 250 50 0 5_16th empty 5_16th 17 7 0 10 -262144
-1 -1;
#X obj 532 806 bng 15 250 50 0 1_4th empty 1_4th 17 7 0 10 -262144
-1 -1;
#X obj 458 652 moses 0.594;
#X obj 458 674 moses 0.531;
#X obj 458 696 moses 0.469;
#X obj 458 718 moses 0.406;
#X obj 458 740 moses 0.354;
#X obj 458 762 moses 0.323;
#X obj 458 784 moses 0.281;
#X obj 458 806 moses 0.219;
#X obj 532 827 bng 15 250 50 0 3_16th empty 3_16th 17 7 0 10 -262144
-1 -1;
#X obj 532 849 bng 15 250 50 0 1_6th empty 1_6th 17 7 0 10 -262144
-1 -1;
#X obj 532 871 bng 15 250 50 0 1_8th empty 1_8th 17 7 0 10 -262144
-1 -1;
#X obj 532 894 bng 15 250 50 0 1_16th empty 1_16th 17 7 0 10 -262144
-1 -1;
#X obj 458 916 bng 15 250 50 0 negligeable empty negligeable 17 7 0
10 -262144 -1 -1;
#X obj 458 828 moses 0.177;
#X obj 458 849 moses 0.146;
#X obj 458 871 moses 0.094;
#X obj 458 893 moses 0.031;
#X msg 617 486 add2 15/16;
#X msg 617 512 add2 7/8;
#X msg 617 534 add2 5/6;
#X msg 620 556 add2 13/16;
#X msg 615 583 add2 3/4;
#X msg 603 610 add2 11/16;
#X msg 602 634 add2 2/3;
#X msg 599 656 add2 5/8;
#X msg 602 676 add2 9/16;
#X msg 602 698 add2 1/2;
#X msg 602 721 add2 7/16;
#X msg 604 740 add2 3/8;
#X msg 605 760 add2 1/3;
#X msg 607 781 add2 5/16;
#X msg 607 801 add2 1/4;
#X msg 605 824 add2 3/16;
#X msg 603 849 add2 1/6;
#X msg 604 871 add2 1/18;
#X msg 601 900 add2 1/16;
#X obj 174 130 ../round;
#X obj 268 338 pack f f;
#X obj 269 376 route 0;
#X obj 308 420 print [pack];
#X obj 176 192 t f f;
#X obj 234 191 t f f;
#X obj 326 209 t f f;
#X obj 208 294 t f f;
#X obj 428 349 t f b;
#X msg 344 386 \$2;
#X msg 608 460 add2 1/1;
#X msg 212 621 add2 \$1 1/1;
#X msg 321 82 500;
#X obj 240 109 / 10;
#X obj 240 130 ../round;
#X obj 241 153 * 10;
#X obj 325 126 / 10;
#X obj 325 147 ../round;
#X obj 326 170 * 10;
#X obj 174 111 / 10;
#X obj 176 153 * 10;
#X msg 186 78 1004;
#X connect 0 0 89 0;
#X connect 1 0 3 0;
#X connect 1 0 83 0;
#X connect 2 0 1 0;
#X connect 4 0 5 0;
#X connect 4 0 14 0;
#X connect 4 1 1 1;
#X connect 4 1 7 0;
#X connect 6 0 8 0;
#X connect 7 0 9 0;
#X connect 7 1 6 0;
#X connect 9 0 6 0;
#X connect 10 0 87 0;
#X connect 10 0 13 0;
#X connect 10 0 12 1;
#X connect 11 0 10 0;
#X connect 12 0 15 1;
#X connect 14 0 11 0;
#X connect 15 0 16 0;
#X connect 16 0 25 0;
#X connect 16 1 17 0;
#X connect 16 1 86 0;
#X connect 25 0 26 0;
#X connect 25 1 18 0;
#X connect 25 1 57 0;
#X connect 26 0 27 0;
#X connect 26 1 19 0;
#X connect 26 1 58 0;
#X connect 27 0 28 0;
#X connect 27 1 20 0;
#X connect 27 1 59 0;
#X connect 28 0 29 0;
#X connect 28 1 21 0;
#X connect 28 1 60 0;
#X connect 29 0 30 0;
#X connect 29 1 22 0;
#X connect 29 1 61 0;
#X connect 30 0 31 0;
#X connect 30 1 23 0;
#X connect 30 1 62 0;
#X connect 31 0 40 0;
#X connect 31 1 24 0;
#X connect 31 1 63 0;
#X connect 40 0 41 0;
#X connect 40 1 32 0;
#X connect 40 1 64 0;
#X connect 41 0 42 0;
#X connect 41 1 33 0;
#X connect 41 1 65 0;
#X connect 42 0 43 0;
#X connect 42 1 34 0;
#X connect 42 1 66 0;
#X connect 43 0 44 0;
#X connect 43 1 35 0;
#X connect 43 1 67 0;
#X connect 44 0 45 0;
#X connect 44 1 36 0;
#X connect 44 1 68 0;
#X connect 45 0 46 0;
#X connect 45 1 37 0;
#X connect 45 1 69 0;
#X connect 46 0 47 0;
#X connect 46 1 38 0;
#X connect 46 1 70 0;
#X connect 47 0 53 0;
#X connect 47 1 39 0;
#X connect 47 1 71 0;
#X connect 53 0 54 0;
#X connect 53 1 48 0;
#X connect 53 1 72 0;
#X connect 54 0 55 0;
#X connect 54 1 49 0;
#X connect 54 1 73 0;
#X connect 55 0 56 0;
#X connect 55 1 50 0;
#X connect 55 1 74 0;
#X connect 56 0 52 0;
#X connect 56 1 51 0;
#X connect 56 1 75 0;
#X connect 57 0 6 0;
#X connect 58 0 6 0;
#X connect 59 0 6 0;
#X connect 60 0 6 0;
#X connect 61 0 6 0;
#X connect 62 0 6 0;
#X connect 63 0 6 0;
#X connect 64 0 6 0;
#X connect 65 0 6 0;
#X connect 66 0 6 0;
#X connect 67 0 6 0;
#X connect 68 0 6 0;
#X connect 69 0 6 0;
#X connect 70 0 6 0;
#X connect 71 0 6 0;
#X connect 72 0 6 0;
#X connect 73 0 6 0;
#X connect 74 0 6 0;
#X connect 75 0 6 0;
#X connect 76 0 96 0;
#X connect 77 0 78 0;
#X connect 78 0 10 1;
#X connect 78 1 85 0;
#X connect 80 0 1 0;
#X connect 80 1 77 1;
#X connect 81 0 1 0;
#X connect 81 1 77 1;
#X connect 82 0 1 0;
#X connect 82 1 77 1;
#X connect 83 0 4 0;
#X connect 83 1 77 0;
#X connect 84 0 15 0;
#X connect 84 1 12 0;
#X connect 85 0 84 0;
#X connect 85 0 79 0;
#X connect 86 0 6 0;
#X connect 87 0 6 0;
#X connect 88 0 92 0;
#X connect 89 0 90 0;
#X connect 90 0 91 0;
#X connect 91 0 81 0;
#X connect 92 0 93 0;
#X connect 93 0 94 0;
#X connect 94 0 82 0;
#X connect 95 0 76 0;
#X connect 96 0 80 0;
#X connect 97 0 95 0;
