#N canvas 2296 127 927 998 10;
#X obj 283 270 print [received];
#X floatatom 433 262 5 0 0 0 - - -;
#X obj 259 252 bng 15 250 50 0 empty empty empty 17 7 0 10 -262144
-1 -1;
#X obj 192 69 netsend;
#X floatatom 211 101 5 0 0 0 - - -;
#X obj 390 57 netsend;
#X floatatom 409 89 5 0 0 0 - - -;
#X msg 637 11 connect 127.0.0.1 6969;
#X msg 606 40 send bonjour;
#X msg 98 40 disconnect;
#X msg 617 98 disconnect;
#X obj 583 -51 bng 15 250 50 0 empty empty empty 17 7 0 10 -262144
-1 -1;
#X obj 565 -12 t b b b b;
#X msg 592 67 send aurevoir;
#X obj 331 226 netreceive 6969;
#X msg 190 42 connect 127.0.0.1 6969;
#X floatatom 206 576 5 0 0 0 - - -;
#N canvas 65 87 450 300 (subpatch) 0;
#X array light 16 float 3;
#A 0 -1.81421 -1.64279 -1.5285 -1.3428 -1.15709 -0.942816 -0.742825
-0.557118 -0.371412 -0.185706 0.0142851 0.199991 0.399982 0.685684
0.828535 1.15709;
#X coords 0 1 16 -1 200 140 1 0 0;
#X restore 489 493 graph;
#X msg 206 654 send light;
#X obj 206 415 bng 15 250 50 0 empty empty empty 17 7 0 10 -262144
-1 -1;
#X msg 206 599 add2 \$1;
#X obj 206 544 tabread light;
#X obj 206 695 print;
#X msg 263 624 set send light;
#X obj 206 494 ../compt;
#X obj 206 466 metro 10;
#X msg 237 442 stop;
#X obj 206 522 moses 15;
#X obj 263 600 t b b;
#X connect 3 0 4 0;
#X connect 5 0 6 0;
#X connect 7 0 5 0;
#X connect 8 0 5 0;
#X connect 9 0 3 0;
#X connect 10 0 5 0;
#X connect 11 0 12 0;
#X connect 12 0 10 0;
#X connect 12 1 13 0;
#X connect 12 2 8 0;
#X connect 12 3 7 0;
#X connect 13 0 5 0;
#X connect 14 0 0 0;
#X connect 14 0 2 0;
#X connect 14 1 1 0;
#X connect 15 0 3 0;
#X connect 16 0 20 0;
#X connect 18 0 22 0;
#X connect 19 0 25 0;
#X connect 20 0 18 0;
#X connect 21 0 16 0;
#X connect 23 0 18 0;
#X connect 24 0 27 0;
#X connect 25 0 24 0;
#X connect 26 0 25 0;
#X connect 27 0 21 0;
#X connect 27 1 26 0;
#X connect 27 1 24 1;
#X connect 27 1 28 0;
#X connect 28 0 23 0;
#X connect 28 1 18 0;
