#N canvas 823 181 1017 831 10;
#X obj 413 270 comport 9600;
#X msg 495 235 close;
#X msg 493 212 devices;
#X obj 330 526 print [pduino];
#X msg 396 174 0;
#X msg 475 135 devicename /dev/ttymxc3;
#X obj 472 91 t b b;
#X obj 475 57 bng 15 250 50 0 empty empty empty 17 7 0 10 -262144 -1
-1;
#X obj 299 194 arduinoPack;
#X obj 302 160 tosymbol;
#X msg 307 137 light:100;
#X obj 273 232 fromsymbol;
#X obj 348 435 tosymbol;
#X obj 327 487 fromsymbol;
#X obj 318 463 arduinoUnPack;
#X obj 475 437 print [after];
#X obj 277 270 print [before];
#X msg 582 328 add2 \$1;
#X msg 624 370 82 101 99 118 118 13 10 82 101 99 118 13 10 82 101 99
101 99 118 13;
#X msg 656 335 set;
#X msg 475 162 devicename /dev/ttyACM1;
#X msg 285 105 bonjour;
#X msg 117 303 97 98 99;
#X connect 0 0 15 0;
#X connect 1 0 0 0;
#X connect 2 0 0 0;
#X connect 4 0 0 0;
#X connect 5 0 0 0;
#X connect 6 0 4 0;
#X connect 6 1 5 0;
#X connect 7 0 6 0;
#X connect 8 0 11 0;
#X connect 9 0 8 0;
#X connect 10 0 9 0;
#X connect 11 0 0 0;
#X connect 11 0 16 0;
#X connect 12 0 14 0;
#X connect 13 0 3 0;
#X connect 14 0 13 0;
#X connect 17 0 18 0;
#X connect 19 0 18 0;
#X connect 20 0 0 0;
#X connect 21 0 9 0;
#X connect 22 0 0 0;
