#N canvas 301 597 576 423 10;
#X msg 62 62 set list;
#X symbolatom 43 156 80 0 0 0 - - -;
#X obj 248 268 print [pMelodie];
#X obj 132 126 list2symbol;
#X msg 99 252 set \$1;
#X msg 39 312 0 1 2 3 4 5 6 7 8 9;
#X obj 101 353 print;
#X msg 133 65 add2 100 1000 200 900;
#X obj 75 214 t b a;
#X obj 279 215 pMelodie;
#X msg 132 93 list 100 1000 200 989 100 1002 200 923;
#X msg 392 194 round 1000;
#X connect 0 0 10 0;
#X connect 1 0 9 0;
#X connect 3 0 1 0;
#X connect 4 0 5 0;
#X connect 5 0 6 0;
#X connect 7 0 10 0;
#X connect 8 0 5 0;
#X connect 8 1 4 0;
#X connect 9 0 2 0;
#X connect 10 0 3 0;
#X connect 11 0 9 0;
