#N canvas 65 602 751 414 10;
#X obj 273 171 print [received];
#X floatatom 423 163 5 0 0 0 - - -;
#X obj 249 153 bng 15 250 50 0 empty empty empty 17 7 0 10 -262144
-1 -1;
#X obj 192 69 netsend;
#X floatatom 211 101 5 0 0 0 - - -;
#X msg 190 42 connect 127.0.0.1 6969;
#X obj 390 51 netsend;
#X floatatom 409 83 5 0 0 0 - - -;
#X msg 571 18 connect 127.0.0.1 6969;
#X msg 606 40 send bonjour;
#X msg 98 40 disconnect;
#X msg 617 98 disconnect;
#X obj 583 -51 bng 15 250 50 0 empty empty empty 17 7 0 10 -262144
-1 -1;
#X obj 565 -12 t b b b b;
#X msg 592 67 send aurevoir;
#X obj 321 127 netreceive 6969;
#X connect 3 0 4 0;
#X connect 5 0 3 0;
#X connect 6 0 7 0;
#X connect 8 0 6 0;
#X connect 9 0 6 0;
#X connect 10 0 3 0;
#X connect 11 0 6 0;
#X connect 12 0 13 0;
#X connect 13 0 11 0;
#X connect 13 1 14 0;
#X connect 13 2 9 0;
#X connect 13 3 8 0;
#X connect 14 0 6 0;
#X connect 15 0 0 0;
#X connect 15 0 2 0;
#X connect 15 1 1 0;
