#N canvas 990 82 927 998 12;
#X obj 83 57 inlet~;
#X obj 86 476 comptNote;
#X obj 89 497 print [listNote];
#X obj 259 361 * 1000;
#X floatatom 268 315 5 0 0 0 - - -;
#X obj 202 407 metro;
#X obj 302 240 loadbang;
#X msg 301 266 10;
#X obj 303 292 f;
#X obj 80 183 sigmund~;
#X floatatom 149 304 5 0 0 0 - - -;
#X obj 100 234 moses 0;
#X obj 188 353 loadbang;
#X obj 229 253 f;
#X obj 322 155 bng 15 250 50 0 empty empty empty 17 7 0 10 -262144
-1 -1;
#X obj 188 190 metro 60;
#X obj 241 84 loadbang;
#X connect 0 0 9 0;
#X connect 1 0 2 0;
#X connect 3 0 5 1;
#X connect 4 0 3 0;
#X connect 5 0 1 1;
#X connect 6 0 7 0;
#X connect 7 0 8 0;
#X connect 8 0 4 0;
#X connect 9 0 11 0;
#X connect 10 0 1 0;
#X connect 11 1 13 1;
#X connect 11 1 10 0;
#X connect 12 0 5 0;
#X connect 14 0 15 0;
#X connect 15 0 13 0;
#X connect 16 0 15 0;
