#N canvas 992 82 927 998 10;
#X obj 403 260 comport 9600;
#X msg 485 225 close;
#X msg 483 202 devices;
#X obj 379 495 print [pduino];
#X msg 386 164 0;
#X obj 183 13 vsl 15 128 -100 500 0 0 empty empty empty 0 -9 0 10 -262144
-1 -1 0 1;
#X msg 465 125 devicename /dev/ttymxc3;
#X obj 462 81 t b b;
#X obj 465 47 bng 15 250 50 0 empty empty empty 17 7 0 10 -262144 -1
-1;
#X floatatom 118 157 5 0 0 0 - - -;
#X obj 181 221 spigot;
#X obj 161 313 spigot;
#X obj 184 167 t f f;
#X obj 181 247 t f f;
#X obj 204 197 > 0;
#X obj 202 276 < 256;
#X obj 424 311 ../compt;
#X obj 425 330 % 2;
#X obj 391 373 spigot;
#X obj 332 367 spigot;
#X obj 357 419 pack a f;
#X obj 358 454 route 108;
#X obj 425 350 == 1;
#X obj 365 345 == 0;
#X obj 289 184 arduinoPack;
#X obj 292 150 tosymbol;
#X msg 297 127 light:100;
#X obj 267 260 print;
#X obj 263 222 fromsymbol;
#X msg 464 153 devicename /dev/ttyACM1;
#X connect 0 0 16 0;
#X connect 0 0 18 0;
#X connect 0 0 19 0;
#X connect 1 0 0 0;
#X connect 2 0 0 0;
#X connect 4 0 0 0;
#X connect 5 0 12 0;
#X connect 6 0 0 0;
#X connect 7 0 4 0;
#X connect 7 1 6 0;
#X connect 8 0 7 0;
#X connect 10 0 13 0;
#X connect 11 0 0 0;
#X connect 11 0 9 0;
#X connect 12 0 10 0;
#X connect 12 1 14 0;
#X connect 13 0 11 0;
#X connect 13 1 15 0;
#X connect 14 0 10 1;
#X connect 15 0 11 1;
#X connect 16 0 17 0;
#X connect 17 0 22 0;
#X connect 17 0 23 0;
#X connect 18 0 20 1;
#X connect 19 0 20 0;
#X connect 20 0 21 0;
#X connect 21 0 3 0;
#X connect 22 0 18 1;
#X connect 23 0 19 1;
#X connect 24 0 28 0;
#X connect 25 0 24 0;
#X connect 26 0 25 0;
#X connect 28 0 27 0;
#X connect 28 0 0 0;
#X connect 29 0 0 0;
