#N canvas 1018 82 869 531 10;
#X obj 389 383 comport 9600;
#X msg 471 348 close;
#X msg 469 325 devices;
#X obj 385 428 print [pduino];
#X msg 372 287 0;
#X obj 169 136 vsl 15 128 -100 500 0 0 empty empty empty 0 -9 0 10
-262144 -1 -1 10600 1;
#X msg 451 248 devicename /dev/ttymxc3;
#X obj 448 204 t b b;
#X obj 451 170 bng 15 250 50 0 empty empty empty 17 7 0 10 -262144
-1 -1;
#X floatatom 104 280 5 0 0 0 - - -;
#X msg 450 276 devicename /dev/ttyACM1;
#X obj 167 344 spigot;
#X obj 167 424 spigot;
#X obj 170 290 t f f;
#X obj 167 370 t f f;
#X obj 190 320 > 0;
#X obj 188 399 < 256;
#X connect 0 0 3 0;
#X connect 1 0 0 0;
#X connect 2 0 0 0;
#X connect 4 0 0 0;
#X connect 5 0 13 0;
#X connect 6 0 0 0;
#X connect 7 0 4 0;
#X connect 7 1 6 0;
#X connect 8 0 7 0;
#X connect 10 0 0 0;
#X connect 11 0 14 0;
#X connect 12 0 0 0;
#X connect 12 0 9 0;
#X connect 13 0 11 0;
#X connect 13 1 15 0;
#X connect 14 0 12 0;
#X connect 14 1 16 0;
#X connect 15 0 11 1;
#X connect 16 0 12 1;
