#N canvas 951 94 869 531 10;
#X obj 389 372 comport 9600;
#X msg 471 349 close;
#X msg 469 325 devices;
#X obj 385 428 print [pduino];
#X msg 338 306 0;
#X msg 307 306 1;
#X obj 154 156 vsl 15 128 0 127 0 0 empty empty empty 0 -9 0 10 -262144
-1 -1 12700 1;
#X msg 451 248 devicename /dev/ttymxc3;
#X obj 448 204 t b b;
#X obj 451 170 bng 15 250 50 0 empty empty empty 17 7 0 10 -262144
-1 -1;
#X msg 450 276 devicename /dev/ttyACM6;
#X connect 0 0 3 0;
#X connect 1 0 0 0;
#X connect 2 0 0 0;
#X connect 4 0 0 0;
#X connect 5 0 0 0;
#X connect 6 0 0 0;
#X connect 7 0 0 0;
#X connect 8 0 4 0;
#X connect 8 1 7 0;
#X connect 9 0 8 0;
#X connect 10 0 0 0;
