#N canvas 598 157 523 614 10;
#X obj 224 470 dac~;
#X obj 148 343 r left;
#X obj 336 341 r right;
#X obj 74 311 osc~;
#X obj 118 312 osc~;
#X obj 77 355 *~ 0.2;
#X obj 273 342 *~ 0.2;
#X msg 36 17 devices;
#X floatatom 82 189 5 0 0 0 - - -, f 5;
#X obj 111 571 s left;
#X obj 103 425 vsl 15 128 0 1 0 0 empty empty empty 0 -9 0 10 -262144
-1 -1 11000 1;
#X obj 370 426 vsl 15 128 0 1 0 0 empty empty empty 0 -9 0 10 -262144
-1 -1 11100 1;
#X obj 369 566 s right;
#X obj 69 53 comport 96;
#X msg 208 21 devicename /dev/ttymxc3;
#X msg 95 19 open 9999;
#X obj 126 256 mtof;
#X obj 59 257 mtof;
#X obj 125 222 + 7;
#X obj 128 387 *~ 0.3;
#X obj 304 388 *~ 0.3;
#X connect 3 0 5 0;
#X connect 4 0 6 0;
#X connect 5 0 19 0;
#X connect 6 0 20 0;
#X connect 7 0 13 0;
#X connect 8 0 17 0;
#X connect 8 0 18 0;
#X connect 10 0 9 0;
#X connect 11 0 12 0;
#X connect 13 0 8 0;
#X connect 14 0 13 0;
#X connect 15 0 13 0;
#X connect 16 0 4 0;
#X connect 17 0 3 0;
#X connect 18 0 16 0;
#X connect 19 0 0 0;
#X connect 19 0 0 1;
#X connect 20 0 0 1;
#X connect 20 0 0 0;
