#N canvas 233 41 588 343 10;
#X msg 49 107 close;
#X obj 33 20 tgl 15 0 empty empty empty 0 -6 0 8 -262144 -1 -1 0 1
;
#X obj 33 134 comport 3 115200;
#X msg 49 87 open 3;
#X text 152 134 port number 3 (on my macbook \, Yours might be a different
one);
#N canvas 119 58 552 226 make_my_list 0;
#X obj 18 44 sel 10 13;
#X obj 76 140 route d;
#X obj 18 21 inlet;
#X obj 76 162 outlet;
#X obj 76 96 sprintf %c%c%c%c%c%c%c%c%c%c%c%c%c%c%c%c%c%c%c%c%c%c%c%c%c%c%c%c%c%c%c%c%c%c%c%c%c%c%c%c%c%c%c%c%c%c%c
;
#X obj 76 74 zl group 62;
#X text 207 140 do You know how to make this more elegant?;
#X text 207 153 in max i would use [itoa].;
#X connect 0 1 5 0;
#X connect 0 2 5 0;
#X connect 1 0 3 0;
#X connect 2 0 0 0;
#X connect 4 0 1 0;
#X connect 5 0 4 0;
#X restore 33 156 pd make_my_list;
#X obj 33 182 unpack f f f f f f f f f f f f f f f f f;
#X floatatom 33 305 5 0 0 0 - - -;
#X floatatom 50 290 5 0 0 0 - - -;
#X floatatom 67 275 5 0 0 0 - - -;
#X floatatom 84 260 5 0 0 0 - - -;
#X floatatom 101 245 5 0 0 0 - - -;
#X floatatom 118 230 5 0 0 0 - - -;
#X obj 170 208 tgl 15 0 empty empty empty 0 -6 0 8 -262144 -1 -1 1
1;
#X obj 187 208 tgl 15 0 empty empty empty 0 -6 0 8 -262144 -1 -1 1
1;
#X obj 136 208 tgl 15 0 empty empty empty 0 -6 0 8 -262144 -1 -1 1
1;
#X obj 153 208 tgl 15 0 empty empty empty 0 -6 0 8 -262144 -1 -1 1
1;
#X obj 239 208 tgl 15 0 empty empty empty 0 -6 0 8 -262144 -1 -1 1
1;
#X obj 256 208 tgl 15 0 empty empty empty 0 -6 0 8 -262144 -1 -1 1
1;
#X obj 204 208 tgl 15 0 empty empty empty 0 -6 0 8 -262144 -1 -1 1
1;
#X obj 222 208 tgl 15 0 empty empty empty 0 -6 0 8 -262144 -1 -1 1
1;
#X obj 308 208 tgl 15 0 empty empty empty 0 -6 0 8 -262144 -1 -1 1
1;
#X obj 273 208 tgl 15 0 empty empty empty 0 -6 0 8 -262144 -1 -1 1
1;
#X obj 290 208 tgl 15 0 empty empty empty 0 -6 0 8 -262144 -1 -1 1
1;
#X text 75 305 analog in 0;
#X text 92 290 analog in 1;
#X text 109 275 analog in 2;
#X text 126 260 analog in 3;
#X text 143 245 analog in 4;
#X text 160 230 analog in 5;
#X text 326 209 digital in 2 - 12;
#X text 52 19 start polling;
#X text 481 22 have fun!;
#X msg 33 64 114 \, 32 \, 100 \, 13;
#X text 154 65 the "poll" command;
#X obj 33 42 metro 40;
#X connect 0 0 2 0;
#X connect 1 0 35 0;
#X connect 2 0 5 0;
#X connect 3 0 2 0;
#X connect 5 0 6 0;
#X connect 6 0 7 0;
#X connect 6 1 8 0;
#X connect 6 2 9 0;
#X connect 6 3 10 0;
#X connect 6 4 11 0;
#X connect 6 5 12 0;
#X connect 6 6 15 0;
#X connect 6 7 16 0;
#X connect 6 8 13 0;
#X connect 6 9 14 0;
#X connect 6 10 19 0;
#X connect 6 11 20 0;
#X connect 6 12 17 0;
#X connect 6 13 18 0;
#X connect 6 14 22 0;
#X connect 6 15 23 0;
#X connect 6 16 21 0;
#X connect 33 0 2 0;
#X connect 35 0 33 0;
