#N canvas 299 181 450 300 10;
#X obj 201 70 inlet;
#X obj 209 131 f;
#X obj 264 132 + 1;
#X obj 217 177 outlet;
#X obj 281 68 inlet;
#X msg 280 95 0;
#X connect 0 0 1 0;
#X connect 1 0 2 0;
#X connect 1 0 3 0;
#X connect 2 0 1 1;
#X connect 4 0 5 0;
#X connect 5 0 1 1;
