#N canvas 703 413 450 300 10;
#X obj 133 64 inlet;
#X obj 264 132 + 1;
#X obj 217 177 outlet;
#X obj 257 63 inlet;
#X obj 133 95 bng 15 250 50 0 empty empty empty 17 7 0 10 -262144 -1
-1;
#X obj 210 131 f 0;
#X floatatom 178 178 5 0 0 0 - - -;
#X obj 309 67 inlet;
#X msg 308 90 0;
#X text 202 38 entree froide;
#X text 353 64 entrée chaude;
#X obj 199 64 inlet;
#X msg 199 96 0;
#X connect 0 0 4 0;
#X connect 1 0 5 1;
#X connect 3 0 5 1;
#X connect 4 0 5 0;
#X connect 5 0 1 0;
#X connect 5 0 2 0;
#X connect 5 0 6 0;
#X connect 7 0 8 0;
#X connect 8 0 5 0;
#X connect 11 0 12 0;
#X connect 12 0 5 1;
