#N canvas 468 475 1329 998 10;
#X obj 355 99 mod 12;
#X floatatom 353 119 5 0 0 0 - - -;
#X obj 220 259 f;
#X obj 252 258 + 1;
#X floatatom 220 288 5 0 0 0 - - -;
#X obj 219 204 bng 15 250 50 0 empty empty empty 17 7 0 10 -262144
-1 -1;
#X msg 245 235 0;
#X floatatom 356 38 5 0 0 0 - - -;
#X obj 355 58 round;
#X floatatom 356 79 5 0 0 0 - - -;
#X obj 363 -77 inlet;
#X obj 1081 -90 inlet;
#X text 1090 -71 bang pour recuperer la liste;
#X msg 722 620;
#X obj 1163 -21 bng 15 250 50 0 empty empty empty 17 7 0 10 -262144
-1 -1;
#X msg 228 346 add2 \$1;
#X obj 226 320 f;
#X obj 240 215 t b b;
#X obj 318 251 f;
#X obj 350 250 + 1;
#X floatatom 318 280 5 0 0 0 - - -;
#X obj 317 196 bng 15 250 50 0 empty empty empty 17 7 0 10 -262144
-1 -1;
#X msg 343 227 0;
#X obj 338 207 t b b;
#X obj 423 251 f;
#X obj 455 250 + 1;
#X floatatom 423 280 5 0 0 0 - - -;
#X obj 422 196 bng 15 250 50 0 empty empty empty 17 7 0 10 -262144
-1 -1;
#X msg 448 227 0;
#X obj 443 207 t b b;
#X obj 523 254 f;
#X obj 555 253 + 1;
#X floatatom 523 283 5 0 0 0 - - -;
#X obj 522 199 bng 15 250 50 0 empty empty empty 17 7 0 10 -262144
-1 -1;
#X msg 548 230 0;
#X obj 543 210 t b b;
#X obj 627 260 f;
#X obj 659 259 + 1;
#X floatatom 627 289 5 0 0 0 - - -;
#X obj 626 205 bng 15 250 50 0 empty empty empty 17 7 0 10 -262144
-1 -1;
#X msg 652 236 0;
#X obj 647 216 t b b;
#X obj 729 262 f;
#X obj 761 261 + 1;
#X floatatom 729 290 5 0 0 0 - - -;
#X obj 728 207 bng 15 250 50 0 empty empty empty 17 7 0 10 -262144
-1 -1;
#X msg 754 238 0;
#X obj 749 218 t b b;
#X obj 818 261 f;
#X obj 850 260 + 1;
#X floatatom 818 290 5 0 0 0 - - -;
#X obj 817 206 bng 15 250 50 0 empty empty empty 17 7 0 10 -262144
-1 -1;
#X msg 843 237 0;
#X obj 838 217 t b b;
#X obj 916 265 f;
#X obj 948 264 + 1;
#X floatatom 916 294 5 0 0 0 - - -;
#X obj 915 210 bng 15 250 50 0 empty empty empty 17 7 0 10 -262144
-1 -1;
#X msg 941 241 0;
#X obj 936 221 t b b;
#X obj 1026 267 f;
#X obj 1058 266 + 1;
#X floatatom 1026 296 5 0 0 0 - - -;
#X obj 1025 212 bng 15 250 50 0 empty empty empty 17 7 0 10 -262144
-1 -1;
#X msg 1051 243 0;
#X obj 1046 223 t b b;
#X obj 1153 266 f;
#X obj 1185 265 + 1;
#X floatatom 1153 295 5 0 0 0 - - -;
#X obj 1152 211 bng 15 250 50 0 empty empty empty 17 7 0 10 -262144
-1 -1;
#X msg 1178 242 0;
#X obj 1173 222 t b b;
#X obj 1254 267 f;
#X obj 1286 266 + 1;
#X floatatom 1254 296 5 0 0 0 - - -;
#X obj 1253 212 bng 15 250 50 0 empty empty empty 17 7 0 10 -262144
-1 -1;
#X msg 1279 243 0;
#X obj 1274 223 t b b;
#X obj 1365 267 f;
#X obj 1397 266 + 1;
#X floatatom 1365 296 5 0 0 0 - - -;
#X obj 1364 212 bng 15 250 50 0 empty empty empty 17 7 0 10 -262144
-1 -1;
#X msg 1390 243 0;
#X obj 1385 223 t b b;
#X msg 325 344 add2 \$1;
#X obj 323 318 f;
#X msg 427 347 add2 \$1;
#X obj 425 321 f;
#X msg 516 352 add2 \$1;
#X obj 519 325 f;
#X msg 631 357 add2 \$1;
#X obj 630 329 f;
#X msg 729 355 add2 \$1;
#X obj 727 329 f;
#X msg 819 356 add2 \$1;
#X obj 817 330 f;
#X msg 921 354 add2 \$1;
#X obj 919 328 f;
#X msg 1025 348 add2 \$1;
#X obj 1023 322 f;
#X msg 1146 348 add2 \$1;
#X obj 1144 322 f;
#X msg 1256 348 add2 \$1;
#X obj 1254 322 f;
#X msg 1362 354 add2 \$1;
#X obj 1360 328 f;
#X obj 573 828 outlet;
#X text 1222 117 add compt to list;
#X text 879 121 reinit compt to 0;
#X obj 1078 26 t b b b b;
#X msg 1050 72 set;
#X obj 354 139 route 0 1 2 3 4 5 6 7 8 9 10 11;
#X obj 844 141 t b b b b b b b b b b b b;
#X obj 1197 140 t b b b b b b b b b b b b;
#X connect 0 0 1 0;
#X connect 1 0 111 0;
#X connect 2 0 3 0;
#X connect 2 0 4 0;
#X connect 3 0 2 1;
#X connect 4 0 16 1;
#X connect 5 0 2 0;
#X connect 6 0 2 1;
#X connect 7 0 8 0;
#X connect 8 0 9 0;
#X connect 9 0 0 0;
#X connect 10 0 7 0;
#X connect 11 0 109 0;
#X connect 13 0 106 0;
#X connect 14 0 109 0;
#X connect 15 0 13 0;
#X connect 16 0 15 0;
#X connect 17 0 2 0;
#X connect 17 1 6 0;
#X connect 18 0 19 0;
#X connect 18 0 20 0;
#X connect 19 0 18 1;
#X connect 20 0 85 1;
#X connect 21 0 18 0;
#X connect 22 0 18 1;
#X connect 23 0 18 0;
#X connect 23 1 22 0;
#X connect 24 0 25 0;
#X connect 24 0 26 0;
#X connect 25 0 24 1;
#X connect 26 0 87 1;
#X connect 27 0 24 0;
#X connect 28 0 24 1;
#X connect 29 0 24 0;
#X connect 29 1 28 0;
#X connect 30 0 31 0;
#X connect 30 0 32 0;
#X connect 31 0 30 1;
#X connect 32 0 89 1;
#X connect 33 0 30 0;
#X connect 34 0 30 1;
#X connect 35 0 30 0;
#X connect 35 1 34 0;
#X connect 36 0 37 0;
#X connect 36 0 38 0;
#X connect 37 0 36 1;
#X connect 38 0 91 1;
#X connect 39 0 36 0;
#X connect 40 0 36 1;
#X connect 41 0 36 0;
#X connect 41 1 40 0;
#X connect 42 0 43 0;
#X connect 42 0 44 0;
#X connect 43 0 42 1;
#X connect 44 0 93 1;
#X connect 45 0 42 0;
#X connect 46 0 42 1;
#X connect 47 0 42 0;
#X connect 47 1 46 0;
#X connect 48 0 49 0;
#X connect 48 0 50 0;
#X connect 49 0 48 1;
#X connect 50 0 95 1;
#X connect 51 0 48 0;
#X connect 52 0 48 1;
#X connect 53 0 48 0;
#X connect 53 1 52 0;
#X connect 54 0 55 0;
#X connect 54 0 56 0;
#X connect 55 0 54 1;
#X connect 56 0 97 1;
#X connect 57 0 54 0;
#X connect 58 0 54 1;
#X connect 59 0 54 0;
#X connect 59 1 58 0;
#X connect 60 0 61 0;
#X connect 60 0 62 0;
#X connect 61 0 60 1;
#X connect 62 0 99 1;
#X connect 63 0 60 0;
#X connect 64 0 60 1;
#X connect 65 0 60 0;
#X connect 65 1 64 0;
#X connect 66 0 67 0;
#X connect 66 0 68 0;
#X connect 67 0 66 1;
#X connect 68 0 101 1;
#X connect 69 0 66 0;
#X connect 70 0 66 1;
#X connect 71 0 66 0;
#X connect 71 1 70 0;
#X connect 72 0 73 0;
#X connect 72 0 74 0;
#X connect 73 0 72 1;
#X connect 74 0 103 1;
#X connect 75 0 72 0;
#X connect 76 0 72 1;
#X connect 77 0 72 0;
#X connect 77 1 76 0;
#X connect 78 0 79 0;
#X connect 78 0 80 0;
#X connect 79 0 78 1;
#X connect 80 0 105 1;
#X connect 81 0 78 0;
#X connect 82 0 78 1;
#X connect 83 0 78 0;
#X connect 83 1 82 0;
#X connect 84 0 13 0;
#X connect 85 0 84 0;
#X connect 86 0 13 0;
#X connect 87 0 86 0;
#X connect 88 0 13 0;
#X connect 89 0 88 0;
#X connect 90 0 13 0;
#X connect 91 0 90 0;
#X connect 92 0 13 0;
#X connect 93 0 92 0;
#X connect 94 0 13 0;
#X connect 95 0 94 0;
#X connect 96 0 13 0;
#X connect 97 0 96 0;
#X connect 98 0 13 0;
#X connect 99 0 98 0;
#X connect 100 0 13 0;
#X connect 101 0 100 0;
#X connect 102 0 13 0;
#X connect 103 0 102 0;
#X connect 104 0 13 0;
#X connect 105 0 104 0;
#X connect 109 0 112 0;
#X connect 109 1 110 0;
#X connect 109 2 13 0;
#X connect 109 3 113 0;
#X connect 110 0 13 0;
#X connect 111 0 5 0;
#X connect 111 1 21 0;
#X connect 111 2 27 0;
#X connect 111 3 33 0;
#X connect 111 4 39 0;
#X connect 111 5 45 0;
#X connect 111 6 51 0;
#X connect 111 7 57 0;
#X connect 111 8 63 0;
#X connect 111 9 69 0;
#X connect 111 10 75 0;
#X connect 111 11 81 0;
#X connect 112 0 17 0;
#X connect 112 1 23 0;
#X connect 112 2 29 0;
#X connect 112 3 35 0;
#X connect 112 4 41 0;
#X connect 112 5 47 0;
#X connect 112 6 53 0;
#X connect 112 7 59 0;
#X connect 112 8 65 0;
#X connect 112 9 71 0;
#X connect 112 10 77 0;
#X connect 112 11 83 0;
#X connect 113 0 105 0;
#X connect 113 1 103 0;
#X connect 113 2 101 0;
#X connect 113 3 99 0;
#X connect 113 4 97 0;
#X connect 113 5 95 0;
#X connect 113 6 93 0;
#X connect 113 7 91 0;
#X connect 113 8 89 0;
#X connect 113 9 87 0;
#X connect 113 10 85 0;
#X connect 113 11 16 0;
