#N canvas 980 102 927 998 10;
#X obj 245 96 adc~;
#X obj 317 79 loadbang;
#X obj 319 107 t b b b;
#X msg 376 141 debounce 0;
#X obj 322 211 bonk~;
#X msg 350 163 thresh 20 100;
#X msg 335 184 minvel 50;
#X obj 325 57 bng 15 250 50 0 empty empty empty 17 7 0 10 -262144 -1
-1;
#X obj 351 236 unpack f f;
#X obj 402 308 bng 15 250 50 0 empty empty empty 17 7 0 10 -262144
-1 -1;
#X obj 369 308 bng 15 250 50 0 empty empty empty 17 7 0 10 -262144
-1 -1;
#X obj 373 357 timer;
#X floatatom 373 400 5 0 0 0 - - -;
#X msg 439 299 bang;
#X obj 458 363 bng 15 250 50 0 empty empty empty 17 7 0 10 -262144
-1 -1;
#X obj 457 332 delay 1000;
#X obj 352 258 t f b b b b;
#X obj 618 213 f 0;
#X obj 654 212 + 1;
#X obj 618 187 bng 15 250 50 0 empty empty empty 17 7 0 10 -262144
-1 -1;
#X obj 622 236 t f f;
#X floatatom 605 281 5 0 0 0 - - -;
#X msg 650 177 0;
#X obj 622 261 moses 10;
#X msg 486 302 stop;
#X obj 669 284 t b b f;
#X text 518 355 limite temps entre deux pics;
#X text 705 227 limite du nombre de pics dans la meme sequence;
#X obj 341 609 print [sequence];
#X text 89 879 reussi a afficher dans un tableau voir comment utiliser
list plutot que qlist et comment la traiter;
#X msg 521 565 63.4141 966.531 61.9242 342.494 119.174;
#X obj 492 666 zl slice 2;
#X obj 538 799 delay;
#X obj 538 821 bng 15 250 50 0 empty empty empty 17 7 0 10 -262144
-1 -1;
#X msg 623 774 set;
#X msg 540 861 \, 68.1939 stop;
#X msg 512 735 68.1939 stop;
#X obj 603 812 add2_comma;
#X obj 617 748 t l b;
#X obj 417 845 bng 15 250 50 0 empty empty empty 17 7 0 10 -262144
-1 -1;
#X floatatom 486 803 5 0 0 0 - - -;
#X obj 440 884 print [test];
#X obj 460 386 t b b b b;
#X obj 539 483 bng 15 250 50 0 empty empty empty 17 7 0 10 -262144
-1 -1;
#X msg 504 486 set;
#X obj 350 516 bng 15 250 50 0 empty empty empty 17 7 0 10 -262144
-1 -1;
#X obj 292 524 bng 15 250 50 0 empty empty empty 17 7 0 10 -262144
-1 -1;
#X obj 333 440 pack f f f;
#X msg 381 507 add2 \$3 \$2;
#X obj 321 484 route 1;
#X msg 322 542 add2 \$1;
#X msg 319 461 \$2 \$1 \$3;
#X msg 596 522 add2 stop;
#X msg 540 713 set \$1 \$2;
#X obj 581 481 bng 15 250 50 0 empty empty empty 17 7 0 10 -262144
-1 -1;
#X msg 493 760 \$1;
#X obj 490 782 f;
#X msg 532 765 \$2;
#X obj 510 688 t b a;
#X text 676 676 decodeur valeur retourne une valeur tous tous les intervalles
entre deux pics;
#X obj 162 846 dac~;
#X msg 160 784 open ./echantillon/bip.wav \, start;
#X obj 163 805 readsf~;
#X obj 213 834 *~;
#X obj 272 849 / 130;
#X connect 0 1 4 0;
#X connect 1 0 2 0;
#X connect 2 0 6 0;
#X connect 2 1 5 0;
#X connect 2 2 3 0;
#X connect 3 0 4 0;
#X connect 4 1 8 0;
#X connect 5 0 4 0;
#X connect 6 0 4 0;
#X connect 7 0 1 0;
#X connect 8 1 16 0;
#X connect 9 0 11 1;
#X connect 10 0 11 0;
#X connect 11 0 12 0;
#X connect 12 0 47 2;
#X connect 13 0 15 0;
#X connect 14 0 42 0;
#X connect 15 0 14 0;
#X connect 16 0 47 0;
#X connect 16 1 10 0;
#X connect 16 2 9 0;
#X connect 16 3 13 0;
#X connect 16 4 17 0;
#X connect 17 0 20 0;
#X connect 18 0 17 1;
#X connect 19 0 17 0;
#X connect 20 0 23 0;
#X connect 20 1 18 0;
#X connect 21 0 47 1;
#X connect 22 0 17 0;
#X connect 23 0 21 0;
#X connect 23 1 25 0;
#X connect 24 0 15 0;
#X connect 25 0 14 0;
#X connect 25 1 24 0;
#X connect 25 2 22 0;
#X connect 30 0 28 0;
#X connect 30 0 31 0;
#X connect 31 0 58 0;
#X connect 31 1 38 0;
#X connect 32 0 33 0;
#X connect 33 0 35 0;
#X connect 34 0 35 0;
#X connect 35 0 31 0;
#X connect 36 0 55 0;
#X connect 36 0 57 0;
#X connect 37 0 35 0;
#X connect 38 0 37 0;
#X connect 38 1 34 0;
#X connect 39 0 61 0;
#X connect 40 0 39 0;
#X connect 40 0 41 0;
#X connect 40 0 64 0;
#X connect 42 0 44 0;
#X connect 42 1 43 0;
#X connect 42 2 22 0;
#X connect 42 2 54 0;
#X connect 43 0 30 0;
#X connect 44 0 30 0;
#X connect 47 0 51 0;
#X connect 48 0 30 0;
#X connect 49 0 46 0;
#X connect 49 0 50 0;
#X connect 49 1 45 0;
#X connect 49 1 48 0;
#X connect 50 0 30 0;
#X connect 51 0 49 0;
#X connect 52 0 30 0;
#X connect 53 0 36 0;
#X connect 54 0 52 0;
#X connect 55 0 56 0;
#X connect 56 0 40 0;
#X connect 57 0 32 0;
#X connect 58 0 36 0;
#X connect 58 1 53 0;
#X connect 61 0 62 0;
#X connect 62 0 63 0;
#X connect 63 0 60 0;
#X connect 63 0 60 1;
#X connect 64 0 63 1;
