#N canvas 986 92 927 998 10;
#X floatatom 1074 496 5 0 0 0 - - -;
#X floatatom 1039 496 5 0 0 0 - - -;
#X obj 1038 476 f;
#X obj 1009 663 gaten;
#X floatatom 1005 604 5 0 0 0 - - -;
#X obj 1006 582 rmstodb;
#X obj 1049 405 loadbang;
#X msg 1075 456 10;
#X obj 1049 425 t b b;
#X obj 956 762 loadbang;
#X obj 956 806 metro 100;
#X obj 966 786 tgl 15 0 empty empty empty 17 7 0 10 -262144 -1 -1 1
1;
#X obj 1053 943 unpack;
#X floatatom 1053 990 0 0 0 0 - - -;
#X floatatom 1067 970 0 0 0 0 - - -;
#X obj 1112 919 route 1 2 3 4;
#X obj 1129 951 unpack;
#X floatatom 1128 996 0 0 0 0 - - -;
#X floatatom 1143 978 0 0 0 0 - - -;
#X obj 1201 953 unpack;
#X floatatom 1217 1005 0 0 0 0 - - -;
#X floatatom 1224 986 0 0 0 0 - - -;
#X floatatom 1055 914 0 0 0 0 - - -;
#X obj 1064 887 fiddle~ 1024 1 20 3;
#X obj 1078 785 bng 15 250 50 0 empty empty empty 17 7 0 10 -262144
-1 -1;
#X obj 1093 835 mod 2;
#X msg 1096 860 auto \$1;
#X floatatom 1130 1075 10 0 0 0 - - -;
#X obj 1104 790 bng 15 250 50 0 empty empty empty 17 7 0 10 -262144
-1 -1;
#X obj 1103 769 loadbang;
#X obj 1005 559 env~;
#X obj 1095 83 inlet~;
#N canvas 0 0 450 300 (subpatch) 0;
#X array 3bp800 441 float 3;
#A 0 0 0 0 0 0 0 0 0 0 0 0 0 0 0 0 0 0 0 0 0 0 0 0 0 0 0 0 0 0 0 0
0 0 0 0 0 0 0 0 0 0 0 0 0 0 0 0 0 0 0 0 0 0 0 0 0 0 0 0 0 0 0 0 0 0
0 0 0 0 0 0 0 0 0 0 0 0 0 0 0 0 0 0 0 0 0 0 0 0 0 0 0 0 0 0 0 0 0 0
0 0 0 0 0 0 0 0 0 0 0 0 0 0 0 0 0 0 0 0 0 0 0 0 0 0 0 0 0 0 0 0 0 0
0 0 0 0 0 0 0 0 0 0 0 0 0 0 0 0 0 0 0 0 0 0 0 0 0 0 0 0 0 0 0 0 0 0
0 0 0 0 0 0 0 0 0 0 0 0 0 0 0 0 0 0 0 0 0 0 0 0 0 0 0 0 0 0 0 0 0 0
0 0 0 0 0 0 0 0 0 0 0 0 0 0 0 0 0 0 0 0 0 0 0 0 0 0 0 0 0 0 0 0 0 0
0 0 0 0 0 0 0 0 0 0 0 0 0 0 0 0 0 0 0 0 0 0 0 0 0 0 0 0 0 0 0 0 0 0
0 0 0 0 0 0 0 0 0 0 0 0 0 0 0 0 0 0 0 0 0 0 0 0 0 0 0 0 0 0 0 0 0 0
0 0 0 0 0 0 0 0 0 0 0 0 0 0 0 0 0 0 0 0 0 0 0 0 0 0 0 0 0 0 0 0 0 0
0 0 0 0 0 0 0 0 0 0 0 0 0 0 0 0 0 0 0 0 0 0 0 0 0 0 0 0 0 0 0 0 0 0
0 0 0 0 0 0 0 0 0 0 0 0 0 0 0 0 0 0 0 0 0 0 0 0 0 0 0 0 0 0 0 0 0 0
0 0 0 0 0 0 0 0 0 0 0 0 0 0 0 0 0 0 0 0 0 0 0 0 0 0 0 0 0 0 0 0 0 0
0 0;
#X coords 0 1 441 -1 200 140 1 0 0;
#X restore 1019 1121 graph;
#X obj 193 1511 comptNote;
#X obj 186 1424 ftom;
#X floatatom 187 1483 5 0 0 0 - - -;
#X obj 245 1458 loadbang;
#X floatatom 1345 499 5 0 0 0 - - -;
#X floatatom 1310 499 5 0 0 0 - - -;
#X obj 1309 479 f;
#X floatatom 1333 605 5 0 0 0 - - -;
#X obj 1280 666 gaten;
#X obj 1334 624 rmstodb;
#X floatatom 1334 644 5 0 0 0 - - -;
#X floatatom 1290 617 5 0 0 0 - - -;
#X obj 1277 585 rmstodb;
#X obj 1320 408 loadbang;
#X msg 1346 459 10;
#X obj 1320 428 t b b;
#X obj 1208 784 loadbang;
#X obj 1208 828 metro 100;
#X obj 1218 808 tgl 15 0 empty empty empty 17 7 0 10 -262144 -1 -1
1 1;
#X obj 1324 946 unpack;
#X floatatom 1324 993 0 0 0 0 - - -;
#X floatatom 1338 973 0 0 0 0 - - -;
#X obj 1383 922 route 1 2 3 4;
#X obj 1400 954 unpack;
#X floatatom 1399 999 0 0 0 0 - - -;
#X floatatom 1414 981 0 0 0 0 - - -;
#X obj 1472 956 unpack;
#X floatatom 1491 1003 0 0 0 0 - - -;
#X floatatom 1498 984 0 0 0 0 - - -;
#X floatatom 1326 917 0 0 0 0 - - -;
#X obj 1335 890 fiddle~ 1024 1 20 3;
#X obj 1349 788 bng 15 250 50 0 empty empty empty 17 7 0 10 -262144
-1 -1;
#X obj 1364 838 mod 2;
#X msg 1367 863 auto \$1;
#X floatatom 1400 1083 5 0 0 0 - - -;
#X obj 1375 793 bng 15 250 50 0 empty empty empty 17 7 0 10 -262144
-1 -1;
#X obj 1374 772 loadbang;
#X obj 1337 584 env~;
#X obj 1276 562 env~;
#N canvas 0 0 450 300 (subpatch) 0;
#X array 3bp1600 441 float 3;
#A 0 0 0 0 0 0 0 0 0 0 0 0 0 0 0 0 0 0 0 0 0 0 0 0 0 0 0 0 0 0 0 0
0 0 0 0 0 0 0 0 0 0 0 0 0 0 0 0 0 0 0 0 0 0 0 0 0 0 0 0 0 0 0 0 0 0
0 0 0 0 0 0 0 0 0 0 0 0 0 0 0 0 0 0 0 0 0 0 0 0 0 0 0 0 0 0 0 0 0 0
0 0 0 0 0 0 0 0 0 0 0 0 0 0 0 0 0 0 0 0 0 0 0 0 0 0 0 0 0 0 0 0 0 0
0 0 0 0 0 0 0 0 0 0 0 0 0 0 0 0 0 0 0 0 0 0 0 0 0 0 0 0 0 0 0 0 0 0
0 0 0 0 0 0 0 0 0 0 0 0 0 0 0 0 0 0 0 0 0 0 0 0 0 0 0 0 0 0 0 0 0 0
0 0 0 0 0 0 0 0 0 0 0 0 0 0 0 0 0 0 0 0 0 0 0 0 0 0 0 0 0 0 0 0 0 0
0 0 0 0 0 0 0 0 0 0 0 0 0 0 0 0 0 0 0 0 0 0 0 0 0 0 0 0 0 0 0 0 0 0
0 0 0 0 0 0 0 0 0 0 0 0 0 0 0 0 0 0 0 0 0 0 0 0 0 0 0 0 0 0 0 0 0 0
0 0 0 0 0 0 0 0 0 0 0 0 0 0 0 0 0 0 0 0 0 0 0 0 0 0 0 0 0 0 0 0 0 0
0 0 0 0 0 0 0 0 0 0 0 0 0 0 0 0 0 0 0 0 0 0 0 0 0 0 0 0 0 0 0 0 0 0
0 0 0 0 0 0 0 0 0 0 0 0 0 0 0 0 0 0 0 0 0 0 0 0 0 0 0 0 0 0 0 0 0 0
0 0 0 0 0 0 0 0 0 0 0 0 0 0 0 0 0 0 0 0 0 0 0 0 0 0 0 0 0 0 0 0 0 0
0 0;
#X coords 0 1 441 -1 200 140 1 0 0;
#X restore 1290 1124 graph;
#X floatatom 1613 501 5 0 0 0 - - -;
#X floatatom 1578 501 5 0 0 0 - - -;
#X obj 1577 481 f;
#X obj 1548 668 gaten;
#X floatatom 1555 614 5 0 0 0 - - -;
#X obj 1545 587 rmstodb;
#X obj 1588 410 loadbang;
#X msg 1614 461 10;
#X obj 1588 430 t b b;
#X obj 1464 738 loadbang;
#X obj 1464 782 metro 100;
#X obj 1474 762 tgl 15 0 empty empty empty 17 7 0 10 -262144 -1 -1
1 1;
#X obj 1592 948 unpack;
#X floatatom 1592 995 0 0 0 0 - - -;
#X floatatom 1606 975 0 0 0 0 - - -;
#X obj 1651 924 route 1 2 3 4;
#X obj 1668 956 unpack;
#X floatatom 1667 1001 0 0 0 0 - - -;
#X floatatom 1682 983 0 0 0 0 - - -;
#X obj 1740 958 unpack;
#X floatatom 1771 1010 0 0 0 0 - - -;
#X floatatom 1778 991 0 0 0 0 - - -;
#X floatatom 1594 919 0 0 0 0 - - -;
#X obj 1603 892 fiddle~ 1024 1 20 3;
#X obj 1617 790 bng 15 250 50 0 empty empty empty 17 7 0 10 -262144
-1 -1;
#X obj 1632 840 mod 2;
#X msg 1635 865 auto \$1;
#X floatatom 1668 1085 5 0 0 0 - - -;
#X obj 1643 795 bng 15 250 50 0 empty empty empty 17 7 0 10 -262144
-1 -1;
#X obj 1642 774 loadbang;
#X obj 1544 564 env~;
#N canvas 0 0 450 300 (subpatch) 0;
#X array 3bp3200 441 float 3;
#A 0 0 0 0 0 0 0 0 0 0 0 0 0 0 0 0 0 0 0 0 0 0 0 0 0 0 0 0 0 0 0 0
0 0 0 0 0 0 0 0 0 0 0 0 0 0 0 0 0 0 0 0 0 0 0 0 0 0 0 0 0 0 0 0 0 0
0 0 0 0 0 0 0 0 0 0 0 0 0 0 0 0 0 0 0 0 0 0 0 0 0 0 0 0 0 0 0 0 0 0
0 0 0 0 0 0 0 0 0 0 0 0 0 0 0 0 0 0 0 0 0 0 0 0 0 0 0 0 0 0 0 0 0 0
0 0 0 0 0 0 0 0 0 0 0 0 0 0 0 0 0 0 0 0 0 0 0 0 0 0 0 0 0 0 0 0 0 0
0 0 0 0 0 0 0 0 0 0 0 0 0 0 0 0 0 0 0 0 0 0 0 0 0 0 0 0 0 0 0 0 0 0
0 0 0 0 0 0 0 0 0 0 0 0 0 0 0 0 0 0 0 0 0 0 0 0 0 0 0 0 0 0 0 0 0 0
0 0 0 0 0 0 0 0 0 0 0 0 0 0 0 0 0 0 0 0 0 0 0 0 0 0 0 0 0 0 0 0 0 0
0 0 0 0 0 0 0 0 0 0 0 0 0 0 0 0 0 0 0 0 0 0 0 0 0 0 0 0 0 0 0 0 0 0
0 0 0 0 0 0 0 0 0 0 0 0 0 0 0 0 0 0 0 0 0 0 0 0 0 0 0 0 0 0 0 0 0 0
0 0 0 0 0 0 0 0 0 0 0 0 0 0 0 0 0 0 0 0 0 0 0 0 0 0 0 0 0 0 0 0 0 0
0 0 0 0 0 0 0 0 0 0 0 0 0 0 0 0 0 0 0 0 0 0 0 0 0 0 0 0 0 0 0 0 0 0
0 0 0 0 0 0 0 0 0 0 0 0 0 0 0 0 0 0 0 0 0 0 0 0 0 0 0 0 0 0 0 0 0 0
0 0;
#X coords 0 1 441 -1 200 140 1 0 0;
#X restore 1558 1126 graph;
#X floatatom 786 497 5 0 0 0 - - -;
#X floatatom 751 497 5 0 0 0 - - -;
#X obj 750 477 f;
#X obj 705 666 gaten;
#X floatatom 732 608 5 0 0 0 - - -;
#X obj 718 583 rmstodb;
#X obj 761 406 loadbang;
#X msg 787 457 10;
#X obj 761 426 t b b;
#X obj 616 740 loadbang;
#X obj 616 784 metro 100;
#X obj 626 764 tgl 15 0 empty empty empty 17 7 0 10 -262144 -1 -1 1
1;
#X obj 765 944 unpack;
#X floatatom 765 991 0 0 0 0 - - -;
#X floatatom 779 971 0 0 0 0 - - -;
#X obj 824 920 route 1 2 3 4;
#X obj 841 952 unpack;
#X floatatom 840 997 0 0 0 0 - - -;
#X floatatom 855 979 0 0 0 0 - - -;
#X obj 913 954 unpack;
#X floatatom 943 1004 0 0 0 0 - - -;
#X floatatom 950 985 0 0 0 0 - - -;
#X floatatom 767 915 0 0 0 0 - - -;
#X obj 776 888 fiddle~ 1024 1 20 3;
#X obj 790 786 bng 15 250 50 0 empty empty empty 17 7 0 10 -262144
-1 -1;
#X obj 805 836 mod 2;
#X msg 801 856 auto \$1;
#X floatatom 841 1081 5 0 0 0 - - -;
#X obj 816 791 bng 15 250 50 0 empty empty empty 17 7 0 10 -262144
-1 -1;
#X obj 815 770 loadbang;
#X obj 717 560 env~;
#N canvas 65 82 450 300 (subpatch) 0;
#X array 3bp400 441 float 3;
#A 0 0 0 0 0 0 0 0 0 0 0 0 0 0 0 0 0 0 0 0 0 0 0 0 0 0 0 0 0 0 0 0
0 0 0 0 0 0 0 0 0 0 0 0 0 0 0 0 0 0 0 0 0 0 0 0 0 0 0 0 0 0 0 0 0 0
0 0 0 0 0 0 0 0 0 0 0 0 0 0 0 0 0 0 0 0 0 0 0 0 0 0 0 0 0 0 0 0 0 0
0 0 0 0 0 0 0 0 0 0 0 0 0 0 0 0 0 0 0 0 0 0 0 0 0 0 0 0 0 0 0 0 0 0
0 0 0 0 0 0 0 0 0 0 0 0 0 0 0 0 0 0 0 0 0 0 0 0 0 0 0 0 0 0 0 0 0 0
0 0 0 0 0 0 0 0 0 0 0 0 0 0 0 0 0 0 0 0 0 0 0 0 0 0 0 0 0 0 0 0 0 0
0 0 0 0 0 0 0 0 0 0 0 0 0 0 0 0 0 0 0 0 0 0 0 0 0 0 0 0 0 0 0 0 0 0
0 0 0 0 0 0 0 0 0 0 0 0 0 0 0 0 0 0 0 0 0 0 0 0 0 0 0 0 0 0 0 0 0 0
0 0 0 0 0 0 0 0 0 0 0 0 0 0 0 0 0 0 0 0 0 0 0 0 0 0 0 0 0 0 0 0 0 0
0 0 0 0 0 0 0 0 0 0 0 0 0 0 0 0 0 0 0 0 0 0 0 0 0 0 0 0 0 0 0 0 0 0
0 0 0 0 0 0 0 0 0 0 0 0 0 0 0 0 0 0 0 0 0 0 0 0 0 0 0 0 0 0 0 0 0 0
0 0 0 0 0 0 0 0 0 0 0 0 0 0 0 0 0 0 0 0 0 0 0 0 0 0 0 0 0 0 0 0 0 0
0 0 0 0 0 0 0 0 0 0 0 0 0 0 0 0 0 0 0 0 0 0 0 0 0 0 0 0 0 0 0 0 0 0
0 0;
#X coords 0 1 441 -1 200 140 1 0 0;
#X restore 731 1122 graph;
#X floatatom 493 497 5 0 0 0 - - -;
#X floatatom 458 497 5 0 0 0 - - -;
#X obj 457 477 f;
#X obj 428 664 gaten;
#X floatatom 424 605 5 0 0 0 - - -;
#X obj 425 583 rmstodb;
#X obj 468 406 loadbang;
#X msg 494 457 10;
#X obj 468 426 t b b;
#X obj 357 765 loadbang;
#X obj 357 809 metro 100;
#X obj 367 789 tgl 15 0 empty empty empty 17 7 0 10 -262144 -1 -1 1
1;
#X obj 472 944 unpack;
#X floatatom 472 991 0 0 0 0 - - -;
#X floatatom 486 971 0 0 0 0 - - -;
#X obj 531 920 route 1 2 3 4;
#X obj 548 952 unpack;
#X floatatom 547 997 0 0 0 0 - - -;
#X floatatom 562 979 0 0 0 0 - - -;
#X obj 620 954 unpack;
#X floatatom 644 1005 0 0 0 0 - - -;
#X floatatom 651 986 0 0 0 0 - - -;
#X floatatom 474 915 0 0 0 0 - - -;
#X obj 483 888 fiddle~ 1024 1 20 3;
#X obj 497 786 bng 15 250 50 0 empty empty empty 17 7 0 10 -262144
-1 -1;
#X obj 512 836 mod 2;
#X msg 515 861 auto \$1;
#X floatatom 548 1081 5 0 0 0 - - -;
#X obj 523 791 bng 15 250 50 0 empty empty empty 17 7 0 10 -262144
-1 -1;
#X obj 522 770 loadbang;
#X obj 424 560 env~;
#N canvas 0 0 450 300 (subpatch) 0;
#X array 3bp200 441 float 3;
#A 0 0 0 0 0 0 0 0 0 0 0 0 0 0 0 0 0 0 0 0 0 0 0 0 0 0 0 0 0 0 0 0
0 0 0 0 0 0 0 0 0 0 0 0 0 0 0 0 0 0 0 0 0 0 0 0 0 0 0 0 0 0 0 0 0 0
0 0 0 0 0 0 0 0 0 0 0 0 0 0 0 0 0 0 0 0 0 0 0 0 0 0 0 0 0 0 0 0 0 0
0 0 0 0 0 0 0 0 0 0 0 0 0 0 0 0 0 0 0 0 0 0 0 0 0 0 0 0 0 0 0 0 0 0
0 0 0 0 0 0 0 0 0 0 0 0 0 0 0 0 0 0 0 0 0 0 0 0 0 0 0 0 0 0 0 0 0 0
0 0 0 0 0 0 0 0 0 0 0 0 0 0 0 0 0 0 0 0 0 0 0 0 0 0 0 0 0 0 0 0 0 0
0 0 0 0 0 0 0 0 0 0 0 0 0 0 0 0 0 0 0 0 0 0 0 0 0 0 0 0 0 0 0 0 0 0
0 0 0 0 0 0 0 0 0 0 0 0 0 0 0 0 0 0 0 0 0 0 0 0 0 0 0 0 0 0 0 0 0 0
0 0 0 0 0 0 0 0 0 0 0 0 0 0 0 0 0 0 0 0 0 0 0 0 0 0 0 0 0 0 0 0 0 0
0 0 0 0 0 0 0 0 0 0 0 0 0 0 0 0 0 0 0 0 0 0 0 0 0 0 0 0 0 0 0 0 0 0
0 0 0 0 0 0 0 0 0 0 0 0 0 0 0 0 0 0 0 0 0 0 0 0 0 0 0 0 0 0 0 0 0 0
0 0 0 0 0 0 0 0 0 0 0 0 0 0 0 0 0 0 0 0 0 0 0 0 0 0 0 0 0 0 0 0 0 0
0 0 0 0 0 0 0 0 0 0 0 0 0 0 0 0 0 0 0 0 0 0 0 0 0 0 0 0 0 0 0 0 0 0
0 0;
#X coords 0 1 441 -1 200 140 1 0 0;
#X restore 438 1122 graph;
#X floatatom 207 502 5 0 0 0 - - -;
#X floatatom 172 502 5 0 0 0 - - -;
#X obj 171 482 f;
#X obj 142 669 gaten;
#X floatatom 138 610 5 0 0 0 - - -;
#X obj 139 588 rmstodb;
#X obj 182 411 loadbang;
#X msg 208 462 10;
#X obj 182 431 t b b;
#X obj 62 732 loadbang;
#X obj 62 776 metro 100;
#X obj 72 756 tgl 15 0 empty empty empty 17 7 0 10 -262144 -1 -1 1
1;
#X obj 186 949 unpack;
#X floatatom 186 996 0 0 0 0 - - -;
#X floatatom 200 976 0 0 0 0 - - -;
#X obj 245 925 route 1 2 3 4;
#X obj 262 957 unpack;
#X floatatom 261 1002 0 0 0 0 - - -;
#X floatatom 276 984 0 0 0 0 - - -;
#X obj 334 959 unpack;
#X floatatom 362 1008 0 0 0 0 - - -;
#X floatatom 369 989 0 0 0 0 - - -;
#X floatatom 188 920 0 0 0 0 - - -;
#X obj 197 893 fiddle~ 1024 1 20 3;
#X obj 211 791 bng 15 250 50 0 empty empty empty 17 7 0 10 -262144
-1 -1;
#X obj 226 841 mod 2;
#X msg 229 866 auto \$1;
#X floatatom 262 1086 5 0 0 0 - - -;
#X obj 237 796 bng 15 250 50 0 empty empty empty 17 7 0 10 -262144
-1 -1;
#X obj 236 775 loadbang;
#X obj 138 565 env~;
#N canvas 0 0 450 300 (subpatch) 0;
#X array 3bp100 441 float 3;
#A 0 0 0 0 0 0 0 0 0 0 0 0 0 0 0 0 0 0 0 0 0 0 0 0 0 0 0 0 0 0 0 0
0 0 0 0 0 0 0 0 0 0 0 0 0 0 0 0 0 0 0 0 0 0 0 0 0 0 0 0 0 0 0 0 0 0
0 0 0 0 0 0 0 0 0 0 0 0 0 0 0 0 0 0 0 0 0 0 0 0 0 0 0 0 0 0 0 0 0 0
0 0 0 0 0 0 0 0 0 0 0 0 0 0 0 0 0 0 0 0 0 0 0 0 0 0 0 0 0 0 0 0 0 0
0 0 0 0 0 0 0 0 0 0 0 0 0 0 0 0 0 0 0 0 0 0 0 0 0 0 0 0 0 0 0 0 0 0
0 0 0 0 0 0 0 0 0 0 0 0 0 0 0 0 0 0 0 0 0 0 0 0 0 0 0 0 0 0 0 0 0 0
0 0 0 0 0 0 0 0 0 0 0 0 0 0 0 0 0 0 0 0 0 0 0 0 0 0 0 0 0 0 0 0 0 0
0 0 0 0 0 0 0 0 0 0 0 0 0 0 0 0 0 0 0 0 0 0 0 0 0 0 0 0 0 0 0 0 0 0
0 0 0 0 0 0 0 0 0 0 0 0 0 0 0 0 0 0 0 0 0 0 0 0 0 0 0 0 0 0 0 0 0 0
0 0 0 0 0 0 0 0 0 0 0 0 0 0 0 0 0 0 0 0 0 0 0 0 0 0 0 0 0 0 0 0 0 0
0 0 0 0 0 0 0 0 0 0 0 0 0 0 0 0 0 0 0 0 0 0 0 0 0 0 0 0 0 0 0 0 0 0
0 0 0 0 0 0 0 0 0 0 0 0 0 0 0 0 0 0 0 0 0 0 0 0 0 0 0 0 0 0 0 0 0 0
0 0 0 0 0 0 0 0 0 0 0 0 0 0 0 0 0 0 0 0 0 0 0 0 0 0 0 0 0 0 0 0 0 0
0 0;
#X coords 0 1 441 -1 200 140 1 0 0;
#X restore 120 1133 graph;
#X obj 146 530 bp~ 100 10;
#X msg 172 462 100;
#X obj 61 801 tabwrite~ 3bp100;
#X obj 432 524 bp~ 200 10;
#X obj 356 834 tabwrite~ 3bp200;
#X obj 724 525 bp~ 400 10;
#X obj 615 808 tabwrite~ 3bp400;
#X obj 1013 524 bp~ 800 10;
#X obj 955 831 tabwrite~ 3bp800;
#X obj 260 1040 moses 50;
#X obj 1284 527 bp~ 1600 10;
#X obj 1207 853 tabwrite~ 3bp1600;
#X obj 1552 529 bp~ 3200 10;
#X obj 1463 807 tabwrite~ 3bp3200;
#X msg 1039 456 800;
#X msg 1313 453 1600;
#X msg 1578 461 3200;
#X msg 751 457 400;
#X msg 457 457 200;
#X floatatom 1955 498 5 0 0 0 - - -;
#X floatatom 1920 498 5 0 0 0 - - -;
#X obj 1919 478 f;
#X obj 1890 665 gaten;
#X floatatom 1886 606 5 0 0 0 - - -;
#X obj 1887 584 rmstodb;
#X obj 1930 407 loadbang;
#X msg 1956 458 10;
#X obj 1930 427 t b b;
#X obj 1810 750 loadbang;
#X obj 1810 794 metro 100;
#X obj 1820 774 tgl 15 0 empty empty empty 17 7 0 10 -262144 -1 -1
1 1;
#X obj 1934 945 unpack;
#X floatatom 1934 992 0 0 0 0 - - -;
#X floatatom 1948 972 0 0 0 0 - - -;
#X obj 1993 921 route 1 2 3 4;
#X obj 2010 953 unpack;
#X floatatom 2009 998 0 0 0 0 - - -;
#X floatatom 2024 980 0 0 0 0 - - -;
#X obj 2082 955 unpack;
#X floatatom 2110 1004 0 0 0 0 - - -;
#X floatatom 2117 985 0 0 0 0 - - -;
#X floatatom 1936 916 0 0 0 0 - - -;
#X obj 1945 889 fiddle~ 1024 1 20 3;
#X obj 1959 787 bng 15 250 50 0 empty empty empty 17 7 0 10 -262144
-1 -1;
#X obj 1974 837 mod 2;
#X msg 1977 862 auto \$1;
#X floatatom 2010 1082 5 0 0 0 - - -;
#X obj 1985 792 bng 15 250 50 0 empty empty empty 17 7 0 10 -262144
-1 -1;
#X obj 1984 771 loadbang;
#X obj 1886 561 env~;
#N canvas 0 0 450 300 (subpatch) 0;
#X array 3bp6400 441 float 3;
#A 0 0 0 0 0 0 0 0 0 0 0 0 0 0 0 0 0 0 0 0 0 0 0 0 0 0 0 0 0 0 0 0
0 0 0 0 0 0 0 0 0 0 0 0 0 0 0 0 0 0 0 0 0 0 0 0 0 0 0 0 0 0 0 0 0 0
0 0 0 0 0 0 0 0 0 0 0 0 0 0 0 0 0 0 0 0 0 0 0 0 0 0 0 0 0 0 0 0 0 0
0 0 0 0 0 0 0 0 0 0 0 0 0 0 0 0 0 0 0 0 0 0 0 0 0 0 0 0 0 0 0 0 0 0
0 0 0 0 0 0 0 0 0 0 0 0 0 0 0 0 0 0 0 0 0 0 0 0 0 0 0 0 0 0 0 0 0 0
0 0 0 0 0 0 0 0 0 0 0 0 0 0 0 0 0 0 0 0 0 0 0 0 0 0 0 0 0 0 0 0 0 0
0 0 0 0 0 0 0 0 0 0 0 0 0 0 0 0 0 0 0 0 0 0 0 0 0 0 0 0 0 0 0 0 0 0
0 0 0 0 0 0 0 0 0 0 0 0 0 0 0 0 0 0 0 0 0 0 0 0 0 0 0 0 0 0 0 0 0 0
0 0 0 0 0 0 0 0 0 0 0 0 0 0 0 0 0 0 0 0 0 0 0 0 0 0 0 0 0 0 0 0 0 0
0 0 0 0 0 0 0 0 0 0 0 0 0 0 0 0 0 0 0 0 0 0 0 0 0 0 0 0 0 0 0 0 0 0
0 0 0 0 0 0 0 0 0 0 0 0 0 0 0 0 0 0 0 0 0 0 0 0 0 0 0 0 0 0 0 0 0 0
0 0 0 0 0 0 0 0 0 0 0 0 0 0 0 0 0 0 0 0 0 0 0 0 0 0 0 0 0 0 0 0 0 0
0 0 0 0 0 0 0 0 0 0 0 0 0 0 0 0 0 0 0 0 0 0 0 0 0 0 0 0 0 0 0 0 0 0
0 0;
#X coords 0 1 441 -1 200 140 1 0 0;
#X restore 1869 1135 graph;
#X msg 1920 458 100;
#X obj 1130 1055 moses 1200;
#X obj 1398 1037 moses 1200;
#X obj 1401 1058 moses 2400;
#X obj 1666 1039 moses 2400;
#X obj 1894 526 bp~ 6400 10;
#X obj 1809 819 tabwrite~ 3bp6400;
#X obj 2011 1057 moses 9600;
#X obj 1669 1060 moses 4800;
#X obj 2008 1036 moses 4800;
#X obj 1393 1107 s msgfreq;
#X floatatom 190 1405 10 0 0 0 - - -;
#X obj 1668 1110 s msgfreq;
#X obj 2010 1112 s msgfreq;
#X obj 843 1102 s msgfreq;
#X obj 545 1105 s msgfreq;
#X obj 263 1108 s msgfreq;
#X obj 878 739 dac~;
#X obj 893 692 *~ 1;
#X obj 244 1484 metro 10000;
#X obj 193 1545 print [compt];
#X obj 197 1384 r msgfreq;
#X obj 1133 1103 s msgfreq;
#X floatatom 1067 592 5 0 0 0 - - -;
#X obj 1068 611 rmstodb;
#X floatatom 1069 634 5 0 0 0 - - -;
#X obj 1071 571 env~;
#X floatatom 786 602 5 0 0 0 - - -;
#X obj 787 621 rmstodb;
#X floatatom 787 641 5 0 0 0 - - -;
#X obj 790 581 env~;
#X floatatom 496 595 5 0 0 0 - - -;
#X obj 497 614 rmstodb;
#X floatatom 497 634 5 0 0 0 - - -;
#X obj 500 574 env~;
#X floatatom 213 607 5 0 0 0 - - -;
#X obj 214 626 rmstodb;
#X floatatom 214 646 5 0 0 0 - - -;
#X obj 217 586 env~;
#X floatatom 1622 605 5 0 0 0 - - -;
#X obj 1623 624 rmstodb;
#X floatatom 1623 644 5 0 0 0 - - -;
#X obj 1626 584 env~;
#X floatatom 1969 598 5 0 0 0 - - -;
#X obj 1970 617 rmstodb;
#X floatatom 1970 637 5 0 0 0 - - -;
#X obj 1973 577 env~;
#X obj 787 557 *~ 0.3;
#X obj 1069 547 *~ 0.3;
#X obj 1334 560 *~ 0.3;
#X obj 1624 560 *~ 0.3;
#X obj 1971 553 *~ 0.3;
#X obj 497 549 *~ 0.3;
#X obj 215 562 *~ 0.3;
#X obj 842 1056 moses 650;
#X obj 1127 1034 moses 550;
#X obj 839 1035 moses 275;
#X obj 549 1056 moses 325;
#X obj 547 1035 moses 125;
#X obj 263 1061 moses 175;
#X obj 1398 2112 bng 15 250 50 0 empty empty empty 17 7 0 10 -262144
-1 -1;
#X obj 1088 810 compt;
#X obj 1359 813 compt;
#X obj 1627 815 compt;
#X obj 800 811 compt;
#X obj 507 811 compt;
#X obj 221 816 compt;
#X obj 1969 812 compt;
#X obj 182 1452 round;
#X obj 1267 883 spigot~;
#X msg 1337 866 \$1;
#X obj 1218 919 print [fiddle];
#X obj 476 1507 print [RELAMELODIE];
#X obj 979 882 spigot~;
#X obj 404 883 spigot~;
#X obj 1863 880 spigot~;
#X obj 100 888 spigot~;
#X obj 700 875 spigot~;
#X obj 1525 888 spigot~;
#X msg 756 853 \$1;
#X msg 153 856 \$1;
#X msg 482 859 \$1;
#X msg 1039 860 \$1;
#X msg 1571 863 \$1;
#X msg 1937 860 \$1;
#N canvas 65 54 1855 1026 test 0;
#X obj 803 -4012 round;
#X floatatom 809 -3986 5 0 0 0 - - -;
#X obj 799 -3883 spigot;
#X obj 831 -3911 !=;
#X obj 829 -3941 f;
#X obj 806 -3964 t f b f f;
#X obj 799 -3825 bng 15 250 50 0 empty empty empty 17 7 0 10 -262144
-1 -1;
#X obj 766 -3825 bng 15 250 50 0 empty empty empty 17 7 0 10 -262144
-1 -1;
#X obj 763 -3801 timer;
#X obj 796 -4049 ftom;
#X floatatom 689 -4030 5 0 0 0 - - -;
#X obj 729 -3915 bng 15 250 50 0 empty empty empty 17 7 0 10 -262144
-1 -1;
#X msg 816 -4087 460;
#X msg 847 -4084 260;
#X msg 685 -3627 list;
#X obj 678 -3403 print [MELODIE];
#X obj 588 -3644 bng 15 250 50 0 empty empty empty 17 7 0 10 -262144
-1 -1;
#X obj 746 -3856 t b f b b b;
#X msg 691 -3987 0;
#X obj 694 -4010 delay 10;
#X obj 599 -3966 t b b b b;
#X obj 713 -3758 pack f f f;
#X obj 622 -3864 compt;
#X floatatom 609 -3809 5 0 0 0 - - -;
#X obj 560 -3967 bng 15 250 50 0 empty empty empty 17 7 0 10 -262144
-1 -1;
#X msg 602 -4015 bang;
#X obj 715 -3737 route 0;
#X msg 755 -3712 add2 \$3 \$2;
#X msg 700 -3715 add2 \$1;
#X obj 601 -3995 delay 1000;
#X obj 585 -3780 moses 100;
#X msg 961 -3742 bang;
#X obj 960 -3716 delay 10000;
#X obj 763 -3779 round;
#X floatatom 510 -3855 5 0 0 0 - - -;
#X obj 618 -3834 t b f;
#X msg 522 -3791 set list;
#X obj 716 -3445 list2symbol;
#X obj 596 -3547 pMelodie;
#X obj 536 -3600 loadbang;
#X msg 535 -3575 round 100;
#X connect 0 0 1 0;
#X connect 1 0 5 0;
#X connect 2 0 17 0;
#X connect 2 0 22 0;
#X connect 2 0 31 0;
#X connect 3 0 2 1;
#X connect 4 0 3 1;
#X connect 5 0 2 0;
#X connect 5 0 11 0;
#X connect 5 1 4 0;
#X connect 5 2 4 1;
#X connect 5 3 3 0;
#X connect 6 0 8 1;
#X connect 7 0 8 0;
#X connect 8 0 33 0;
#X connect 9 0 0 0;
#X connect 9 0 10 0;
#X connect 10 0 19 0;
#X connect 10 0 25 0;
#X connect 12 0 9 0;
#X connect 13 0 9 0;
#X connect 14 0 15 0;
#X connect 14 0 37 0;
#X connect 16 0 14 0;
#X connect 17 1 21 1;
#X connect 17 2 7 0;
#X connect 17 3 6 0;
#X connect 18 0 1 0;
#X connect 19 0 18 0;
#X connect 20 0 36 0;
#X connect 20 1 14 0;
#X connect 20 2 22 1;
#X connect 21 0 26 0;
#X connect 22 0 34 0;
#X connect 22 0 35 0;
#X connect 23 0 30 0;
#X connect 24 0 20 0;
#X connect 25 0 29 0;
#X connect 26 0 28 0;
#X connect 26 1 27 0;
#X connect 27 0 14 0;
#X connect 28 0 14 0;
#X connect 29 0 20 0;
#X connect 29 0 24 0;
#X connect 30 1 20 0;
#X connect 31 0 32 0;
#X connect 33 0 21 2;
#X connect 35 0 23 0;
#X connect 35 1 21 0;
#X connect 36 0 14 0;
#X connect 37 0 38 0;
#X connect 38 0 15 0;
#X connect 39 0 40 0;
#X connect 40 0 38 0;
#X restore 1041 1678 pd test;
#N canvas 833 87 1083 998 rythme 1;
#X obj 240 17 loadbang;
#X obj 242 45 t b b b;
#X msg 299 79 debounce 0;
#X obj 245 149 bonk~;
#X obj 248 -5 bng 15 250 50 0 empty empty empty 17 7 0 10 -262144 -1
-1;
#X obj 271 172 unpack f f;
#X obj 412 318 bng 15 250 50 0 empty empty empty 17 7 0 10 -262144
-1 -1;
#X obj 379 318 bng 15 250 50 0 empty empty empty 17 7 0 10 -262144
-1 -1;
#X obj 383 367 timer;
#X floatatom 383 410 5 0 0 0 - - -;
#X msg 449 309 bang;
#X obj 467 377 bng 15 250 50 0 empty empty empty 17 7 0 10 -262144
-1 -1;
#X obj 362 268 t f b b b b;
#X obj 628 222 f 0;
#X obj 664 222 + 1;
#X obj 628 197 bng 15 250 50 0 empty empty empty 17 7 0 10 -262144
-1 -1;
#X obj 632 246 t f f;
#X floatatom 615 291 5 0 0 0 - - -;
#X msg 703 116 0;
#X msg 491 321 stop;
#X obj 681 296 t b b f;
#X text 544 354 limite temps entre deux pics;
#X obj 360 526 bng 15 250 50 0 empty empty empty 17 7 0 10 -262144
-1 -1;
#X obj 302 534 bng 15 250 50 0 empty empty empty 17 7 0 10 -262144
-1 -1;
#X obj 341 439 pack f f f;
#X obj 331 494 route 1;
#X msg 345 460 \$2 \$1 \$3;
#X msg 261 121 minvel 10;
#X msg 273 101 thresh 20 80;
#X obj 467 342 delay 2000;
#X obj -180 37 inlet~;
#X msg 261 1375 list 50 1/1;
#X obj 237 980 t b b;
#X msg 241 1034 set list;
#X obj 424 850 f;
#X obj 685 929 f;
#X floatatom 334 942 5 0 0 0 - - -;
#X obj 656 953 /;
#X obj 691 1020 moses 0.96;
#X obj 765 1022 bng 15 250 50 0 beat empty beat 17 7 0 10 -262144 -1
-1;
#X obj 765 1044 bng 15 250 50 0 15_16th empty 15_16th 17 7 0 10 -262144
-1 -1;
#X obj 765 1065 bng 15 250 50 0 7_8th empty 7_8th 17 7 0 10 -262144
-1 -1;
#X obj 765 1088 bng 15 250 50 0 5_6th empty 5_6th 17 7 0 10 -262144
-1 -1;
#X obj 765 1109 bng 15 250 50 0 13_16th empty 13_16th 17 7 0 10 -262144
-1 -1;
#X obj 765 1131 bng 15 250 50 0 3_4th empty 3_4th 17 7 0 10 -262144
-1 -1;
#X obj 765 1153 bng 15 250 50 0 11_16th empty 11_16th 17 7 0 10 -262144
-1 -1;
#X obj 765 1175 bng 15 250 50 0 2_3rd empty 2_3rd 17 7 0 10 -262144
-1 -1;
#X obj 691 1042 moses 0.906;
#X obj 691 1064 moses 0.854;
#X obj 691 1086 moses 0.823;
#X obj 691 1108 moses 0.781;
#X obj 691 1130 moses 0.719;
#X obj 691 1152 moses 0.677;
#X obj 691 1174 moses 0.646;
#X obj 765 1197 bng 15 250 50 0 5_8th empty 5_8th 17 7 0 10 -262144
-1 -1;
#X obj 765 1219 bng 15 250 50 0 9_16th empty 9_16th 17 7 0 10 -262144
-1 -1;
#X obj 765 1241 bng 15 250 50 0 half empty half 17 7 0 10 -262144 -1
-1;
#X obj 765 1263 bng 15 250 50 0 7_16th empty 7_16th 17 7 0 10 -262144
-1 -1;
#X obj 765 1285 bng 15 250 50 0 3_8th empty 3_8th 17 7 0 10 -262144
-1 -1;
#X obj 765 1306 bng 15 250 50 0 1_3rd empty 1_3rd 17 7 0 10 -262144
-1 -1;
#X obj 765 1328 bng 15 250 50 0 5_16th empty 5_16th 17 7 0 10 -262144
-1 -1;
#X obj 765 1350 bng 15 250 50 0 1_4th empty 1_4th 17 7 0 10 -262144
-1 -1;
#X obj 691 1196 moses 0.594;
#X obj 691 1218 moses 0.531;
#X obj 691 1240 moses 0.469;
#X obj 691 1262 moses 0.406;
#X obj 691 1284 moses 0.354;
#X obj 691 1306 moses 0.323;
#X obj 691 1328 moses 0.281;
#X obj 691 1350 moses 0.219;
#X obj 765 1371 bng 15 250 50 0 3_16th empty 3_16th 17 7 0 10 -262144
-1 -1;
#X obj 765 1393 bng 15 250 50 0 1_6th empty 1_6th 17 7 0 10 -262144
-1 -1;
#X obj 765 1415 bng 15 250 50 0 1_8th empty 1_8th 17 7 0 10 -262144
-1 -1;
#X obj 765 1438 bng 15 250 50 0 1_16th empty 1_16th 17 7 0 10 -262144
-1 -1;
#X obj 691 1460 bng 15 250 50 0 negligeable empty negligeable 17 7
0 10 -262144 -1 -1;
#X obj 691 1372 moses 0.177;
#X obj 691 1393 moses 0.146;
#X obj 691 1415 moses 0.094;
#X obj 691 1437 moses 0.031;
#X msg 850 1030 add2 15/16;
#X msg 850 1056 add2 7/8;
#X msg 850 1078 add2 5/6;
#X msg 853 1100 add2 13/16;
#X msg 848 1127 add2 3/4;
#X msg 836 1154 add2 11/16;
#X msg 835 1178 add2 2/3;
#X msg 832 1200 add2 5/8;
#X msg 835 1220 add2 9/16;
#X msg 835 1242 add2 1/2;
#X msg 835 1265 add2 7/16;
#X msg 837 1284 add2 3/8;
#X msg 838 1304 add2 1/3;
#X msg 840 1325 add2 5/16;
#X msg 840 1345 add2 1/4;
#X msg 838 1368 add2 3/16;
#X msg 836 1393 add2 1/6;
#X msg 837 1415 add2 1/18;
#X msg 834 1444 add2 1/16;
#X obj 391 703 pack f f;
#X obj 651 894 t f b;
#X msg 445 790 \$2;
#X msg 841 1004 add2 1/1;
#X msg 413 1154 add2 \$1 1/1;
#X obj 387 607 / 10;
#X obj 389 649 * 10;
#X obj 387 626 round;
#X obj 346 1418 outlet;
#X msg 384 583 \$3;
#X obj 102 86 adc~;
#X obj 308 769 print [test];
#X obj 390 670 t f;
#X msg 391 727 \$2 \$1;
#X obj 355 820 bng 15 250 50 0 empty empty empty 17 7 0 10 -262144
-1 -1;
#X obj 414 763 route 2;
#X obj 468 403 t b b;
#X msg -56 477 set list;
#X msg -25 608 list;
#X msg 141 546 add \$1;
#X msg 143 600 add \$3 \$2;
#X obj -18 448 t b b;
#X obj -3 410 bng 15 250 50 0 empty empty empty 17 7 0 10 -262144 -1
-1;
#X obj -36 767 print [coincoin];
#X obj 635 267 moses 5;
#X obj 237 953 delay 10;
#X obj 705 154 t f f;
#X floatatom 172 860 5 0 0 0 - - -;
#X obj 143 978 spigot;
#X msg 204 796 0;
#X msg 243 796 1;
#X connect 0 0 1 0;
#X connect 1 0 27 0;
#X connect 1 1 28 0;
#X connect 1 2 2 0;
#X connect 2 0 3 0;
#X connect 3 1 5 0;
#X connect 4 0 0 0;
#X connect 5 1 12 0;
#X connect 6 0 8 1;
#X connect 7 0 8 0;
#X connect 8 0 9 0;
#X connect 9 0 24 2;
#X connect 10 0 29 0;
#X connect 11 0 114 0;
#X connect 12 0 24 0;
#X connect 12 1 7 0;
#X connect 12 2 6 0;
#X connect 12 3 10 0;
#X connect 12 4 13 0;
#X connect 13 0 16 0;
#X connect 14 0 13 1;
#X connect 15 0 13 0;
#X connect 16 0 122 0;
#X connect 16 1 14 0;
#X connect 17 0 24 1;
#X connect 17 0 98 1;
#X connect 18 0 124 0;
#X connect 19 0 29 0;
#X connect 20 1 19 0;
#X connect 20 2 18 0;
#X connect 23 0 127 0;
#X connect 24 0 26 0;
#X connect 25 0 23 0;
#X connect 25 0 117 0;
#X connect 25 1 22 0;
#X connect 25 1 107 0;
#X connect 25 1 118 0;
#X connect 26 0 25 0;
#X connect 27 0 3 0;
#X connect 28 0 3 0;
#X connect 29 0 11 0;
#X connect 31 0 106 0;
#X connect 32 0 33 0;
#X connect 32 1 126 0;
#X connect 33 0 31 0;
#X connect 34 0 102 0;
#X connect 34 0 36 0;
#X connect 34 0 35 1;
#X connect 35 0 37 1;
#X connect 37 0 38 0;
#X connect 38 0 47 0;
#X connect 38 1 39 0;
#X connect 38 1 101 0;
#X connect 47 0 48 0;
#X connect 47 1 40 0;
#X connect 47 1 79 0;
#X connect 48 0 49 0;
#X connect 48 1 41 0;
#X connect 48 1 80 0;
#X connect 49 0 50 0;
#X connect 49 1 42 0;
#X connect 49 1 81 0;
#X connect 50 0 51 0;
#X connect 50 1 43 0;
#X connect 50 1 82 0;
#X connect 51 0 52 0;
#X connect 51 1 44 0;
#X connect 51 1 83 0;
#X connect 52 0 53 0;
#X connect 52 1 45 0;
#X connect 52 1 84 0;
#X connect 53 0 62 0;
#X connect 53 1 46 0;
#X connect 53 1 85 0;
#X connect 62 0 63 0;
#X connect 62 1 54 0;
#X connect 62 1 86 0;
#X connect 63 0 64 0;
#X connect 63 1 55 0;
#X connect 63 1 87 0;
#X connect 64 0 65 0;
#X connect 64 1 56 0;
#X connect 64 1 88 0;
#X connect 65 0 66 0;
#X connect 65 1 57 0;
#X connect 65 1 89 0;
#X connect 66 0 67 0;
#X connect 66 1 58 0;
#X connect 66 1 90 0;
#X connect 67 0 68 0;
#X connect 67 1 59 0;
#X connect 67 1 91 0;
#X connect 68 0 69 0;
#X connect 68 1 60 0;
#X connect 68 1 92 0;
#X connect 69 0 75 0;
#X connect 69 1 61 0;
#X connect 69 1 93 0;
#X connect 75 0 76 0;
#X connect 75 1 70 0;
#X connect 75 1 94 0;
#X connect 76 0 77 0;
#X connect 76 1 71 0;
#X connect 76 1 95 0;
#X connect 77 0 78 0;
#X connect 77 1 72 0;
#X connect 77 1 96 0;
#X connect 78 0 74 0;
#X connect 78 1 73 0;
#X connect 78 1 97 0;
#X connect 79 0 31 0;
#X connect 80 0 31 0;
#X connect 81 0 31 0;
#X connect 82 0 31 0;
#X connect 83 0 31 0;
#X connect 84 0 31 0;
#X connect 85 0 31 0;
#X connect 86 0 31 0;
#X connect 87 0 31 0;
#X connect 88 0 31 0;
#X connect 89 0 31 0;
#X connect 90 0 31 0;
#X connect 91 0 31 0;
#X connect 92 0 31 0;
#X connect 93 0 31 0;
#X connect 94 0 31 0;
#X connect 95 0 31 0;
#X connect 96 0 31 0;
#X connect 97 0 31 0;
#X connect 98 0 111 0;
#X connect 99 0 37 0;
#X connect 99 1 35 0;
#X connect 100 0 99 0;
#X connect 101 0 31 0;
#X connect 102 0 31 0;
#X connect 103 0 105 0;
#X connect 104 0 110 0;
#X connect 105 0 104 0;
#X connect 107 0 103 0;
#X connect 108 0 3 0;
#X connect 110 0 98 0;
#X connect 111 0 109 0;
#X connect 111 0 113 0;
#X connect 113 0 112 0;
#X connect 113 0 34 0;
#X connect 113 0 128 0;
#X connect 113 1 100 0;
#X connect 114 0 18 0;
#X connect 114 1 19 0;
#X connect 115 0 116 0;
#X connect 116 0 121 0;
#X connect 119 0 115 0;
#X connect 119 1 116 0;
#X connect 120 0 119 0;
#X connect 122 0 17 0;
#X connect 122 1 20 0;
#X connect 123 0 32 0;
#X connect 124 0 123 0;
#X connect 124 1 13 0;
#X connect 125 0 126 1;
#X connect 126 0 31 0;
#X connect 127 0 125 0;
#X connect 128 0 125 0;
#X restore 767 102 pd rythme;
#N canvas 65 82 927 998 melodie 0;
#X obj 124 27 inlet;
#X obj 8 675 outlet;
#X obj 284 80 round;
#X floatatom 290 106 5 0 0 0 - - -;
#X obj 284 52 ftom;
#X obj 294 156 -;
#X obj 292 126 t f f;
#X obj 180 173 loadbang;
#X msg 182 226 0;
#X obj 301 285 spigot;
#X obj 333 257 !=;
#X obj 331 227 f;
#X obj 348 361 bng 15 250 50 0 empty empty empty 17 7 0 10 -262144
-1 -1;
#X obj 315 361 bng 15 250 50 0 empty empty empty 17 7 0 10 -262144
-1 -1;
#X obj 312 385 timer;
#X obj 231 253 bng 15 250 50 0 empty empty empty 17 7 0 10 -262144
-1 -1;
#X msg -11 598 list;
#X obj 295 330 t b f b b;
#X obj 340 408 round;
#X obj 272 252 spigot;
#X obj 315 191 t f f b f f;
#X floatatom 215 72 5 0 0 0 - - -;
#X msg 217 115 0;
#X obj 220 92 delay 10;
#X obj 132 358 compt;
#X floatatom 119 413 5 0 0 0 - - -;
#X obj 57 130 bng 15 250 50 0 empty empty empty 17 7 0 10 -262144 -1
-1;
#X msg 108 87 bang;
#X obj 107 107 delay 1000;
#X floatatom 90 390 5 0 0 0 - - -;
#X obj 128 388 t b f;
#X msg -68 486 set list;
#X obj 112 447 moses 10;
#X obj 200 117 bng 15 250 50 0 empty empty empty 17 7 0 10 -262144
-1 -1;
#X obj 257 424 pack f f f;
#X obj 247 460 route 0;
#X msg 287 485 add2 \$3 \$2;
#X msg 232 482 add2 \$1;
#X obj -79 529 bng 15 250 50 0 empty empty empty 17 7 0 10 -262144
-1 -1;
#X obj 181 197 t b b;
#X obj 102 135 t b b b;
#X connect 0 0 4 0;
#X connect 2 0 3 0;
#X connect 3 0 6 0;
#X connect 4 0 2 0;
#X connect 4 0 21 0;
#X connect 5 0 20 0;
#X connect 6 0 5 1;
#X connect 6 1 5 0;
#X connect 7 0 39 0;
#X connect 8 0 5 1;
#X connect 9 0 17 0;
#X connect 9 0 24 0;
#X connect 10 0 9 1;
#X connect 11 0 10 1;
#X connect 12 0 14 1;
#X connect 13 0 14 0;
#X connect 14 0 18 0;
#X connect 16 0 1 0;
#X connect 17 1 34 1;
#X connect 17 2 13 0;
#X connect 17 3 12 0;
#X connect 18 0 34 2;
#X connect 19 0 9 0;
#X connect 20 0 15 0;
#X connect 20 0 19 0;
#X connect 20 1 19 1;
#X connect 20 2 11 0;
#X connect 20 3 11 1;
#X connect 20 4 10 0;
#X connect 21 0 23 0;
#X connect 21 0 27 0;
#X connect 22 0 3 0;
#X connect 23 0 22 0;
#X connect 23 0 33 0;
#X connect 24 0 29 0;
#X connect 24 0 30 0;
#X connect 25 0 32 0;
#X connect 27 0 28 0;
#X connect 28 0 26 0;
#X connect 28 0 40 0;
#X connect 30 0 25 0;
#X connect 30 1 34 0;
#X connect 31 0 16 0;
#X connect 31 0 38 0;
#X connect 32 1 40 0;
#X connect 34 0 35 0;
#X connect 35 0 37 0;
#X connect 35 1 36 0;
#X connect 36 0 16 0;
#X connect 37 0 16 0;
#X connect 39 0 31 0;
#X connect 39 1 8 0;
#X connect 40 0 31 0;
#X connect 40 1 16 0;
#X connect 40 2 24 1;
#X restore 476 1477 pd melodie;
#X obj 476 1446 r msgfreq;
#X obj 767 125 print [rythme];
#X connect 0 0 208 2;
#X connect 1 0 208 1;
#X connect 2 0 1 0;
#X connect 3 0 23 0;
#X connect 3 0 209 0;
#X connect 3 0 325 0;
#X connect 3 1 24 0;
#X connect 5 0 4 0;
#X connect 6 0 8 0;
#X connect 7 0 0 0;
#X connect 8 0 215 0;
#X connect 8 1 7 0;
#X connect 9 0 11 0;
#X connect 10 0 209 0;
#X connect 11 0 10 0;
#X connect 12 0 13 0;
#X connect 12 1 14 0;
#X connect 13 0 307 0;
#X connect 15 0 12 0;
#X connect 15 1 16 0;
#X connect 15 2 19 0;
#X connect 16 0 17 0;
#X connect 16 1 18 0;
#X connect 17 0 307 0;
#X connect 19 0 20 0;
#X connect 19 1 21 0;
#X connect 20 0 307 0;
#X connect 23 3 22 0;
#X connect 23 4 15 0;
#X connect 24 0 313 0;
#X connect 25 0 26 0;
#X connect 25 0 334 0;
#X connect 26 0 23 0;
#X connect 27 0 274 0;
#X connect 28 0 313 0;
#X connect 29 0 28 0;
#X connect 30 0 5 0;
#X connect 31 0 201 0;
#X connect 31 0 204 0;
#X connect 31 0 206 0;
#X connect 31 0 208 0;
#X connect 31 0 211 0;
#X connect 31 0 213 0;
#X connect 31 0 257 0;
#X connect 31 0 299 0;
#X connect 31 0 300 0;
#X connect 31 0 301 0;
#X connect 31 0 302 0;
#X connect 31 0 303 0;
#X connect 31 0 304 0;
#X connect 31 0 305 0;
#X connect 31 0 338 0;
#X connect 34 0 320 0;
#X connect 35 0 33 0;
#X connect 36 0 271 0;
#X connect 37 0 211 2;
#X connect 38 0 211 1;
#X connect 39 0 38 0;
#X connect 40 0 42 0;
#X connect 41 0 63 0;
#X connect 41 0 212 0;
#X connect 41 0 321 0;
#X connect 41 1 64 0;
#X connect 42 0 43 0;
#X connect 43 0 41 1;
#X connect 45 0 44 0;
#X connect 46 0 48 0;
#X connect 47 0 37 0;
#X connect 48 0 216 0;
#X connect 48 1 47 0;
#X connect 49 0 51 0;
#X connect 50 0 212 0;
#X connect 51 0 50 0;
#X connect 52 0 53 0;
#X connect 52 1 54 0;
#X connect 53 0 254 0;
#X connect 55 0 52 0;
#X connect 55 1 56 0;
#X connect 55 2 59 0;
#X connect 56 0 57 0;
#X connect 56 1 58 0;
#X connect 57 0 254 0;
#X connect 59 0 60 0;
#X connect 59 1 61 0;
#X connect 60 0 254 0;
#X connect 63 3 62 0;
#X connect 63 4 55 0;
#X connect 64 0 314 0;
#X connect 65 0 66 0;
#X connect 65 0 322 0;
#X connect 66 0 63 0;
#X connect 67 0 262 0;
#X connect 68 0 314 0;
#X connect 69 0 68 0;
#X connect 70 0 40 0;
#X connect 71 0 45 0;
#X connect 73 0 213 2;
#X connect 74 0 213 1;
#X connect 75 0 74 0;
#X connect 76 0 96 0;
#X connect 76 0 214 0;
#X connect 76 0 330 0;
#X connect 76 1 97 0;
#X connect 78 0 77 0;
#X connect 79 0 81 0;
#X connect 80 0 73 0;
#X connect 81 0 217 0;
#X connect 81 1 80 0;
#X connect 82 0 84 0;
#X connect 83 0 214 0;
#X connect 84 0 83 0;
#X connect 85 0 86 0;
#X connect 85 1 87 0;
#X connect 86 0 256 0;
#X connect 88 0 85 0;
#X connect 88 1 89 0;
#X connect 88 2 92 0;
#X connect 89 0 90 0;
#X connect 89 1 91 0;
#X connect 90 0 256 0;
#X connect 92 0 93 0;
#X connect 92 1 94 0;
#X connect 93 0 256 0;
#X connect 96 3 95 0;
#X connect 96 4 88 0;
#X connect 97 0 315 0;
#X connect 98 0 99 0;
#X connect 98 0 335 0;
#X connect 99 0 96 0;
#X connect 100 0 264 0;
#X connect 101 0 315 0;
#X connect 102 0 101 0;
#X connect 103 0 78 0;
#X connect 105 0 206 2;
#X connect 106 0 206 1;
#X connect 107 0 106 0;
#X connect 108 0 207 0;
#X connect 108 0 128 0;
#X connect 108 0 329 0;
#X connect 108 1 129 0;
#X connect 110 0 109 0;
#X connect 111 0 113 0;
#X connect 112 0 105 0;
#X connect 113 0 218 0;
#X connect 113 1 112 0;
#X connect 114 0 116 0;
#X connect 115 0 207 0;
#X connect 116 0 115 0;
#X connect 117 0 118 0;
#X connect 117 1 119 0;
#X connect 118 0 308 0;
#X connect 120 0 117 0;
#X connect 120 1 121 0;
#X connect 120 2 124 0;
#X connect 121 0 122 0;
#X connect 121 1 123 0;
#X connect 122 0 308 0;
#X connect 124 0 125 0;
#X connect 124 1 126 0;
#X connect 125 0 308 0;
#X connect 128 3 127 0;
#X connect 128 4 120 0;
#X connect 129 0 316 0;
#X connect 130 0 131 0;
#X connect 130 0 331 0;
#X connect 131 0 128 0;
#X connect 132 0 266 0;
#X connect 133 0 316 0;
#X connect 134 0 133 0;
#X connect 135 0 110 0;
#X connect 137 0 204 2;
#X connect 138 0 204 1;
#X connect 139 0 138 0;
#X connect 140 0 160 0;
#X connect 140 0 205 0;
#X connect 140 0 326 0;
#X connect 140 1 161 0;
#X connect 142 0 141 0;
#X connect 143 0 145 0;
#X connect 144 0 137 0;
#X connect 145 0 219 0;
#X connect 145 1 144 0;
#X connect 146 0 148 0;
#X connect 147 0 205 0;
#X connect 148 0 147 0;
#X connect 149 0 150 0;
#X connect 149 1 151 0;
#X connect 150 0 310 0;
#X connect 152 0 149 0;
#X connect 152 1 153 0;
#X connect 152 2 156 0;
#X connect 153 0 154 0;
#X connect 153 1 155 0;
#X connect 154 0 310 0;
#X connect 156 0 157 0;
#X connect 156 1 158 0;
#X connect 157 0 310 0;
#X connect 160 3 159 0;
#X connect 160 4 152 0;
#X connect 161 0 317 0;
#X connect 162 0 163 0;
#X connect 162 0 333 0;
#X connect 163 0 160 0;
#X connect 164 0 267 0;
#X connect 165 0 317 0;
#X connect 166 0 165 0;
#X connect 167 0 142 0;
#X connect 169 0 201 2;
#X connect 170 0 201 1;
#X connect 171 0 170 0;
#X connect 172 0 192 0;
#X connect 172 0 203 0;
#X connect 172 0 328 0;
#X connect 172 1 193 0;
#X connect 174 0 173 0;
#X connect 175 0 177 0;
#X connect 176 0 169 0;
#X connect 177 0 202 0;
#X connect 177 1 176 0;
#X connect 178 0 180 0;
#X connect 179 0 203 0;
#X connect 180 0 179 0;
#X connect 181 0 182 0;
#X connect 181 1 183 0;
#X connect 182 0 210 0;
#X connect 184 0 181 0;
#X connect 184 1 185 0;
#X connect 184 2 188 0;
#X connect 185 0 186 0;
#X connect 185 1 187 0;
#X connect 186 0 210 0;
#X connect 188 0 189 0;
#X connect 188 1 190 0;
#X connect 189 0 210 0;
#X connect 192 3 191 0;
#X connect 192 4 184 0;
#X connect 193 0 318 0;
#X connect 194 0 195 0;
#X connect 194 0 332 0;
#X connect 195 0 192 0;
#X connect 196 0 268 0;
#X connect 197 0 318 0;
#X connect 198 0 197 0;
#X connect 199 0 174 0;
#X connect 201 0 172 0;
#X connect 201 0 199 0;
#X connect 204 0 140 0;
#X connect 204 0 167 0;
#X connect 206 0 108 0;
#X connect 206 0 135 0;
#X connect 208 0 3 0;
#X connect 208 0 30 0;
#X connect 210 1 311 0;
#X connect 211 0 41 0;
#X connect 211 0 71 0;
#X connect 213 0 76 0;
#X connect 213 0 103 0;
#X connect 220 0 257 2;
#X connect 221 0 257 1;
#X connect 222 0 221 0;
#X connect 223 0 243 0;
#X connect 223 0 258 0;
#X connect 223 0 327 0;
#X connect 223 1 244 0;
#X connect 225 0 224 0;
#X connect 226 0 228 0;
#X connect 227 0 220 0;
#X connect 228 0 252 0;
#X connect 228 1 227 0;
#X connect 229 0 231 0;
#X connect 230 0 258 0;
#X connect 231 0 230 0;
#X connect 232 0 233 0;
#X connect 232 1 234 0;
#X connect 233 0 261 0;
#X connect 235 0 232 0;
#X connect 235 1 236 0;
#X connect 235 2 239 0;
#X connect 236 0 237 0;
#X connect 236 1 238 0;
#X connect 237 0 261 0;
#X connect 239 0 240 0;
#X connect 239 1 241 0;
#X connect 240 0 261 0;
#X connect 243 3 242 0;
#X connect 243 4 235 0;
#X connect 244 0 319 0;
#X connect 245 0 246 0;
#X connect 245 0 336 0;
#X connect 246 0 243 0;
#X connect 247 0 265 0;
#X connect 248 0 319 0;
#X connect 249 0 248 0;
#X connect 250 0 225 0;
#X connect 253 0 27 0;
#X connect 254 1 255 0;
#X connect 255 0 67 0;
#X connect 256 1 260 0;
#X connect 257 0 223 0;
#X connect 257 0 250 0;
#X connect 259 0 247 0;
#X connect 260 0 100 0;
#X connect 261 1 259 0;
#X connect 263 0 34 0;
#X connect 270 0 269 1;
#X connect 270 0 269 0;
#X connect 271 0 33 1;
#X connect 273 0 263 0;
#X connect 275 0 276 0;
#X connect 276 0 277 0;
#X connect 277 0 3 1;
#X connect 278 0 275 0;
#X connect 279 0 280 0;
#X connect 280 0 281 0;
#X connect 281 0 108 1;
#X connect 282 0 279 0;
#X connect 283 0 284 0;
#X connect 284 0 285 0;
#X connect 285 0 140 1;
#X connect 286 0 283 0;
#X connect 287 0 288 0;
#X connect 288 0 289 0;
#X connect 289 0 172 1;
#X connect 290 0 287 0;
#X connect 291 0 292 0;
#X connect 292 0 293 0;
#X connect 293 0 76 1;
#X connect 294 0 291 0;
#X connect 295 0 296 0;
#X connect 296 0 297 0;
#X connect 297 0 223 1;
#X connect 298 0 295 0;
#X connect 299 0 282 0;
#X connect 300 0 278 0;
#X connect 301 0 70 0;
#X connect 302 0 294 0;
#X connect 303 0 298 0;
#X connect 304 0 286 0;
#X connect 305 0 290 0;
#X connect 306 0 132 0;
#X connect 307 1 253 0;
#X connect 308 1 306 0;
#X connect 309 0 164 0;
#X connect 310 1 309 0;
#X connect 311 0 196 0;
#X connect 313 0 25 0;
#X connect 314 0 65 0;
#X connect 315 0 98 0;
#X connect 316 0 130 0;
#X connect 317 0 162 0;
#X connect 318 0 194 0;
#X connect 319 0 245 0;
#X connect 320 0 35 0;
#X connect 322 0 321 1;
#X connect 331 0 329 1;
#X connect 332 0 328 1;
#X connect 333 0 326 1;
#X connect 334 0 325 1;
#X connect 335 0 330 1;
#X connect 336 0 327 1;
#X connect 338 0 341 0;
#X connect 339 0 324 0;
#X connect 340 0 339 0;
