#N canvas 992 82 927 998 10;
#X floatatom 1074 496 5 0 0 0 - - -;
#X floatatom 1039 496 5 0 0 0 - - -;
#X obj 1038 476 f;
#X obj 1009 663 gaten;
#X floatatom 1005 604 5 0 0 0 - - -;
#X obj 1006 582 rmstodb;
#X obj 1049 405 loadbang;
#X msg 1075 456 10;
#X obj 1049 425 t b b;
#X obj 956 762 loadbang;
#X obj 956 806 metro 100;
#X obj 966 786 tgl 15 0 empty empty empty 17 7 0 10 -262144 -1 -1 1
1;
#X obj 1053 943 unpack;
#X floatatom 1053 990 0 0 0 0 - - -;
#X floatatom 1067 970 0 0 0 0 - - -;
#X obj 1112 919 route 1 2 3 4;
#X obj 1129 951 unpack;
#X floatatom 1128 996 0 0 0 0 - - -;
#X floatatom 1143 978 0 0 0 0 - - -;
#X obj 1201 953 unpack;
#X floatatom 1217 1005 0 0 0 0 - - -;
#X floatatom 1224 986 0 0 0 0 - - -;
#X floatatom 1055 914 0 0 0 0 - - -;
#X obj 1064 887 fiddle~ 1024 1 20 3;
#X obj 1078 785 bng 15 250 50 0 empty empty empty 17 7 0 10 -262144
-1 -1;
#X obj 1093 835 mod 2;
#X msg 1096 860 auto \$1;
#X floatatom 1130 1075 10 0 0 0 - - -;
#X obj 1104 790 bng 15 250 50 0 empty empty empty 17 7 0 10 -262144
-1 -1;
#X obj 1103 769 loadbang;
#X obj 1005 559 env~;
#X obj 1095 83 inlet~;
#N canvas 0 0 450 300 (subpatch) 0;
#X array 3bp800 441 float 3;
#A 0 0.00427844 0.00186156 -0.000594277 -0.0030832 -0.00560191 -0.00814881
-0.010722 -0.0133173 -0.015926 -0.0185337 -0.0211207 -0.0236629 -0.0261336
-0.0285062 -0.030757 -0.0328652 -0.0348131 -0.0365834 -0.0381577 -0.0395159
-0.040636 -0.0414963 -0.0420776 -0.0423653 -0.0423509 -0.0420328 -0.0414162
-0.0405106 -0.0393276 -0.0378782 -0.0361716 -0.0342149 -0.0320142 -0.0295753
-0.0269058 -0.0240165 -0.0209231 -0.017647 -0.0142157 -0.0106622 -0.0070236
-0.00334009 0.000346985 0.00399704 0.00757189 0.011037 0.0143624 0.017523
0.0204982 0.023271 0.0258264 0.0281507 0.0302315 0.0320587 0.0336248
0.0349256 0.0359612 0.0367367 0.037261 0.0375459 0.0376037 0.0374462
0.0370842 0.0365296 0.0357964 0.0349006 0.03386 0.0326917 0.0314117
0.0300331 0.0285662 0.0270191 0.025398 0.0237083 0.0219551 0.0201432
0.0182768 0.0163603 0.0143978 0.012394 0.0103546 0.00828525 0.00619181
0.00407926 0.00195081 -0.000192466 -0.0023532 -0.00453621 -0.00674803
-0.00899484 -0.0112798 -0.0135996 -0.0159434 -0.0182926 -0.020623 -0.0229073
-0.0251175 -0.0272266 -0.0292086 -0.0310393 -0.0326948 -0.0341517 -0.0353869
-0.0363782 -0.0371052 -0.0375509 -0.0377036 -0.0375573 -0.0371119 -0.0363729
-0.0353504 -0.0340582 -0.0325124 -0.0307302 -0.0287283 -0.0265218 -0.0241247
-0.0215506 -0.018814 -0.0159315 -0.0129232 -0.00981407 -0.00663498
-0.00342237 -0.000216015 0.00294347 0.00601828 0.00897509 0.0117863
0.0144298 0.016888 0.0191476 0.0211977 0.0230294 0.0246345 0.0260067
0.0271434 0.0280473 0.0287267 0.0291942 0.0294648 0.0295538 0.0294751
0.0292409 0.0288612 0.0283455 0.0277031 0.0269449 0.0260841 0.0251352
0.0241143 0.023037 0.0219178 0.0207693 0.0196025 0.0184261 0.0172465
0.0160675 0.0148898 0.0137124 0.0125314 0.0113416 0.0101367 0.00891088
0.00765991 0.00638144 0.00507365 0.00373427 0.00235945 0.000944048
-0.000517905 -0.00203228 -0.00360317 -0.00523173 -0.0069152 -0.00864621
-0.0104133 -0.0122018 -0.0139948 -0.0157745 -0.0175225 -0.0192199 -0.0208469
-0.0223822 -0.0238033 -0.0250875 -0.0262128 -0.027159 -0.0279091 -0.0284501
-0.0287744 -0.0288798 -0.0287687 -0.0284476 -0.0279248 -0.027211 -0.0263177
-0.0252564 -0.0240376 -0.0226695 -0.0211586 -0.0195108 -0.0177335 -0.0158367
-0.0138344 -0.0117447 -0.00959038 -0.00739785 -0.0051954 -0.00301028
-0.000866017 0.00121932 0.00323261 0.00516407 0.00700512 0.00874657
0.010378 0.0118887 0.0132685 0.0145098 0.0156083 0.0165638 0.0173792
0.0180599 0.0186131 0.0190474 0.0193719 0.0195962 0.0197304 0.0197838
0.0197658 0.0196857 0.0195529 0.0193763 0.0191634 0.0189196 0.0186481
0.0183496 0.018023 0.0176658 0.0172736 0.016841 0.0163613 0.0158288
0.0152395 0.0145925 0.0138899 0.0131361 0.0123356 0.0114909 0.0106004
0.00965834 0.00865506 0.00757903 0.00641978 0.0051704 0.0038293 0.00239987
0.000889498 -0.000692328 -0.00233554 -0.0040299 -0.00576453 -0.0075277
-0.00930559 -0.0110819 -0.0128371 -0.0145489 -0.0161939 -0.0177496
-0.0191967 -0.0205192 -0.0217045 -0.022743 -0.0236282 -0.024356 -0.0249247
-0.0253342 -0.0255856 -0.0256803 -0.0256199 -0.0254053 -0.025036 -0.0245096
-0.0238219 -0.0229684 -0.0219468 -0.0207601 -0.0194175 -0.0179352 -0.0163342
-0.0146385 -0.0128729 -0.0110609 -0.00922296 -0.00737653 -0.00553674
-0.00371735 -0.00193146 -0.000190633 0.00149497 0.00311725 0.00467037
0.00615071 0.00755704 0.00889007 0.010152 0.0113452 0.0124717 0.013532
0.0145258 0.015451 0.016305 0.0170848 0.0177879 0.0184133 0.018962
0.0194379 0.0198472 0.0201971 0.0204934 0.0207392 0.0209331 0.0210707
0.0211449 0.0211478 0.0210725 0.0209153 0.0206759 0.0203583 0.0199683
0.0195112 0.0189894 0.0184003 0.017737 0.0169891 0.0161449 0.0151936
0.0141269 0.0129404 0.0116333 0.0102073 0.00866393 0.00700448 0.00523037
0.0033448 0.00135516 -0.000726483 -0.00288309 -0.00509357 -0.0073335
-0.00957652 -0.0117956 -0.0139644 -0.0160585 -0.0180566 -0.0199403
-0.021694 -0.023305 -0.0247622 -0.0260573 -0.0271832 -0.0281343 -0.0289053
-0.0294901 -0.0298808 -0.0300677 -0.0300407 -0.0297911 -0.0293143 -0.0286116
-0.0276905 -0.0265645 -0.0252502 -0.0237665 -0.0221327 -0.0203679 -0.0184901
-0.0165163 -0.0144624 -0.0123442 -0.0101782 -0.00798173 -0.00577296
-0.00356988 -0.00138984 0.00075094 0.00283814 0.0048591 0.00680301
0.00866109 0.0104273 0.0120983 0.0136724 0.0151491 0.0165276 0.0178074
0.018988 0.0200698 0.0210545 0.0219458 0.0227499 0.0234751 0.0241298
0.0247205 0.0252497 0.0257155 0.0261126 0.0264346 0.0266749 0.0268289
0.0268949 0.0268735 0.0267668 0.0265758 0.026298 0.0259262 0.0254483
0.0248492 0.024113 0.0232256 0.0221762 0.0209568 0.0195626 0.0179911
0.0162415 0.0143145 0.0122116 0.00993609 0.00749438 0.00489764 0.00216275
-0.000687337 -0.00362456 -0.00661698 -0.00963016 -0.0126285 -0.0155765
-0.01844 -0.0211874 -0.023791;
#X coords 0 1 441 -1 200 140 1 0 0;
#X restore 1019 1121 graph;
#X obj 193 1511 comptNote;
#X obj 186 1424 ftom;
#X floatatom 187 1483 5 0 0 0 - - -;
#X obj 245 1458 loadbang;
#X floatatom 1345 499 5 0 0 0 - - -;
#X floatatom 1310 499 5 0 0 0 - - -;
#X obj 1309 479 f;
#X floatatom 1333 605 5 0 0 0 - - -;
#X obj 1280 666 gaten;
#X obj 1334 624 rmstodb;
#X floatatom 1334 644 5 0 0 0 - - -;
#X floatatom 1290 617 5 0 0 0 - - -;
#X obj 1277 585 rmstodb;
#X obj 1320 408 loadbang;
#X msg 1346 459 10;
#X obj 1320 428 t b b;
#X obj 1208 784 loadbang;
#X obj 1208 828 metro 100;
#X obj 1218 808 tgl 15 0 empty empty empty 17 7 0 10 -262144 -1 -1
1 1;
#X obj 1324 946 unpack;
#X floatatom 1324 993 0 0 0 0 - - -;
#X floatatom 1338 973 0 0 0 0 - - -;
#X obj 1383 922 route 1 2 3 4;
#X obj 1400 954 unpack;
#X floatatom 1399 999 0 0 0 0 - - -;
#X floatatom 1414 981 0 0 0 0 - - -;
#X obj 1472 956 unpack;
#X floatatom 1491 1003 0 0 0 0 - - -;
#X floatatom 1498 984 0 0 0 0 - - -;
#X floatatom 1326 917 0 0 0 0 - - -;
#X obj 1335 890 fiddle~ 1024 1 20 3;
#X obj 1349 788 bng 15 250 50 0 empty empty empty 17 7 0 10 -262144
-1 -1;
#X obj 1364 838 mod 2;
#X msg 1367 863 auto \$1;
#X floatatom 1400 1083 5 0 0 0 - - -;
#X obj 1375 793 bng 15 250 50 0 empty empty empty 17 7 0 10 -262144
-1 -1;
#X obj 1374 772 loadbang;
#X obj 1337 584 env~;
#X obj 1276 562 env~;
#N canvas 0 0 450 300 (subpatch) 0;
#X array 3bp1600 441 float 3;
#A 0 1.71771e-12 -2.48947e-11 -5.16988e-11 -7.83562e-11 -1.04661e-10
-1.3051e-10 -1.5583e-10 -1.80495e-10 -2.04251e-10 -2.26684e-10 -2.47243e-10
-2.653e-10 -2.80244e-10 -2.91598e-10 -2.99117e-10 -3.0281e-10 -3.02896e-10
-2.99697e-10 -2.93544e-10 -2.84715e-10 -2.73422e-10 -2.59866e-10 -2.44304e-10
-2.27101e-10 -2.08774e-10 -1.89973e-10 -1.71445e-10 -1.53925e-10 -1.37998e-10
-1.2399e-10 -1.11927e-10 -1.01542e-10 -9.23302e-11 -8.36387e-11 -7.47645e-11
-6.50732e-11 -5.40826e-11 -4.15319e-11 -2.74204e-11 -1.19693e-11 4.40513e-12
2.11612e-11 3.77015e-11 5.34637e-11 6.79881e-11 8.09677e-11 9.22742e-11
1.01964e-10 1.10237e-10 1.17381e-10 1.23688e-10 1.29413e-10 1.34757e-10
1.39877e-10 1.44904e-10 1.49963e-10 1.55189e-10 1.60769e-10 1.6688e-10
1.73656e-10 1.81103e-10 1.89073e-10 1.97272e-10 2.0536e-10 2.13005e-10
2.19925e-10 2.25876e-10 2.30613e-10 2.3386e-10 2.35292e-10 2.34553e-10
2.31299e-10 2.2523e-10 2.16146e-10 2.03974e-10 1.8876e-10 1.70672e-10
1.49986e-10 1.27082e-10 1.02438e-10 7.6608e-11 5.01858e-11 2.3757e-11
-2.15436e-12 -2.71433e-11 -5.09513e-11 -7.35317e-11 -9.49904e-11 -1.1556e-10
-1.35511e-10 -1.55044e-10 -1.74158e-10 -1.92607e-10 -2.09918e-10 -2.25482e-10
-2.38666e-10 -2.48923e-10 -2.55847e-10 -2.59208e-10 -2.58934e-10 -2.55076e-10
-2.47777e-10 -2.37249e-10 -2.23772e-10 -2.07699e-10 -1.89482e-10 -1.69702e-10
-1.49058e-10 -1.28326e-10 -1.08316e-10 -8.97911e-11 -7.34118e-11 -5.96734e-11
-4.88441e-11 -4.09184e-11 -3.56028e-11 -3.23648e-11 -3.04954e-11 -2.92207e-11
-2.77779e-11 -2.55218e-11 -2.20162e-11 -1.70829e-11 -1.08193e-11 -3.51525e-12
4.4342e-12 1.26654e-11 2.09047e-11 2.90128e-11 3.69638e-11 4.48074e-11
5.26494e-11 6.05702e-11 6.86086e-11 7.67115e-11 8.47906e-11 9.27697e-11
1.00663e-10 1.08579e-10 1.1667e-10 1.25077e-10 1.33842e-10 1.42876e-10
1.5195e-10 1.60716e-10 1.6877e-10 1.75717e-10 1.81236e-10 1.85126e-10
1.873e-10 1.87777e-10 1.86629e-10 1.83961e-10 1.79878e-10 1.74485e-10
1.67884e-10 1.60153e-10 1.51335e-10 1.41434e-10 1.30441e-10 1.1832e-10
1.0503e-10 9.05623e-11 7.49664e-11 5.83918e-11 4.10807e-11 2.33072e-11
5.3275e-12 -1.2671e-11 -3.05698e-11 -4.83088e-11 -6.5859e-11 -8.31686e-11
-1.00128e-10 -1.16543e-10 -1.32122e-10 -1.46508e-10 -1.59319e-10 -1.70197e-10
-1.78851e-10 -1.85086e-10 -1.8879e-10 -1.89921e-10 -1.88476e-10 -1.8449e-10
-1.78043e-10 -1.69296e-10 -1.58491e-10 -1.4598e-10 -1.32219e-10 -1.17789e-10
-1.03355e-10 -8.96165e-11 -7.72319e-11 -6.67542e-11 -5.86002e-11 -5.30029e-11
-4.99913e-11 -4.93568e-11 -5.06518e-11 -5.32345e-11 -5.63554e-11 -5.92678e-11
-6.1309e-11 -6.1976e-11 -6.09671e-11 -5.82043e-11 -5.3811e-11 -4.8056e-11
-4.12461e-11 -3.3635e-11 -2.53622e-11 -1.6473e-11 -6.97448e-12 3.09271e-12
1.35951e-11 2.42955e-11 3.48906e-11 4.50588e-11 5.45354e-11 6.31474e-11
7.08389e-11 7.7641e-11 8.36607e-11 8.90399e-11 9.39383e-11 9.85132e-11
1.02906e-10 1.07233e-10 1.11563e-10 1.15929e-10 1.20344e-10 1.24791e-10
1.29226e-10 1.33551e-10 1.37603e-10 1.41158e-10 1.43944e-10 1.45673e-10
1.46063e-10 1.44848e-10 1.418e-10 1.36743e-10 1.29612e-10 1.20485e-10
1.09606e-10 9.73727e-11 8.42823e-11 7.08389e-11 5.74625e-11 4.44067e-11
3.17476e-11 1.93907e-11 7.14376e-12 -5.1863e-12 -1.77067e-11 -3.03852e-11
-4.3064e-11 -5.55018e-11 -6.74416e-11 -7.86677e-11 -8.90218e-11 -9.83917e-11
-1.06701e-10 -1.13869e-10 -1.19798e-10 -1.24343e-10 -1.27333e-10 -1.28612e-10
-1.28114e-10 -1.25901e-10 -1.22175e-10 -1.17241e-10 -1.11489e-10 -1.05354e-10
-9.9281e-11 -9.37027e-11 -8.89834e-11 -8.54049e-11 -8.31241e-11 -8.21696e-11
-8.24167e-11 -8.35879e-11 -8.52498e-11 -8.68512e-11 -8.77872e-11 -8.75251e-11
-8.57046e-11 -8.21931e-11 -7.71008e-11 -7.072e-11 -6.3453e-11 -5.57288e-11
-4.79301e-11 -4.03384e-11 -3.31185e-11 -2.6352e-11 -2.0064e-11 -1.42532e-11
-8.87042e-12 -3.83039e-12 9.97233e-13 5.78529e-12 1.07336e-11 1.60648e-11
2.1999e-11 2.87289e-11 3.63799e-11 4.49821e-11 5.44515e-11 6.46089e-11
7.51751e-11 8.58152e-11 9.61691e-11 1.05891e-10 1.14692e-10 1.22379e-10
1.28876e-10 1.34218e-10 1.38497e-10 1.41805e-10 1.44173e-10 1.45542e-10
1.45792e-10 1.44762e-10 1.42318e-10 1.38399e-10 1.33079e-10 1.26573e-10
1.19233e-10 1.11466e-10 1.03645e-10 9.60163e-11 8.86481e-11 8.14351e-11
7.4142e-11 6.64704e-11 5.81428e-11 4.89522e-11 3.88152e-11 2.77481e-11
1.58488e-11 3.20384e-12 -1.01126e-11 -2.40341e-11 -3.84552e-11 -5.31684e-11
-6.7861e-11 -8.21205e-11 -9.54766e-11 -1.0744e-10 -1.17554e-10 -1.25443e-10
-1.3086e-10 -1.33713e-10 -1.34082e-10 -1.32215e-10 -1.28484e-10 -1.23353e-10
-1.17337e-10 -1.10969e-10 -1.0476e-10 -9.91528e-11 -9.44881e-11 -9.09457e-11
-8.85216e-11 -8.70314e-11 -8.61563e-11 -8.55261e-11 -8.47979e-11 -8.37288e-11
-8.22063e-11 -8.02234e-11 -7.78346e-11 -7.51066e-11 -7.20866e-11 -6.87885e-11
-6.5178e-11 -6.11791e-11 -5.66859e-11 -5.16021e-11 -4.58736e-11 -3.95025e-11
-3.25407e-11 -2.50738e-11 -1.72053e-11 -9.04269e-12 -6.76717e-13 7.81244e-12
1.63607e-11 2.49242e-11 3.34987e-11 4.21126e-11 5.08049e-11 5.9598e-11
6.84721e-11 7.73691e-11 8.62026e-11 9.48787e-11 1.03319e-10 1.11478e-10
1.19363e-10 1.27022e-10 1.345e-10 1.41769e-10 1.48688e-10 1.55009e-10
1.60415e-10 1.64582e-10 1.67243e-10 1.68237e-10 1.67537e-10 1.65241e-10
1.61527e-10 1.56583e-10 1.50532e-10 1.4339e-10 1.35069e-10 1.2542e-10
1.14304e-10 1.01655e-10 8.75125e-11 7.20102e-11 5.53644e-11 3.78373e-11
1.97111e-11 1.26531e-12 -1.7256e-11 -3.56244e-11 -5.36056e-11 -7.09227e-11
-8.72422e-11 -1.02176e-10 -1.15318e-10 -1.26286e-10 -1.34759e-10 -1.4052e-10
-1.43474e-10 -1.43669e-10 -1.41314e-10 -1.36783e-10;
#X coords 0 1 441 -1 200 140 1 0 0;
#X restore 1290 1124 graph;
#X floatatom 1613 501 5 0 0 0 - - -;
#X floatatom 1578 501 5 0 0 0 - - -;
#X obj 1577 481 f;
#X obj 1548 668 gaten;
#X floatatom 1555 614 5 0 0 0 - - -;
#X obj 1545 587 rmstodb;
#X obj 1588 410 loadbang;
#X msg 1614 461 10;
#X obj 1588 430 t b b;
#X obj 1464 738 loadbang;
#X obj 1464 782 metro 100;
#X obj 1474 762 tgl 15 0 empty empty empty 17 7 0 10 -262144 -1 -1
1 1;
#X obj 1592 948 unpack;
#X floatatom 1592 995 0 0 0 0 - - -;
#X floatatom 1606 975 0 0 0 0 - - -;
#X obj 1651 924 route 1 2 3 4;
#X obj 1668 956 unpack;
#X floatatom 1667 1001 0 0 0 0 - - -;
#X floatatom 1682 983 0 0 0 0 - - -;
#X obj 1740 958 unpack;
#X floatatom 1771 1010 0 0 0 0 - - -;
#X floatatom 1778 991 0 0 0 0 - - -;
#X floatatom 1594 919 0 0 0 0 - - -;
#X obj 1603 892 fiddle~ 1024 1 20 3;
#X obj 1617 790 bng 15 250 50 0 empty empty empty 17 7 0 10 -262144
-1 -1;
#X obj 1632 840 mod 2;
#X msg 1635 865 auto \$1;
#X floatatom 1668 1085 5 0 0 0 - - -;
#X obj 1643 795 bng 15 250 50 0 empty empty empty 17 7 0 10 -262144
-1 -1;
#X obj 1642 774 loadbang;
#X obj 1544 564 env~;
#N canvas 0 0 450 300 (subpatch) 0;
#X array 3bp3200 441 float 3;
#A 0 0 0 0 0 0 0 0 0 0 0 0 0 0 0 0 0 0 0 0 0 0 0 0 0 0 0 0 0 0 0 0
0 0 0 0 0 0 0 0 0 0 0 0 0 0 0 0 0 0 0 0 0 0 0 0 0 0 0 0 0 0 0 0 0 0
0 0 0 0 0 0 0 0 0 0 0 0 0 0 0 0 0 0 0 0 0 0 0 0 0 0 0 0 0 0 0 0 0 0
0 0 0 0 0 0 0 0 0 0 0 0 0 0 0 0 0 0 0 0 0 0 0 0 0 0 0 0 0 0 0 0 0 0
0 0 0 0 0 0 0 0 0 0 0 0 0 0 0 0 0 0 0 0 0 0 0 0 0 0 0 0 0 0 0 0 0 0
0 0 0 0 0 0 0 0 0 0 0 0 0 0 0 0 0 0 0 0 0 0 0 0 0 0 0 0 0 0 0 0 0 0
0 0 0 0 0 0 0 0 0 0 0 0 0 0 0 0 0 0 0 0 0 0 0 0 0 0 0 0 0 0 0 0 0 0
0 0 0 0 0 0 0 0 0 0 0 0 0 0 0 0 0 0 0 0 0 0 0 0 0 0 0 0 0 0 0 0 0 0
0 0 0 0 0 0 0 0 0 0 0 0 0 0 0 0 0 0 0 0 0 0 0 0 0 0 0 0 0 0 0 0 0 0
0 0 0 0 0 0 0 0 0 0 0 0 0 0 0 0 0 0 0 0 0 0 0 0 0 0 0 0 0 0 0 0 0 0
0 0 0 0 0 0 0 0 0 0 0 0 0 0 0 0 0 0 0 0 0 0 0 0 0 0 0 0 0 0 0 0 0 0
0 0 0 0 0 0 0 0 0 0 0 0 0 0 0 0 0 0 0 0 0 0 0 0 0 0 0 0 0 0 0 0 0 0
0 0 0 0 0 0 0 0 0 0 0 0 0 0 0 0 0 0 0 0 0 0 0 0 0 0 0 0 0 0 0 0 0 0
0 0;
#X coords 0 1 441 -1 200 140 1 0 0;
#X restore 1558 1126 graph;
#X floatatom 786 497 5 0 0 0 - - -;
#X floatatom 751 497 5 0 0 0 - - -;
#X obj 750 477 f;
#X obj 705 666 gaten;
#X floatatom 732 608 5 0 0 0 - - -;
#X obj 718 583 rmstodb;
#X obj 761 406 loadbang;
#X msg 787 457 10;
#X obj 761 426 t b b;
#X obj 616 740 loadbang;
#X obj 616 784 metro 100;
#X obj 626 764 tgl 15 0 empty empty empty 17 7 0 10 -262144 -1 -1 1
1;
#X obj 765 944 unpack;
#X floatatom 765 991 0 0 0 0 - - -;
#X floatatom 779 971 0 0 0 0 - - -;
#X obj 824 920 route 1 2 3 4;
#X obj 841 952 unpack;
#X floatatom 840 997 0 0 0 0 - - -;
#X floatatom 855 979 0 0 0 0 - - -;
#X obj 913 954 unpack;
#X floatatom 943 1004 0 0 0 0 - - -;
#X floatatom 950 985 0 0 0 0 - - -;
#X floatatom 767 915 0 0 0 0 - - -;
#X obj 776 888 fiddle~ 1024 1 20 3;
#X obj 790 786 bng 15 250 50 0 empty empty empty 17 7 0 10 -262144
-1 -1;
#X obj 805 836 mod 2;
#X msg 801 856 auto \$1;
#X floatatom 841 1081 5 0 0 0 - - -;
#X obj 816 791 bng 15 250 50 0 empty empty empty 17 7 0 10 -262144
-1 -1;
#X obj 815 770 loadbang;
#X obj 717 560 env~;
#N canvas 65 82 450 300 (subpatch) 0;
#X array 3bp400 441 float 3;
#A 0 0 0 0 0 0 0 0 0 0 0 0 0 0 0 0 0 0 0 0 0 0 0 0 0 0 0 0 0 0 0 0
0 0 0 0 0 0 0 0 0 0 0 0 0 0 0 0 0 0 0 0 0 0 0 0 0 0 0 0 0 0 0 0 0 0
0 0 0 0 0 0 0 0 0 0 0 0 0 0 0 0 0 0 0 0 0 0 0 0 0 0 0 0 0 0 0 0 0 0
0 0 0 0 0 0 0 0 0 0 0 0 0 0 0 0 0 0 0 0 0 0 0 0 0 0 0 0 0 0 0 0 0 0
0 0 0 0 0 0 0 0 0 0 0 0 0 0 0 0 0 0 0 0 0 0 0 0 0 0 0 0 0 0 0 0 0 0
0 0 0 0 0 0 0 0 0 0 0 0 0 0 0 0 0 0 0 0 0 0 0 0 0 0 0 0 0 0 0 0 0 0
0 0 0 0 0 0 0 0 0 0 0 0 0 0 0 0 0 0 0 0 0 0 0 0 0 0 0 0 0 0 0 0 0 0
0 0 0 0 0 0 0 0 0 0 0 0 0 0 0 0 0 0 0 0 0 0 0 0 0 0 0 0 0 0 0 0 0 0
0 0 0 0 0 0 0 0 0 0 0 0 0 0 0 0 0 0 0 0 0 0 0 0 0 0 0 0 0 0 0 0 0 0
0 0 0 0 0 0 0 0 0 0 0 0 0 0 0 0 0 0 0 0 0 0 0 0 0 0 0 0 0 0 0 0 0 0
0 0 0 0 0 0 0 0 0 0 0 0 0 0 0 0 0 0 0 0 0 0 0 0 0 0 0 0 0 0 0 0 0 0
0 0 0 0 0 0 0 0 0 0 0 0 0 0 0 0 0 0 0 0 0 0 0 0 0 0 0 0 0 0 0 0 0 0
0 0 0 0 0 0 0 0 0 0 0 0 0 0 0 0 0 0 0 0 0 0 0 0 0 0 0 0 0 0 0 0 0 0
0 0;
#X coords 0 1 441 -1 200 140 1 0 0;
#X restore 731 1122 graph;
#X floatatom 493 497 5 0 0 0 - - -;
#X floatatom 458 497 5 0 0 0 - - -;
#X obj 457 477 f;
#X obj 428 664 gaten;
#X floatatom 424 605 5 0 0 0 - - -;
#X obj 425 583 rmstodb;
#X obj 468 406 loadbang;
#X msg 494 457 10;
#X obj 468 426 t b b;
#X obj 357 765 loadbang;
#X obj 357 809 metro 100;
#X obj 367 789 tgl 15 0 empty empty empty 17 7 0 10 -262144 -1 -1 1
1;
#X obj 472 944 unpack;
#X floatatom 472 991 0 0 0 0 - - -;
#X floatatom 486 971 0 0 0 0 - - -;
#X obj 531 920 route 1 2 3 4;
#X obj 548 952 unpack;
#X floatatom 547 997 0 0 0 0 - - -;
#X floatatom 562 979 0 0 0 0 - - -;
#X obj 620 954 unpack;
#X floatatom 644 1005 0 0 0 0 - - -;
#X floatatom 651 986 0 0 0 0 - - -;
#X floatatom 474 915 0 0 0 0 - - -;
#X obj 483 888 fiddle~ 1024 1 20 3;
#X obj 497 786 bng 15 250 50 0 empty empty empty 17 7 0 10 -262144
-1 -1;
#X obj 512 836 mod 2;
#X msg 515 861 auto \$1;
#X floatatom 548 1081 5 0 0 0 - - -;
#X obj 523 791 bng 15 250 50 0 empty empty empty 17 7 0 10 -262144
-1 -1;
#X obj 522 770 loadbang;
#X obj 424 560 env~;
#N canvas 0 0 450 300 (subpatch) 0;
#X array 3bp200 441 float 3;
#A 0 0 0 0 0 0 0 0 0 0 0 0 0 0 0 0 0 0 0 0 0 0 0 0 0 0 0 0 0 0 0 0
0 0 0 0 0 0 0 0 0 0 0 0 0 0 0 0 0 0 0 0 0 0 0 0 0 0 0 0 0 0 0 0 0 0
0 0 0 0 0 0 0 0 0 0 0 0 0 0 0 0 0 0 0 0 0 0 0 0 0 0 0 0 0 0 0 0 0 0
0 0 0 0 0 0 0 0 0 0 0 0 0 0 0 0 0 0 0 0 0 0 0 0 0 0 0 0 0 0 0 0 0 0
0 0 0 0 0 0 0 0 0 0 0 0 0 0 0 0 0 0 0 0 0 0 0 0 0 0 0 0 0 0 0 0 0 0
0 0 0 0 0 0 0 0 0 0 0 0 0 0 0 0 0 0 0 0 0 0 0 0 0 0 0 0 0 0 0 0 0 0
0 0 0 0 0 0 0 0 0 0 0 0 0 0 0 0 0 0 0 0 0 0 0 0 0 0 0 0 0 0 0 0 0 0
0 0 0 0 0 0 0 0 0 0 0 0 0 0 0 0 0 0 0 0 0 0 0 0 0 0 0 0 0 0 0 0 0 0
0 0 0 0 0 0 0 0 0 0 0 0 0 0 0 0 0 0 0 0 0 0 0 0 0 0 0 0 0 0 0 0 0 0
0 0 0 0 0 0 0 0 0 0 0 0 0 0 0 0 0 0 0 0 0 0 0 0 0 0 0 0 0 0 0 0 0 0
0 0 0 0 0 0 0 0 0 0 0 0 0 0 0 0 0 0 0 0 0 0 0 0 0 0 0 0 0 0 0 0 0 0
0 0 0 0 0 0 0 0 0 0 0 0 0 0 0 0 0 0 0 0 0 0 0 0 0 0 0 0 0 0 0 0 0 0
0 0 0 0 0 0 0 0 0 0 0 0 0 0 0 0 0 0 0 0 0 0 0 0 0 0 0 0 0 0 0 0 0 0
0 0;
#X coords 0 1 441 -1 200 140 1 0 0;
#X restore 438 1122 graph;
#X floatatom 207 502 5 0 0 0 - - -;
#X floatatom 172 502 5 0 0 0 - - -;
#X obj 171 482 f;
#X obj 142 669 gaten;
#X floatatom 138 610 5 0 0 0 - - -;
#X obj 139 588 rmstodb;
#X obj 182 411 loadbang;
#X msg 208 462 10;
#X obj 182 431 t b b;
#X obj 62 732 loadbang;
#X obj 62 776 metro 100;
#X obj 72 756 tgl 15 0 empty empty empty 17 7 0 10 -262144 -1 -1 1
1;
#X obj 186 949 unpack;
#X floatatom 186 996 0 0 0 0 - - -;
#X floatatom 200 976 0 0 0 0 - - -;
#X obj 245 925 route 1 2 3 4;
#X obj 262 957 unpack;
#X floatatom 261 1002 0 0 0 0 - - -;
#X floatatom 276 984 0 0 0 0 - - -;
#X obj 334 959 unpack;
#X floatatom 362 1008 0 0 0 0 - - -;
#X floatatom 369 989 0 0 0 0 - - -;
#X floatatom 188 920 0 0 0 0 - - -;
#X obj 197 893 fiddle~ 1024 1 20 3;
#X obj 211 791 bng 15 250 50 0 empty empty empty 17 7 0 10 -262144
-1 -1;
#X obj 226 841 mod 2;
#X msg 229 866 auto \$1;
#X floatatom 262 1086 5 0 0 0 - - -;
#X obj 237 796 bng 15 250 50 0 empty empty empty 17 7 0 10 -262144
-1 -1;
#X obj 236 775 loadbang;
#X obj 138 565 env~;
#N canvas 0 0 450 300 (subpatch) 0;
#X array 3bp100 441 float 3;
#A 0 0 0 0 0 0 0 0 0 0 0 0 0 0 0 0 0 0 0 0 0 0 0 0 0 0 0 0 0 0 0 0
0 0 0 0 0 0 0 0 0 0 0 0 0 0 0 0 0 0 0 0 0 0 0 0 0 0 0 0 0 0 0 0 0 0
0 0 0 0 0 0 0 0 0 0 0 0 0 0 0 0 0 0 0 0 0 0 0 0 0 0 0 0 0 0 0 0 0 0
0 0 0 0 0 0 0 0 0 0 0 0 0 0 0 0 0 0 0 0 0 0 0 0 0 0 0 0 0 0 0 0 0 0
0 0 0 0 0 0 0 0 0 0 0 0 0 0 0 0 0 0 0 0 0 0 0 0 0 0 0 0 0 0 0 0 0 0
0 0 0 0 0 0 0 0 0 0 0 0 0 0 0 0 0 0 0 0 0 0 0 0 0 0 0 0 0 0 0 0 0 0
0 0 0 0 0 0 0 0 0 0 0 0 0 0 0 0 0 0 0 0 0 0 0 0 0 0 0 0 0 0 0 0 0 0
0 0 0 0 0 0 0 0 0 0 0 0 0 0 0 0 0 0 0 0 0 0 0 0 0 0 0 0 0 0 0 0 0 0
0 0 0 0 0 0 0 0 0 0 0 0 0 0 0 0 0 0 0 0 0 0 0 0 0 0 0 0 0 0 0 0 0 0
0 0 0 0 0 0 0 0 0 0 0 0 0 0 0 0 0 0 0 0 0 0 0 0 0 0 0 0 0 0 0 0 0 0
0 0 0 0 0 0 0 0 0 0 0 0 0 0 0 0 0 0 0 0 0 0 0 0 0 0 0 0 0 0 0 0 0 0
0 0 0 0 0 0 0 0 0 0 0 0 0 0 0 0 0 0 0 0 0 0 0 0 0 0 0 0 0 0 0 0 0 0
0 0 0 0 0 0 0 0 0 0 0 0 0 0 0 0 0 0 0 0 0 0 0 0 0 0 0 0 0 0 0 0 0 0
0 0;
#X coords 0 1 441 -1 200 140 1 0 0;
#X restore 120 1133 graph;
#X obj 146 530 bp~ 100 10;
#X msg 172 462 100;
#X obj 61 801 tabwrite~ 3bp100;
#X obj 432 524 bp~ 200 10;
#X obj 356 834 tabwrite~ 3bp200;
#X obj 724 525 bp~ 400 10;
#X obj 615 808 tabwrite~ 3bp400;
#X obj 1013 524 bp~ 800 10;
#X obj 955 831 tabwrite~ 3bp800;
#X obj 260 1040 moses 50;
#X obj 1284 527 bp~ 1600 10;
#X obj 1207 853 tabwrite~ 3bp1600;
#X obj 1552 529 bp~ 3200 10;
#X obj 1463 807 tabwrite~ 3bp3200;
#X msg 1039 456 800;
#X msg 1313 453 1600;
#X msg 1578 461 3200;
#X msg 751 457 400;
#X msg 457 457 200;
#X floatatom 1955 498 5 0 0 0 - - -;
#X floatatom 1920 498 5 0 0 0 - - -;
#X obj 1919 478 f;
#X obj 1890 665 gaten;
#X floatatom 1886 606 5 0 0 0 - - -;
#X obj 1887 584 rmstodb;
#X obj 1930 407 loadbang;
#X msg 1956 458 10;
#X obj 1930 427 t b b;
#X obj 1810 750 loadbang;
#X obj 1810 794 metro 100;
#X obj 1820 774 tgl 15 0 empty empty empty 17 7 0 10 -262144 -1 -1
1 1;
#X obj 1934 945 unpack;
#X floatatom 1934 992 0 0 0 0 - - -;
#X floatatom 1948 972 0 0 0 0 - - -;
#X obj 1993 921 route 1 2 3 4;
#X obj 2010 953 unpack;
#X floatatom 2009 998 0 0 0 0 - - -;
#X floatatom 2024 980 0 0 0 0 - - -;
#X obj 2082 955 unpack;
#X floatatom 2110 1004 0 0 0 0 - - -;
#X floatatom 2117 985 0 0 0 0 - - -;
#X floatatom 1936 916 0 0 0 0 - - -;
#X obj 1945 889 fiddle~ 1024 1 20 3;
#X obj 1959 787 bng 15 250 50 0 empty empty empty 17 7 0 10 -262144
-1 -1;
#X obj 1974 837 mod 2;
#X msg 1977 862 auto \$1;
#X floatatom 2010 1082 5 0 0 0 - - -;
#X obj 1985 792 bng 15 250 50 0 empty empty empty 17 7 0 10 -262144
-1 -1;
#X obj 1984 771 loadbang;
#X obj 1886 561 env~;
#N canvas 0 0 450 300 (subpatch) 0;
#X array 3bp6400 441 float 3;
#A 0 0 0 0 0 0 0 0 0 0 0 0 0 0 0 0 0 0 0 0 0 0 0 0 0 0 0 0 0 0 0 0
0 0 0 0 0 0 0 0 0 0 0 0 0 0 0 0 0 0 0 0 0 0 0 0 0 0 0 0 0 0 0 0 0 0
0 0 0 0 0 0 0 0 0 0 0 0 0 0 0 0 0 0 0 0 0 0 0 0 0 0 0 0 0 0 0 0 0 0
0 0 0 0 0 0 0 0 0 0 0 0 0 0 0 0 0 0 0 0 0 0 0 0 0 0 0 0 0 0 0 0 0 0
0 0 0 0 0 0 0 0 0 0 0 0 0 0 0 0 0 0 0 0 0 0 0 0 0 0 0 0 0 0 0 0 0 0
0 0 0 0 0 0 0 0 0 0 0 0 0 0 0 0 0 0 0 0 0 0 0 0 0 0 0 0 0 0 0 0 0 0
0 0 0 0 0 0 0 0 0 0 0 0 0 0 0 0 0 0 0 0 0 0 0 0 0 0 0 0 0 0 0 0 0 0
0 0 0 0 0 0 0 0 0 0 0 0 0 0 0 0 0 0 0 0 0 0 0 0 0 0 0 0 0 0 0 0 0 0
0 0 0 0 0 0 0 0 0 0 0 0 0 0 0 0 0 0 0 0 0 0 0 0 0 0 0 0 0 0 0 0 0 0
0 0 0 0 0 0 0 0 0 0 0 0 0 0 0 0 0 0 0 0 0 0 0 0 0 0 0 0 0 0 0 0 0 0
0 0 0 0 0 0 0 0 0 0 0 0 0 0 0 0 0 0 0 0 0 0 0 0 0 0 0 0 0 0 0 0 0 0
0 0 0 0 0 0 0 0 0 0 0 0 0 0 0 0 0 0 0 0 0 0 0 0 0 0 0 0 0 0 0 0 0 0
0 0 0 0 0 0 0 0 0 0 0 0 0 0 0 0 0 0 0 0 0 0 0 0 0 0 0 0 0 0 0 0 0 0
0 0;
#X coords 0 1 441 -1 200 140 1 0 0;
#X restore 1869 1135 graph;
#X msg 1920 458 100;
#X obj 1130 1055 moses 1200;
#X obj 1398 1037 moses 1200;
#X obj 1401 1058 moses 2400;
#X obj 1666 1039 moses 2400;
#X obj 1894 526 bp~ 6400 10;
#X obj 1809 819 tabwrite~ 3bp6400;
#X obj 2011 1057 moses 9600;
#X obj 1669 1060 moses 4800;
#X obj 2008 1036 moses 4800;
#X obj 1393 1107 s msgfreq;
#X floatatom 190 1405 10 0 0 0 - - -;
#X obj 1668 1110 s msgfreq;
#X obj 2010 1112 s msgfreq;
#X obj 843 1102 s msgfreq;
#X obj 545 1105 s msgfreq;
#X obj 263 1108 s msgfreq;
#X obj 878 739 dac~;
#X obj 893 692 *~ 1;
#X obj 244 1484 metro 10000;
#X obj 193 1545 print [compt];
#X obj 197 1384 r msgfreq;
#X obj 1133 1103 s msgfreq;
#X floatatom 1067 592 5 0 0 0 - - -;
#X obj 1068 611 rmstodb;
#X floatatom 1069 634 5 0 0 0 - - -;
#X obj 1071 571 env~;
#X floatatom 786 602 5 0 0 0 - - -;
#X obj 787 621 rmstodb;
#X floatatom 787 641 5 0 0 0 - - -;
#X obj 790 581 env~;
#X floatatom 496 595 5 0 0 0 - - -;
#X obj 497 614 rmstodb;
#X floatatom 497 634 5 0 0 0 - - -;
#X obj 500 574 env~;
#X floatatom 213 607 5 0 0 0 - - -;
#X obj 214 626 rmstodb;
#X floatatom 214 646 5 0 0 0 - - -;
#X obj 217 586 env~;
#X floatatom 1622 605 5 0 0 0 - - -;
#X obj 1623 624 rmstodb;
#X floatatom 1623 644 5 0 0 0 - - -;
#X obj 1626 584 env~;
#X floatatom 1969 598 5 0 0 0 - - -;
#X obj 1970 617 rmstodb;
#X floatatom 1970 637 5 0 0 0 - - -;
#X obj 1973 577 env~;
#X obj 787 557 *~ 0.3;
#X obj 1069 547 *~ 0.3;
#X obj 1334 560 *~ 0.3;
#X obj 1624 560 *~ 0.3;
#X obj 1971 553 *~ 0.3;
#X obj 497 549 *~ 0.3;
#X obj 215 562 *~ 0.3;
#X obj 842 1056 moses 650;
#X obj 1127 1034 moses 550;
#X obj 839 1035 moses 275;
#X obj 549 1056 moses 325;
#X obj 547 1035 moses 125;
#X obj 263 1061 moses 175;
#X obj 1398 2112 bng 15 250 50 0 empty empty empty 17 7 0 10 -262144
-1 -1;
#X obj 1088 810 compt;
#X obj 1359 813 compt;
#X obj 1627 815 compt;
#X obj 800 811 compt;
#X obj 507 811 compt;
#X obj 221 816 compt;
#X obj 1969 812 compt;
#X obj 182 1452 round;
#X obj 1267 883 spigot~;
#X msg 1337 866 \$1;
#X obj 1218 919 print [fiddle];
#X obj 476 1507 print [RELAMELODIE];
#X obj 979 882 spigot~;
#X obj 404 883 spigot~;
#X obj 1863 880 spigot~;
#X obj 100 888 spigot~;
#X obj 700 875 spigot~;
#X obj 1525 888 spigot~;
#X msg 756 853 \$1;
#X msg 153 856 \$1;
#X msg 482 859 \$1;
#X msg 1039 860 \$1;
#X msg 1571 863 \$1;
#X msg 1937 860 \$1;
#N canvas 65 54 1855 1026 test 0;
#X obj 803 -4012 round;
#X floatatom 809 -3986 5 0 0 0 - - -;
#X obj 799 -3883 spigot;
#X obj 831 -3911 !=;
#X obj 829 -3941 f;
#X obj 806 -3964 t f b f f;
#X obj 799 -3825 bng 15 250 50 0 empty empty empty 17 7 0 10 -262144
-1 -1;
#X obj 766 -3825 bng 15 250 50 0 empty empty empty 17 7 0 10 -262144
-1 -1;
#X obj 763 -3801 timer;
#X obj 796 -4049 ftom;
#X floatatom 689 -4030 5 0 0 0 - - -;
#X obj 729 -3915 bng 15 250 50 0 empty empty empty 17 7 0 10 -262144
-1 -1;
#X msg 816 -4087 460;
#X msg 847 -4084 260;
#X msg 685 -3627 list;
#X obj 678 -3403 print [MELODIE];
#X obj 588 -3644 bng 15 250 50 0 empty empty empty 17 7 0 10 -262144
-1 -1;
#X obj 746 -3856 t b f b b b;
#X msg 691 -3987 0;
#X obj 694 -4010 delay 10;
#X obj 599 -3966 t b b b b;
#X obj 713 -3758 pack f f f;
#X obj 622 -3864 compt;
#X floatatom 609 -3809 5 0 0 0 - - -;
#X obj 560 -3967 bng 15 250 50 0 empty empty empty 17 7 0 10 -262144
-1 -1;
#X msg 602 -4015 bang;
#X obj 715 -3737 route 0;
#X msg 755 -3712 add2 \$3 \$2;
#X msg 700 -3715 add2 \$1;
#X obj 601 -3995 delay 1000;
#X obj 585 -3780 moses 100;
#X msg 961 -3742 bang;
#X obj 960 -3716 delay 10000;
#X obj 763 -3779 round;
#X floatatom 510 -3855 5 0 0 0 - - -;
#X obj 618 -3834 t b f;
#X msg 522 -3791 set list;
#X obj 716 -3445 list2symbol;
#X obj 596 -3547 pMelodie;
#X obj 536 -3600 loadbang;
#X msg 535 -3575 round 100;
#X connect 0 0 1 0;
#X connect 1 0 5 0;
#X connect 2 0 17 0;
#X connect 2 0 22 0;
#X connect 2 0 31 0;
#X connect 3 0 2 1;
#X connect 4 0 3 1;
#X connect 5 0 2 0;
#X connect 5 0 11 0;
#X connect 5 1 4 0;
#X connect 5 2 4 1;
#X connect 5 3 3 0;
#X connect 6 0 8 1;
#X connect 7 0 8 0;
#X connect 8 0 33 0;
#X connect 9 0 0 0;
#X connect 9 0 10 0;
#X connect 10 0 19 0;
#X connect 10 0 25 0;
#X connect 12 0 9 0;
#X connect 13 0 9 0;
#X connect 14 0 15 0;
#X connect 14 0 37 0;
#X connect 16 0 14 0;
#X connect 17 1 21 1;
#X connect 17 2 7 0;
#X connect 17 3 6 0;
#X connect 18 0 1 0;
#X connect 19 0 18 0;
#X connect 20 0 36 0;
#X connect 20 1 14 0;
#X connect 20 2 22 1;
#X connect 21 0 26 0;
#X connect 22 0 34 0;
#X connect 22 0 35 0;
#X connect 23 0 30 0;
#X connect 24 0 20 0;
#X connect 25 0 29 0;
#X connect 26 0 28 0;
#X connect 26 1 27 0;
#X connect 27 0 14 0;
#X connect 28 0 14 0;
#X connect 29 0 20 0;
#X connect 29 0 24 0;
#X connect 30 1 20 0;
#X connect 31 0 32 0;
#X connect 33 0 21 2;
#X connect 35 0 23 0;
#X connect 35 1 21 0;
#X connect 36 0 14 0;
#X connect 37 0 38 0;
#X connect 38 0 15 0;
#X connect 39 0 40 0;
#X connect 40 0 38 0;
#X restore 1041 1678 pd test;
#N canvas 989 87 927 998 rythme 1;
#X obj 327 89 loadbang;
#X obj 329 117 t b b b;
#X msg 386 151 debounce 0;
#X obj 332 221 bonk~;
#X obj 335 67 bng 15 250 50 0 empty empty empty 17 7 0 10 -262144 -1
-1;
#X obj 361 246 unpack f f;
#X obj 412 318 bng 15 250 50 0 empty empty empty 17 7 0 10 -262144
-1 -1;
#X obj 379 318 bng 15 250 50 0 empty empty empty 17 7 0 10 -262144
-1 -1;
#X obj 383 367 timer;
#X floatatom 383 410 5 0 0 0 - - -;
#X msg 449 309 bang;
#X obj 468 373 bng 15 250 50 0 empty empty empty 17 7 0 10 -262144
-1 -1;
#X obj 362 268 t f b b b b;
#X obj 628 223 f 0;
#X obj 664 222 + 1;
#X obj 628 197 bng 15 250 50 0 empty empty empty 17 7 0 10 -262144
-1 -1;
#X obj 632 246 t f f;
#X floatatom 615 291 5 0 0 0 - - -;
#X msg 660 187 0;
#X msg 496 312 stop;
#X obj 679 294 t b b f;
#X text 528 365 limite temps entre deux pics;
#X obj 470 396 t b b b b;
#X obj 549 493 bng 15 250 50 0 empty empty empty 17 7 0 10 -262144
-1 -1;
#X msg 514 496 set;
#X obj 360 526 bng 15 250 50 0 empty empty empty 17 7 0 10 -262144
-1 -1;
#X obj 302 534 bng 15 250 50 0 empty empty empty 17 7 0 10 -262144
-1 -1;
#X obj 343 450 pack f f f;
#X msg 216 566 add2 \$3 \$2;
#X obj 331 494 route 1;
#X msg 217 525 add2 \$1;
#X msg 329 471 \$2 \$1 \$3;
#X msg 606 532 add2 stop;
#X obj 591 491 bng 15 250 50 0 empty empty empty 17 7 0 10 -262144
-1 -1;
#X msg 348 193 minvel 10;
#X msg 360 173 thresh 20 80;
#X obj 467 342 delay 2000;
#X obj 635 267 moses 15;
#X obj 189 104 inlet~;
#X obj 354 799 bng 15 250 50 0 empty empty empty 17 7 0 10 -262144
-1 -1;
#X floatatom 328 858 5 0 0 0 - - -;
#X obj 315 892 bng 15 250 50 0 empty empty empty 17 7 0 10 -262144
-1 -1;
#X msg 298 1382 list 500 1/1 1/1 1/1 1/1 1/1;
#X obj 318 935 t b b;
#X msg 303 985 set list;
#X obj 434 964 f;
#X obj 410 922 bng 15 250 50 0 empty empty empty 17 7 0 10 -262144
-1 -1;
#X obj 695 928 f;
#X floatatom 479 1003 5 0 0 0 - - -;
#X obj 401 890 moses 1;
#X obj 666 952 /;
#X obj 691 1020 moses 0.96;
#X obj 765 1022 bng 15 250 50 0 beat empty beat 17 7 0 10 -262144 -1
-1;
#X obj 765 1044 bng 15 250 50 0 15_16th empty 15_16th 17 7 0 10 -262144
-1 -1;
#X obj 765 1065 bng 15 250 50 0 7_8th empty 7_8th 17 7 0 10 -262144
-1 -1;
#X obj 765 1088 bng 15 250 50 0 5_6th empty 5_6th 17 7 0 10 -262144
-1 -1;
#X obj 765 1109 bng 15 250 50 0 13_16th empty 13_16th 17 7 0 10 -262144
-1 -1;
#X obj 765 1131 bng 15 250 50 0 3_4th empty 3_4th 17 7 0 10 -262144
-1 -1;
#X obj 765 1153 bng 15 250 50 0 11_16th empty 11_16th 17 7 0 10 -262144
-1 -1;
#X obj 765 1175 bng 15 250 50 0 2_3rd empty 2_3rd 17 7 0 10 -262144
-1 -1;
#X obj 691 1042 moses 0.906;
#X obj 691 1064 moses 0.854;
#X obj 691 1086 moses 0.823;
#X obj 691 1108 moses 0.781;
#X obj 691 1130 moses 0.719;
#X obj 691 1152 moses 0.677;
#X obj 691 1174 moses 0.646;
#X obj 765 1197 bng 15 250 50 0 5_8th empty 5_8th 17 7 0 10 -262144
-1 -1;
#X obj 765 1219 bng 15 250 50 0 9_16th empty 9_16th 17 7 0 10 -262144
-1 -1;
#X obj 765 1241 bng 15 250 50 0 half empty half 17 7 0 10 -262144 -1
-1;
#X obj 765 1263 bng 15 250 50 0 7_16th empty 7_16th 17 7 0 10 -262144
-1 -1;
#X obj 765 1285 bng 15 250 50 0 3_8th empty 3_8th 17 7 0 10 -262144
-1 -1;
#X obj 765 1306 bng 15 250 50 0 1_3rd empty 1_3rd 17 7 0 10 -262144
-1 -1;
#X obj 765 1328 bng 15 250 50 0 5_16th empty 5_16th 17 7 0 10 -262144
-1 -1;
#X obj 765 1350 bng 15 250 50 0 1_4th empty 1_4th 17 7 0 10 -262144
-1 -1;
#X obj 691 1196 moses 0.594;
#X obj 691 1218 moses 0.531;
#X obj 691 1240 moses 0.469;
#X obj 691 1262 moses 0.406;
#X obj 691 1284 moses 0.354;
#X obj 691 1306 moses 0.323;
#X obj 691 1328 moses 0.281;
#X obj 691 1350 moses 0.219;
#X obj 765 1371 bng 15 250 50 0 3_16th empty 3_16th 17 7 0 10 -262144
-1 -1;
#X obj 765 1393 bng 15 250 50 0 1_6th empty 1_6th 17 7 0 10 -262144
-1 -1;
#X obj 765 1415 bng 15 250 50 0 1_8th empty 1_8th 17 7 0 10 -262144
-1 -1;
#X obj 765 1438 bng 15 250 50 0 1_16th empty 1_16th 17 7 0 10 -262144
-1 -1;
#X obj 691 1460 bng 15 250 50 0 negligeable empty negligeable 17 7
0 10 -262144 -1 -1;
#X obj 691 1372 moses 0.177;
#X obj 691 1393 moses 0.146;
#X obj 691 1415 moses 0.094;
#X obj 691 1437 moses 0.031;
#X msg 850 1030 add2 15/16;
#X msg 850 1056 add2 7/8;
#X msg 850 1078 add2 5/6;
#X msg 853 1100 add2 13/16;
#X msg 848 1127 add2 3/4;
#X msg 836 1154 add2 11/16;
#X msg 835 1178 add2 2/3;
#X msg 832 1200 add2 5/8;
#X msg 835 1220 add2 9/16;
#X msg 835 1242 add2 1/2;
#X msg 835 1265 add2 7/16;
#X msg 837 1284 add2 3/8;
#X msg 838 1304 add2 1/3;
#X msg 840 1325 add2 5/16;
#X msg 840 1345 add2 1/4;
#X msg 838 1368 add2 3/16;
#X msg 836 1393 add2 1/6;
#X msg 837 1415 add2 1/18;
#X msg 834 1444 add2 1/16;
#X obj 501 882 pack f f;
#X obj 502 920 route 0;
#X obj 555 1000 print [pack];
#X obj 409 736 t f f;
#X obj 461 843 t f f;
#X obj 661 893 t f b;
#X msg 577 930 \$2;
#X msg 841 1004 add2 1/1;
#X msg 445 1165 add2 \$1 1/1;
#X obj 407 655 / 10;
#X obj 409 697 * 10;
#X msg 419 622 1004;
#X obj 407 674 round;
#X obj 403 817 compt;
#X obj 346 1418 outlet;
#X msg 379 601 \$3;
#X obj 389 866 moses 14;
#X connect 0 0 1 0;
#X connect 1 0 34 0;
#X connect 1 1 35 0;
#X connect 1 2 2 0;
#X connect 2 0 3 0;
#X connect 3 1 5 0;
#X connect 4 0 0 0;
#X connect 5 1 12 0;
#X connect 6 0 8 1;
#X connect 7 0 8 0;
#X connect 8 0 9 0;
#X connect 9 0 27 2;
#X connect 10 0 36 0;
#X connect 11 0 22 0;
#X connect 12 0 27 0;
#X connect 12 1 7 0;
#X connect 12 2 6 0;
#X connect 12 3 10 0;
#X connect 12 4 13 0;
#X connect 13 0 16 0;
#X connect 14 0 13 1;
#X connect 15 0 13 0;
#X connect 16 0 37 0;
#X connect 16 1 14 0;
#X connect 17 0 27 1;
#X connect 18 0 13 0;
#X connect 19 0 36 0;
#X connect 20 0 11 0;
#X connect 20 1 19 0;
#X connect 20 2 18 0;
#X connect 22 0 24 0;
#X connect 22 1 23 0;
#X connect 22 2 18 0;
#X connect 22 2 33 0;
#X connect 27 0 31 0;
#X connect 29 0 26 0;
#X connect 29 0 30 0;
#X connect 29 1 25 0;
#X connect 29 1 28 0;
#X connect 29 1 126 0;
#X connect 31 0 29 0;
#X connect 33 0 32 0;
#X connect 34 0 3 0;
#X connect 35 0 3 0;
#X connect 36 0 11 0;
#X connect 37 0 17 0;
#X connect 37 1 20 0;
#X connect 38 0 3 0;
#X connect 39 0 124 0;
#X connect 42 0 125 0;
#X connect 43 0 44 0;
#X connect 43 1 42 0;
#X connect 44 0 42 0;
#X connect 45 0 119 0;
#X connect 45 0 48 0;
#X connect 45 0 47 1;
#X connect 46 0 45 0;
#X connect 47 0 50 1;
#X connect 49 0 46 0;
#X connect 50 0 51 0;
#X connect 51 0 60 0;
#X connect 51 1 52 0;
#X connect 51 1 118 0;
#X connect 60 0 61 0;
#X connect 60 1 53 0;
#X connect 60 1 92 0;
#X connect 61 0 62 0;
#X connect 61 1 54 0;
#X connect 61 1 93 0;
#X connect 62 0 63 0;
#X connect 62 1 55 0;
#X connect 62 1 94 0;
#X connect 63 0 64 0;
#X connect 63 1 56 0;
#X connect 63 1 95 0;
#X connect 64 0 65 0;
#X connect 64 1 57 0;
#X connect 64 1 96 0;
#X connect 65 0 66 0;
#X connect 65 1 58 0;
#X connect 65 1 97 0;
#X connect 66 0 75 0;
#X connect 66 1 59 0;
#X connect 66 1 98 0;
#X connect 75 0 76 0;
#X connect 75 1 67 0;
#X connect 75 1 99 0;
#X connect 76 0 77 0;
#X connect 76 1 68 0;
#X connect 76 1 100 0;
#X connect 77 0 78 0;
#X connect 77 1 69 0;
#X connect 77 1 101 0;
#X connect 78 0 79 0;
#X connect 78 1 70 0;
#X connect 78 1 102 0;
#X connect 79 0 80 0;
#X connect 79 1 71 0;
#X connect 79 1 103 0;
#X connect 80 0 81 0;
#X connect 80 1 72 0;
#X connect 80 1 104 0;
#X connect 81 0 82 0;
#X connect 81 1 73 0;
#X connect 81 1 105 0;
#X connect 82 0 88 0;
#X connect 82 1 74 0;
#X connect 82 1 106 0;
#X connect 88 0 89 0;
#X connect 88 1 83 0;
#X connect 88 1 107 0;
#X connect 89 0 90 0;
#X connect 89 1 84 0;
#X connect 89 1 108 0;
#X connect 90 0 91 0;
#X connect 90 1 85 0;
#X connect 90 1 109 0;
#X connect 91 0 87 0;
#X connect 91 1 86 0;
#X connect 91 1 110 0;
#X connect 92 0 42 0;
#X connect 93 0 42 0;
#X connect 94 0 42 0;
#X connect 95 0 42 0;
#X connect 96 0 42 0;
#X connect 97 0 42 0;
#X connect 98 0 42 0;
#X connect 99 0 42 0;
#X connect 100 0 42 0;
#X connect 101 0 42 0;
#X connect 102 0 42 0;
#X connect 103 0 42 0;
#X connect 104 0 42 0;
#X connect 105 0 42 0;
#X connect 106 0 42 0;
#X connect 107 0 42 0;
#X connect 108 0 42 0;
#X connect 109 0 42 0;
#X connect 110 0 42 0;
#X connect 111 0 112 0;
#X connect 112 0 45 1;
#X connect 112 1 117 0;
#X connect 114 0 124 0;
#X connect 114 1 111 1;
#X connect 115 0 127 0;
#X connect 115 1 111 0;
#X connect 116 0 50 0;
#X connect 116 1 47 0;
#X connect 117 0 116 0;
#X connect 118 0 42 0;
#X connect 119 0 42 0;
#X connect 120 0 123 0;
#X connect 121 0 114 0;
#X connect 122 0 120 0;
#X connect 123 0 121 0;
#X connect 124 0 40 0;
#X connect 124 0 115 0;
#X connect 126 0 120 0;
#X connect 127 0 41 0;
#X connect 127 0 49 0;
#X connect 127 1 43 0;
#X connect 127 1 124 1;
#X restore 767 102 pd rythme;
#N canvas 65 82 927 998 melodie 0;
#X obj 124 27 inlet;
#X obj 8 675 outlet;
#X obj 284 80 round;
#X floatatom 290 106 5 0 0 0 - - -;
#X obj 284 52 ftom;
#X obj 294 156 -;
#X obj 292 126 t f f;
#X obj 180 173 loadbang;
#X msg 182 226 0;
#X obj 301 285 spigot;
#X obj 333 257 !=;
#X obj 331 227 f;
#X obj 348 361 bng 15 250 50 0 empty empty empty 17 7 0 10 -262144
-1 -1;
#X obj 315 361 bng 15 250 50 0 empty empty empty 17 7 0 10 -262144
-1 -1;
#X obj 312 385 timer;
#X obj 231 253 bng 15 250 50 0 empty empty empty 17 7 0 10 -262144
-1 -1;
#X msg -11 598 list 89 0 4 0 -17 0 8 0 -19 12 24 0 -11 0 6 0 -19 23
24 0 -24 12 24 0 -24 12 24 0 -24 12 24 0 -24 12 24 0 -24 12 24 0 -24
12 24 0 -24 58 12 0 7 0 -19 12 13 0 6 0 -19 12 24 0 -24 23 24 0 -24
12 24 0 -24 12 24 0 -24 12 24 0 -24 93 19 0 -19 12 24 0 -24 12 24 0
-24 23 24 0 -24 151 5 12 -5 0 5 12 -5 0 5 12 -5 0 5 12 -5 0 5 12 -5
0 5 12 -5 0 5 12 -5 0 5 12 -5 0 5 12 -5 0 5 12 -5 0 5 12 -5 0 5 12
-5 0 5 12 -5 0 5 12 -5 0 5 12 -5 0 5 12 -5 0 5 12 -5 0 5 12 -5 0 5
12 -5 0 5 12 -5 0 5 12 -5 0 5 12 -5 0 5 12 -5 0 5 12 -5 0 5 12 -5 0
5 12 -5 0 5 12 -5 0 5 12 -5 0 5 12 -5 0 5 12 -5 0 5 12 -5 0 5 12 -5
0 5 12 -5 0 5 12 -5 12 5 12 -5 23 5 12 -5 46 24 0 -24 0 5 12 19 0 -24
0 5 12 -5 12 5 12 -5 0 5 12 -5 0 5 12 -5 23 24 0 -24 12 24 0 -24 12
24 0 -24 12 24 0 -24 12 24 0 -5 0 -19 12 24 0 -24 12 24 0 -5 0 -19
12 24 0 -24 12 24 0 -5 0 -19 12 24 0 -5 0 -19 12 24 0 -5 0 -19 12 24
0 -5 0 -19 12 24 0 -5 0 -19 12 24 0 -5 0 -19 12 24 0 -5 0 -19 12 24
0 -5 0 -19 12 24 0 -5 0 -19 12 24 0 -24 12 24 0 -24 12 24 0 -24 12
24 0 -24 12 24 0 -24 12 24 0 -24 12 24 0 -5 0 -19 12 24 0 -5 0 -19
12 24 0 -5 0 -19 12 24 0 -5 0 -19 12 24 0 -5 0 -19 12 24 0 -5 0 -19
12 24 0 -5 0 -19 12 24 0 -5 0 -19 12 12 0 -12 12 12 93 12 0 -12 12
12 0 -12 12 12 0 -12 12 12 0 -12 12 12 0 -12 12 12 0 -12 12 12 0 -12
23 12 0 -12 12 12 0 -12 12 12 0 4 0 -16 12 12 0 4 0 -16 12 12 0 -12
12 12 0 -12 12 12 0 -12 12 12 0 -12 12 12 0 -12 12 12 0 -12 12 12 0
-12 12 12 0 -12 12 12 0 -12 12 12 0 -12 12 12 0 -12 70 12 0 -12 12
12 0 -12 12 12 0 -12 12 12 0 -12 35 12 0 -12 12 12 0 -12 12 12 0 -12
12 12 0 -12 12 12 0 -12 12 12 0 -12 12 12 0 -12 12 12 0 -12 12 12 0
-12 12 12 0 -12 12 12 0 -12 12 12 0 -12 12 12 0 -12 12 12 0 -12 12
12 0 -12 12 12 0 -12 12 12 0 -12 12 12 0 -12 12 12 0 -12 12 12 0 -12
12 12 0 -12 12 12 0 -12 12 12 0 -12 12 12 0 -12 12 12 0 -12 58 12 0
-12 12 12 0 -12 12 12 0 -12 12 12 0 -12 12 12 0 -12 12 12 0 -12 12
12 0 -12 12 12 0 -12 12 12 0 -12 12 12 0 -12 12 12 0 -12 12 12 0 -12
12 12 0 -12 12 12 0 -12 12 -2 174 -1 35 5 12 -5 0 12 12 -12 23 12 12
-12 0 12 12 -12 12 12 12 -12 0 12 12 -12 0 12 12 -12 0 12 12 -12 12
-1 0 11 12 -10 0 10 35 -10 0 10 12 -10 0 10 35 -10 0 10 81 -2 0 2 12
-2 0 2 12 -2 0 2 12 -2 0 2 12 -2 12 -8 0 8 35 -7 0 7 12 4 12 -4 23
-6 0 6 12 -8 0 8 23 -8 0 8 12 -8 0 8 12 5 0 -13 0 8 12 -8 0 8 12 -8
0 8 12 -8 0 8 12 -9 0 9 0 2 12 -2 12 -8 0 8 12 2 12 -2 0 2 12 3 0 -12
0 7 12 5 0 -13 0 8 0 2 12 3 0 -12 0 7 12 -7 0 7 12 -7 0 7 12 -8 0 8
12 -8 0 8 12 -7 0 7 12 -7 0 7 12 -7 0 7 12 -7 0 7 12 -7 0 7 12 -8 0
8 12 -8 0 8 12 -8 0 8 12 -8 0 8 12 -8 0 8 12 -8 0 8 12 -8 0 8 12 -8
0 8 12 -8 0 8 12 -8 0 8 12 -8 0 8 12 -8 0 8 12 -8 0 8 12 -8 0 8 12
-8 0 8 12 -8 0 8 12 -8 0 8 12 -8 0 8 12 -8 0 8 12 -8 0 8 12 -8 0 8
12 -8 0 8 12 -8 0 8 12 -8 0 8 12 -8 0 8 12 -8 0 8 12 -8 0 8 12 -8 0
8 12 -8 0 8 12 -8 0 8 12 -8 0 8 12 -8 0 8 12 -8 0 8 12 -8 0 8 12 -8
0 8 12 -8 0 8 12 -8 0 8 12 -8 0 8 12 -8 0 8 12 -8 0 8 12 -8 0 8 12
-8 0 8 12 -8 0 8 12 -8 0 8 12 -8 0 8 12 -8 0 8 12 -5 128 12 0 -12 12
12 0 -12 12 12 0 -12 12 12 0 7 0 -19 12 12 0 -12 12 12 0 7 0 -19 12
12 0 7 0 -19 12 12 0 7 0 -19 12 12 0 7 0 -19 12 12 0 7 0 -19 12 12
0 7 0 -19 12 12 0 7 0 -19 12 12 0 7 0 -19 12 12 0 7 0 -19 12 12 0 7
0 -19 12 12 0 7 0 -19 12 12 0 7 0 -19 12 12 0 7 0 -19 12 12 0 7 0 -19
12 12 0 7 0 -19 12 12 0 7 0 -19 81 12 0 7 0 -19 12 12 0 7 0 -19 12
12 0 7 0 -19 35 12 0 -14 0 2 12 -4 0 2 0 3 12 -3 163 -1 93 12 12 -12
12 12 12 -12 35 10 12 -8 0 10 23 -2 12 -10 0 10 35 -10 0 10 12 -10
0 10 81 -2 0 2 12 -2 0 2 12 -2 0 2 12 -2 0 2 12 -2 0 2 12 -2 12 2 12
-2 12 -7 0 7 12 -4 0 4 23 -7 0 7 46 -8 0 8 12 -8 0 8 12 -8 0 8 12 -8
0 8 12 -8 0 8 12 -8 0 8 12 -9 0 9 12 2 12 -2 12 2 12 -7 0 5 12 -13
0 8 12 5 0 -5 0 2 12 3 0 -12 0 7 0 2 12 3 0 -12 0 7 12 -7 0 7 12 -8
0 8 0 2 12 -11 0 9 12 -8 0 8 12 -7 0 7 12 -7 0 7 12 -7 0 7 12 -7 12
-2 0 2 12 -1 0 8 0 4 12 -12 0 8 0 4 12 -12 0 8 0 4 12 -12 0 8 0 4 12
-12 0 8 0 4 12 -12 0 8 0 4 12 -12 0 8 0 4 12 -12 0 8 0 4 12 -12 0 8
0 4 12 -12 0 8 0 4 12 -12 0 8 0 4 12 -12 0 8 0 4 12 -12 0 8 0 4 12
-12 0 8 0 4 12 -12 0 8 0 4 12 -12 0 8 0 4 12 -12 0 8 0 4 12 -12 0 8
0 4 12 -12 0 8 0 4 12 -12 0 8 0 4 12 -12 0 8 0 4 12 -12 0 8 0 4 12
-12 0 8 0 4 12 -12 0 8 0 4 12 -12 0 8 0 4 12 -12 0 8 0 4 12 -12 0 8
0 4 12 -12 0 8 0 4 12 -12 0 8 0 4 12 -12 0 8 0 4 12 -12 0 8 0 4 12
-12 0 8 0 4 12 -12 0 8 0 4 12 -12 0 8 0 4 12 -12 0 8 0 4 12 -12 0 8
0 4 12 -12 0 8 0 4 12 -12 0 8 0 4 12 -12 0 8 0 4 12 -12 0 8 0 4 12
-12 0 8 0 4 12 -12 0 8 0 4 12 -12 0 8 0 4 12 -12 0 8 0 4 12 -12 0 8
0 4 12 -12 0 8 0 4 12 -9 0 3 12 -3 116 12 0 -12 12 12 0 -12 12 12 0
7 0 -19 12 12 0 7 0 -19 12 12 0 7 0 -19 12 12 0 7 0 -19 12 12 0 7 0
-19 12 12 0 7 0 -19 12 12 0 7 0 -19 12 12 0 7 0 -19 12 12 0 7 0 -19
12 12 0 7 0 -19 12 12 0 7 0 -19 12 12 0 7 0 -19 12 12 0 7 0 -19 12
12 0 7 0 -19 12 12 0 7 0 -19 12 12 0 7 0 -19 12 12 0 7 0 -19 12 12
0 7 0 -19 81 12 0 7 0 -19 12 12 0 7 0 -19 12 12 0 7 0 -19 12 12 0 7
0 -19 35 -2 0 3 12 -3 163 -1 0 12 12 -12 35 12 12 -12 0 12 12 -12 12
12 12 -12 12 12 12 -12 0 12 12 -12 12 12 12 -12 12 1 186 -1 0 10 12
-9 0 9 12 -9 0 9 12 -9 0 9 23 -9 0 9 12 -9 0 9 12 -9 0 3 12 -3 0 9
35 -9 0 9 12 -9 0 9 12 -9 0 9 12 -9 0 9 12 -9 0 9 35 -9 0 9 12 -9 0
9 35 -9 0 9 12 -9 0 9 12 -9 0 9 70 -9 0 9 12 -9 0 9 46 3 0 -12 0 9
12 3 0 -12 0 9 12 3 0 -12 0 9 12 3 0 -12 0 9 12 -9 0 9 12 -9 0 9 12
2 12 -11 0 9 12 -9 0 9 12 -9 0 9 12 -9 0 9 12 -9 0 9 12 -10 0 10 23
-9 0 9 12 -9 0 9 12 -9 0 9 12 -9 0 9 12 -9 0 9 12 -9 0 9 12 -9 0 9
12 -9 0 9 12 -9 0 9 12 -9 0 9 12 -9 0 9 12 -9 0 9 12 -9 0 9 12 -9 0
9 12 -9 0 9 12 -9 0 9 12 -9 0 9 12 -10 0 10 12 -10 0 10 12 -10 0 10
12 -10 0 10 12 -10 0 10 12 -10 0 10 12 -10 0 10 12 -10 0 10 12 -10
0 10 12 -10 0 10 12 -10 0 10 12 -10 0 10 12 -10 0 10 12 -10 0 10 12
-10 0 10 12 -10 0 10 12 -10 0 10 12 -10 0 10 12 -8 12 13 0 -13 0 2
0 -13 12 24 0 -11 0 6 0 -19 23 24 0 -24 12 24 0 -24 12 24 0 -24 12
24 0 -24 12 24 0 -24 12 24 0 -24 12 24 0 -24 12 24 0 -24 46 12 0 7
0 -19 12 10 0 3 0 -13 12 24 0 -24 35 24 0 -24 12 24 0 -24 12 24 0 -24
93 19 0 -19 12 24 0 -24 12 24 0 -24 23 24 0 -24 139 5 12 -5 0 5 12
-5 0 5 12 -5 0 5 12 -5 0 5 12 -5 0 5 12 -5 0 5 12 -5 0 5 12 -5 0 5
12 -5 0 5 12 -5 0 5 12 -5 0 5 12 -5 0 5 12 -5 0 5 12 -5 0 5 12 -5 0
5 12 -5 0 5 12 -5 0 5 12 -5 0 5 12 -5 0 5 12 -5 0 5 12 -5 0 5 12 -5
0 5 12 -5 0 5 12 -5 0 5 12 -5 0 5 12 -5 0 5 12 -5 0 5 12 -5 0 5 12
-5 0 5 12 -5 12 5 12 -5 0 5 12 -5 0 5 12 -5 0 5 12 -5 12 5 12 -5 23
5 12 -5 0 5 12 -5 23 5 12 19 0 -24 0 5 12 19 0 -24 23 5 12 -5 0 5 12
-5 0 5 12 -5 23 24 0 -24 12 24 0 -24 12 24 0 -24 12 24 0 -24 12 24
0 -5 0 -19 12 24 0 -24 12 24 0 -5 0 -19 12 24 0 -24 12 24 0 -5 0 -19
12 24 0 -5 0 -19 12 24 0 -5 0 -19 12 24 0 -5 0 -19 12 24 0 -5 0 -19
12 24 0 -5 0 -19 12 24 0 -5 0 -19 12 24 0 -5 0 -19 12 24 0 -5 0 -19
12 24 0 -24 12 24 0 -24 12 24 0 -24 12 24 0 -24 12 24 0 -24 12 24 0
-24 12 24 0 -5 0 -19 12 24 0 -5 0 -19 12 24 0 -5 0 -19 12 24 0 -5 0
-19 12 24 0 -5 0 -19 12 24 0 -5 0 -19 12 24 0 -5 0 -19 12 24 0 -5 0
-19 12 12 0 -12 12 12 93 12 0 -12 12 12 0 -12 12 12 0 -12 23 12 0 -12
12 12 0 -12 12 12 0 -12 23 12 0 -12 12 12 0 -12 12 12 0 4 0 -16 12
12 0 4 0 -16 12 12 0 -12 12 12 0 -12 12 12 0 -12 12 12 0 -12 12 12
0 -12 12 12 0 -12 12 12 0 -12 12 12 0 -12 12 12 0 -12 12 12 0 -12 12
12 0 -12 70 12 0 -12 12 12 0 -12 12 12 0 -12 12 12 0 -12 35 12 0 -12
12 12 0 -12 12 12 0 -12 12 12 0 -12 12 12 0 -12 12 12 0 -12 12 12 0
-12 12 12 0 -12 12 12 0 -12 12 12 0 -12 12 12 0 -12 12 12 0 -12 12
12 0 -12 12 12 0 -12 12 12 0 -12 12 12 0 -12 12 12 0 -12 12 12 0 -12
12 12 0 -12 12 12 0 -12 12 12 0 -12 12 12 0 -12 12 12 0 -12 12 12 0
-12 12 12 0 -12 58 12 0 -12 12 12 0 -12 12 12 0 -12 12 12 0 -12 12
12 0 -12 12 12 0 -12 12 12 0 -12 12 12 0 -12 12 12 0 -12 12 12 0 -12
12 12 0 -12 12 12 0 -12 12 12 0 -12 12 12 0 -12 12 -2 174 -1 46 12
12 -12 23 12 12 -12 23 12 12 -12 12 12 12 -12 0 12 12 -12 12 10 12
-10 0 10 46 -10 0 10 35 -10 0 10 81 -10 0 8 12 2 12 -2 0 2 12 -2 0
2 12 -2 12 -8 0 8 35 -7 0 7 35 -8 0 8 12 -6 0 6 12 -8 0 8 23 -8 0 8
12 -8 0 8 12 5 0 -13 0 8 12 -8 0 8 12 -8 0 8 12 -8 0 8 12 -9 0 9 0
2 12 -2 12 -8 0 8 12 2 12 -2 0 2 12 3 0 -12 0 7 12 5 0 -13 0 8 0 2
12 3 0 -12 0 7 0 2 12 -9 0 7 12 -7 0 7 12 -8 12 8 12 -7 0 7 0 2 12
-9 0 7 12 -7 0 7 12 -7 0 4 12 -4 0 7 12 -8 0 8 12 -8 0 8 12 -8 0 8
12 -8 0 8 12 -8 0 8 12 -8 0 8 12 -8 0 8 12 -8 0 8 12 -8 0 8 12 -8 0
8 12 -8 0 8 12 -8 0 8 12 -8 0 8 12 -8 0 8 12 -8 0 8 12 -8 0 8 12 -8
0 8 12 -8 0 8 12 -8 0 8 12 -8 0 8 12 -8 0 8 12 -8 0 8 12 -8 0 8 12
-8 0 8 12 -8 0 8 12 -8 0 8 12 -8 0 8 12 -8 0 8 12 -8 0 8 12 -8 0 8
12 -8 0 8 12 -8 0 8 12 -8 0 8 12 -8 0 8 12 -8 0 8 12 -8 0 8 12 -8 0
8 12 -8 0 8 12 -8 0 8 12 -8 0 8 12 -8 0 8 12 -8 0 8 12 -8 0 8 12 -8
0 8 12 -8 0 8 12 -8 0 8 12 -5 128 12 0 -12 12 12 0 7 0 -19 12 12 0
-12 12 12 0 7 0 -19 12 12 0 7 0 -19 12 12 0 7 0 -19 12 12 0 7 0 -19
12 12 0 7 0 -19 12 12 0 7 0 -19 12 12 0 7 0 -19 12 12 0 7 0 -19 12
12 0 7 0 -19 12 12 0 7 0 -19 12 12 0 7 0 -19 12 12 0 7 0 -19 12 12
0 7 0 -19 12 12 0 7 0 -19 12 12 0 7 0 -19 12 12 0 7 0 -19 12 12 0 7
0 -19 12 12 0 7 0 -19 81 12 0 7 0 -19 12 12 0 7 0 -19 12 12 0 7 0 -19
35 12 0 -14 0 2 12 -4 0 2 0 3 12 -3 163 -1 58 12 12 -12 12 12 12 -12
0 12 12 -12 12 12 12 -12 12 12 12 -12 12 10 46 -10 0 10 35 -10 0 10
12 -10 0 10 81 -2 0 2 12 -2 0 2 12 -2 0 2 12 -2 0 2 12 -2 0 2 12 -2
12 2 12 -2 12 -7 0 7 35 -7 0 7 46 -8 0 8 12 -8 0 8 12 -8 0 8 12 -8
0 8 12 -8 0 8 12 -8 0 8 12 -9 0 9 12 2 12 -2 12 2 12 -7 0 5 12 -13
0 8 12 5 0 -5 0 2 12 3 0 -12 0 7 0 2 12 3 0 -12 0 7 12 -7 0 7 12 -8
0 8 0 2 12 -11 0 6 0 3 12 -8 0 8 12 -7 0 7 12 -7 0 7 12 -7 0 7 12 -7
0 7 12 -9 0 2 12 -1 0 8 0 4 12 -12 0 8 0 4 12 -12 0 8 0 4 12 -12 0
8 0 4 12 -12 0 8 0 4 12 -12 0 8 0 4 12 -12 0 8 0 4 12 -12 0 8 0 4 12
-12 0 8 0 4 12 -12 0 8 0 4 12 -12 0 8 0 4 12 -12 0 8 0 4 12 -12 0 8
0 4 12 -12 0 8 0 4 12 -12 0 8 0 4 12 -12 0 8 0 4 12 -12 0 8 0 4 12
-12 0 8 0 4 12 -12 0 8 0 4 12 -12 0 8 0 4 12 -12 0 8 0 4 12 -12 0 8
0 4 12 -12 0 8 0 4 12 -12 0 8 0 4 12 -12 0 8 0 4 12 -12 0 8 0 4 12
-12 0 8 0 4 12 -12 0 8 0 4 12 -12 0 8 0 4 12 -12 0 8 0 4 12 -12 0 8
0 4 12 -12 0 8 0 4 12 -12 0 8 0 4 12 -12 0 8 0 4 12 -12 0 8 0 4 12
-12 0 8 0 4 12 -12 0 8 0 4 12 -12 0 8 0 4 12 -12 0 8 0 4 12 -12 0 8
0 4 12 -12 0 8 0 4 12 -12 0 8 0 4 12 -12 0 8 0 4 12 -12 0 8 0 4 12
-12 0 8 0 4 12 -12 0 8 0 4 12 -9 0 3 12 -3 116 12 0 -12 12 12 0 -12
12 12 0 7 0 -19 12 12 0 7 0 -19 12 12 0 7 0 -19 12 12 0 7 0 -19 12
12 0 7 0 -19 12 12 0 7 0 -19 12 12 0 7 0 -19 12 12 0 7 0 -19 12 12
0 7 0 -19 12 12 0 7 0 -19 12 12 0 7 0 -19 12 12 0 7 0 -19 12 12 0 7
0 -19 12 12 0 7 0 -19 12 12 0 7 0 -19 12 12 0 7 0 -19 12 12 0 7 0 -19
12 12 0 7 0 -19 81 12 0 7 0 -19 12 12 0 7 0 -19 12 12 0 7 0 -19 12
12 0 7 0 -19 35 -2 0 3 12 -3 163 -1 0 4 0 8 12 -12 35 12 12 -12 0 12
12 -12 0 12 12 -12 0 12 12 -12 12 12 12 -12 0 12 12 -12 12 12 12 -12
12 1 174 1 12 -2 0 10 12 -9 0 9 12 -9 0 9 12 -9 0 9 35 -9 0 9 12 -9
0 9 12 -9 0 9 35 -9 0 9 12 -9 0 9 12 -9 0 9 12 -9 0 9 12 -9 0 9 35
-9 0 9 12 -9 0 9 35 -9 0 9 12 -9 0 9 12 -9 0 9 70 -9 0 9 12 -9 0 9
46 3 0 -12 0 9 12 3 0 -12 0 9 12 3 0 -12 0 9 12 3 0 -12 0 9 12 -9 0
9 12 -9 0 9 12 2 12 -2 12 -9 0 9 12 -9 0 9 12 -9 0 9 12 -9 0 9 12 -10
0 10 23 -9 0 9 12 -9 0 9 12 -9 0 9 12 -9 0 9 12 -9 0 9 12 -9 0 9 12
-9 0 9 12 -9 0 9 12 -9 0 9 12 -9 0 9 12 -9 0 9 12 -9 0 9 12 -9 0 9
12 -9 0 9 12 -9 0 9 12 -10 0 10 12 -10 0 10 12 -10 957 -74 924 89 0
4 0 -19 0 -8 12 23 0 -12 0 7 0 -19 12 24 0 -24 35 24 0 -24 12 24 0
-24 12 24 0 -24 12 24 0 -24 12 24 0 -24 12 24 0 -24 12 24 0 -24 23
24 0 -24 23 11 0 8 0 -19 23 24 0 -24 12 24 0 -24 12 24 0 -24 12 24
0 -24 12 24 0 -24 12 24 0 -24 81 12 0 -12 12 24 0 -11 0 6 0 -19 12
24 0 -24 23 24 0 -24 12 24 0 -24 151 5 12 -5 0 5 12 -5 0 5 12 -5 0
5 12 -5 0 5 12 -5 0 5 12 -5 0 5 12 -5 0 5 12 -5 0 5 12 -5 0 5 12 -5
0 5 12 -5 0 5 12 -5 0 5 12 -5 0 5 12 -5 0 5 12 -5 0 5 12 -5 0 5 12
-5 0 5 12 -5 0 5 12 -5 0 5 12 -5 0 5 12 -5 0 5 12 -5 0 5 12 -5 0 5
12 -5 0 5 12 -5 0 5 12 -5 0 5 12 -5 0 5 12 -5 0 5 12 -5 0 5 12 -5 12
5 12 -5 0 5 12 -5 0 5 12 -5 12 5 12 -5 0 5 12 -5 23 5 12 -5 23 5 12
-5 0 5 12 -5 0 5 12 -5 0 5 12 -5 0 5 12 -5 0 5 12 -5 0 5 12 -5 0 5
12 -5 0 5 12 -5 0 5 12 -5 0 5 12 -5 0 5 12 14 0 -19 0 5 12 -5 0 5 12
-5 0 5 12 14 0 -19 0 5 12 14 0 -19 0 5 12 14 0 -19 0 5 12 14 0 -19
0 5 12 14 0 -19 0 5 12 14 0 -19 0 5 12 14 0 -19 0 5 12 14 0 -19 0 5
12 14 0 -19 0 5 12 14 0 -19 0 5 12 14 0 -19 0 5 12 -5 0 5 12 -5 0 5
12 -5 0 5 12 -5 0 5 12 -5 0 5 12 14 0 -19 0 5 12 14 0 -19 0 5 12 14
0 -19 0 5 12 14 0 -19 0 5 12 14 0 -19 0 5 12 14 0 -19 0 5 12 14 0 -19
0 5 12 14 0 -19 0 5 12 14 0 -19 0 5 12 7 0 3 12 -3 93 12 0 -12 12 12
0 -12 12 12 0 -12 12 12 0 4 0 -16 23 12 0 -12 23 12 0 -12 12 12 0 4
0 -16 12 12 0 -12 12 12 0 -12 12 12 0 -12 12 12 0 -12 12 12 0 -12 12
12 0 -12 12 12 0 -12 12 12 0 -12 12 12 0 -12 12 12 0 -12 12 12 0 -12
12 12 0 -12 12 12 0 -12 12 12 0 -12 70 12 0 -12 12 12 0 -12 12 12 0
-12 12 12 0 -12 35 12 0 -12 12 12 0 -12 12 12 0 -12 12 12 0 -12 12
12 0 -12 12 12 0 -12 12 12 0 -12 12 12 0 -12 12 12 0 -12 12 12 0 -12
12 12 0 -12 12 12 0 -12 12 12 0 -12 12 12 0 -12 12 12 0 -12 12 12 0
-12 12 12 0 -12 12 12 0 -12 12 12 0 -12 12 12 0 -12 12 12 0 -12 12
12 0 -12 12 12 0 -12 12 12 0 -12 58 12 0 -12 12 12 0 -12 12 12 0 -12
12 12 0 -12 12 12 0 -12 12 12 0 -12 12 12 0 -12 12 12 0 -12 12 12 0
-12 12 12 0 -12 12 12 0 -12 12 12 0 -12 12 12 0 -12 12 12 0 -12 12
12 0 -12 12 -2 0 3 0 5 12 -8 163 -1 0 3 12 -3 35 12 12 -12 0 12 12
-12 0 12 12 -12 12 12 12 -12 0 12 12 -12 0 12 12 -12 0 12 12 -12 0
12 12 -12 0 12 12 -11 0 11 12 -2 70 -10 0 10 104 -2 0 2 12 -2 12 2
12 -2 0 2 12 -2 12 2 12 -2 46 -8 0 8 46 -8 0 8 12 -8 0 8 12 -9 0 9
12 -8 0 8 12 -8 0 8 0 2 12 -10 0 8 12 -8 0 8 23 2 12 -2 12 2 12 -2
0 2 12 3 0 -5 0 2 12 3 0 -12 0 7 12 5 0 -12 0 7 12 -7 0 7 12 -8 0 8
0 2 12 -2 0 2 12 -10 0 8 12 -7 0 7 12 -7 0 7 12 -7 0 7 12 -8 0 8 12
-7 0 7 12 -7 0 7 12 -9 0 9 0 4 12 -13 0 9 0 4 12 -13 0 9 0 4 12 -13
0 9 0 4 12 -13 0 9 0 4 12 -13 0 9 0 4 12 -13 0 9 0 4 12 -13 0 9 0 4
12 -13 0 9 0 4 12 -13 0 9 0 4 12 -13 0 9 0 4 12 -13 0 9 0 4 12 -13
0 9 0 4 12 -13 0 9 0 4 12 -13 0 9 0 4 12 -13 0 9 0 4 12 -13 0 9 0 4
12 -13 0 9 0 4 12 -13 0 9 0 4 12 -13 0 9 0 4 12 -13 0 9 0 4 12 -13
0 9 0 4 12 -13 0 9 0 4 12 -13 0 9 0 4 12 -13 0 9 0 4 12 -13 0 9 0 4
12 -13 0 9 0 4 12 -13 0 9 0 4 12 -13 0 9 0 4 12 -13 0 9 0 4 12 -13
0 9 0 4 12 -13 0 9 0 4 12 -13 0 9 0 4 12 -13 0 9 0 4 12 -13 0 9 0 4
12 -13 0 9 0 4 12 -13 0 9 0 4 12 -13 0 9 0 4 12 -13 0 9 0 4 12 -13
0 9 0 4 12 -13 0 9 0 4 12 -13 0 9 0 4 12 -13 0 9 0 4 12 -13 0 9 0 4
12 -13 0 9 0 4 12 -9 128 12 0 -12 12 12 0 7 0 -19 12 12 0 7 0 -19 12
12 0 7 0 -19 12 12 0 7 0 -19 12 12 0 7 0 -19 12 12 0 7 0 -19 12 12
0 7 0 -19 12 12 0 7 0 -19 12 12 0 7 0 -19 12 12 0 7 0 -19 12 12 0 7
0 -19 12 12 0 7 0 -19 12 12 0 7 0 -19 12 12 0 7 0 -19 12 12 0 7 0 -19
12 12 0 7 0 -19 12 12 0 7 0 -19 12 12 0 7 0 -19 12 12 0 7 0 -19 12
12 0 7 0 -19 70 12 0 7 0 -19 12 12 0 7 0 -19 12 12 0 7 0 -19 12 12
0 7 0 -19 35 -2 174 -1 0 3 12 -3 23 12 12 -12 0 12 12 -12 35 12 12
-12 0 12 12 -12 0 12 12 -12 0 12 12 -12 12 12 12 -12 12 -1 12 11 139
-10 0 10 23 -2 0 2 12 -2 0 2 12 -2 12 2 12 -2 0 2 12 -2 12 2 12 -2
12 -8 0 8 58 -8 0 3 12 5 12 -8 0 8 12 -8 0 8 12 5 0 -13 0 8 12 -8 0
8 12 -8 0 8 0 2 12 -10 0 8 23 2 12 -9 0 7 23 2 12 3 0 -12 0 7 12 5
0 -12 0 7 0 2 12 3 0 -12 0 7 12 -7 0 7 12 -7 0 7 12 -8 0 8 0 2 12 -10
0 8 12 -7 0 7 12 -7 0 7 12 -7 0 7 12 -8 0 8 12 -7 0 7 12 -7 0 7 12
-8 0 8 0 4 12 -12 0 8 0 4 12 -12 0 8 0 4 12 -12 0 8 0 4 12 -12 0 8
0 4 12 -12 0 8 0 4 12 -12 0 8 0 4 12 -12 0 8 0 4 12 -12 0 8 0 4 12
-12 0 8 0 4 12 -12 0 8 0 4 12 -12 0 8 0 4 12 -12 0 8 0 4 12 -12 0 8
0 4 12 -12 0 8 0 4 12 -12 0 8 0 4 12 -12 0 8 0 4 12 -12 0 8 0 4 12
-12 0 8 0 4 12 -12 0 8 0 4 12 -12 0 8 0 4 12 -12 0 8 0 4 12 -12 0 8
0 4 12 -12 0 8 0 4 12 -12 0 8 0 4 12 -12 0 8 0 4 12 -12 0 8 0 4 12
-12 0 8 0 4 12 -12 0 8 0 4 12 -12 0 8 0 4 12 -12 0 8 0 4 12 -12 0 8
0 4 12 -12 0 8 0 4 12 -12 0 8 0 4 12 -12 0 8 0 4 12 -12 0 8 0 4 12
-12 0 8 0 4 12 -12 0 8 0 4 12 -12 0 8 0 4 12 -12 0 8 0 4 12 -12 0 8
0 4 12 -12 0 8 0 4 12 -12 0 8 0 4 12 -12 0 8 0 4 12 -12 0 8 0 4 12
-9 116 12 0 -12 12 12 0 -12 12 12 0 7 0 -19 12 12 0 7 0 -19 12 12 0
7 0 -19 12 12 0 7 0 -19 12 12 0 7 0 -19 12 12 0 7 0 -19 12 12 0 7 0
-19 12 12 0 7 0 -19 12 12 0 7 0 -19 12 12 0 7 0 -19 12 12 0 7 0 -19
12 12 0 7 0 -19 12 12 0 7 0 -19 12 12 0 7 0 -19 12 12 0 7 0 -19 12
12 0 7 0 -19 12 12 0 7 0 -19 12 12 0 7 0 -19 12 12 0 7 0 -19 12 12
0 7 0 -19 81 12 0 7 0 -19 12 12 0 7 0 -19 12 12 0 7 0 -19 35 -2 0 2
12 -2 174 -1 0 12 12 -12 46 12 12 -12 0 12 12 -12 12 12 12 -12 12 12
12 -12 0 12 12 -12 0 12 12 -12 12 2 12 -3 163 -1 0 10 12 -9 0 9 46
-9 0 9 12 -9 0 9 12 -9 0 9 12 -9 0 9 12 -9 0 9 12 -10 0 10 23 -9 0
9 12 -9 0 9 35 -9 0 9 12 -9 0 9 12 -10 0 10 12 -9 0 9 12 -10 0 10 46
-9 0 9 12 -9 0 9 12 -9 0 9 12 -8 0 8 12 -9 12 9 46 -9 0 9 23 -9 0 9
12 3 0 -12 0 9 12 3 0 -12 0 9 12 3 0 -12 0 9 12 3 0 -12 0 9 12 -9 0
9 12 -8 0 8 12 -9 0 9 12 -9 0 9 12 -9 0 9 12 -9 0 9 12 -9 0 9 12 -9
0 9 12 -9 0 9 23 -9 0 3 12 6 70 -9 0 9 12 -9 0 9 12 -9 0 9 12 -9 0
9 12 -9 0 9 12 -9 0 9 12 -9 0 9 12 -9 35 -1 197 -1 0 3 12 13 0 -13
0 8 0 -19 12 24 0 -5 0 -19 12 24 0 -24 35 24 0 -24 12 24 0 -24 23 24
0 -24 12 24 0 -24 12 24 0 -24 58 12 0 7 0 -19 23 24 0 -24 23 24 0 -24
12 24 0 -24 12 24 0 -24 93 12 0 -12 12 24 0 -11 0 6 0 -19 0 11 12 13
0 -24 23 24 0 -24 12 24 0 -24 151 5 12 -5 0 5 12 -5 0 5 12 -5 0 5 12
-5 0 5 12 -5 0 5 12 -5 0 5 12 -5 0 5 12 -5 0 5 12 -5 0 5 12 -5 0 5
12 -5 0 5 12 -5 0 5 12 -5 0 5 12 -5 0 5 12 -5 0 5 12 -5 0 5 12 -5 0
5 12 -5 0 5 12 -5 0 5 12 -5 0 5 12 -5 0 5 12 -5 0 5 12 -5 0 5 12 -5
0 5 12 -5 0 5 12 -5 0 5 12 -5 0 5 12 -5 0 5 12 -5 0 5 12 -5 12 5 12
-5 0 5 12 -5 23 5 12 -5 0 5 12 -5 23 5 12 -5 23 5 12 -5 0 5 12 -5 0
5 12 -5 0 5 12 -5 0 5 12 -5 0 5 12 -5 0 5 12 -5 0 5 12 -5 0 5 12 -5
0 5 12 -5 0 5 12 -5 0 5 12 14 0 -19 0 5 12 -5 0 5 12 -5 0 5 12 14 0
-19 0 5 12 14 0 -19 0 5 12 14 0 -19 0 5 12 14 0 -19 0 5 12 14 0 -19
0 5 12 14 0 -19 0 5 12 14 0 -19 0 5 12 14 0 -19 0 5 12 14 0 -19 0 5
12 14 0 -19 0 5 12 14 0 -19 0 5 12 -5 0 5 12 -5 0 5 12 -5 0 5 12 -5
0 5 12 -5 0 5 12 14 0 -19 0 5 12 14 0 -19 0 5 12 14 0 -19 0 5 12 14
0 -19 0 5 12 14 0 -19 0 5 12 14 0 -19 0 5 12 14 0 -19 0 5 12 14 0 -19
0 5 12 14 0 -19 0 5 12 7 0 3 12 -3 93 12 0 -12 12 12 0 -12 12 12 0
-12 12 12 0 4 0 -16 23 12 0 -12 35 12 0 -12 12 12 0 -12 12 12 0 -12
12 12 0 -12 12 12 0 -12 12 12 0 -12 12 12 0 -12 12 12 0 -12 12 12 0
-12 12 12 0 -12 12 12 0 -12 12 12 0 -12 12 12 0 -12 12 12 0 -12 12
12 0 -12 70 12 0 -12 12 12 0 -12 12 12 0 -12 12 12 0 -12 35 12 0 -12
12 12 0 -12 12 12 0 -12 12 12 0 -12 12 12 0 -12 12 12 0 -12 12 12 0
-12 12 12 0 -12 12 12 0 -12 12 12 0 -12 12 12 0 -12 12 12 0 -12 12
12 0 -12 12 12 0 -12 12 12 0 -12 12 12 0 -12 12 12 0 -12 12 12 0 -12
12 12 0 -12 12 12 0 -12 12 12 0 -12 12 12 0 -12 12 12 0 -12 12 12 0
-12 58 12 0 -12 12 12 0 -12 12 12 0 -12 12 12 0 -12 12 12 0 -12 12
12 0 -12 12 12 0 -12 12 12 0 -12 12 12 0 -12 12 12 0 -12 12 12 0 -12
12 12 0 -12 12 12 0 -12 12 12 0 -12 12 12 0 -12 12 -2 0 3 12 -3 163
-1 0 3 12 -3 35 12 12 -12 0 12 12 -12 0 12 12 -12 12 12 12 -12 0 12
12 -12 0 12 12 -12 0 12 12 -12 0 12 12 -12 0 12 12 -11 0 11 12 -2 12
-10 0 10 58 -10 0 10 104 -2 0 2 12 -2 0 2 12 -2 0 2 12 -2 0 2 12 -2
12 2 12 -2 46 -8 0 8 46 -8 0 8 12 -8 0 7 0 1 12 -9 0 9 12 -8 0 8 12
-8 0 8 0 2 12 -10 0 8 12 -8 0 8 12 2 12 -2 0 2 12 -2 12 2 12 -2 0 2
12 3 0 -5 0 2 12 3 0 -12 0 7 12 5 0 -12 0 7 12 -7 0 7 12 -7 0 7 0 2
12 -2 0 2 12 -10 0 8 12 -7 0 7 12 -7 0 7 12 -7 0 7 12 -8 0 8 12 -7
0 7 12 -7 0 7 12 -9 0 9 0 4 12 -13 0 9 0 4 12 -13 0 9 0 4 12 -13 0
9 0 4 12 -13 0 9 0 4 12 -13 0 9 0 4 12 -13 0 9 0 4 12 -13 0 9 0 4 12
-13 0 9 0 4 12 -13 0 9 0 4 12 -13 0 9 0 4 12 -13 0 9 0 4 12 -13 0 9
0 4 12 -13 0 9 0 4 12 -13 0 9 0 4 12 -13 0 9 0 4 12 -13 0 9 0 4 12
-13 0 9 0 4 12 -13 0 9 0 4 12 -13 0 9 0 4 12 -13 0 9 0 4 12 -13 0 9
0 4 12 -13 0 9 0 4 12 -13 0 9 0 4 12 -13 0 9 0 4 12 -13 0 9 0 4 12
-13 0 9 0 4 12 -13 0 9 0 4 12 -13 0 9 0 4 12 -13 0 9 0 4 12 -13 0 9
0 4 12 -13 0 9 0 4 12 -13 0 9 0 4 12 -13 0 9 0 4 12 -13 0 9 0 4 12
-13 0 9 0 4 12 -13 0 9 0 4 12 -13 0 9 0 4 12 -13 0 9 0 4 12 -13 0 9
0 4 12 -13 0 9 0 4 12 -13 0 9 0 4 12 -13 0 9 0 4 12 -13 0 9 0 4 12
-13 0 9 0 4 12 -9 128 12 0 -12 12 12 0 7 0 -19 12 12 0 7 0 -19 12 12
0 7 0 -19 12 12 0 7 0 -19 12 12 0 7 0 -19 12 12 0 7 0 -19 12 12 0 7
0 -19 12 12 0 7 0 -19 12 12 0 7 0 -19 12 12 0 7 0 -19 12 12 0 7 0 -19
12 12 0 7 0 -19 12 12 0 -12 12 12 0 7 0 -19 12 12 0 7 0 -19 12 12 0
7 0 -19 12 12 0 7 0 -19 12 12 0 7 0 -19 12 12 0 7 0 -19 12 12 0 7 0
-19 70 12 0 7 0 -19 12 12 0 7 0 -19 12 12 0 7 0 -19 12 12 0 7 0 -19
35 -2 174 -1 0 3 12 -3 35 12 12 -12 35 12 12 -12 0 12 12 -12 0 12 12
-12 0 12 12 -12 12 12 12 -12 12 -1 12 11 0 2 12 -2 128 -10 0 10 23
-2 0 2 12 -2 0 2 12 -2 12 2 12 -2 12 2 12 -2 0 2 12 -2 12 -8 0 8 58
-8 0 3 12 5 12 -8 0 8 12 -8 0 8 12 5 0 -13 0 8 12 -8 0 8 12 -8 0 8
0 2 12 -10 0 8 12 -9 0 9 12 2 12 -9 0 7 23 2 12 3 0 -12 0 7 12 5 0
-12 0 7 0 2 12 3 0 -12 0 7 12 -7 0 7 12 -7 0 7 12 -8 0 8 0 2 12 -10
0 8 12 -7 0 7 12 -7 0 7 12 -7 0 7 12 -8 0 8 0 4 12 -11 0 7 12 -7 0
7 12 -8 0 8 0 4 12 -12 0 8 0 4 12 -12 0 8 0 4 12 -12 0 8 0 4 12 -12
0 8 0 4 12 -12 0 8 0 4 12 -12 0 8 0 4 12 -12 0 8 0 4 12 -12 0 8 0 4
12 -12 0 8 0 4 12 -12 0 8 0 4 12 -12 0 8 0 4 12 -12 0 8 0 4 12 -12
0 8 0 4 12 -12 0 8 0 4 12 -12 0 8 0 4 12 -12 0 8 0 4 12 -12 0 8 0 4
12 -12 0 8 0 4 12 -12 0 8 0 4 12 -12 0 8 0 4 12 -12 0 8 0 4 12 -12
0 8 0 4 12 -12 0 8 0 4 12 -12 0 8 0 4 12 -12 0 8 0 4 12 -12 0 8 0 4
12 -12 0 8 0 4 12 -12 0 8 0 4 12 -12 0 8 0 4 12 -12 0 8 0 4 12 -12
0 8 0 4 12 -12 0 8 0 4 12 -12 0 8 0 4 12 -12 0 8 0 4 12 -12 0 8 0 4
12 -12 0 8 0 4 12 -12 0 8 0 4 12 -12 0 8 0 4 12 -12 0 8 0 4 12 -12
0 8 0 4 12 -12 0 8 0 4 12 -12 0 8 0 4 12 -12 0 8 0 4 12 -12 0 8 0 4
12 -9 116 12 0 -12 12 12 0 -12 12 12 0 7 0 -19 12 12 0 7 0 -19 12 12
0 7 0 -19 12 12 0 7 0 -19 12 12 0 7 0 -19 12 12 0 7 0 -19 12 12 0 7
0 -19 12 12 0 7 0 -19 12 12 0 7 0 -19 12 12 0 7 0 -19 12 12 0 7 0 -19
12 12 0 7 0 -19 12 12 0 7 0 -19 12 12 0 7 0 -19 12 12 0 7 0 -19 12
12 0 7 0 -19 12 12 0 7 0 -19 12 12 0 7 0 -19 12 12 0 7 0 -19 12 12
0 7 0 -19 81 12 0 7 0 -19 12 12 0 7 0 -19 12 12 0 7 0 -19 35 -2 0 2
12 -2 174 -1 0 12 12 -12 46 12 12 -12 0 12 12 -12 12 12 12 -12 12 12
12 -12 0 12 12 -12 0 12 12 -12 12 2 12 -3 163 -1 0 10 12 -9 0 9 46
-9 0 9 12 -9 0 9 12 -9 0 9 12 -9 0 9 12 -9 0 9 12 -10 0 10 23 -9 0
9 12 -9 0 9 35 -9 0 9 12 -9 0 9 12 -10 0 10 12 -9 0 9 12 -9 0 9 46
-9 0 9 12 -9 0 9 12 -9 0 9 12 -8 0 8 12 -9 0 9 12 -9 0 9 35 -8 0 8
12 -9 0 9 23 -9 0 9 12 3 0 -12 0 9 12 3 0 -12 0 9 12 3 0 -12 0 9 12
3 0 -12 0 9 12 -9 0 9 12 -8 0 8 12 -9 0 9 12 -9 0 9 12 -9 0 9 12 -9
12 9 12 -9 0 9 12 -10 0 10 23 -9 0 3 12 6 70 -9 0 9 12 -9 0 9 12 -9
0 9 12 -9 0 9 12 -9 0 9 12 -9 0 9 12 -9 0 9 12 -9 35 -1 957 -74 924
89 0 4 0 -19 0 -8 12 23 0 -11 0 6 0 -19 23 24 0 -24 23 24 0 -24 12
24 0 -24 12 24 0 -24 12 24 0 -24 12 24 0 -24 12 24 0 -24 12 24 0 -24
23 24 0 4 0 -28 12 23 0 -23 12 24 0 -5 0 -19 12 24 0 -24 23 24 0 -24
12 24 0 -24 12 24 0 -24 12 24 0 -24 93 13 0 6 0 -19 12 24 0 -24 35
24 0 -24 139 5 12 -5 12 5 12 -5 0 5 12 -5 0 5 12 -5 0 5 12 -5 0 5 12
-5 0 5 12 -5 0 5 12 -5 0 5 12 -5 0 5 12 -5 0 5 12 -5 0 5 12 -5 0 5
12 -5 0 5 12 -5 0 5 12 -5 12 5 12 -5 0 5 12 -5 0 5 12 -5 0 5 12 -5
0 5 12 -5 0 5 12 -5 0 5 12 -5 0 5 12 -5 0 5 12 -5 0 5 12 -5 0 5 12
-5 0 5 12 -5 0 5 12 -5 0 5 12 -5 0 5 12 -5 12 5 12 -5 0 5 12 -5 35
5 12 -5 0 5 12 -5 23 5 12 -5 12 5 12 -5 0 5 12 -5 0 5 12 -5 0 5 12
-5 0 5 12 -5 12 5 12 -5 0 5 12 -5 0 5 12 -5 0 5 12 -5 0 5 12 -5 0 5
12 14 0 -19 0 5 12 -5 0 5 12 14 0 -19 0 5 12 -5 0 5 12 14 0 -19 0 5
12 14 0 -19 0 5 12 14 0 -19 0 5 12 14 0 -19 0 5 12 14 0 -19 0 5 12
14 0 -19 0 5 12 14 0 -19 0 5 12 14 0 -19 0 5 12 14 0 -19 0 5 12 -5
0 5 12 -5 0 5 12 -5 0 5 12 -5 0 5 12 -5 0 5 12 -5 0 5 12 14 0 -19 0
5 12 14 0 -19 0 5 12 14 0 -19 0 5 12 14 0 -19 0 5 12 14 0 -19 0 5 12
14 0 -19 0 5 12 14 0 -19 0 5 12 14 0 -19 0 5 12 7 0 -19 0 5 12 7 93
12 0 -12 12 12 0 -12 12 12 0 -12 23 12 0 -12 12 12 0 -12 12 12 0 -12
23 12 0 -12 12 12 0 -12 12 12 0 -12 12 12 0 -12 12 12 0 -12 12 12 0
-12 12 12 0 -12 12 12 0 -12 12 12 0 -12 12 12 0 -12 12 12 0 -12 12
12 0 -12 12 12 0 -12 12 12 0 -12 12 12 0 -12 70 12 0 -12 12 12 0 -12
12 12 0 -12 12 12 0 -12 46 12 0 -12 12 12 0 -12 12 12 0 -12 12 12 0
-12 12 12 0 -12 12 12 0 -12 12 12 0 -12 12 12 0 -12 12 12 0 -12 12
12 0 -12 12 12 0 -12 12 12 0 -12 12 12 0 -12 12 12 0 -12 12 12 0 -12
12 12 0 -12 12 12 0 -12 12 12 0 -12 12 12 0 -12 12 12 0 -12 12 12 0
-12 12 12 0 -12 12 12 0 -12 12 12 0 -12 58 12 0 -12 12 12 0 -12 12
12 0 -12 12 12 0 -12 12 12 0 -12 12 12 0 -12 12 12 0 -12 12 12 0 -12
12 12 0 -12 12 12 0 -12 12 12 0 -12 12 12 0 -12 12 12 0 -12 12 12 0
-12 12 -1 186 -1 23 12 12 -12 23 12 12 -12 0 12 12 -12 12 12 12 -12
23 12 12 -12 23 10 81 2 12 -2 12 2 12 -2 58 -2 0 2 12 -10 0 8 12 2
12 -2 0 2 12 -2 0 2 12 -2 12 2 12 -2 12 -7 0 7 35 -7 0 7 46 -8 0 8
12 -8 0 8 12 -8 0 8 12 -8 0 8 12 -8 0 8 12 -8 0 8 12 -9 0 9 12 4 12
-4 12 2 12 -9 0 7 12 5 0 -13 0 8 12 5 0 -13 0 8 0 2 12 3 0 -12 0 7
0 2 12 3 0 -12 0 7 12 -7 0 7 12 -8 0 8 12 -9 0 9 12 -8 0 8 0 4 12 -11
0 7 12 -7 0 7 12 -7 0 7 12 -7 0 7 12 -9 0 2 0 7 12 -8 0 8 0 4 12 -12
0 8 0 4 12 -12 0 8 0 4 12 -12 0 8 0 4 12 -12 0 8 0 4 12 -12 0 8 0 4
12 -12 0 8 0 4 12 -12 0 8 0 4 12 -12 0 8 0 4 12 -12 0 8 0 4 12 -12
0 8 0 4 12 -12 0 8 0 4 12 -12 0 8 0 4 12 -12 0 8 0 4 12 -12 0 8 0 4
12 -12 0 8 0 4 12 -12 0 8 0 4 12 -12 0 8 0 4 12 -12 0 8 0 4 12 -12
0 8 0 4 12 -12 0 8 0 4 12 -12 0 8 0 4 12 -12 0 8 0 4 12 -12 0 8 0 4
12 -12 0 8 0 4 12 -12 0 8 0 4 12 -12 0 8 0 4 12 -12 0 8 0 4 12 -12
0 8 0 4 12 -12 0 8 0 4 12 -12 0 8 0 4 12 -12 0 8 0 4 12 -12 0 8 0 4
12 -12 0 8 0 4 12 -12 0 8 0 4 12 -12 0 8 0 4 12 -12 0 8 0 4 12 -12
0 8 0 4 12 -12 0 8 0 4 12 -12 0 8 0 4 12 -12 0 8 0 4 12 -12 0 8 0 4
12 -12 0 8 0 4 12 -12 0 8 0 4 12 -12 0 8 0 4 12 -12 0 2 0 1 12 3 12
-3 116 12 0 -12 12 12 0 -12 12 12 0 7 0 -19 12 12 0 7 0 -19 12 12 0
7 0 -19 12 12 0 7 0 -19 12 12 0 7 0 -19 12 12 0 7 0 -19 12 12 0 7 0
-19 12 12 0 7 0 -19 12 12 0 7 0 -19 12 12 0 7 0 -19 12 12 0 7 0 -19
12 12 0 7 0 -19 12 12 0 7 0 -19 12 12 0 7 0 -19 12 12 0 7 0 -19 12
12 0 7 0 -19 12 12 0 7 0 -19 12 12 0 7 0 -19 81 12 0 7 0 -19 12 12
0 7 0 -19 12 12 0 7 0 -19 12 12 0 7 0 -19 35 -2 0 3 12 -3 163 -1 46
12 12 -12 12 12 12 -12 0 12 12 -12 0 12 12 -12 0 12 12 -12 0 12 12
-12 0 12 12 -12 0 12 12 -12 0 12 12 -11 0 11 12 -2 163 -2 0 2 12 -5
0 3 12 2 12 -2 0 2 12 -10 0 8 35 2 12 -2 35 -7 0 2 12 5 46 -8 0 8 12
-9 0 5 12 -4 0 8 12 -8 0 8 12 -8 0 8 12 -8 0 8 12 -8 0 6 12 2 12 2
12 -10 0 8 12 -8 0 8 12 5 0 7 0 -12 0 2 12 3 0 7 0 -19 0 7 12 5 0 7
0 -19 0 7 12 -7 0 7 0 2 12 -10 0 8 0 4 12 -4 0 2 12 -10 0 8 12 -7 0
7 12 -7 0 7 12 -7 0 7 12 -7 0 7 12 -7 0 7 12 -7 0 5 0 2 12 -9 0 4 0
5 12 -9 0 4 0 5 12 -9 0 4 0 5 12 -9 0 4 0 5 12 -9 0 4 0 5 12 -9 0 4
0 5 12 -9 0 4 0 5 12 -9 0 4 0 5 12 -9 0 4 0 5 12 -9 0 4 0 5 12 -9 0
4 0 5 12 -9 0 4 0 5 12 -9 0 4 0 5 12 -9 0 4 0 5 12 -9 0 4 0 5 12 -9
0 4 0 5 12 -9 0 4 0 5 12 -9 0 4 0 5 12 -9 0 4 0 5 12 -9 0 4 0 5 12
-9 0 4 0 5 12 -9 0 4 0 5 12 -9 0 4 0 5 12 -9 0 4 0 5 12 -9 0 4 0 5
12 -9 0 4 0 5 12 -9 0 4 0 5 12 -9 0 4 0 5 12 -9 0 4 0 5 12 -9 0 4 0
5 12 -9 0 4 0 5 12 -9 0 4 0 5 12 -9 0 4 0 5 12 -9 0 4 0 5 12 -9 0 4
0 5 12 -9 0 4 0 5 12 -9 0 4 0 5 12 -9 0 4 0 5 12 -9 0 4 0 5 12 -9 0
4 0 5 12 -9 0 4 0 5 12 -9 0 4 0 5 12 -9 0 4 0 5 12 -9 0 4 0 5 12 -9
0 4 0 5 12 -5 0 3 12 -3 116 12 0 -12 12 12 0 7 0 -19 12 12 0 7 0 -19
12 12 0 7 0 -19 12 12 0 7 0 -19 12 12 0 7 0 -19 12 12 0 7 0 -19 12
12 0 7 0 -19 12 12 0 7 0 -19 12 12 0 7 0 -19 12 12 0 7 0 -19 12 12
0 7 0 -19 12 12 0 7 0 -19 12 12 0 7 0 -19 12 12 0 7 0 -19 12 12 0 7
0 -19 12 12 0 7 0 -19 12 12 0 7 0 -19 12 12 0 7 0 -19 12 12 0 7 0 -19
12 12 0 7 0 -19 70 12 0 7 0 -19 12 12 0 7 0 -19 12 12 0 7 0 -19 12
12 0 7 0 -19 35 -2 12 3 12 -3 139 2 12 -3 0 3 12 -3 23 12 12 -12 12
12 12 -12 23 12 12 -12 23 12 12 -12 0 12 12 -12 12 1 0 3 12 -3 163
5 0 4 23 -9 12 9 12 -9 0 9 35 -9 0 9 12 -9 0 9 23 -10 0 10 12 -9 0
9 23 -9 0 9 12 -9 0 9 12 -9 0 9 12 -9 0 9 12 -9 0 9 12 -10 0 10 12
-9 0 9 58 -9 0 9 12 -9 0 9 12 -9 0 9 12 -9 0 9 46 -10 0 10 12 -10 0
10 12 -8 0 8 23 -9 0 9 12 3 0 -12 0 9 12 3 0 -3 12 3 0 -12 0 9 12 3
0 -12 0 9 12 -9 0 9 12 -9 0 9 12 7 0 -7 12 -9 0 9 12 7 0 -16 0 9 12
-9 0 9 12 -9 0 9 12 -9 0 9 12 -9 0 9 12 -9 0 9 12 -9 0 9 12 2 12 -2
0 2 12 -2 0 2 12 -2 0 2 12 -2 0 2 12 -2 0 2 12 -11 0 9 12 -9 0 9 12
-9 0 9 12 -9 0 9 12 -9 0 9 12 -9 0 9 12 -9 0 9 12 -9 0 9 12 -10 0 10
12 -10 0 10 12 -9 209 1 12 13 0 -13 0 2 0 -12 12 23 0 -13 0 2 0 -13
23 24 0 -24 23 24 0 -24 12 24 0 -24 12 24 0 -24 12 24 0 -24 12 24 0
-24 12 24 0 -24 12 24 0 -24 23 24 0 4 0 -28 12 22 0 -22 0 3 12 21 0
-12 0 7 0 -19 12 24 0 -24 23 24 0 -24 12 24 0 -24 12 24 0 -24 12 24
0 -24 93 19 0 -19 23 24 0 -24 23 24 0 -24 163 5 12 -5 0 5 12 -5 0 5
12 -5 0 5 12 -5 0 5 12 -5 0 5 12 -5 0 5 12 -5 0 5 12 -5 0 5 12 -5 0
5 12 -5 0 5 12 -5 0 5 12 -5 0 5 12 -5 0 5 12 -5 0 5 12 -5 0 5 12 -5
0 5 12 -5 0 5 12 -5 0 5 12 -5 0 5 12 -5 0 5 12 -5 0 5 12 -5 0 5 12
-5 0 5 12 -5 0 5 12 -5 0 5 12 -5 0 5 12 -5 0 5 12 -5 0 5 12 -5 0 5
12 -5 12 5 12 -5 0 5 12 -5 35 5 12 -5 0 5 12 -5 12 5 12 -5 0 5 12 -5
12 5 12 -5 0 5 12 -5 0 5 12 -5 0 5 12 -5 0 5 12 -5 0 5 12 -5 0 5 12
-5 0 5 12 -5 0 5 12 -5 0 5 12 -5 0 5 12 -5 0 5 12 14 0 -19 0 5 12 -5
0 5 12 -5 0 5 12 -5 0 5 12 14 0 -19 0 5 12 14 0 -19 0 5 12 14 0 -19
0 5 12 14 0 -19 0 5 12 14 0 -19 0 5 12 14 0 -19 0 5 12 14 0 -19 0 5
12 14 0 -19 0 5 12 14 0 -19 0 5 12 -5 0 5 12 -5 0 5 12 -5 0 5 12 -5
0 5 12 -5 0 5 12 -5 0 5 12 14 0 -19 0 5 12 14 0 -19 0 5 12 14 0 -19
0 5 12 14 0 -19 0 5 12 14 0 -19 0 5 12 14 0 -19 0 5 12 14 0 -19 0 5
12 14 0 -19 0 5 12 7 0 -19 0 5 12 7 46 7 12 -7 35 12 0 -12 12 12 0
-12 12 12 0 -12 23 12 0 -12 12 12 0 -12 46 12 0 -12 12 12 0 -12 12
12 0 -12 12 12 0 -12 12 12 0 -12 12 12 0 -12 12 12 0 -12 12 12 0 -12
12 12 0 -12 12 12 0 -12 12 12 0 -12 12 12 0 -12 12 12 0 -12 12 12 0
-12 70 12 0 -12 12 12 0 -12 12 12 0 -12 12 12 0 -12 46 12 0 -12 12
12 0 -12 12 12 0 -12 12 12 0 -12 12 12 0 -12 12 12 0 -12 12 12 0 -12
12 12 0 -12 12 12 0 -12 12 12 0 -12 12 12 0 -12 12 12 0 -12 12 12 0
-12 12 12 0 -12 12 12 0 -12 12 12 0 -12 12 12 0 -12 12 12 0 -12 12
12 0 -12 12 12 0 -12 12 12 0 -12 12 12 0 -12 12 12 0 -12 12 12 0 -12
58 12 0 -12 12 12 0 -12 12 12 0 -12 12 12 0 -12 12 12 0 -12 12 12 0
-12 12 12 0 -12 12 12 0 -12 12 12 0 -12 12 12 0 -12 12 12 0 -12 12
12 0 -12 12 12 0 -12 12 12 0 -12 12 -1 186 -1 58 12 12 -12 0 12 12
-12 12 12 12 -12 12 12 12 -12 35 10 46 -10 0 10 128 -2 0 2 12 -2 0
2 12 -2 0 2 12 -2 0 2 12 -2 0 2 12 -2 12 2 12 -2 12 -7 0 7 35 -7 0
7 46 -8 0 8 12 -8 0 8 12 -8 0 8 12 -8 0 8 12 -8 0 8 12 -8 0 8 12 -9
0 9 12 4 12 -4 12 2 12 -10 0 8 12 5 0 7 0 -20 0 8 12 5 0 7 0 -20 0
8 0 2 12 3 0 7 0 -19 0 7 0 2 12 3 0 7 0 -19 0 7 12 -7 0 7 12 -8 0 8
0 2 12 -11 0 9 12 -8 0 8 12 -7 0 7 12 -7 0 7 12 -7 0 7 12 -7 0 7 12
-9 0 2 0 7 12 -8 0 8 12 -8 0 8 12 -8 0 8 12 -8 0 8 12 -8 0 8 12 -8
0 8 12 -8 0 8 12 -8 0 8 12 -8 0 8 12 -8 0 8 12 -8 0 8 12 -8 0 8 12
-8 0 8 12 -8 0 8 12 -8 0 8 12 -8 0 8 12 -8 0 8 12 -8 0 8 12 -8 0 8
12 -8 0 8 12 -8 0 8 12 -8 0 8 12 -8 0 8 12 -8 0 8 12 -8 0 8 12 -8 0
8 12 -8 0 8 12 -8 0 8 12 -8 0 8 12 -8 0 8 12 -8 0 8 12 -8 0 8 12 -8
0 8 12 -8 0 8 12 -8 0 8 12 -8 0 8 12 -8 0 8 12 -8 0 8 12 -8 0 8 12
-8 0 8 12 -8 0 8 12 -8 0 8 12 -8 0 8 12 -8 0 8 12 -8 0 8 12 -8 0 2
0 1 12 3 12 -3 116 12 0 -12 12 12 0 -12 12 12 0 7 0 -19 12 12 0 -12
12 12 0 7 0 -19 12 12 0 7 0 -19 12 12 0 7 0 -19 12 12 0 7 0 -19 12
12 0 7 0 -19 12 12 0 7 0 -19 12 12 0 7 0 -19 12 12 0 7 0 -19 12 12
0 7 0 -19 12 12 0 7 0 -19 12 12 0 7 0 -19 12 12 0 7 0 -19 12 12 0 7
0 -19 12 12 0 7 0 -19 12 12 0 7 0 -19 12 12 0 7 0 -19 81 12 0 7 0 -19
12 12 0 7 0 -19 12 12 0 7 0 -19 12 12 0 7 0 -19 35 -2 0 3 12 -3 163
-1 46 12 12 -12 12 12 12 -12 0 12 12 -12 0 12 12 -12 0 12 12 -12 0
12 12 -12 12 12 12 -12 0 12 12 -11 0 5 0 6 12 -2 163 -2 0 2 12 -2 0
2 12 -2 0 2 12 -2 0 2 12 -10 0 8 35 2 12 -2 35 -7 0 7 58 -8 0 8 12
-9 0 5 0 4 12 -8 0 8 12 -8 0 8 12 -8 0 8 12 -8 0 8 12 -8 0 6 12 2 12
2 12 -10 0 8 12 -8 0 8 12 5 0 -5 0 2 12 3 0 -12 0 7 12 5 0 -12 0 7
12 -7 0 7 0 2 12 -10 0 8 0 4 12 -4 0 2 12 -10 0 8 0 4 12 -11 0 7 12
-7 0 7 12 -7 0 7 12 -7 0 7 12 -7 0 7 12 -7 0 7 0 4 12 -13 0 4 0 5 12
-9 0 4 0 5 12 -9 0 4 0 5 12 -9 0 4 0 5 12 -9 0 4 0 5 12 -9 0 4 0 5
12 -9 0 4 0 5 12 -9 0 4 0 5 12 -9 0 4 0 5 12 -9 0 4 0 5 12 -9 0 4 0
5 12 -9 0 4 0 5 12 -9 0 4 0 5 12 -9 0 4 0 5 12 -9 0 4 0 5 12 -9 0 4
0 5 12 -9 0 4 0 5 12 -9 0 4 0 5 12 -9 0 4 0 5 12 -9 0 4 0 5 12 -9 0
4 0 5 12 -9 0 4 0 5 12 -9 0 4 0 5 12 -9 0 4 0 5 12 -9 0 4 0 5 12 -9
0 4 0 5 12 -9 0 4 0 5 12 -9 0 4 0 5 12 -9 0 4 0 5 12 -9 0 4 0 5 12
-9 0 4 0 5 12 -9 0 4 0 5 12 -9 0 4 0 5 12 -9 0 4 0 5 12 -9 0 4 0 5
12 -9 0 4 0 5 12 -9 0 4 0 5 12 -9 0 4 0 5 12 -9 0 4 0 5 12 -9 0 4 0
5 12 -9 0 4 0 5 12 -9 0 4 0 5 12 -9 0 4 0 5 12 -9 0 4 0 5 12 -9 0 4
0 5 12 -5 128 12 0 -12 12 12 0 7 0 -19 12 12 0 7 0 -19 12 12 0 7 0
-19 12 12 0 7 0 -19 12 12 0 7 0 -19 12 12 0 7 0 -19 12 12 0 7 0 -19
12 12 0 7 0 -19 12 12 0 7 0 -19 12 12 0 7 0 -19 12 12 0 7 0 -19 12
12 0 7 0 -19 12 12 0 7 0 -19 12 12 0 7 0 -19 12 12 0 7 0 -19 12 12
0 7 0 -19 12 12 0 7 0 -19 12 12 0 7 0 -19 12 12 0 7 0 -19 12 12 0 7
0 -19 70 12 0 7 0 -19 12 12 0 7 0 -19 12 12 0 7 0 -19 12 12 0 7 0 -19
35 -2 12 3 12 -3 151 -1 0 3 12 -3 23 12 12 -12 12 12 12 -12 23 12 12
-12 23 12 12 -12 12 12 12 -11 0 3 12 -3 163 5 0 4 23 -9 0 9 12 -9 0
9 12 -9 0 9 12 2 12 -2 12 -9 0 9 12 -9 0 9 23 -9 0 9 12 -9 0 9 23 -9
0 9 12 -9 0 9 12 -9 0 9 12 -9 0 3 12 -3 0 9 12 -10 0 10 12 -9 0 9 58
-9 0 9 12 -9 0 9 12 -9 0 9 12 -9 0 9 46 -10 0 10 12 -10 0 10 12 -8
0 8 23 -9 0 9 12 3 0 -12 0 9 12 3 0 -3 12 3 0 -12 0 9 12 3 0 -12 0
9 12 -9 0 9 12 -9 0 9 12 7 0 -7 12 3 0 -12 0 9 12 7 0 -16 0 9 12 -9
0 9 12 -9 0 9 12 -9 0 9 12 -9 0 9 12 -9 0 9 12 -9 0 9 12 2 12 -2 0
2 12 -2 0 2 12 -2 0 2 12 -2 0 2 12 -2 0 2 12 -11 0 9 12 -9 0 9 12 -9
0 9 12 -9 0 9 12 -9 0 9 12 -9 0 9 12 -9 0 9 12 -9 0 9 12 -10 0 10 12
-10 0 10 12 -9 957 -75 924 75 12 14 0 -5 0 -19 12 24 0 -24 35 24 0
-24 12 24 0 -24 23 24 0 -24 23 24 0 -24 12 24 0 -24 46 19 0 -19 0 11
12 13 0 -11 0 6 0 -19 12 24 0 -24 23 24 0 -24 12 24 0 -24 12 24 0 -24
12 24 0 -24 93 24 0 -5 0 -19 12 24 0 -24 23 24 0 -24 12 24 0 -24 128
5 12 -5 0 5 12 -5 12 5 12 -5 0 5 12 -5 0 5 12 -5 0 5 12 -5 0 5 12 -5
0 5 12 -5 0 5 12 -5 0 5 12 -5 0 5 12 -5 0 5 12 -5 0 5 12 -5 0 5 12
-5 0 5 12 -5 0 5 12 -5 0 5 12 -5 0 5 12 -5 0 5 12 -5 0 5 12 -5 0 5
12 -5 0 5 12 -5 0 5 12 -5 0 5 12 -5 0 5 12 -5 0 5 12 -5 0 5 12 -5 0
5 12 -5 0 5 12 -5 0 5 12 -5 0 5 12 -5 0 5 12 -5 0 5 12 -5 0 5 12 -5
0 5 12 -5 0 5 12 -5 23 5 12 -5 0 5 12 -5 12 5 12 -5 0 5 12 -5 0 5 12
19 0 -24 0 5 12 19 0 -24 0 5 12 -5 0 5 12 -5 0 5 12 -5 12 5 12 -5 0
5 12 -5 0 5 12 19 0 -24 0 5 12 19 0 -24 0 5 12 19 0 -24 0 5 12 19 0
-24 0 5 12 19 0 -14 0 2 0 -12 0 5 12 19 0 -24 0 5 12 19 0 -14 0 2 0
-12 0 5 12 19 0 -14 0 2 0 -12 0 5 12 19 0 -14 0 2 0 -12 0 5 12 19 0
-14 0 2 0 -12 0 5 12 19 0 -14 0 2 0 -12 0 5 12 19 0 -14 0 2 0 -12 0
5 12 19 0 -14 0 2 0 -12 0 5 12 19 0 -14 0 2 0 -12 0 5 12 19 0 -14 0
2 0 -12 0 5 12 19 0 -14 0 2 0 -12 0 5 12 19 0 -14 0 2 0 -12 0 5 12
19 0 -24 0 5 12 19 0 -24 0 5 12 19 0 -24 0 5 12 19 0 -24 0 5 12 19
0 -24 0 5 12 19 0 -14 0 2 0 -12 0 5 12 19 0 -14 0 2 0 -12 0 5 12 19
0 -14 0 2 0 -12 0 5 12 19 0 -14 0 2 0 -12 0 5 12 19 0 -14 0 2 0 -12
0 5 12 19 0 -14 0 2 0 -12 0 5 12 19 0 -14 0 2 0 -12 0 5 12 19 0 -14
0 2 0 -12 0 5 12 19 0 -14 0 2 0 -12 0 5 12 7 0 -12 0 5 12 7 93 12 0
-12 12 12 0 -12 12 12 0 -12 58 12 0 -12 12 12 0 7 0 -19 12 12 0 -12
12 12 0 -12 12 12 0 -12 12 12 0 -12 12 12 0 -12 12 12 0 -12 12 12 0
-12 12 12 0 -12 12 12 0 -12 12 12 0 -12 12 12 0 -12 12 12 0 -12 12
12 0 -12 12 12 0 -12 70 12 0 -12 12 12 0 -12 12 12 0 -12 12 12 0 -12
35 12 0 -12 12 12 0 -12 12 12 0 -12 12 12 0 -12 12 12 0 -12 12 12 0
-12 12 12 0 -12 12 12 0 -12 12 12 0 -12 12 12 0 -12 12 12 0 -12 12
12 0 -12 12 12 0 -12 12 12 0 -12 12 12 0 -12 12 12 0 -12 12 12 0 -12
12 12 0 -12 12 12 0 -12 12 12 0 -12 12 12 0 -12 12 12 0 -12 12 12 0
-12 12 12 0 -12 12 12 0 -12 58 12 0 -12 12 12 0 -12 12 12 0 -12 12
12 0 -12 12 12 0 -12 12 12 0 -12 12 12 0 -12 12 12 0 -12 12 12 0 -12
12 12 0 -12 12 12 0 -12 12 12 0 -12 12 12 0 -12 12 12 0 -12 12 -2 12
3 12 -3 151 -1 0 3 12 -3 23 12 12 -12 0 12 12 -12 0 12 12 -12 23 12
12 -12 0 12 12 -12 0 12 12 -12 0 12 12 -12 0 12 12 -12 0 12 12 -12
0 12 12 -13 12 11 116 2 12 -2 12 -10 0 10 23 -2 0 2 12 -10 0 8 12 4
12 -4 0 2 12 -2 0 2 12 -2 35 -8 0 8 12 2 12 -10 0 8 23 4 12 -12 0 8
23 -8 0 8 12 -9 0 9 12 -8 0 8 12 -8 0 8 12 -8 0 8 12 -8 0 8 35 -7 0
7 23 2 12 3 0 -12 0 7 12 5 0 -12 0 7 0 2 12 3 0 -12 0 7 12 -7 0 7 12
-7 0 7 12 -8 0 8 0 2 12 -10 0 8 12 -7 0 7 12 -7 0 7 12 -7 0 7 12 -8
0 8 12 -7 0 3 12 -3 0 7 0 2 12 -10 0 8 12 -8 0 8 12 -8 0 8 12 -8 0
8 12 -8 0 8 12 -8 0 8 12 -8 0 8 12 -8 0 8 12 -8 0 8 12 -8 0 8 12 -8
0 8 12 -8 0 8 12 -8 0 8 12 -8 0 8 12 -8 0 8 12 -8 0 8 12 -8 0 8 12
-8 0 8 12 -8 0 8 12 -8 0 8 12 -8 0 8 12 -8 0 8 12 -8 0 8 12 -8 0 8
12 -8 0 8 12 -8 0 8 12 -8 0 8 12 -8 0 8 12 -8 0 8 12 -8 0 8 12 -8 0
8 12 -8 0 8 12 -8 0 8 12 -8 0 8 12 -8 0 8 12 -8 0 8 12 -8 0 8 12 -8
0 8 12 -8 0 8 12 -8 0 8 12 -8 0 8 12 -8 0 8 12 -8 0 8 12 -8 0 8 12
-8 0 8 12 -5 12 3 12 -3 93 12 0 -12 12 12 0 -12 12 12 0 7 0 -19 12
12 0 7 0 -19 12 12 0 7 0 -19 12 12 0 7 0 -19 12 12 0 7 0 -19 12 12
0 7 0 -19 12 12 0 7 0 -19 12 12 0 7 0 -19 12 12 0 7 0 -19 12 12 0 7
0 -19 12 12 0 7 0 -19 12 12 0 7 0 -19 12 12 0 7 0 -19 12 12 0 7 0 -19
12 12 0 7 0 -19 12 12 0 7 0 -19 12 12 0 7 0 -19 12 12 0 7 0 -19 12
12 0 7 0 -19 12 12 0 7 0 -19 81 12 0 7 0 -19 12 12 0 7 0 -19 12 12
0 7 0 -19 35 -2 0 2 12 -2 0 4 12 -4 163 -1 0 12 12 -12 58 12 12 -12
12 12 12 -12 23 12 12 -12 0 12 12 -12 12 10 12 -10 0 10 46 -10 0 10
81 -10 0 10;
#X obj 295 330 t b f b b;
#X obj 340 408 round;
#X obj 272 252 spigot;
#X obj 315 191 t f f b f f;
#X floatatom 215 72 5 0 0 0 - - -;
#X msg 217 115 0;
#X obj 220 92 delay 10;
#X obj 132 358 compt;
#X floatatom 119 413 5 0 0 0 - - -;
#X obj 57 130 bng 15 250 50 0 empty empty empty 17 7 0 10 -262144 -1
-1;
#X msg 108 87 bang;
#X obj 107 107 delay 1000;
#X floatatom 90 390 5 0 0 0 - - -;
#X obj 128 388 t b f;
#X msg -68 486 set list;
#X obj 112 447 moses 10;
#X obj 200 117 bng 15 250 50 0 empty empty empty 17 7 0 10 -262144
-1 -1;
#X obj 257 424 pack f f f;
#X obj 247 460 route 0;
#X msg 287 485 add2 \$3 \$2;
#X msg 232 482 add2 \$1;
#X obj -79 529 bng 15 250 50 0 empty empty empty 17 7 0 10 -262144
-1 -1;
#X obj 181 197 t b b;
#X obj 102 135 t b b b;
#X connect 0 0 4 0;
#X connect 2 0 3 0;
#X connect 3 0 6 0;
#X connect 4 0 2 0;
#X connect 4 0 21 0;
#X connect 5 0 20 0;
#X connect 6 0 5 1;
#X connect 6 1 5 0;
#X connect 7 0 39 0;
#X connect 8 0 5 1;
#X connect 9 0 17 0;
#X connect 9 0 24 0;
#X connect 10 0 9 1;
#X connect 11 0 10 1;
#X connect 12 0 14 1;
#X connect 13 0 14 0;
#X connect 14 0 18 0;
#X connect 16 0 1 0;
#X connect 17 1 34 1;
#X connect 17 2 13 0;
#X connect 17 3 12 0;
#X connect 18 0 34 2;
#X connect 19 0 9 0;
#X connect 20 0 15 0;
#X connect 20 0 19 0;
#X connect 20 1 19 1;
#X connect 20 2 11 0;
#X connect 20 3 11 1;
#X connect 20 4 10 0;
#X connect 21 0 23 0;
#X connect 21 0 27 0;
#X connect 22 0 3 0;
#X connect 23 0 22 0;
#X connect 23 0 33 0;
#X connect 24 0 29 0;
#X connect 24 0 30 0;
#X connect 25 0 32 0;
#X connect 27 0 28 0;
#X connect 28 0 26 0;
#X connect 28 0 40 0;
#X connect 30 0 25 0;
#X connect 30 1 34 0;
#X connect 31 0 16 0;
#X connect 31 0 38 0;
#X connect 32 1 40 0;
#X connect 34 0 35 0;
#X connect 35 0 37 0;
#X connect 35 1 36 0;
#X connect 36 0 16 0;
#X connect 37 0 16 0;
#X connect 39 0 31 0;
#X connect 39 1 8 0;
#X connect 40 0 31 0;
#X connect 40 1 16 0;
#X connect 40 2 24 1;
#X restore 476 1477 pd melodie;
#X obj 476 1446 r msgfreq;
#X obj 355 1443 print [rythme];
#X obj 365 1453 print [rythme];
#X obj 767 125 print [rythme];
#X connect 0 0 208 2;
#X connect 1 0 208 1;
#X connect 2 0 1 0;
#X connect 3 0 23 0;
#X connect 3 0 209 0;
#X connect 3 0 325 0;
#X connect 3 1 24 0;
#X connect 5 0 4 0;
#X connect 6 0 8 0;
#X connect 7 0 0 0;
#X connect 8 0 215 0;
#X connect 8 1 7 0;
#X connect 9 0 11 0;
#X connect 10 0 209 0;
#X connect 11 0 10 0;
#X connect 12 0 13 0;
#X connect 12 1 14 0;
#X connect 13 0 307 0;
#X connect 15 0 12 0;
#X connect 15 1 16 0;
#X connect 15 2 19 0;
#X connect 16 0 17 0;
#X connect 16 1 18 0;
#X connect 17 0 307 0;
#X connect 19 0 20 0;
#X connect 19 1 21 0;
#X connect 20 0 307 0;
#X connect 23 3 22 0;
#X connect 23 4 15 0;
#X connect 24 0 313 0;
#X connect 25 0 26 0;
#X connect 25 0 334 0;
#X connect 26 0 23 0;
#X connect 27 0 274 0;
#X connect 28 0 313 0;
#X connect 29 0 28 0;
#X connect 30 0 5 0;
#X connect 31 0 201 0;
#X connect 31 0 204 0;
#X connect 31 0 206 0;
#X connect 31 0 208 0;
#X connect 31 0 211 0;
#X connect 31 0 213 0;
#X connect 31 0 257 0;
#X connect 31 0 299 0;
#X connect 31 0 300 0;
#X connect 31 0 301 0;
#X connect 31 0 302 0;
#X connect 31 0 303 0;
#X connect 31 0 304 0;
#X connect 31 0 305 0;
#X connect 31 0 338 0;
#X connect 34 0 320 0;
#X connect 35 0 33 0;
#X connect 36 0 271 0;
#X connect 37 0 211 2;
#X connect 38 0 211 1;
#X connect 39 0 38 0;
#X connect 40 0 42 0;
#X connect 41 0 63 0;
#X connect 41 0 212 0;
#X connect 41 0 321 0;
#X connect 41 1 64 0;
#X connect 42 0 43 0;
#X connect 43 0 41 1;
#X connect 45 0 44 0;
#X connect 46 0 48 0;
#X connect 47 0 37 0;
#X connect 48 0 216 0;
#X connect 48 1 47 0;
#X connect 49 0 51 0;
#X connect 50 0 212 0;
#X connect 51 0 50 0;
#X connect 52 0 53 0;
#X connect 52 1 54 0;
#X connect 53 0 254 0;
#X connect 55 0 52 0;
#X connect 55 1 56 0;
#X connect 55 2 59 0;
#X connect 56 0 57 0;
#X connect 56 1 58 0;
#X connect 57 0 254 0;
#X connect 59 0 60 0;
#X connect 59 1 61 0;
#X connect 60 0 254 0;
#X connect 63 3 62 0;
#X connect 63 4 55 0;
#X connect 64 0 314 0;
#X connect 65 0 66 0;
#X connect 65 0 322 0;
#X connect 66 0 63 0;
#X connect 67 0 262 0;
#X connect 68 0 314 0;
#X connect 69 0 68 0;
#X connect 70 0 40 0;
#X connect 71 0 45 0;
#X connect 73 0 213 2;
#X connect 74 0 213 1;
#X connect 75 0 74 0;
#X connect 76 0 96 0;
#X connect 76 0 214 0;
#X connect 76 0 330 0;
#X connect 76 1 97 0;
#X connect 78 0 77 0;
#X connect 79 0 81 0;
#X connect 80 0 73 0;
#X connect 81 0 217 0;
#X connect 81 1 80 0;
#X connect 82 0 84 0;
#X connect 83 0 214 0;
#X connect 84 0 83 0;
#X connect 85 0 86 0;
#X connect 85 1 87 0;
#X connect 86 0 256 0;
#X connect 88 0 85 0;
#X connect 88 1 89 0;
#X connect 88 2 92 0;
#X connect 89 0 90 0;
#X connect 89 1 91 0;
#X connect 90 0 256 0;
#X connect 92 0 93 0;
#X connect 92 1 94 0;
#X connect 93 0 256 0;
#X connect 96 3 95 0;
#X connect 96 4 88 0;
#X connect 97 0 315 0;
#X connect 98 0 99 0;
#X connect 98 0 335 0;
#X connect 99 0 96 0;
#X connect 100 0 264 0;
#X connect 101 0 315 0;
#X connect 102 0 101 0;
#X connect 103 0 78 0;
#X connect 105 0 206 2;
#X connect 106 0 206 1;
#X connect 107 0 106 0;
#X connect 108 0 207 0;
#X connect 108 0 128 0;
#X connect 108 0 329 0;
#X connect 108 1 129 0;
#X connect 110 0 109 0;
#X connect 111 0 113 0;
#X connect 112 0 105 0;
#X connect 113 0 218 0;
#X connect 113 1 112 0;
#X connect 114 0 116 0;
#X connect 115 0 207 0;
#X connect 116 0 115 0;
#X connect 117 0 118 0;
#X connect 117 1 119 0;
#X connect 118 0 308 0;
#X connect 120 0 117 0;
#X connect 120 1 121 0;
#X connect 120 2 124 0;
#X connect 121 0 122 0;
#X connect 121 1 123 0;
#X connect 122 0 308 0;
#X connect 124 0 125 0;
#X connect 124 1 126 0;
#X connect 125 0 308 0;
#X connect 128 3 127 0;
#X connect 128 4 120 0;
#X connect 129 0 316 0;
#X connect 130 0 131 0;
#X connect 130 0 331 0;
#X connect 131 0 128 0;
#X connect 132 0 266 0;
#X connect 133 0 316 0;
#X connect 134 0 133 0;
#X connect 135 0 110 0;
#X connect 137 0 204 2;
#X connect 138 0 204 1;
#X connect 139 0 138 0;
#X connect 140 0 160 0;
#X connect 140 0 205 0;
#X connect 140 0 326 0;
#X connect 140 1 161 0;
#X connect 142 0 141 0;
#X connect 143 0 145 0;
#X connect 144 0 137 0;
#X connect 145 0 219 0;
#X connect 145 1 144 0;
#X connect 146 0 148 0;
#X connect 147 0 205 0;
#X connect 148 0 147 0;
#X connect 149 0 150 0;
#X connect 149 1 151 0;
#X connect 150 0 310 0;
#X connect 152 0 149 0;
#X connect 152 1 153 0;
#X connect 152 2 156 0;
#X connect 153 0 154 0;
#X connect 153 1 155 0;
#X connect 154 0 310 0;
#X connect 156 0 157 0;
#X connect 156 1 158 0;
#X connect 157 0 310 0;
#X connect 160 3 159 0;
#X connect 160 4 152 0;
#X connect 161 0 317 0;
#X connect 162 0 163 0;
#X connect 162 0 333 0;
#X connect 163 0 160 0;
#X connect 164 0 267 0;
#X connect 165 0 317 0;
#X connect 166 0 165 0;
#X connect 167 0 142 0;
#X connect 169 0 201 2;
#X connect 170 0 201 1;
#X connect 171 0 170 0;
#X connect 172 0 192 0;
#X connect 172 0 203 0;
#X connect 172 0 328 0;
#X connect 172 1 193 0;
#X connect 174 0 173 0;
#X connect 175 0 177 0;
#X connect 176 0 169 0;
#X connect 177 0 202 0;
#X connect 177 1 176 0;
#X connect 178 0 180 0;
#X connect 179 0 203 0;
#X connect 180 0 179 0;
#X connect 181 0 182 0;
#X connect 181 1 183 0;
#X connect 182 0 210 0;
#X connect 184 0 181 0;
#X connect 184 1 185 0;
#X connect 184 2 188 0;
#X connect 185 0 186 0;
#X connect 185 1 187 0;
#X connect 186 0 210 0;
#X connect 188 0 189 0;
#X connect 188 1 190 0;
#X connect 189 0 210 0;
#X connect 192 3 191 0;
#X connect 192 4 184 0;
#X connect 193 0 318 0;
#X connect 194 0 195 0;
#X connect 194 0 332 0;
#X connect 195 0 192 0;
#X connect 196 0 268 0;
#X connect 197 0 318 0;
#X connect 198 0 197 0;
#X connect 199 0 174 0;
#X connect 201 0 172 0;
#X connect 201 0 199 0;
#X connect 204 0 140 0;
#X connect 204 0 167 0;
#X connect 206 0 108 0;
#X connect 206 0 135 0;
#X connect 208 0 3 0;
#X connect 208 0 30 0;
#X connect 210 1 311 0;
#X connect 211 0 41 0;
#X connect 211 0 71 0;
#X connect 213 0 76 0;
#X connect 213 0 103 0;
#X connect 220 0 257 2;
#X connect 221 0 257 1;
#X connect 222 0 221 0;
#X connect 223 0 243 0;
#X connect 223 0 258 0;
#X connect 223 0 327 0;
#X connect 223 1 244 0;
#X connect 225 0 224 0;
#X connect 226 0 228 0;
#X connect 227 0 220 0;
#X connect 228 0 252 0;
#X connect 228 1 227 0;
#X connect 229 0 231 0;
#X connect 230 0 258 0;
#X connect 231 0 230 0;
#X connect 232 0 233 0;
#X connect 232 1 234 0;
#X connect 233 0 261 0;
#X connect 235 0 232 0;
#X connect 235 1 236 0;
#X connect 235 2 239 0;
#X connect 236 0 237 0;
#X connect 236 1 238 0;
#X connect 237 0 261 0;
#X connect 239 0 240 0;
#X connect 239 1 241 0;
#X connect 240 0 261 0;
#X connect 243 3 242 0;
#X connect 243 4 235 0;
#X connect 244 0 319 0;
#X connect 245 0 246 0;
#X connect 245 0 336 0;
#X connect 246 0 243 0;
#X connect 247 0 265 0;
#X connect 248 0 319 0;
#X connect 249 0 248 0;
#X connect 250 0 225 0;
#X connect 253 0 27 0;
#X connect 254 1 255 0;
#X connect 255 0 67 0;
#X connect 256 1 260 0;
#X connect 257 0 223 0;
#X connect 257 0 250 0;
#X connect 259 0 247 0;
#X connect 260 0 100 0;
#X connect 261 1 259 0;
#X connect 263 0 34 0;
#X connect 270 0 269 1;
#X connect 270 0 269 0;
#X connect 271 0 33 1;
#X connect 273 0 263 0;
#X connect 275 0 276 0;
#X connect 276 0 277 0;
#X connect 277 0 3 1;
#X connect 278 0 275 0;
#X connect 279 0 280 0;
#X connect 280 0 281 0;
#X connect 281 0 108 1;
#X connect 282 0 279 0;
#X connect 283 0 284 0;
#X connect 284 0 285 0;
#X connect 285 0 140 1;
#X connect 286 0 283 0;
#X connect 287 0 288 0;
#X connect 288 0 289 0;
#X connect 289 0 172 1;
#X connect 290 0 287 0;
#X connect 291 0 292 0;
#X connect 292 0 293 0;
#X connect 293 0 76 1;
#X connect 294 0 291 0;
#X connect 295 0 296 0;
#X connect 296 0 297 0;
#X connect 297 0 223 1;
#X connect 298 0 295 0;
#X connect 299 0 282 0;
#X connect 300 0 278 0;
#X connect 301 0 70 0;
#X connect 302 0 294 0;
#X connect 303 0 298 0;
#X connect 304 0 286 0;
#X connect 305 0 290 0;
#X connect 306 0 132 0;
#X connect 307 1 253 0;
#X connect 308 1 306 0;
#X connect 309 0 164 0;
#X connect 310 1 309 0;
#X connect 311 0 196 0;
#X connect 313 0 25 0;
#X connect 314 0 65 0;
#X connect 315 0 98 0;
#X connect 316 0 130 0;
#X connect 317 0 162 0;
#X connect 318 0 194 0;
#X connect 319 0 245 0;
#X connect 320 0 35 0;
#X connect 322 0 321 1;
#X connect 331 0 329 1;
#X connect 332 0 328 1;
#X connect 333 0 326 1;
#X connect 334 0 325 1;
#X connect 335 0 330 1;
#X connect 336 0 327 1;
#X connect 338 0 343 0;
#X connect 339 0 324 0;
#X connect 340 0 339 0;
