#N canvas 566 82 1353 998 10;
#X floatatom 1074 496 5 0 0 0 - - -;
#X floatatom 1039 496 5 0 0 0 - - -;
#X obj 1038 476 f;
#X obj 1009 663 gaten;
#X floatatom 1005 604 5 0 0 0 - - -;
#X obj 1006 582 rmstodb;
#X obj 1049 405 loadbang;
#X msg 1075 456 10;
#X obj 1049 425 t b b;
#X obj 1053 943 unpack;
#X floatatom 1053 990 0 0 0 0 - - -;
#X floatatom 1067 970 0 0 0 0 - - -;
#X obj 1112 919 route 1 2 3 4;
#X obj 1129 951 unpack;
#X floatatom 1128 996 0 0 0 0 - - -;
#X floatatom 1143 978 0 0 0 0 - - -;
#X obj 1201 953 unpack;
#X floatatom 1217 1005 0 0 0 0 - - -;
#X floatatom 1224 986 0 0 0 0 - - -;
#X floatatom 1055 914 0 0 0 0 - - -;
#X obj 1064 887 fiddle~ 1024 1 20 3;
#X obj 1078 785 bng 15 250 50 0 empty empty empty 17 7 0 10 -262144
-1 -1;
#X obj 1093 835 mod 2;
#X msg 1096 860 auto \$1;
#X floatatom 1130 1075 10 0 0 0 - - -;
#X obj 1104 790 bng 15 250 50 0 empty empty empty 17 7 0 10 -262144
-1 -1;
#X obj 1103 769 loadbang;
#X obj 1005 559 env~;
#X obj 1020 69 inlet~;
#X obj 199 1414 comptNote;
#X obj 192 1328 ftom;
#X floatatom 193 1387 5 0 0 0 - - -;
#X obj 251 1362 loadbang;
#X floatatom 1345 499 5 0 0 0 - - -;
#X floatatom 1310 499 5 0 0 0 - - -;
#X obj 1309 479 f;
#X floatatom 1333 605 5 0 0 0 - - -;
#X obj 1280 666 gaten;
#X obj 1334 624 rmstodb;
#X floatatom 1334 644 5 0 0 0 - - -;
#X floatatom 1290 617 5 0 0 0 - - -;
#X obj 1277 585 rmstodb;
#X obj 1320 408 loadbang;
#X msg 1346 459 10;
#X obj 1320 428 t b b;
#X obj 1324 946 unpack;
#X floatatom 1324 993 0 0 0 0 - - -;
#X floatatom 1338 973 0 0 0 0 - - -;
#X obj 1383 922 route 1 2 3 4;
#X obj 1400 954 unpack;
#X floatatom 1399 999 0 0 0 0 - - -;
#X floatatom 1414 981 0 0 0 0 - - -;
#X obj 1472 956 unpack;
#X floatatom 1491 1003 0 0 0 0 - - -;
#X floatatom 1498 984 0 0 0 0 - - -;
#X floatatom 1326 917 0 0 0 0 - - -;
#X obj 1335 890 fiddle~ 1024 1 20 3;
#X obj 1349 788 bng 15 250 50 0 empty empty empty 17 7 0 10 -262144
-1 -1;
#X obj 1364 838 mod 2;
#X msg 1367 863 auto \$1;
#X floatatom 1400 1083 5 0 0 0 - - -;
#X obj 1375 793 bng 15 250 50 0 empty empty empty 17 7 0 10 -262144
-1 -1;
#X obj 1374 772 loadbang;
#X obj 1337 584 env~;
#X obj 1276 562 env~;
#X floatatom 1613 501 5 0 0 0 - - -;
#X floatatom 1578 501 5 0 0 0 - - -;
#X obj 1577 481 f;
#X obj 1548 668 gaten;
#X floatatom 1555 614 5 0 0 0 - - -;
#X obj 1545 587 rmstodb;
#X obj 1588 410 loadbang;
#X msg 1614 461 10;
#X obj 1588 430 t b b;
#X obj 1592 948 unpack;
#X floatatom 1592 995 0 0 0 0 - - -;
#X floatatom 1606 975 0 0 0 0 - - -;
#X obj 1651 924 route 1 2 3 4;
#X obj 1668 956 unpack;
#X floatatom 1667 1001 0 0 0 0 - - -;
#X floatatom 1682 983 0 0 0 0 - - -;
#X obj 1740 958 unpack;
#X floatatom 1771 1010 0 0 0 0 - - -;
#X floatatom 1778 991 0 0 0 0 - - -;
#X floatatom 1594 919 0 0 0 0 - - -;
#X obj 1603 892 fiddle~ 1024 1 20 3;
#X obj 1617 790 bng 15 250 50 0 empty empty empty 17 7 0 10 -262144
-1 -1;
#X obj 1632 840 mod 2;
#X msg 1635 865 auto \$1;
#X floatatom 1668 1085 5 0 0 0 - - -;
#X obj 1643 795 bng 15 250 50 0 empty empty empty 17 7 0 10 -262144
-1 -1;
#X obj 1642 774 loadbang;
#X obj 1544 564 env~;
#X floatatom 786 497 5 0 0 0 - - -;
#X floatatom 751 497 5 0 0 0 - - -;
#X obj 750 477 f;
#X obj 705 666 gaten;
#X floatatom 732 608 5 0 0 0 - - -;
#X obj 718 583 rmstodb;
#X obj 761 406 loadbang;
#X msg 787 457 10;
#X obj 761 426 t b b;
#X obj 765 944 unpack;
#X floatatom 765 991 0 0 0 0 - - -;
#X floatatom 779 971 0 0 0 0 - - -;
#X obj 824 920 route 1 2 3 4;
#X obj 841 952 unpack;
#X floatatom 840 997 0 0 0 0 - - -;
#X floatatom 855 979 0 0 0 0 - - -;
#X obj 913 954 unpack;
#X floatatom 943 1004 0 0 0 0 - - -;
#X floatatom 950 985 0 0 0 0 - - -;
#X floatatom 767 915 0 0 0 0 - - -;
#X obj 776 888 fiddle~ 1024 1 20 3;
#X obj 790 786 bng 15 250 50 0 empty empty empty 17 7 0 10 -262144
-1 -1;
#X obj 805 836 mod 2;
#X msg 801 856 auto \$1;
#X floatatom 841 1081 5 0 0 0 - - -;
#X obj 816 791 bng 15 250 50 0 empty empty empty 17 7 0 10 -262144
-1 -1;
#X obj 815 770 loadbang;
#X obj 717 560 env~;
#X floatatom 493 497 5 0 0 0 - - -;
#X floatatom 458 497 5 0 0 0 - - -;
#X obj 457 477 f;
#X obj 428 664 gaten;
#X floatatom 424 605 5 0 0 0 - - -;
#X obj 425 583 rmstodb;
#X obj 468 406 loadbang;
#X msg 494 457 10;
#X obj 468 426 t b b;
#X obj 472 944 unpack;
#X floatatom 472 991 0 0 0 0 - - -;
#X floatatom 486 971 0 0 0 0 - - -;
#X obj 531 920 route 1 2 3 4;
#X obj 548 952 unpack;
#X floatatom 547 997 0 0 0 0 - - -;
#X floatatom 562 979 0 0 0 0 - - -;
#X obj 620 954 unpack;
#X floatatom 644 1005 0 0 0 0 - - -;
#X floatatom 651 986 0 0 0 0 - - -;
#X floatatom 474 915 0 0 0 0 - - -;
#X obj 483 888 fiddle~ 1024 1 20 3;
#X obj 497 786 bng 15 250 50 0 empty empty empty 17 7 0 10 -262144
-1 -1;
#X obj 512 836 mod 2;
#X msg 515 861 auto \$1;
#X floatatom 548 1081 5 0 0 0 - - -;
#X obj 523 791 bng 15 250 50 0 empty empty empty 17 7 0 10 -262144
-1 -1;
#X obj 522 770 loadbang;
#X obj 424 560 env~;
#X floatatom 207 502 5 0 0 0 - - -;
#X floatatom 172 502 5 0 0 0 - - -;
#X obj 171 482 f;
#X obj 142 669 gaten;
#X floatatom 138 610 5 0 0 0 - - -;
#X obj 139 588 rmstodb;
#X obj 182 411 loadbang;
#X msg 208 462 10;
#X obj 182 431 t b b;
#X obj 186 949 unpack;
#X floatatom 186 996 0 0 0 0 - - -;
#X floatatom 200 976 0 0 0 0 - - -;
#X obj 245 925 route 1 2 3 4;
#X obj 262 957 unpack;
#X floatatom 261 1002 0 0 0 0 - - -;
#X floatatom 276 984 0 0 0 0 - - -;
#X obj 334 959 unpack;
#X floatatom 362 1008 0 0 0 0 - - -;
#X floatatom 369 989 0 0 0 0 - - -;
#X floatatom 188 920 0 0 0 0 - - -;
#X obj 197 893 fiddle~ 1024 1 20 3;
#X obj 211 791 bng 15 250 50 0 empty empty empty 17 7 0 10 -262144
-1 -1;
#X obj 226 841 mod 2;
#X msg 229 866 auto \$1;
#X floatatom 262 1086 5 0 0 0 - - -;
#X obj 237 796 bng 15 250 50 0 empty empty empty 17 7 0 10 -262144
-1 -1;
#X obj 236 775 loadbang;
#X obj 138 565 env~;
#X obj 146 530 bp~ 100 10;
#X msg 172 462 100;
#X obj 432 524 bp~ 200 10;
#X obj 724 525 bp~ 400 10;
#X obj 1013 524 bp~ 800 10;
#X obj 260 1040 moses 50;
#X obj 1284 527 bp~ 1600 10;
#X obj 1552 529 bp~ 3200 10;
#X msg 1039 456 800;
#X msg 1313 453 1600;
#X msg 1578 461 3200;
#X msg 751 457 400;
#X msg 457 457 200;
#X floatatom 1955 498 5 0 0 0 - - -;
#X floatatom 1920 498 5 0 0 0 - - -;
#X obj 1919 478 f;
#X obj 1890 665 gaten;
#X floatatom 1886 606 5 0 0 0 - - -;
#X obj 1887 584 rmstodb;
#X obj 1930 407 loadbang;
#X msg 1956 458 10;
#X obj 1930 427 t b b;
#X obj 1934 945 unpack;
#X floatatom 1934 992 0 0 0 0 - - -;
#X floatatom 1948 972 0 0 0 0 - - -;
#X obj 1993 921 route 1 2 3 4;
#X obj 2010 953 unpack;
#X floatatom 2009 998 0 0 0 0 - - -;
#X floatatom 2024 980 0 0 0 0 - - -;
#X obj 2082 955 unpack;
#X floatatom 2110 1004 0 0 0 0 - - -;
#X floatatom 2117 985 0 0 0 0 - - -;
#X floatatom 1936 916 0 0 0 0 - - -;
#X obj 1945 889 fiddle~ 1024 1 20 3;
#X obj 1959 787 bng 15 250 50 0 empty empty empty 17 7 0 10 -262144
-1 -1;
#X obj 1974 837 mod 2;
#X msg 1977 862 auto \$1;
#X floatatom 2010 1082 5 0 0 0 - - -;
#X obj 1985 792 bng 15 250 50 0 empty empty empty 17 7 0 10 -262144
-1 -1;
#X obj 1984 771 loadbang;
#X obj 1886 561 env~;
#X msg 1920 458 100;
#X obj 1130 1055 moses 1200;
#X obj 1398 1037 moses 1200;
#X obj 1401 1058 moses 2400;
#X obj 1666 1039 moses 2400;
#X obj 1894 526 bp~ 6400 10;
#X obj 2011 1057 moses 9600;
#X obj 1669 1060 moses 4800;
#X obj 2008 1036 moses 4800;
#X obj 1393 1107 s msgfreq;
#X floatatom 196 1309 10 0 0 0 - - -;
#X obj 1668 1110 s msgfreq;
#X obj 2010 1112 s msgfreq;
#X obj 843 1102 s msgfreq;
#X obj 545 1105 s msgfreq;
#X obj 263 1108 s msgfreq;
#X obj 878 739 dac~;
#X obj 893 692 *~ 1;
#X obj 203 1288 r msgfreq;
#X obj 1133 1103 s msgfreq;
#X floatatom 1067 592 5 0 0 0 - - -;
#X obj 1068 611 rmstodb;
#X floatatom 1069 634 5 0 0 0 - - -;
#X obj 1071 571 env~;
#X floatatom 786 602 5 0 0 0 - - -;
#X obj 787 621 rmstodb;
#X floatatom 787 641 5 0 0 0 - - -;
#X obj 790 581 env~;
#X floatatom 496 595 5 0 0 0 - - -;
#X obj 497 614 rmstodb;
#X floatatom 497 634 5 0 0 0 - - -;
#X obj 500 574 env~;
#X floatatom 213 607 5 0 0 0 - - -;
#X obj 214 626 rmstodb;
#X floatatom 214 646 5 0 0 0 - - -;
#X obj 217 586 env~;
#X floatatom 1622 605 5 0 0 0 - - -;
#X obj 1623 624 rmstodb;
#X floatatom 1623 644 5 0 0 0 - - -;
#X obj 1626 584 env~;
#X floatatom 1969 598 5 0 0 0 - - -;
#X obj 1970 617 rmstodb;
#X floatatom 1970 637 5 0 0 0 - - -;
#X obj 1973 577 env~;
#X obj 787 557 *~ 0.3;
#X obj 1069 547 *~ 0.3;
#X obj 1334 560 *~ 0.3;
#X obj 1624 560 *~ 0.3;
#X obj 1971 553 *~ 0.3;
#X obj 497 549 *~ 0.3;
#X obj 215 562 *~ 0.3;
#X obj 842 1056 moses 650;
#X obj 1127 1034 moses 550;
#X obj 839 1035 moses 275;
#X obj 549 1056 moses 325;
#X obj 547 1035 moses 125;
#X obj 263 1061 moses 175;
#X obj 188 1356 round;
#X obj 1267 883 spigot~;
#X msg 1337 866 \$1;
#X obj 1218 919 print [fiddle];
#X obj 979 882 spigot~;
#X obj 404 883 spigot~;
#X obj 1863 880 spigot~;
#X obj 100 888 spigot~;
#X obj 700 875 spigot~;
#X obj 1525 888 spigot~;
#X msg 756 853 \$1;
#X msg 153 856 \$1;
#X msg 482 859 \$1;
#X msg 1039 860 \$1;
#X msg 1571 863 \$1;
#X msg 1937 860 \$1;
#X obj 37 977 env~;
#X floatatom 37 1008 5 0 0 0 - - -;
#X obj 408 939 env~;
#X floatatom 412 978 5 0 0 0 - - -;
#X obj 707 944 env~;
#X floatatom 711 983 5 0 0 0 - - -;
#X obj 990 964 env~;
#X floatatom 991 1033 5 0 0 0 - - -;
#X obj 1270 1000 env~;
#X floatatom 1261 1040 5 0 0 0 - - -;
#X obj 1558 1015 env~;
#X floatatom 1541 1055 5 0 0 0 - - -;
#X obj 1863 981 env~;
#X obj 1256 129 env~;
#X obj 41 1068 /;
#X floatatom 43 1093 5 0 0 0 - - -;
#X obj 400 1057 /;
#X floatatom 402 1082 5 0 0 0 - - -;
#X obj 703 1059 /;
#X floatatom 705 1084 5 0 0 0 - - -;
#X obj 998 1059 /;
#X floatatom 1000 1084 5 0 0 0 - - -;
#X obj 1270 1071 /;
#X floatatom 1262 1098 5 0 0 0 - - -;
#X obj 1546 1085 /;
#X floatatom 1548 1110 5 0 0 0 - - -;
#X floatatom 1841 1040 5 0 0 0 - - -;
#X obj 1848 1066 /;
#X floatatom 1850 1091 5 0 0 0 - - -;
#X obj 731 964 bng 15 250 50 0 empty empty empty 17 7 0 10 -262144
-1 -1;
#X obj 447 959 bng 15 250 50 0 empty empty empty 17 7 0 10 -262144
-1 -1;
#X obj 84 982 bng 15 250 50 0 empty empty empty 17 7 0 10 -262144 -1
-1;
#X obj 1010 1001 bng 15 250 50 0 empty empty empty 17 7 0 10 -262144
-1 -1;
#X obj 1299 1018 bng 15 250 50 0 empty empty empty 17 7 0 10 -262144
-1 -1;
#X obj 1537 1025 bng 15 250 50 0 empty empty empty 17 7 0 10 -262144
-1 -1;
#X obj 1838 989 bng 15 250 50 0 empty empty empty 17 7 0 10 -262144
-1 -1;
#X obj 1088 810 compt;
#X obj 1359 813 compt;
#X obj 1627 815 compt;
#X obj 800 811 compt;
#X obj 507 811 compt;
#X obj 221 816 compt;
#X obj 1969 812 compt;
#X obj 40 1118 s env100;
#X obj 381 1123 s env200;
#X obj 1799 1136 s env6400;
#X obj 1510 1145 s env3200;
#X obj 1259 1124 s env1600;
#X obj 980 1123 s env800;
#X obj 678 1132 s env400;
#X obj 503 1230 r env100;
#X obj 519 1268 r env200;
#X obj 535 1306 r env400;
#X obj 551 1345 r env800;
#X obj 567 1383 r env1600;
#X obj 583 1421 r env3200;
#X obj 600 1458 r env6400;
#X obj 471 1501 pack f f f f f f f f f;
#X obj 487 1191 r envglo;
#X obj 1245 157 s envglo;
#X floatatom 1325 130 5 0 0 0 - - -;
#X obj 199 1449 print [comptNote];
#X obj 474 1541 print [comptRepart];
#X obj 421 1222 loadbang;
#X obj 420 1315 metro;
#X obj 423 1276 t b f f;
#X obj 399 1366 bng 15 250 50 0 empty empty empty 17 7 0 10 -262144
-1 -1;
#N canvas 1001 82 912 998 traitement_Melodie 1;
#X floatatom 433 -8 5 0 0 0 - - -;
#X obj 344 -184 bng 15 250 50 0 empty empty empty 17 7 0 10 -262144
-1 -1;
#N canvas 65 82 927 998 melodie 1;
#X obj 465 38 inlet;
#X obj 472 124 round;
#X floatatom 478 150 5 0 0 0 - - -;
#X obj 489 222 -;
#X obj 504 329 spigot;
#X obj 536 301 !=;
#X obj 536 405 bng 15 250 50 0 empty empty empty 17 7 0 10 -262144
-1 -1;
#X obj 503 405 bng 15 250 50 0 empty empty empty 17 7 0 10 -262144
-1 -1;
#X obj 500 429 timer;
#X msg 60 645 list 0 -11 499 2 499 2 499 1 499 2 499 2 499 2 499 -12
12 1 488 1 499 1 511 1 499 2 499 2 499 2 499 -11;
#X obj 483 374 t b f b b;
#X obj 528 452 round;
#X obj 484 299 spigot;
#X floatatom 251 396 5 0 0 0 - - -;
#X msg 3 534 set list;
#X obj 445 468 pack f f f;
#X msg 337 548 add2 \$3 \$2;
#X obj -9 576 bng 15 250 50 0 empty empty empty 17 7 0 10 -262144 -1
-1;
#X obj 288 461 t f f;
#X obj 296 366 compt;
#X obj 491 245 t f f f f;
#X obj 275 327 bng 15 250 50 0 empty empty empty 17 7 0 10 -262144
-1 -1;
#X msg 307 166 bang;
#X obj 418 495 route 0;
#X obj 316 279 bng 15 250 50 0 empty empty empty 17 7 0 10 -262144
-1 -1;
#X msg 466 560 \$1;
#X msg 503 558 \$2;
#X obj 520 631 outlet;
#X obj 576 362 bng 15 250 50 0 empty empty empty 17 7 0 10 -262144
-1 -1;
#X obj 542 201 spigot;
#X obj 478 178 t f f f;
#X msg 574 175 1;
#X msg 605 175 0;
#X obj 377 398 s fin_seq;
#X obj 330 215 s fin_seq;
#X obj 572 150 r fin_seq;
#X obj 622 284 r fin_seq;
#X obj 599 326 spigot;
#X msg 624 304 1;
#X msg 653 303 0;
#X msg 583 287 1;
#X obj 581 262 r fin_seq;
#X floatatom 433 238 5 0 0 0 - - -;
#X obj 442 271 bng 15 250 50 0 empty empty empty 17 7 0 10 -262144
-1 -1;
#X obj 300 405 moses 20;
#X obj 306 185 delay 2000;
#X obj 11 478 r fin_seq;
#X obj 753 592 outlet;
#X obj 11 508 t b b;
#X obj 62 689 print [debbug acquisitionmelodie];
#X obj 755 547 r fin_seq;
#X obj 274 227 bng 15 250 50 0 empty empty empty 17 7 0 10 -262144
-1 -1;
#X obj 290 116 r fin_seq;
#X msg 290 137 stop;
#X msg 312 527 add2 \$1 0;
#X connect 0 0 1 0;
#X connect 1 0 2 0;
#X connect 2 0 30 0;
#X connect 3 0 20 0;
#X connect 3 0 32 0;
#X connect 3 0 42 0;
#X connect 4 0 10 0;
#X connect 4 0 19 0;
#X connect 4 0 28 0;
#X connect 5 0 4 1;
#X connect 6 0 8 1;
#X connect 7 0 8 0;
#X connect 8 0 11 0;
#X connect 9 0 49 0;
#X connect 10 1 15 1;
#X connect 10 2 7 0;
#X connect 10 3 6 0;
#X connect 11 0 15 2;
#X connect 12 0 4 0;
#X connect 14 0 9 0;
#X connect 14 0 17 0;
#X connect 15 0 23 0;
#X connect 16 0 9 0;
#X connect 18 1 15 0;
#X connect 19 0 13 0;
#X connect 19 0 44 0;
#X connect 20 0 12 0;
#X connect 20 0 43 0;
#X connect 20 0 37 0;
#X connect 20 0 22 0;
#X connect 20 1 12 1;
#X connect 20 2 5 1;
#X connect 20 3 5 0;
#X connect 21 0 19 0;
#X connect 22 0 45 0;
#X connect 23 0 54 0;
#X connect 23 0 25 0;
#X connect 23 1 16 0;
#X connect 23 1 26 0;
#X connect 24 0 19 1;
#X connect 25 0 27 0;
#X connect 26 0 27 0;
#X connect 29 0 3 1;
#X connect 30 0 3 1;
#X connect 30 1 3 0;
#X connect 30 2 29 0;
#X connect 31 0 29 1;
#X connect 32 0 29 1;
#X connect 35 0 31 0;
#X connect 36 0 38 0;
#X connect 37 0 39 0;
#X connect 37 0 4 0;
#X connect 38 0 37 1;
#X connect 39 0 37 1;
#X connect 40 0 5 1;
#X connect 41 0 40 0;
#X connect 44 0 15 0;
#X connect 44 1 19 3;
#X connect 44 1 33 0;
#X connect 45 0 19 1;
#X connect 45 0 34 0;
#X connect 45 0 51 0;
#X connect 46 0 48 0;
#X connect 48 0 14 0;
#X connect 48 1 9 0;
#X connect 50 0 47 0;
#X connect 52 0 53 0;
#X connect 53 0 45 0;
#X connect 54 0 9 0;
#X restore 428 18 pd melodie;
#X msg 348 -62 100;
#X msg 378 -62 120;
#X msg 408 -62 130;
#X obj 429 41 tosymbol;
#X obj 426 89 fromsymbol;
#X obj 426 66 analyserythme;
#N canvas 766 82 927 998 selectionmelodie 1;
#X obj 521 136 inlet~;
#X obj 583 279 round;
#X floatatom 583 303 5 0 0 0 - - -;
#X obj 583 199 unpack;
#X floatatom 583 249 0 0 0 0 - - -;
#X floatatom 597 226 0 0 0 0 - - -;
#X floatatom 660 249 0 0 0 0 - - -;
#X obj 519 169 fiddle~ 1024 1 20;
#X text 674 267 env;
#X obj 596 439 outlet;
#X obj 583 393 spigot;
#X obj 616 358 > 0;
#X obj 583 332 t f f;
#X connect 0 0 7 0;
#X connect 1 0 2 0;
#X connect 2 0 12 0;
#X connect 3 0 4 0;
#X connect 3 1 5 0;
#X connect 4 0 1 0;
#X connect 7 2 3 0;
#X connect 7 3 6 0;
#X connect 10 0 9 0;
#X connect 11 0 10 1;
#X connect 12 0 10 0;
#X connect 12 1 11 0;
#X restore 442 -43 pd selectionmelodie;
#X msg 517 39 min_size_seq 7;
#X obj 469 -99 inlet~;
#X obj 424 118 outlet;
#X obj 342 -142 t b b b b b b b b;
#X obj 501 17 bng 15 250 50 0 empty empty empty 17 7 0 10 -262144 -1
-1;
#X connect 0 0 2 0;
#X connect 1 0 13 0;
#X connect 2 0 6 0;
#X connect 2 1 6 0;
#X connect 2 1 14 0;
#X connect 3 0 0 0;
#X connect 4 0 0 0;
#X connect 5 0 0 0;
#X connect 6 0 8 0;
#X connect 7 0 12 0;
#X connect 8 0 7 0;
#X connect 9 0 0 0;
#X connect 10 0 8 1;
#X connect 11 0 9 0;
#X connect 13 0 5 0;
#X connect 13 1 4 0;
#X connect 13 2 3 0;
#X connect 13 3 5 0;
#X connect 13 4 3 0;
#X connect 13 5 4 0;
#X connect 13 6 3 0;
#X restore 647 111 pd traitement_Melodie;
#N canvas 85 830 1855 998 traitement_Rythmique 0;
#X obj 233 57 inlet~;
#X obj 199 200 outlet;
#N canvas 983 97 927 998 acquisitionrythme 0;
#X obj 240 17 loadbang;
#X obj 242 45 t b b b;
#X msg 299 79 debounce 0;
#X obj 245 149 bonk~;
#X obj 248 -5 bng 15 250 50 0 empty empty empty 17 7 0 10 -262144 -1
-1;
#X obj 271 172 unpack f f;
#X obj 411 357 bng 15 250 50 0 empty empty empty 17 7 0 10 -262144
-1 -1;
#X obj 378 357 bng 15 250 50 0 empty empty empty 17 7 0 10 -262144
-1 -1;
#X obj 382 406 timer;
#X floatatom 382 449 5 0 0 0 - - -;
#X obj 361 307 t f b b b b;
#X obj 359 565 bng 15 250 50 0 empty empty empty 17 7 0 10 -262144
-1 -1;
#X obj 307 560 bng 15 250 50 0 empty empty empty 17 7 0 10 -262144
-1 -1;
#X obj 340 478 pack f f f;
#X obj 330 533 route 1;
#X msg 339 500 \$2 \$1 \$3;
#X obj 73 50 inlet~;
#X msg 88 902 list;
#X msg 96 866 set list;
#X obj 403 781 f;
#X obj 507 836 f;
#X floatatom 344 837 5 0 0 0 - - -;
#X obj 490 860 /;
#X obj 391 703 pack f f;
#X obj 485 806 t f b;
#X msg 477 780 \$2;
#X obj 387 607 / 10;
#X obj 389 649 * 10;
#X obj 387 626 round;
#X obj 439 949 outlet;
#X obj 390 670 t f;
#X msg 391 727 \$2 \$1;
#X obj 352 782 bng 15 250 50 0 empty empty empty 17 7 0 10 -262144
-1 -1;
#X obj 392 752 route 2;
#N canvas 515 82 927 998 beat_div_choice 0;
#X obj 162 14 inlet;
#X obj 819 917 outlet;
#X obj 155 307 moses 0.96;
#X obj 229 309 bng 15 250 50 0 beat empty beat 17 7 0 10 -262144 -1
-1;
#X obj 243 372 bng 15 250 50 0 15_16th empty 15_16th 17 7 0 10 -262144
-1 -1;
#X obj 155 370 moses 0.906;
#X obj 136 162 moses 1.031;
#X obj 228 125 - 1;
#X obj 215 348 f;
#X obj 220 411 f;
#X obj 247 411 expr ($f1*15)/16;
#X obj 164 39 t f b b;
#X obj 219 390 delay 10;
#X obj 215 328 delay 10;
#X obj 249 350 expr ($f1)/1;
#X obj 239 435 bng 15 250 50 0 15_16th empty 7_8th 17 7 0 10 -262144
-1 -1;
#X obj 220 475 f;
#X obj 220 455 delay 10;
#X obj 155 434 moses 0.854;
#X obj 247 476 expr ($f1*7)/8;
#X obj 233 498 bng 15 250 50 0 empty empty 5_6th 17 7 0 10 -262144
-1 -1;
#X obj 243 561 bng 15 250 50 0 empty empty 13_16th 17 7 0 10 -262144
-1 -1;
#X obj 215 537 f;
#X obj 220 601 f;
#X obj 219 581 delay 10;
#X obj 215 517 delay 10;
#X obj 243 623 bng 15 250 50 0 15_16th empty 3_4th 17 7 0 10 -262144
-1 -1;
#X obj 220 665 f;
#X obj 220 645 delay 10;
#X obj 245 535 expr ($f1 * 5)/6;
#X obj 250 602 expr ($f1*13)/16;
#X obj 249 663 expr ($f1*3)/4;
#X obj 229 688 bng 15 250 50 0 empty empty 11_16th 17 7 0 10 -262144
-1 -1;
#X obj 243 751 bng 15 250 50 0 empty empty 2_3th 17 7 0 10 -262144
-1 -1;
#X obj 215 727 f;
#X obj 220 790 f;
#X obj 219 770 delay 10;
#X obj 215 707 delay 10;
#X obj 243 811 bng 15 250 50 0 empty empty 5_8th 17 7 0 10 -262144
-1 -1;
#X obj 220 854 f;
#X obj 220 834 delay 10;
#X obj 229 877 bng 15 250 50 0 empty empty 9_16th 17 7 0 10 -262144
-1 -1;
#X obj 243 941 bng 15 250 50 0 empty empty 1_2th 17 7 0 10 -262144
-1 -1;
#X obj 215 916 f;
#X obj 220 980 f;
#X obj 219 960 delay 10;
#X obj 215 896 delay 10;
#X obj 243 1002 bng 15 250 50 0 empty empty 7_16th 17 7 0 10 -262144
-1 -1;
#X obj 220 1044 f;
#X obj 220 1024 delay 10;
#X obj 155 496 moses 0.823;
#X obj 155 559 moses 0.781;
#X obj 155 624 moses 0.719;
#X obj 155 686 moses 0.677;
#X obj 155 749 moses 0.646;
#X obj 155 813 moses 0.594;
#X obj 155 875 moses 0.531;
#X obj 155 939 moses 0.469;
#X obj 155 1003 moses 0.406;
#X obj 229 1068 bng 15 250 50 0 empty empty 3_8th 17 7 0 10 -262144
-1 -1;
#X obj 243 1131 bng 15 250 50 0 empty empty 1_3th 17 7 0 10 -262144
-1 -1;
#X obj 215 1107 f;
#X obj 220 1170 f;
#X obj 219 1150 delay 10;
#X obj 215 1087 delay 10;
#X obj 238 1195 bng 15 250 50 0 empty empty 5_16th 17 7 0 10 -262144
-1 -1;
#X obj 219 1234 f;
#X obj 219 1214 delay 10;
#X obj 229 1257 bng 15 250 50 0 empty empty 1_4th 17 7 0 10 -262144
-1 -1;
#X obj 242 1321 bng 15 250 50 0 1_6th empty 1_6th 17 7 0 10 -262144
-1 -1;
#X obj 215 1296 f;
#X obj 219 1360 f;
#X obj 218 1340 delay 10;
#X obj 215 1276 delay 10;
#X obj 242 1386 bng 15 250 50 0 empty empty 1_8th 17 7 0 10 -262144
-1 -1;
#X obj 219 1424 f;
#X obj 219 1404 delay 10;
#X obj 231 1447 bng 15 250 50 0 empty empty 1_16th 17 7 0 10 -262144
-1 -1;
#X obj 243 1510 bng 15 250 50 0 15_16th empty 15_16th 17 7 0 10 -262144
-1 -1;
#X obj 215 1486 f;
#X obj 215 1466 delay 10;
#X obj 155 1066 moses 0.354;
#X obj 155 1129 moses 0.323;
#X obj 155 1193 moses 0.281;
#X obj 155 1255 moses 0.219;
#X obj 155 1316 moses 0.177;
#X obj 155 1383 moses 0.146;
#X obj 155 1445 moses 0.094;
#X obj 155 1508 moses 0.031;
#X obj 155 1532 bng 15 250 50 0 negligeable empty negligeable 17 7
0 10 -262144 -1 -1;
#X obj 250 729 expr ($f1 * 11)/16;
#X obj 247 790 expr ($f1 * 2)/3;
#X obj 247 855 expr ($f1*5)/8;
#X obj 245 914 expr ($f1 * 9)/16;
#X obj 249 1108 expr ($f1* 3)/8;
#X obj 250 1234 expr ($f1*5)/16;
#X obj 245 1294 expr ($f1 * 1)/4;
#X obj 249 1488 expr ($f1 * 1)/16;
#X obj 249 1361 expr ($f1* 1)/6;
#X obj 247 1170 expr ($f1* 1)/3;
#X obj 249 1042 expr ($f1* 7)/16;
#X obj 252 981 expr ($f1* 1)/2;
#X obj 248 1423 expr ($f1* 1)/8;
#X obj 353 111 compt;
#X obj 355 140 s compt;
#X obj 274 328 r compt;
#X obj 276 391 r compt;
#X obj 282 767 r compt;
#X obj 279 704 r compt;
#X obj 281 833 r compt;
#X obj 282 516 r compt;
#X obj 279 453 r compt;
#X obj 284 642 r compt;
#X obj 284 580 r compt;
#X obj 279 895 r compt;
#X obj 281 1023 r compt;
#X obj 278 960 r compt;
#X obj 282 1150 r compt;
#X obj 280 1089 r compt;
#X obj 274 1275 r compt;
#X obj 276 1212 r compt;
#X obj 281 1404 r compt;
#X obj 278 1341 r compt;
#X obj 274 1467 r compt;
#X msg 742 920 \$1;
#X connect 0 0 11 0;
#X connect 2 0 5 0;
#X connect 2 1 3 0;
#X connect 2 1 13 0;
#X connect 5 0 18 0;
#X connect 5 1 4 0;
#X connect 5 1 12 0;
#X connect 6 0 2 0;
#X connect 6 1 7 0;
#X connect 6 1 103 0;
#X connect 7 0 6 0;
#X connect 8 0 14 0;
#X connect 9 0 10 0;
#X connect 10 0 124 0;
#X connect 11 0 6 0;
#X connect 11 1 103 0;
#X connect 11 2 103 3;
#X connect 12 0 9 0;
#X connect 13 0 8 0;
#X connect 14 0 124 0;
#X connect 16 0 19 0;
#X connect 17 0 16 0;
#X connect 18 0 50 0;
#X connect 18 1 15 0;
#X connect 18 1 17 0;
#X connect 19 0 124 0;
#X connect 22 0 29 0;
#X connect 23 0 30 0;
#X connect 24 0 23 0;
#X connect 25 0 22 0;
#X connect 27 0 31 0;
#X connect 28 0 27 0;
#X connect 29 0 124 0;
#X connect 30 0 124 0;
#X connect 31 0 124 0;
#X connect 34 0 90 0;
#X connect 35 0 91 0;
#X connect 36 0 35 0;
#X connect 37 0 34 0;
#X connect 39 0 92 0;
#X connect 40 0 39 0;
#X connect 43 0 93 0;
#X connect 44 0 101 0;
#X connect 45 0 44 0;
#X connect 46 0 43 0;
#X connect 48 0 100 0;
#X connect 49 0 48 0;
#X connect 50 0 51 0;
#X connect 50 1 20 0;
#X connect 50 1 25 0;
#X connect 51 0 52 0;
#X connect 51 1 21 0;
#X connect 51 1 24 0;
#X connect 52 0 53 0;
#X connect 52 1 26 0;
#X connect 52 1 28 0;
#X connect 53 0 54 0;
#X connect 53 1 32 0;
#X connect 53 1 37 0;
#X connect 54 0 55 0;
#X connect 54 1 33 0;
#X connect 54 1 36 0;
#X connect 55 0 56 0;
#X connect 55 1 38 0;
#X connect 55 1 40 0;
#X connect 56 0 57 0;
#X connect 56 1 41 0;
#X connect 56 1 46 0;
#X connect 57 0 58 0;
#X connect 57 1 42 0;
#X connect 57 1 45 0;
#X connect 58 0 81 0;
#X connect 58 1 47 0;
#X connect 58 1 49 0;
#X connect 61 0 94 0;
#X connect 62 0 99 0;
#X connect 63 0 62 0;
#X connect 64 0 61 0;
#X connect 66 0 95 0;
#X connect 67 0 66 0;
#X connect 70 0 96 0;
#X connect 71 0 98 0;
#X connect 72 0 71 0;
#X connect 73 0 70 0;
#X connect 75 0 102 0;
#X connect 76 0 75 0;
#X connect 79 0 97 0;
#X connect 80 0 79 0;
#X connect 81 0 82 0;
#X connect 81 1 59 0;
#X connect 81 1 64 0;
#X connect 82 0 83 0;
#X connect 82 1 60 0;
#X connect 82 1 63 0;
#X connect 83 0 84 0;
#X connect 83 1 65 0;
#X connect 83 1 67 0;
#X connect 84 0 85 0;
#X connect 84 1 68 0;
#X connect 84 1 73 0;
#X connect 85 0 86 0;
#X connect 85 1 69 0;
#X connect 85 1 72 0;
#X connect 86 0 87 0;
#X connect 86 1 74 0;
#X connect 86 1 76 0;
#X connect 87 0 88 0;
#X connect 87 1 77 0;
#X connect 87 1 80 0;
#X connect 88 0 89 0;
#X connect 88 1 78 0;
#X connect 90 0 124 0;
#X connect 91 0 124 0;
#X connect 92 0 124 0;
#X connect 93 0 124 0;
#X connect 94 0 124 0;
#X connect 95 0 124 0;
#X connect 96 0 124 0;
#X connect 97 0 124 0;
#X connect 98 0 124 0;
#X connect 99 0 124 0;
#X connect 100 0 124 0;
#X connect 101 0 124 0;
#X connect 102 0 124 0;
#X connect 103 0 104 0;
#X connect 105 0 8 1;
#X connect 106 0 9 1;
#X connect 107 0 35 1;
#X connect 108 0 34 1;
#X connect 109 0 39 1;
#X connect 110 0 22 1;
#X connect 111 0 16 1;
#X connect 112 0 27 1;
#X connect 113 0 23 1;
#X connect 114 0 43 1;
#X connect 115 0 48 1;
#X connect 116 0 44 1;
#X connect 117 0 62 1;
#X connect 118 0 61 1;
#X connect 119 0 70 1;
#X connect 120 0 66 1;
#X connect 121 0 75 1;
#X connect 122 0 71 1;
#X connect 123 0 79 1;
#X connect 124 0 1 0;
#X restore 491 891 pd beat_div_choice;
#X msg 264 839 add2 \$1 1;
#X obj 470 393 compt;
#X floatatom 488 450 5 0 0 0 - - -;
#X obj 517 373 bng 15 250 50 0 empty empty empty 17 7 0 10 -262144
-1 -1;
#X obj 481 484 t f f;
#X msg 385 586 \$3;
#X obj 361 253 bng 15 250 50 0 empty empty empty 17 7 0 10 -262144
-1 -1;
#N canvas 540 188 450 300 temps_max_entre_2_pics 0;
#X obj 91 86 inlet;
#X obj 111 243 outlet;
#X obj 224 91 inlet;
#X msg 226 121 stop;
#X msg 92 132 bang;
#X obj 133 214 t b b;
#X obj 84 223 bng 15 250 50 0 empty empty empty 17 7 0 10 -262144 -1
-1;
#X obj 144 182 delay 2000;
#X connect 0 0 4 0;
#X connect 2 0 3 0;
#X connect 3 0 7 0;
#X connect 4 0 7 0;
#X connect 5 0 1 0;
#X connect 5 1 3 0;
#X connect 7 0 5 0;
#X connect 7 0 6 0;
#X restore 472 342 pd temps_max_entre_2_pics;
#X msg 474 368 1;
#X msg 259 869 add2 \$1;
#X obj 99 988 print [debbug acquisitionrythme];
#X obj 407 811 t b f;
#X msg 401 840 1;
#X obj 107 842 t b b;
#X obj 662 947 outlet;
#X msg 261 121 minvel 10;
#X obj 576 466 bng 15 250 50 0 empty empty empty 17 7 0 10 -262144
-1 -1;
#X msg 273 101 thresh 2.5 10;
#X obj 484 422 moses 10;
#X obj 565 606 t b;
#X connect 0 0 1 0;
#X connect 1 0 50 0;
#X connect 1 1 52 0;
#X connect 1 2 2 0;
#X connect 2 0 3 0;
#X connect 3 1 5 0;
#X connect 4 0 0 0;
#X connect 5 0 10 0;
#X connect 6 0 8 1;
#X connect 7 0 8 0;
#X connect 8 0 9 0;
#X connect 9 0 13 2;
#X connect 10 0 13 0;
#X connect 10 1 7 0;
#X connect 10 2 6 0;
#X connect 10 3 42 0;
#X connect 10 4 36 0;
#X connect 13 0 15 0;
#X connect 14 0 12 0;
#X connect 14 1 11 0;
#X connect 14 1 40 0;
#X connect 15 0 14 0;
#X connect 16 0 3 0;
#X connect 17 0 45 0;
#X connect 18 0 17 0;
#X connect 19 0 35 0;
#X connect 19 0 21 0;
#X connect 19 0 20 1;
#X connect 19 0 46 0;
#X connect 20 0 22 1;
#X connect 22 0 34 0;
#X connect 23 0 31 0;
#X connect 24 0 22 0;
#X connect 24 1 20 0;
#X connect 25 0 24 0;
#X connect 26 0 28 0;
#X connect 27 0 30 0;
#X connect 28 0 27 0;
#X connect 30 0 23 0;
#X connect 31 0 33 0;
#X connect 33 0 32 0;
#X connect 33 0 19 0;
#X connect 33 1 25 0;
#X connect 34 0 44 0;
#X connect 34 0 29 0;
#X connect 35 0 17 0;
#X connect 36 0 53 0;
#X connect 39 0 23 1;
#X connect 39 1 13 1;
#X connect 40 0 26 0;
#X connect 41 0 10 0;
#X connect 42 0 38 0;
#X connect 42 0 43 0;
#X connect 42 0 48 0;
#X connect 42 0 54 0;
#X connect 43 0 36 2;
#X connect 44 0 17 0;
#X connect 46 0 47 0;
#X connect 46 1 29 0;
#X connect 47 0 29 0;
#X connect 48 0 18 0;
#X connect 48 1 17 0;
#X connect 50 0 3 0;
#X connect 52 0 3 0;
#X connect 53 0 37 0;
#X connect 53 0 39 0;
#X connect 53 1 36 3;
#X connect 53 1 48 0;
#X connect 53 1 51 0;
#X connect 53 1 54 0;
#X connect 54 0 49 0;
#X restore 222 84 pd acquisitionrythme;
#X obj 214 117 tosymbol;
#X obj 202 168 fromsymbol;
#X obj 211 142 analyserythme;
#X obj 130 105 bng 15 250 50 0 empty empty empty 17 7 0 10 -262144
-1 -1;
#X msg 301 115 min_size_seq 3;
#X msg 87 32 400 2 1 1 4 2 1 1 7;
#X obj 357 89 bng 15 250 50 0 empty empty empty 17 7 0 10 -262144 -1
-1;
#X connect 0 0 2 0;
#X connect 2 0 3 0;
#X connect 2 1 9 0;
#X connect 2 1 3 0;
#X connect 3 0 5 0;
#X connect 4 0 1 0;
#X connect 5 0 4 0;
#X connect 6 0 3 0;
#X connect 7 0 5 1;
#X connect 8 0 3 0;
#X restore 543 56 pd traitement_Rythmique;
#X obj 543 80 print [patern_rythmique];
#X obj 668 138 print [patern_melodie];
#X obj 535 1325 moyenne;
#X obj 1295 1040 r envglo;
#X obj 1033 1034 r envglo;
#X obj 1582 1050 r envglo;
#X obj 1883 1039 r envglo;
#X obj 722 1035 r envglo;
#X obj 417 1028 r envglo;
#X obj 85 1011 r envglo;
#X obj 695 1006 route 0;
#X obj 487 1209 moyenne;
#X obj 551 1363 moyenne;
#X obj 567 1402 moyenne;
#X obj 583 1439 moyenne;
#X obj 600 1476 moyenne;
#X obj 519 1287 moyenne;
#X obj 503 1248 moyenne;
#X msg 422 1245 1000;
#X obj 250 1388 metro 1000;
#X obj 518 82 bng 15 250 50 0 empty empty empty 17 7 0 10 -262144 -1
-1;
#X obj 647 140 bng 15 250 50 0 empty empty empty 17 7 0 10 -262144
-1 -1;
#X connect 0 0 181 2;
#X connect 1 0 181 1;
#X connect 2 0 1 0;
#X connect 3 0 20 0;
#X connect 3 0 279 0;
#X connect 3 0 297 0;
#X connect 3 1 21 0;
#X connect 5 0 4 0;
#X connect 6 0 8 0;
#X connect 7 0 0 0;
#X connect 8 0 185 0;
#X connect 8 1 7 0;
#X connect 9 0 10 0;
#X connect 9 1 11 0;
#X connect 10 0 270 0;
#X connect 12 0 9 0;
#X connect 12 1 13 0;
#X connect 12 2 16 0;
#X connect 13 0 14 0;
#X connect 13 1 15 0;
#X connect 14 0 270 0;
#X connect 16 0 17 0;
#X connect 16 1 18 0;
#X connect 17 0 270 0;
#X connect 20 3 19 0;
#X connect 20 4 12 0;
#X connect 21 0 327 0;
#X connect 22 0 23 0;
#X connect 22 0 288 0;
#X connect 23 0 20 0;
#X connect 24 0 237 0;
#X connect 25 0 327 0;
#X connect 26 0 25 0;
#X connect 27 0 5 0;
#X connect 28 0 177 0;
#X connect 28 0 179 0;
#X connect 28 0 180 0;
#X connect 28 0 181 0;
#X connect 28 0 183 0;
#X connect 28 0 184 0;
#X connect 28 0 223 0;
#X connect 28 0 262 0;
#X connect 28 0 263 0;
#X connect 28 0 264 0;
#X connect 28 0 265 0;
#X connect 28 0 266 0;
#X connect 28 0 267 0;
#X connect 28 0 268 0;
#X connect 28 0 304 0;
#X connect 28 0 358 0;
#X connect 30 0 275 0;
#X connect 31 0 29 0;
#X connect 32 0 379 0;
#X connect 33 0 183 2;
#X connect 34 0 183 1;
#X connect 35 0 34 0;
#X connect 36 0 38 0;
#X connect 37 0 56 0;
#X connect 37 0 276 0;
#X connect 37 0 299 0;
#X connect 37 1 57 0;
#X connect 38 0 39 0;
#X connect 39 0 37 1;
#X connect 41 0 40 0;
#X connect 42 0 44 0;
#X connect 43 0 33 0;
#X connect 44 0 186 0;
#X connect 44 1 43 0;
#X connect 45 0 46 0;
#X connect 45 1 47 0;
#X connect 46 0 220 0;
#X connect 48 0 45 0;
#X connect 48 1 49 0;
#X connect 48 2 52 0;
#X connect 49 0 50 0;
#X connect 49 1 51 0;
#X connect 50 0 220 0;
#X connect 52 0 53 0;
#X connect 52 1 54 0;
#X connect 53 0 220 0;
#X connect 56 3 55 0;
#X connect 56 4 48 0;
#X connect 57 0 328 0;
#X connect 58 0 59 0;
#X connect 58 0 277 0;
#X connect 59 0 56 0;
#X connect 60 0 227 0;
#X connect 61 0 328 0;
#X connect 62 0 61 0;
#X connect 63 0 36 0;
#X connect 64 0 41 0;
#X connect 65 0 184 2;
#X connect 66 0 184 1;
#X connect 67 0 66 0;
#X connect 68 0 85 0;
#X connect 68 0 284 0;
#X connect 68 0 301 0;
#X connect 68 1 86 0;
#X connect 70 0 69 0;
#X connect 71 0 73 0;
#X connect 72 0 65 0;
#X connect 73 0 187 0;
#X connect 73 1 72 0;
#X connect 74 0 75 0;
#X connect 74 1 76 0;
#X connect 75 0 222 0;
#X connect 77 0 74 0;
#X connect 77 1 78 0;
#X connect 77 2 81 0;
#X connect 78 0 79 0;
#X connect 78 1 80 0;
#X connect 79 0 222 0;
#X connect 81 0 82 0;
#X connect 81 1 83 0;
#X connect 82 0 222 0;
#X connect 85 3 84 0;
#X connect 85 4 77 0;
#X connect 86 0 329 0;
#X connect 87 0 88 0;
#X connect 87 0 289 0;
#X connect 88 0 85 0;
#X connect 89 0 229 0;
#X connect 90 0 329 0;
#X connect 91 0 90 0;
#X connect 92 0 70 0;
#X connect 93 0 180 2;
#X connect 94 0 180 1;
#X connect 95 0 94 0;
#X connect 96 0 113 0;
#X connect 96 0 283 0;
#X connect 96 0 295 0;
#X connect 96 1 114 0;
#X connect 98 0 97 0;
#X connect 99 0 101 0;
#X connect 100 0 93 0;
#X connect 101 0 188 0;
#X connect 101 1 100 0;
#X connect 102 0 103 0;
#X connect 102 1 104 0;
#X connect 103 0 271 0;
#X connect 105 0 102 0;
#X connect 105 1 106 0;
#X connect 105 2 109 0;
#X connect 106 0 107 0;
#X connect 106 1 108 0;
#X connect 107 0 271 0;
#X connect 109 0 110 0;
#X connect 109 1 111 0;
#X connect 110 0 271 0;
#X connect 113 3 112 0;
#X connect 113 4 105 0;
#X connect 114 0 330 0;
#X connect 115 0 116 0;
#X connect 115 0 285 0;
#X connect 116 0 113 0;
#X connect 117 0 231 0;
#X connect 118 0 330 0;
#X connect 119 0 118 0;
#X connect 120 0 98 0;
#X connect 121 0 179 2;
#X connect 122 0 179 1;
#X connect 123 0 122 0;
#X connect 124 0 141 0;
#X connect 124 0 280 0;
#X connect 124 0 293 0;
#X connect 124 1 142 0;
#X connect 126 0 125 0;
#X connect 127 0 129 0;
#X connect 128 0 121 0;
#X connect 129 0 189 0;
#X connect 129 1 128 0;
#X connect 130 0 131 0;
#X connect 130 1 132 0;
#X connect 131 0 273 0;
#X connect 133 0 130 0;
#X connect 133 1 134 0;
#X connect 133 2 137 0;
#X connect 134 0 135 0;
#X connect 134 1 136 0;
#X connect 135 0 273 0;
#X connect 137 0 138 0;
#X connect 137 1 139 0;
#X connect 138 0 273 0;
#X connect 141 3 140 0;
#X connect 141 4 133 0;
#X connect 142 0 331 0;
#X connect 143 0 144 0;
#X connect 143 0 287 0;
#X connect 144 0 141 0;
#X connect 145 0 232 0;
#X connect 146 0 331 0;
#X connect 147 0 146 0;
#X connect 148 0 126 0;
#X connect 149 0 177 2;
#X connect 150 0 177 1;
#X connect 151 0 150 0;
#X connect 152 0 169 0;
#X connect 152 0 282 0;
#X connect 152 0 291 0;
#X connect 152 1 170 0;
#X connect 154 0 153 0;
#X connect 155 0 157 0;
#X connect 156 0 149 0;
#X connect 157 0 178 0;
#X connect 157 1 156 0;
#X connect 158 0 159 0;
#X connect 158 1 160 0;
#X connect 159 0 182 0;
#X connect 161 0 158 0;
#X connect 161 1 162 0;
#X connect 161 2 165 0;
#X connect 162 0 163 0;
#X connect 162 1 164 0;
#X connect 163 0 182 0;
#X connect 165 0 166 0;
#X connect 165 1 167 0;
#X connect 166 0 182 0;
#X connect 169 3 168 0;
#X connect 169 4 161 0;
#X connect 170 0 332 0;
#X connect 171 0 172 0;
#X connect 171 0 286 0;
#X connect 172 0 169 0;
#X connect 173 0 233 0;
#X connect 174 0 332 0;
#X connect 175 0 174 0;
#X connect 176 0 154 0;
#X connect 177 0 152 0;
#X connect 177 0 176 0;
#X connect 179 0 124 0;
#X connect 179 0 148 0;
#X connect 180 0 96 0;
#X connect 180 0 120 0;
#X connect 181 0 3 0;
#X connect 181 0 27 0;
#X connect 182 1 274 0;
#X connect 183 0 37 0;
#X connect 183 0 64 0;
#X connect 184 0 68 0;
#X connect 184 0 92 0;
#X connect 190 0 223 2;
#X connect 191 0 223 1;
#X connect 192 0 191 0;
#X connect 193 0 210 0;
#X connect 193 0 281 0;
#X connect 193 0 303 0;
#X connect 193 1 211 0;
#X connect 195 0 194 0;
#X connect 196 0 198 0;
#X connect 197 0 190 0;
#X connect 198 0 218 0;
#X connect 198 1 197 0;
#X connect 199 0 200 0;
#X connect 199 1 201 0;
#X connect 200 0 226 0;
#X connect 202 0 199 0;
#X connect 202 1 203 0;
#X connect 202 2 206 0;
#X connect 203 0 204 0;
#X connect 203 1 205 0;
#X connect 204 0 226 0;
#X connect 206 0 207 0;
#X connect 206 1 208 0;
#X connect 207 0 226 0;
#X connect 210 3 209 0;
#X connect 210 4 202 0;
#X connect 211 0 333 0;
#X connect 212 0 213 0;
#X connect 212 0 290 0;
#X connect 213 0 210 0;
#X connect 214 0 230 0;
#X connect 215 0 333 0;
#X connect 216 0 215 0;
#X connect 217 0 195 0;
#X connect 219 0 24 0;
#X connect 220 1 221 0;
#X connect 221 0 60 0;
#X connect 222 1 225 0;
#X connect 223 0 193 0;
#X connect 223 0 217 0;
#X connect 224 0 214 0;
#X connect 225 0 89 0;
#X connect 226 1 224 0;
#X connect 228 0 30 0;
#X connect 235 0 234 1;
#X connect 235 0 234 0;
#X connect 236 0 228 0;
#X connect 238 0 239 0;
#X connect 239 0 240 0;
#X connect 240 0 3 1;
#X connect 241 0 238 0;
#X connect 242 0 243 0;
#X connect 243 0 244 0;
#X connect 244 0 96 1;
#X connect 245 0 242 0;
#X connect 246 0 247 0;
#X connect 247 0 248 0;
#X connect 248 0 124 1;
#X connect 249 0 246 0;
#X connect 250 0 251 0;
#X connect 251 0 252 0;
#X connect 252 0 152 1;
#X connect 253 0 250 0;
#X connect 254 0 255 0;
#X connect 255 0 256 0;
#X connect 256 0 68 1;
#X connect 257 0 254 0;
#X connect 258 0 259 0;
#X connect 259 0 260 0;
#X connect 260 0 193 1;
#X connect 261 0 258 0;
#X connect 262 0 245 0;
#X connect 263 0 241 0;
#X connect 264 0 63 0;
#X connect 265 0 257 0;
#X connect 266 0 261 0;
#X connect 267 0 249 0;
#X connect 268 0 253 0;
#X connect 269 0 117 0;
#X connect 270 1 219 0;
#X connect 271 1 269 0;
#X connect 272 0 145 0;
#X connect 273 1 272 0;
#X connect 274 0 173 0;
#X connect 275 0 31 0;
#X connect 277 0 276 1;
#X connect 277 0 324 0;
#X connect 285 0 283 1;
#X connect 285 0 320 0;
#X connect 286 0 282 1;
#X connect 286 0 322 0;
#X connect 287 0 280 1;
#X connect 287 0 321 0;
#X connect 288 0 279 1;
#X connect 288 0 323 0;
#X connect 289 0 284 1;
#X connect 289 0 325 0;
#X connect 290 0 281 1;
#X connect 290 0 326 0;
#X connect 291 0 292 0;
#X connect 292 0 305 0;
#X connect 293 0 294 0;
#X connect 294 0 307 0;
#X connect 295 0 296 0;
#X connect 296 0 370 0;
#X connect 297 0 298 0;
#X connect 298 0 311 0;
#X connect 299 0 300 0;
#X connect 300 0 313 0;
#X connect 301 0 302 0;
#X connect 302 0 315 0;
#X connect 303 0 317 0;
#X connect 304 0 351 0;
#X connect 304 0 350 0;
#X connect 305 0 306 0;
#X connect 306 0 334 0;
#X connect 307 0 308 0;
#X connect 308 0 335 0;
#X connect 309 0 310 0;
#X connect 310 0 340 0;
#X connect 311 0 312 0;
#X connect 312 0 339 0;
#X connect 313 0 314 0;
#X connect 314 0 338 0;
#X connect 315 0 316 0;
#X connect 316 0 337 0;
#X connect 317 0 318 0;
#X connect 318 0 319 0;
#X connect 319 0 336 0;
#X connect 320 0 296 0;
#X connect 321 0 294 0;
#X connect 322 0 292 0;
#X connect 323 0 298 0;
#X connect 324 0 300 0;
#X connect 325 0 302 0;
#X connect 326 0 317 0;
#X connect 327 0 22 0;
#X connect 328 0 58 0;
#X connect 329 0 87 0;
#X connect 330 0 115 0;
#X connect 331 0 143 0;
#X connect 332 0 171 0;
#X connect 333 0 212 0;
#X connect 341 0 377 0;
#X connect 342 0 376 0;
#X connect 343 0 362 0;
#X connect 344 0 372 0;
#X connect 345 0 373 0;
#X connect 346 0 374 0;
#X connect 347 0 375 0;
#X connect 349 0 371 0;
#X connect 354 0 378 0;
#X connect 355 0 348 0;
#X connect 356 0 355 0;
#X connect 356 1 355 1;
#X connect 356 2 362 1;
#X connect 356 2 371 1;
#X connect 356 2 372 1;
#X connect 356 2 373 1;
#X connect 356 2 374 1;
#X connect 356 2 375 1;
#X connect 356 2 376 1;
#X connect 356 2 377 1;
#X connect 357 0 348 0;
#X connect 358 0 361 0;
#X connect 358 0 381 0;
#X connect 359 0 360 0;
#X connect 359 0 380 0;
#X connect 363 0 313 1;
#X connect 364 0 311 1;
#X connect 365 0 315 1;
#X connect 366 0 318 1;
#X connect 367 0 309 1;
#X connect 368 0 307 1;
#X connect 369 0 305 1;
#X connect 370 1 309 0;
#X connect 371 0 348 1;
#X connect 372 0 348 5;
#X connect 373 0 348 6;
#X connect 374 0 348 7;
#X connect 375 0 348 8;
#X connect 376 0 348 3;
#X connect 377 0 348 2;
#X connect 378 0 356 0;
#X connect 379 0 29 1;
