#N canvas 93 255 927 998 10;
#X obj 11 195 rmstodb;
#X floatatom 160 124 5 0 0 0 threshold - -;
#X obj -41 522 *~;
#X obj -5 249 >;
#X obj -14 285 pack f f;
#X msg -6 358 \$1 \$2;
#X floatatom 159 142 5 0 0 0 attack - -;
#X obj -12 308 t a b;
#X msg 41 377 0 \$1;
#X obj 39 356 int;
#X obj 30 333 delay;
#X floatatom 161 176 5 0 0 0 decay - -;
#X floatatom 160 158 5 0 0 0 hold - -;
#X obj -65 95 inlet~;
#X obj -39 564 outlet~;
#X obj -9 425 line~;
#X floatatom -8 222 5 0 0 0 - - -;
#X floatatom 161 546 5 0 0 0 - - -;
#X obj 158 504 env~;
#X obj 151 68 inlet;
#X obj 291 30 loadbang;
#X obj 304 419 bng 15 250 50 0 empty empty empty 17 7 0 10 -262144
-1 -1;
#X obj 265 373 route 1;
#X obj 322 532 outlet;
#X floatatom 444 256 5 0 0 0 - - -;
#X floatatom 495 500 5 0 0 0 - - -;
#X obj 488 455 mod 2;
#X obj 485 425 compt;
#X obj 280 112 t f f;
#X msg 346 77 200;
#X obj 295 55 t b b;
#X msg 271 80 30;
#X obj 10 169 env~;
#X connect 0 0 16 0;
#X connect 1 0 3 1;
#X connect 2 0 14 0;
#X connect 3 0 4 0;
#X connect 3 0 24 0;
#X connect 3 0 22 0;
#X connect 4 0 7 0;
#X connect 5 0 15 0;
#X connect 6 0 4 1;
#X connect 7 0 5 0;
#X connect 7 1 10 0;
#X connect 8 0 15 0;
#X connect 9 0 8 0;
#X connect 10 0 9 0;
#X connect 11 0 9 1;
#X connect 12 0 10 1;
#X connect 13 0 2 0;
#X connect 13 0 32 0;
#X connect 15 0 2 1;
#X connect 15 0 18 0;
#X connect 16 0 3 0;
#X connect 18 0 17 0;
#X connect 19 0 1 0;
#X connect 20 0 30 0;
#X connect 21 0 27 0;
#X connect 22 0 21 0;
#X connect 22 0 23 0;
#X connect 25 0 22 1;
#X connect 26 0 25 0;
#X connect 27 0 26 0;
#X connect 28 0 6 0;
#X connect 28 1 11 0;
#X connect 29 0 12 0;
#X connect 30 0 31 0;
#X connect 30 1 29 0;
#X connect 31 0 28 0;
#X connect 32 0 0 0;
#X coords 0 -1 1 1 95 95 1 100 100;
