#N canvas 968 97 927 998 10;
#N canvas 2057 189 668 891 Pduino 0;
#X obj 267 330 comport 9600;
#X obj 411 47 inlet;
#X obj 411 76 tosymbol;
#X obj 70 30 inlet;
#X msg 50 200 devicename /dev/ttymxc3;
#X obj 70 105 t b b;
#X msg 116 130 close;
#X obj 70 63 route start stop;
#X obj 126 104 print [Pduino] Erreur: commande de demarage;
#X obj 267 383 arduinoUnPack;
#X obj 267 496 outlet;
#X msg 122 287 devices;
#X obj 267 407 fromsymbol;
#X obj 267 356 tosymbol;
#X text 366 643 comment;
#X msg 412 118 print \$1 \;;
#X msg 71 156 devicename /dev/ttyACM7;
#X connect 0 0 13 0;
#X connect 1 0 2 0;
#X connect 2 0 15 0;
#X connect 3 0 7 0;
#X connect 5 0 16 0;
#X connect 5 1 6 0;
#X connect 6 0 0 0;
#X connect 7 0 5 0;
#X connect 7 1 6 0;
#X connect 7 2 8 0;
#X connect 9 0 12 0;
#X connect 11 0 0 0;
#X connect 12 0 10 0;
#X connect 13 0 9 0;
#X connect 15 0 0 0;
#X connect 16 0 0 0;
#X restore -45 155 pd Pduino;
#X msg -45 105 start;
#X msg -32 125 stop;
#N canvas 65 102 927 998 reception_web 0;
#X obj 471 120 outlet;
#X obj 364 126 outlet;
#X obj 384 83 netreceive 4242;
#X connect 2 0 1 0;
#X connect 2 1 0 0;
#X restore 740 103 pd reception_web;
#N canvas 987 97 927 998 reception_micro 0;
#X obj 420 688 outlet~;
#X obj 442 385 hsl 128 15 0 10000 0 0 empty empty empty -2 -8 0 10
-262144 -1 -1 6350 1;
#X floatatom 439 405 10 0 0 0 - - -;
#X obj 418 427 lop~;
#X obj 440 324 loadbang;
#X obj 439 365 f;
#X obj 532 440 loadbang;
#X msg 532 462 100;
#X obj 532 483 f;
#X obj 535 511 hsl 128 15 0 10000 0 0 empty empty empty -2 -8 0 10
-262144 -1 -1 127 1;
#X floatatom 532 534 10 0 0 0 - - -;
#X msg 440 346 5000;
#X obj 419 559 hip~;
#X obj 236 560 tgl 15 0 empty empty empty 17 7 0 10 -262144 -1 -1 1
1;
#X obj 236 533 loadbang;
#N canvas 65 92 450 300 (subpatch) 0;
#X array \$0-wave 441 float 3;
#A 0 0.000892445 0.000963256 0.000523642 0.0012688 0.000968277 0.00121997
0.000933424 0.000137672 0.000856608 0.000335604 0.000420824 0.000940815
0.000934497 0.00113766 0.00149375 0.00136751 0.0010003 0.00186928 0.00135198
0.00055708 0.00133933 0.0011449 0.000779912 0.000991225 0.0018227 0.00141838
0.00170326 0.00131804 0.00206767 0.0014517 0.00151037 0.00129893 0.00172541
0.00201268 0.000924185 0.00184062 0.00162642 0.00114071 0.00165389
0.00215839 0.000930101 0.00182401 0.00161767 0.00033015 0.00171413
0.00144871 0.00102367 0.00160941 0.00144333 0.000905007 0.00169042
0.00123084 0.00115547 0.00153135 0.000924915 0.00143512 0.00142738
0.00103246 0.00125784 0.00200321 0.000868663 0.0013276 0.000935078
0.00112119 0.00139281 0.000914559 1.98931e-05 0.000199392 0.00142053
0.00123931 0.000752956 0.00127932 0.00262868 0.00223863 0.00164632
0.0017346 0.001789 0.00188255 0.00187504 0.00283796 0.00244907 0.00196439
0.00267172 0.00261825 0.00238883 0.00275335 0.001295 0.0016489 0.00201985
0.00119579 0.00112817 0.00139073 0.00160491 0.00106791 0.00140014 0.00168386
0.0016126 0.00129512 0.000996202 0.000990748 0.00136083 0.00132027
0.00118923 0.00163469 0.00165641 0.000900835 0.0013175 0.00167596 0.000247568
0.0010725 0.0010576 0.000705719 0.000972062 0.000782818 0.000706643
0.000551343 0.000718981 0.000376284 0.000666291 0.000835776 0.000755578
0.000213951 0.00155014 0.000977218 -6.84857e-05 0.000454038 0.000695914
0.000292152 0.000674158 0.000553608 6.05881e-05 8.54731e-05 0.00088498
0.000451654 -0.000163227 0.000236392 -0.000646055 -0.000667185 -0.000368148
-0.000658125 -0.000363588 -0.00123271 -0.0014084 -0.000447899 -0.000112921
-0.00128496 -0.000301003 -0.000383973 -0.00103176 0.000231683 2.74777e-05
-0.000268221 6.54161e-05 0.000815719 -0.000209183 0.00039193 0.000793546
-0.000397772 7.90358e-05 0.000780761 -0.000111997 -0.000565141 0.000593066
-0.00045222 -2.35438e-05 0.00115079 8.91089e-06 0.0001508 -0.000126243
-0.000201821 -0.000951618 0.000333786 -0.000594586 -0.00115845 -0.000488222
5.46575e-05 -0.000519484 -0.00136164 -0.00107783 -0.00140396 -0.00122616
-0.00201711 -0.00127554 -0.00122848 -0.000888079 -0.000740975 -0.00129724
-0.00125867 -0.00141299 -0.0010086 -0.00135419 -0.00148004 -0.00109655
-0.00143781 -0.000878453 -0.00104591 -0.000386745 -0.000946999 -0.000614434
-0.00107551 -0.00103846 -0.000675529 -0.00145739 -0.00100389 -0.000693351
-0.00135022 -0.000866592 -0.000929326 9.02414e-05 -0.0006845 -0.00112954
-0.000783831 -0.00132853 -0.00107542 -0.00116184 -0.00146008 -0.000348777
-0.000690103 -0.00138721 -0.00111172 -0.00159222 -0.00128931 -0.00102508
-0.00186276 -0.00114831 -0.00137833 -0.00141096 -0.00104924 -0.00135164
-0.00129983 -0.000739232 -0.00123502 -0.00147514 -0.00135432 -0.00165203
-0.00142705 -0.00139776 -0.00166316 -0.00126287 -0.00106105 -0.000911981
-0.000885755 -0.000466034 -0.00142285 -0.00218099 -0.00166596 -0.00151995
-0.00228746 -0.0016502 -0.000958189 -0.00182772 -0.0026601 -0.0016074
-0.00269537 -0.00267525 -0.00200599 -0.00313248 -0.00262026 -0.00255698
-0.00264166 -0.00239928 -0.00303884 -0.00280088 -0.00272129 -0.00361674
-0.00232916 -0.00234884 -0.00249875 -0.00279577 -0.00136073 -0.00203247
-0.00338078 -0.0026402 -0.00253209 -0.0036909 -0.00274661 -0.00315009
-0.00333476 -0.00306478 -0.00296877 -0.00299905 -0.00307496 -0.00296888
-0.0033495 -0.00369908 -0.00283763 -0.00243907 -0.00231583 -0.00267979
-0.00304028 -0.00232091 -0.00167176 -0.00241219 -0.0025105 -0.00206858
-0.00142398 -0.0022966 -0.00301665 -0.00200603 -0.00284694 -0.00283737
-0.00226277 -0.00265913 -0.00303868 -0.00327001 -0.00308815 -0.00323471
-0.00318058 -0.00295827 -0.0027617 -0.00304751 -0.00339272 -0.00273203
-0.00331321 -0.00318263 -0.00280894 -0.00284976 -0.00338593 -0.00278277
-0.0027728 -0.00252698 -0.00280606 -0.00305151 -0.00244175 -0.00268127
-0.00318581 -0.00293917 -0.00309842 -0.00303799 -0.00317362 -0.0028305
-0.00287959 -0.00212682 -0.00275147 -0.00231961 -0.00248487 -0.00186559
-0.00180024 -0.00148974 -0.00218944 -0.00127197 -0.00173249 -0.00183852
-0.000983115 -0.00163503 -0.00161228 -0.00131924 -0.00205127 -0.00127175
-0.00155094 -0.00222307 -0.00198599 -0.00168292 -0.00161685 -0.0015305
-0.00127707 -0.0012185 -0.00135071 -0.00147324 -0.00226557 -0.00188312
-0.00161716 -0.00227893 -0.00243554 -0.00227731 -0.00159882 -0.00203632
-0.0028825 -0.00282039 -0.00253281 -0.00160759 -0.00294952 -0.00215582
-0.00262055 -0.00225745 -0.0026362 -0.00245323 -0.00190624 -0.00189053
-0.0023765 -0.00223532 -0.00233217 -0.00229714 -0.00282998 -0.00265189
-0.00183395 -0.0016445 -0.00179981 -0.00193275 -0.00160502 -0.00221332
-0.00272442 -0.00210616 -0.00149609 -0.00279637 -0.00214237 -0.00243768
-0.00288835 -0.00217655 -0.00280018 -0.00309744 -0.00247209 -0.00261474
-0.00323083 -0.00310579 -0.00288206 -0.00309144 -0.00319068 -0.00329988
-0.00294654 -0.00269799 -0.00256489 -0.00317235 -0.00211319 -0.00196783
-0.00276174 -0.00244458 -0.00250854 -0.00296342 -0.00230159 -0.00133181
-0.00259036 -0.00191745 -0.00146721 -0.00304274 -0.00243931 -0.00210123
-0.00182474 -0.00241856 -0.00201702 -0.0019176 -0.00133571 -0.00224562
-0.00253499 -0.00140367 -0.00185972 -0.00216256 -0.00146738 -0.00207114
-0.0019289 -0.00137034;
#X coords 0 1 440 -1 200 140 1;
#X restore 161 670 graph;
#X obj 236 611 tabwrite~ \$0-wave;
#X obj 236 581 metro 100;
#X obj 471 80 loadbang;
#X obj 471 126 f;
#X msg 471 103 1;
#X obj 471 153 vsl 15 128 0 2 0 0 empty empty empty 0 -9 0 10 -262144
-1 -1 6350 1;
#X obj 419 284 *~;
#X obj 419 46 adc~ 1;
#X connect 1 0 2 0;
#X connect 2 0 3 1;
#X connect 3 0 12 0;
#X connect 4 0 11 0;
#X connect 5 0 1 0;
#X connect 6 0 7 0;
#X connect 7 0 8 0;
#X connect 8 0 9 0;
#X connect 9 0 10 0;
#X connect 10 0 12 1;
#X connect 11 0 5 0;
#X connect 12 0 0 0;
#X connect 12 0 16 0;
#X connect 13 0 17 0;
#X connect 14 0 13 0;
#X connect 17 0 16 0;
#X connect 18 0 20 0;
#X connect 19 0 21 0;
#X connect 20 0 19 0;
#X connect 21 0 22 1;
#X connect 22 0 3 0;
#X connect 23 0 22 0;
#X restore 479 106 pd reception_micro;
#X floatatom 833 127 5 0 0 0 - - -;
#X text 843 109 nb connexions;
#X obj 833 148 == 0;
#X obj -45 205 spigot;
#X obj 833 176 s netprio;
#X obj -12 181 r netprio;
#N canvas 843 87 971 998 analyse 0;
#X obj 668 355 outlet;
#X obj 458 -58 inlet~;
#N canvas 980 87 912 998 traitement_Melodie 0;
#X floatatom 433 -8 5 0 0 0 - - -;
#X obj 344 -184 bng 15 250 50 0 empty empty empty 17 7 0 10 -262144
-1 -1;
#N canvas 65 87 927 998 melodie 0;
#X obj 465 38 inlet;
#X obj 472 124 round;
#X floatatom 478 150 5 0 0 0 - - -;
#X obj 489 222 -;
#X obj 504 329 spigot;
#X obj 536 301 !=;
#X obj 536 405 bng 15 250 50 0 empty empty empty 17 7 0 10 -262144
-1 -1;
#X obj 503 405 bng 15 250 50 0 empty empty empty 17 7 0 10 -262144
-1 -1;
#X obj 500 429 timer;
#X msg 60 645 list 0 -4 23 7 58 -5 58 12 12 -7 12 2 46 30 12 38 81
-76 23 1 58 -6;
#X obj 483 374 t b f b b;
#X obj 528 452 round;
#X obj 484 299 spigot;
#X floatatom 251 396 5 0 0 0 - - -;
#X msg 3 534 set list;
#X obj 445 468 pack f f f;
#X msg 337 548 add2 \$3 \$2;
#X obj -9 576 bng 15 250 50 0 empty empty empty 17 7 0 10 -262144 -1
-1;
#X obj 288 461 t f f;
#X obj 296 366 compt;
#X obj 491 245 t f f f f;
#X obj 275 327 bng 15 250 50 0 empty empty empty 17 7 0 10 -262144
-1 -1;
#X msg 307 166 bang;
#X obj 418 495 route 0;
#X obj 316 279 bng 15 250 50 0 empty empty empty 17 7 0 10 -262144
-1 -1;
#X msg 466 560 \$1;
#X msg 503 558 \$2;
#X obj 520 631 outlet;
#X obj 576 362 bng 15 250 50 0 empty empty empty 17 7 0 10 -262144
-1 -1;
#X obj 542 201 spigot;
#X obj 478 178 t f f f;
#X msg 574 175 1;
#X msg 605 175 0;
#X obj 377 398 s fin_seq;
#X obj 330 215 s fin_seq;
#X obj 572 150 r fin_seq;
#X obj 622 284 r fin_seq;
#X obj 599 326 spigot;
#X msg 624 304 1;
#X msg 653 303 0;
#X msg 583 287 1;
#X obj 581 262 r fin_seq;
#X floatatom 433 238 5 0 0 0 - - -;
#X obj 442 271 bng 15 250 50 0 empty empty empty 17 7 0 10 -262144
-1 -1;
#X obj 300 405 moses 20;
#X obj 306 185 delay 2000;
#X obj 11 478 r fin_seq;
#X obj 753 592 outlet;
#X obj 11 508 t b b;
#X obj 62 689 print [debbug acquisitionmelodie];
#X obj 755 547 r fin_seq;
#X obj 274 227 bng 15 250 50 0 empty empty empty 17 7 0 10 -262144
-1 -1;
#X obj 290 116 r fin_seq;
#X msg 290 137 stop;
#X msg 312 527 add2 \$1 0;
#X connect 0 0 1 0;
#X connect 1 0 2 0;
#X connect 2 0 30 0;
#X connect 3 0 20 0;
#X connect 3 0 32 0;
#X connect 3 0 42 0;
#X connect 4 0 10 0;
#X connect 4 0 19 0;
#X connect 4 0 28 0;
#X connect 5 0 4 1;
#X connect 6 0 8 1;
#X connect 7 0 8 0;
#X connect 8 0 11 0;
#X connect 10 1 15 1;
#X connect 10 2 7 0;
#X connect 10 3 6 0;
#X connect 11 0 15 2;
#X connect 12 0 4 0;
#X connect 14 0 9 0;
#X connect 14 0 17 0;
#X connect 15 0 23 0;
#X connect 16 0 9 0;
#X connect 18 1 15 0;
#X connect 19 0 13 0;
#X connect 19 0 44 0;
#X connect 20 0 12 0;
#X connect 20 0 43 0;
#X connect 20 0 37 0;
#X connect 20 0 22 0;
#X connect 20 1 12 1;
#X connect 20 2 5 1;
#X connect 20 3 5 0;
#X connect 21 0 19 0;
#X connect 22 0 45 0;
#X connect 23 0 54 0;
#X connect 23 0 25 0;
#X connect 23 1 16 0;
#X connect 23 1 26 0;
#X connect 24 0 19 1;
#X connect 25 0 27 0;
#X connect 26 0 27 0;
#X connect 29 0 3 1;
#X connect 30 0 3 1;
#X connect 30 1 3 0;
#X connect 30 2 29 0;
#X connect 31 0 29 1;
#X connect 32 0 29 1;
#X connect 35 0 31 0;
#X connect 36 0 38 0;
#X connect 37 0 39 0;
#X connect 37 0 4 0;
#X connect 38 0 37 1;
#X connect 39 0 37 1;
#X connect 40 0 5 1;
#X connect 41 0 40 0;
#X connect 44 0 15 0;
#X connect 44 1 19 3;
#X connect 44 1 33 0;
#X connect 45 0 19 1;
#X connect 45 0 34 0;
#X connect 45 0 51 0;
#X connect 46 0 48 0;
#X connect 48 0 14 0;
#X connect 48 1 9 0;
#X connect 50 0 47 0;
#X connect 52 0 53 0;
#X connect 53 0 45 0;
#X connect 54 0 9 0;
#X restore 428 18 pd melodie;
#X msg 348 -62 100;
#X msg 378 -62 120;
#X msg 408 -62 130;
#X obj 429 41 tosymbol;
#X obj 426 89 fromsymbol;
#X obj 426 66 analyserythme;
#N canvas 751 107 927 998 selectionmelodie 0;
#X obj 521 136 inlet~;
#X obj 583 279 round;
#X floatatom 583 303 5 0 0 0 - - -;
#X obj 583 199 unpack;
#X floatatom 583 249 0 0 0 0 - - -;
#X floatatom 597 226 0 0 0 0 - - -;
#X floatatom 660 249 0 0 0 0 - - -;
#X obj 519 169 fiddle~ 1024 1 20;
#X text 674 267 env;
#X obj 596 439 outlet;
#X obj 583 393 spigot;
#X obj 616 358 > 0;
#X obj 583 332 t f f;
#X connect 0 0 7 0;
#X connect 1 0 2 0;
#X connect 2 0 12 0;
#X connect 3 0 4 0;
#X connect 3 1 5 0;
#X connect 4 0 1 0;
#X connect 7 2 3 0;
#X connect 7 3 6 0;
#X connect 10 0 9 0;
#X connect 11 0 10 1;
#X connect 12 0 10 0;
#X connect 12 1 11 0;
#X restore 442 -43 pd selectionmelodie;
#X msg 517 39 min_size_seq 7;
#X obj 469 -99 inlet~;
#X obj 424 118 outlet;
#X obj 342 -142 t b b b b b b b b;
#X obj 501 17 bng 15 250 50 0 empty empty empty 17 7 0 10 -262144 -1
-1;
#X connect 0 0 2 0;
#X connect 1 0 13 0;
#X connect 2 0 6 0;
#X connect 2 1 6 0;
#X connect 2 1 14 0;
#X connect 3 0 0 0;
#X connect 4 0 0 0;
#X connect 5 0 0 0;
#X connect 6 0 8 0;
#X connect 7 0 12 0;
#X connect 8 0 7 0;
#X connect 9 0 0 0;
#X connect 10 0 8 1;
#X connect 11 0 9 0;
#X connect 13 0 5 0;
#X connect 13 1 4 0;
#X connect 13 2 3 0;
#X connect 13 3 5 0;
#X connect 13 4 3 0;
#X connect 13 5 4 0;
#X connect 13 6 3 0;
#X restore 170 78 pd traitement_Melodie;
#N canvas 65 87 1855 998 traitement_Rythmique 0;
#X obj 233 57 inlet~;
#X obj 199 200 outlet;
#N canvas 977 107 927 998 acquisitionrythme 0;
#X obj 240 17 loadbang;
#X obj 242 45 t b b b;
#X msg 299 79 debounce 0;
#X obj 245 149 bonk~;
#X obj 248 -5 bng 15 250 50 0 empty empty empty 17 7 0 10 -262144 -1
-1;
#X obj 271 172 unpack f f;
#X obj 411 357 bng 15 250 50 0 empty empty empty 17 7 0 10 -262144
-1 -1;
#X obj 378 357 bng 15 250 50 0 empty empty empty 17 7 0 10 -262144
-1 -1;
#X obj 382 406 timer;
#X floatatom 382 449 5 0 0 0 - - -;
#X obj 361 307 t f b b b b;
#X obj 359 565 bng 15 250 50 0 empty empty empty 17 7 0 10 -262144
-1 -1;
#X obj 307 560 bng 15 250 50 0 empty empty empty 17 7 0 10 -262144
-1 -1;
#X obj 340 478 pack f f f;
#X obj 330 533 route 1;
#X msg 339 500 \$2 \$1 \$3;
#X obj 73 50 inlet~;
#X msg 88 902 list 3.5 10 1 10 8 23;
#X msg 96 866 set list;
#X obj 403 781 f;
#X obj 507 836 f;
#X floatatom 344 837 5 0 0 0 - - -;
#X obj 490 860 /;
#X obj 391 703 pack f f;
#X obj 485 806 t f b;
#X msg 477 780 \$2;
#X obj 387 607 / 10;
#X obj 389 649 * 10;
#X obj 387 626 round;
#X obj 439 949 outlet;
#X obj 390 670 t f;
#X msg 391 727 \$2 \$1;
#X obj 352 782 bng 15 250 50 0 empty empty empty 17 7 0 10 -262144
-1 -1;
#X obj 392 752 route 2;
#N canvas 515 82 927 998 beat_div_choice 0;
#X obj 162 14 inlet;
#X obj 819 917 outlet;
#X obj 155 307 moses 0.96;
#X obj 229 309 bng 15 250 50 0 beat empty beat 17 7 0 10 -262144 -1
-1;
#X obj 243 372 bng 15 250 50 0 15_16th empty 15_16th 17 7 0 10 -262144
-1 -1;
#X obj 155 370 moses 0.906;
#X obj 136 162 moses 1.031;
#X obj 228 125 - 1;
#X obj 215 348 f;
#X obj 220 411 f;
#X obj 247 411 expr ($f1*15)/16;
#X obj 164 39 t f b b;
#X obj 219 390 delay 10;
#X obj 215 328 delay 10;
#X obj 249 350 expr ($f1)/1;
#X obj 239 435 bng 15 250 50 0 15_16th empty 7_8th 17 7 0 10 -262144
-1 -1;
#X obj 220 475 f;
#X obj 220 455 delay 10;
#X obj 155 434 moses 0.854;
#X obj 247 476 expr ($f1*7)/8;
#X obj 233 498 bng 15 250 50 0 empty empty 5_6th 17 7 0 10 -262144
-1 -1;
#X obj 243 561 bng 15 250 50 0 empty empty 13_16th 17 7 0 10 -262144
-1 -1;
#X obj 215 537 f;
#X obj 220 601 f;
#X obj 219 581 delay 10;
#X obj 215 517 delay 10;
#X obj 243 623 bng 15 250 50 0 15_16th empty 3_4th 17 7 0 10 -262144
-1 -1;
#X obj 220 665 f;
#X obj 220 645 delay 10;
#X obj 245 535 expr ($f1 * 5)/6;
#X obj 250 602 expr ($f1*13)/16;
#X obj 249 663 expr ($f1*3)/4;
#X obj 229 688 bng 15 250 50 0 empty empty 11_16th 17 7 0 10 -262144
-1 -1;
#X obj 243 751 bng 15 250 50 0 empty empty 2_3th 17 7 0 10 -262144
-1 -1;
#X obj 215 727 f;
#X obj 220 790 f;
#X obj 219 770 delay 10;
#X obj 215 707 delay 10;
#X obj 243 811 bng 15 250 50 0 empty empty 5_8th 17 7 0 10 -262144
-1 -1;
#X obj 220 854 f;
#X obj 220 834 delay 10;
#X obj 229 877 bng 15 250 50 0 empty empty 9_16th 17 7 0 10 -262144
-1 -1;
#X obj 243 941 bng 15 250 50 0 empty empty 1_2th 17 7 0 10 -262144
-1 -1;
#X obj 215 916 f;
#X obj 220 980 f;
#X obj 219 960 delay 10;
#X obj 215 896 delay 10;
#X obj 243 1002 bng 15 250 50 0 empty empty 7_16th 17 7 0 10 -262144
-1 -1;
#X obj 220 1044 f;
#X obj 220 1024 delay 10;
#X obj 155 496 moses 0.823;
#X obj 155 559 moses 0.781;
#X obj 155 624 moses 0.719;
#X obj 155 686 moses 0.677;
#X obj 155 749 moses 0.646;
#X obj 155 813 moses 0.594;
#X obj 155 875 moses 0.531;
#X obj 155 939 moses 0.469;
#X obj 155 1003 moses 0.406;
#X obj 229 1068 bng 15 250 50 0 empty empty 3_8th 17 7 0 10 -262144
-1 -1;
#X obj 243 1131 bng 15 250 50 0 empty empty 1_3th 17 7 0 10 -262144
-1 -1;
#X obj 215 1107 f;
#X obj 220 1170 f;
#X obj 219 1150 delay 10;
#X obj 215 1087 delay 10;
#X obj 238 1195 bng 15 250 50 0 empty empty 5_16th 17 7 0 10 -262144
-1 -1;
#X obj 219 1234 f;
#X obj 219 1214 delay 10;
#X obj 229 1257 bng 15 250 50 0 empty empty 1_4th 17 7 0 10 -262144
-1 -1;
#X obj 242 1321 bng 15 250 50 0 1_6th empty 1_6th 17 7 0 10 -262144
-1 -1;
#X obj 215 1296 f;
#X obj 219 1360 f;
#X obj 218 1340 delay 10;
#X obj 215 1276 delay 10;
#X obj 242 1386 bng 15 250 50 0 empty empty 1_8th 17 7 0 10 -262144
-1 -1;
#X obj 219 1424 f;
#X obj 219 1404 delay 10;
#X obj 231 1447 bng 15 250 50 0 empty empty 1_16th 17 7 0 10 -262144
-1 -1;
#X obj 243 1510 bng 15 250 50 0 15_16th empty 15_16th 17 7 0 10 -262144
-1 -1;
#X obj 215 1486 f;
#X obj 215 1466 delay 10;
#X obj 155 1066 moses 0.354;
#X obj 155 1129 moses 0.323;
#X obj 155 1193 moses 0.281;
#X obj 155 1255 moses 0.219;
#X obj 155 1316 moses 0.177;
#X obj 155 1383 moses 0.146;
#X obj 155 1445 moses 0.094;
#X obj 155 1508 moses 0.031;
#X obj 155 1532 bng 15 250 50 0 negligeable empty negligeable 17 7
0 10 -262144 -1 -1;
#X obj 250 729 expr ($f1 * 11)/16;
#X obj 247 790 expr ($f1 * 2)/3;
#X obj 247 855 expr ($f1*5)/8;
#X obj 245 914 expr ($f1 * 9)/16;
#X obj 249 1108 expr ($f1* 3)/8;
#X obj 250 1234 expr ($f1*5)/16;
#X obj 245 1294 expr ($f1 * 1)/4;
#X obj 249 1488 expr ($f1 * 1)/16;
#X obj 249 1361 expr ($f1* 1)/6;
#X obj 247 1170 expr ($f1* 1)/3;
#X obj 249 1042 expr ($f1* 7)/16;
#X obj 252 981 expr ($f1* 1)/2;
#X obj 248 1423 expr ($f1* 1)/8;
#X obj 353 111 compt;
#X obj 355 140 s compt;
#X obj 274 328 r compt;
#X obj 276 391 r compt;
#X obj 282 767 r compt;
#X obj 279 704 r compt;
#X obj 281 833 r compt;
#X obj 282 516 r compt;
#X obj 279 453 r compt;
#X obj 284 642 r compt;
#X obj 284 580 r compt;
#X obj 279 895 r compt;
#X obj 281 1023 r compt;
#X obj 278 960 r compt;
#X obj 282 1150 r compt;
#X obj 280 1089 r compt;
#X obj 274 1275 r compt;
#X obj 276 1212 r compt;
#X obj 281 1404 r compt;
#X obj 278 1341 r compt;
#X obj 274 1467 r compt;
#X msg 742 920 \$1;
#X connect 0 0 11 0;
#X connect 2 0 5 0;
#X connect 2 1 3 0;
#X connect 2 1 13 0;
#X connect 5 0 18 0;
#X connect 5 1 4 0;
#X connect 5 1 12 0;
#X connect 6 0 2 0;
#X connect 6 1 7 0;
#X connect 6 1 103 0;
#X connect 7 0 6 0;
#X connect 8 0 14 0;
#X connect 9 0 10 0;
#X connect 10 0 124 0;
#X connect 11 0 6 0;
#X connect 11 1 103 0;
#X connect 11 2 103 3;
#X connect 12 0 9 0;
#X connect 13 0 8 0;
#X connect 14 0 124 0;
#X connect 16 0 19 0;
#X connect 17 0 16 0;
#X connect 18 0 50 0;
#X connect 18 1 15 0;
#X connect 18 1 17 0;
#X connect 19 0 124 0;
#X connect 22 0 29 0;
#X connect 23 0 30 0;
#X connect 24 0 23 0;
#X connect 25 0 22 0;
#X connect 27 0 31 0;
#X connect 28 0 27 0;
#X connect 29 0 124 0;
#X connect 30 0 124 0;
#X connect 31 0 124 0;
#X connect 34 0 90 0;
#X connect 35 0 91 0;
#X connect 36 0 35 0;
#X connect 37 0 34 0;
#X connect 39 0 92 0;
#X connect 40 0 39 0;
#X connect 43 0 93 0;
#X connect 44 0 101 0;
#X connect 45 0 44 0;
#X connect 46 0 43 0;
#X connect 48 0 100 0;
#X connect 49 0 48 0;
#X connect 50 0 51 0;
#X connect 50 1 20 0;
#X connect 50 1 25 0;
#X connect 51 0 52 0;
#X connect 51 1 21 0;
#X connect 51 1 24 0;
#X connect 52 0 53 0;
#X connect 52 1 26 0;
#X connect 52 1 28 0;
#X connect 53 0 54 0;
#X connect 53 1 32 0;
#X connect 53 1 37 0;
#X connect 54 0 55 0;
#X connect 54 1 33 0;
#X connect 54 1 36 0;
#X connect 55 0 56 0;
#X connect 55 1 38 0;
#X connect 55 1 40 0;
#X connect 56 0 57 0;
#X connect 56 1 41 0;
#X connect 56 1 46 0;
#X connect 57 0 58 0;
#X connect 57 1 42 0;
#X connect 57 1 45 0;
#X connect 58 0 81 0;
#X connect 58 1 47 0;
#X connect 58 1 49 0;
#X connect 61 0 94 0;
#X connect 62 0 99 0;
#X connect 63 0 62 0;
#X connect 64 0 61 0;
#X connect 66 0 95 0;
#X connect 67 0 66 0;
#X connect 70 0 96 0;
#X connect 71 0 98 0;
#X connect 72 0 71 0;
#X connect 73 0 70 0;
#X connect 75 0 102 0;
#X connect 76 0 75 0;
#X connect 79 0 97 0;
#X connect 80 0 79 0;
#X connect 81 0 82 0;
#X connect 81 1 59 0;
#X connect 81 1 64 0;
#X connect 82 0 83 0;
#X connect 82 1 60 0;
#X connect 82 1 63 0;
#X connect 83 0 84 0;
#X connect 83 1 65 0;
#X connect 83 1 67 0;
#X connect 84 0 85 0;
#X connect 84 1 68 0;
#X connect 84 1 73 0;
#X connect 85 0 86 0;
#X connect 85 1 69 0;
#X connect 85 1 72 0;
#X connect 86 0 87 0;
#X connect 86 1 74 0;
#X connect 86 1 76 0;
#X connect 87 0 88 0;
#X connect 87 1 77 0;
#X connect 87 1 80 0;
#X connect 88 0 89 0;
#X connect 88 1 78 0;
#X connect 90 0 124 0;
#X connect 91 0 124 0;
#X connect 92 0 124 0;
#X connect 93 0 124 0;
#X connect 94 0 124 0;
#X connect 95 0 124 0;
#X connect 96 0 124 0;
#X connect 97 0 124 0;
#X connect 98 0 124 0;
#X connect 99 0 124 0;
#X connect 100 0 124 0;
#X connect 101 0 124 0;
#X connect 102 0 124 0;
#X connect 103 0 104 0;
#X connect 105 0 8 1;
#X connect 106 0 9 1;
#X connect 107 0 35 1;
#X connect 108 0 34 1;
#X connect 109 0 39 1;
#X connect 110 0 22 1;
#X connect 111 0 16 1;
#X connect 112 0 27 1;
#X connect 113 0 23 1;
#X connect 114 0 43 1;
#X connect 115 0 48 1;
#X connect 116 0 44 1;
#X connect 117 0 62 1;
#X connect 118 0 61 1;
#X connect 119 0 70 1;
#X connect 120 0 66 1;
#X connect 121 0 75 1;
#X connect 122 0 71 1;
#X connect 123 0 79 1;
#X connect 124 0 1 0;
#X restore 491 891 pd beat_div_choice;
#X msg 264 839 add2 \$1 1;
#X obj 470 393 compt;
#X floatatom 488 450 5 0 0 0 - - -;
#X obj 517 373 bng 15 250 50 0 empty empty empty 17 7 0 10 -262144
-1 -1;
#X obj 481 484 t f f;
#X msg 385 586 \$3;
#X obj 361 253 bng 15 250 50 0 empty empty empty 17 7 0 10 -262144
-1 -1;
#N canvas 540 188 450 300 temps_max_entre_2_pics 0;
#X obj 91 86 inlet;
#X obj 111 243 outlet;
#X obj 224 91 inlet;
#X msg 226 121 stop;
#X msg 92 132 bang;
#X obj 133 214 t b b;
#X obj 84 223 bng 15 250 50 0 empty empty empty 17 7 0 10 -262144 -1
-1;
#X obj 144 182 delay 2000;
#X connect 0 0 4 0;
#X connect 2 0 3 0;
#X connect 3 0 7 0;
#X connect 4 0 7 0;
#X connect 5 0 1 0;
#X connect 5 1 3 0;
#X connect 7 0 5 0;
#X connect 7 0 6 0;
#X restore 472 342 pd temps_max_entre_2_pics;
#X msg 474 368 1;
#X msg 259 869 add2 \$1;
#X obj 99 988 print [debbug acquisitionrythme];
#X obj 407 811 t b f;
#X msg 401 840 1;
#X obj 107 842 t b b;
#X obj 662 947 outlet;
#X msg 261 121 minvel 10;
#X obj 576 466 bng 15 250 50 0 empty empty empty 17 7 0 10 -262144
-1 -1;
#X msg 273 101 thresh 2.5 10;
#X obj 484 422 moses 10;
#X obj 565 606 t b;
#X connect 0 0 1 0;
#X connect 1 0 50 0;
#X connect 1 1 52 0;
#X connect 1 2 2 0;
#X connect 2 0 3 0;
#X connect 3 1 5 0;
#X connect 4 0 0 0;
#X connect 5 0 10 0;
#X connect 6 0 8 1;
#X connect 7 0 8 0;
#X connect 8 0 9 0;
#X connect 9 0 13 2;
#X connect 10 0 13 0;
#X connect 10 1 7 0;
#X connect 10 2 6 0;
#X connect 10 3 42 0;
#X connect 10 4 36 0;
#X connect 13 0 15 0;
#X connect 14 0 12 0;
#X connect 14 1 11 0;
#X connect 14 1 40 0;
#X connect 15 0 14 0;
#X connect 16 0 3 0;
#X connect 18 0 17 0;
#X connect 19 0 35 0;
#X connect 19 0 21 0;
#X connect 19 0 20 1;
#X connect 19 0 46 0;
#X connect 20 0 22 1;
#X connect 22 0 34 0;
#X connect 23 0 31 0;
#X connect 24 0 22 0;
#X connect 24 1 20 0;
#X connect 25 0 24 0;
#X connect 26 0 28 0;
#X connect 27 0 30 0;
#X connect 28 0 27 0;
#X connect 30 0 23 0;
#X connect 31 0 33 0;
#X connect 33 0 32 0;
#X connect 33 0 19 0;
#X connect 33 1 25 0;
#X connect 34 0 44 0;
#X connect 34 0 29 0;
#X connect 35 0 17 0;
#X connect 36 0 53 0;
#X connect 39 0 23 1;
#X connect 39 1 13 1;
#X connect 40 0 26 0;
#X connect 41 0 10 0;
#X connect 42 0 38 0;
#X connect 42 0 43 0;
#X connect 42 0 48 0;
#X connect 42 0 54 0;
#X connect 43 0 36 2;
#X connect 44 0 17 0;
#X connect 46 0 47 0;
#X connect 46 1 29 0;
#X connect 47 0 29 0;
#X connect 48 0 18 0;
#X connect 48 1 17 0;
#X connect 50 0 3 0;
#X connect 52 0 3 0;
#X connect 53 0 37 0;
#X connect 53 0 39 0;
#X connect 53 1 36 3;
#X connect 53 1 48 0;
#X connect 53 1 51 0;
#X connect 53 1 54 0;
#X connect 54 0 49 0;
#X restore 222 84 pd acquisitionrythme;
#X obj 214 117 tosymbol;
#X obj 202 168 fromsymbol;
#X obj 211 142 analyserythme;
#X obj 130 105 bng 15 250 50 0 empty empty empty 17 7 0 10 -262144
-1 -1;
#X msg 301 115 min_size_seq 3;
#X msg 87 32 400 2 1 1 4 2 1 1 7;
#X obj 357 89 bng 15 250 50 0 empty empty empty 17 7 0 10 -262144 -1
-1;
#X connect 0 0 2 0;
#X connect 2 0 3 0;
#X connect 2 1 9 0;
#X connect 2 1 3 0;
#X connect 3 0 5 0;
#X connect 4 0 1 0;
#X connect 5 0 4 0;
#X connect 6 0 3 0;
#X connect 7 0 5 1;
#X connect 8 0 3 0;
#X restore 12 78 pd traitement_Rythmique;
#X obj 22 101 print [patern_rythmique];
#X obj 187 102 print [patern_melodie];
#X obj 12 122 outlet;
#X obj 170 124 outlet;
#N canvas 992 82 927 998 filtre 0;
#X obj 867 20 inlet~;
#X floatatom 1084 506 5 0 0 0 - - -;
#X floatatom 1049 506 5 0 0 0 - - -;
#X obj 1048 486 f;
#X obj 1019 673 gaten;
#X floatatom 1015 614 5 0 0 0 - - -;
#X obj 1016 592 rmstodb;
#X obj 1059 415 loadbang;
#X msg 1085 466 10;
#X obj 1059 435 t b b;
#X obj 1063 953 unpack;
#X floatatom 1063 1000 0 0 0 0 - - -;
#X floatatom 1077 980 0 0 0 0 - - -;
#X obj 1122 929 route 1 2 3 4;
#X obj 1139 961 unpack;
#X floatatom 1138 1006 0 0 0 0 - - -;
#X floatatom 1153 988 0 0 0 0 - - -;
#X obj 1211 963 unpack;
#X floatatom 1227 1015 0 0 0 0 - - -;
#X floatatom 1234 996 0 0 0 0 - - -;
#X floatatom 1065 924 0 0 0 0 - - -;
#X obj 1074 897 fiddle~ 1024 1 20 3;
#X obj 1088 795 bng 15 250 50 0 empty empty empty 17 7 0 10 -262144
-1 -1;
#X obj 1103 845 mod 2;
#X msg 1106 870 auto \$1;
#X floatatom 1140 1085 10 0 0 0 - - -;
#X obj 1114 800 bng 15 250 50 0 empty empty empty 17 7 0 10 -262144
-1 -1;
#X obj 1113 779 loadbang;
#X obj 1015 569 env~;
#X floatatom 1355 509 5 0 0 0 - - -;
#X floatatom 1320 509 5 0 0 0 - - -;
#X obj 1319 489 f;
#X floatatom 1343 615 5 0 0 0 - - -;
#X obj 1290 676 gaten;
#X obj 1344 634 rmstodb;
#X floatatom 1344 654 5 0 0 0 - - -;
#X floatatom 1300 627 5 0 0 0 - - -;
#X obj 1287 595 rmstodb;
#X obj 1330 418 loadbang;
#X msg 1356 469 10;
#X obj 1330 438 t b b;
#X obj 1334 956 unpack;
#X floatatom 1334 1003 0 0 0 0 - - -;
#X floatatom 1348 983 0 0 0 0 - - -;
#X obj 1393 932 route 1 2 3 4;
#X obj 1410 964 unpack;
#X floatatom 1409 1009 0 0 0 0 - - -;
#X floatatom 1424 991 0 0 0 0 - - -;
#X obj 1482 966 unpack;
#X floatatom 1501 1013 0 0 0 0 - - -;
#X floatatom 1508 994 0 0 0 0 - - -;
#X floatatom 1336 927 0 0 0 0 - - -;
#X obj 1345 900 fiddle~ 1024 1 20 3;
#X obj 1359 798 bng 15 250 50 0 empty empty empty 17 7 0 10 -262144
-1 -1;
#X obj 1374 848 mod 2;
#X msg 1377 873 auto \$1;
#X floatatom 1410 1093 5 0 0 0 - - -;
#X obj 1385 803 bng 15 250 50 0 empty empty empty 17 7 0 10 -262144
-1 -1;
#X obj 1384 782 loadbang;
#X obj 1347 594 env~;
#X obj 1286 572 env~;
#X floatatom 1623 511 5 0 0 0 - - -;
#X floatatom 1588 511 5 0 0 0 - - -;
#X obj 1587 491 f;
#X obj 1558 678 gaten;
#X floatatom 1565 624 5 0 0 0 - - -;
#X obj 1555 597 rmstodb;
#X obj 1598 420 loadbang;
#X msg 1624 471 10;
#X obj 1598 440 t b b;
#X obj 1602 958 unpack;
#X floatatom 1602 1005 0 0 0 0 - - -;
#X floatatom 1616 985 0 0 0 0 - - -;
#X obj 1661 934 route 1 2 3 4;
#X obj 1678 966 unpack;
#X floatatom 1677 1011 0 0 0 0 - - -;
#X floatatom 1692 993 0 0 0 0 - - -;
#X obj 1750 968 unpack;
#X floatatom 1781 1020 0 0 0 0 - - -;
#X floatatom 1788 1001 0 0 0 0 - - -;
#X floatatom 1604 929 0 0 0 0 - - -;
#X obj 1613 902 fiddle~ 1024 1 20 3;
#X obj 1627 800 bng 15 250 50 0 empty empty empty 17 7 0 10 -262144
-1 -1;
#X obj 1642 850 mod 2;
#X msg 1645 875 auto \$1;
#X floatatom 1678 1095 5 0 0 0 - - -;
#X obj 1653 805 bng 15 250 50 0 empty empty empty 17 7 0 10 -262144
-1 -1;
#X obj 1652 784 loadbang;
#X obj 1554 574 env~;
#X floatatom 796 507 5 0 0 0 - - -;
#X floatatom 761 507 5 0 0 0 - - -;
#X obj 760 487 f;
#X obj 715 676 gaten;
#X floatatom 742 618 5 0 0 0 - - -;
#X obj 728 593 rmstodb;
#X obj 771 416 loadbang;
#X msg 797 467 10;
#X obj 771 436 t b b;
#X obj 775 954 unpack;
#X floatatom 775 1001 0 0 0 0 - - -;
#X floatatom 789 981 0 0 0 0 - - -;
#X obj 834 930 route 1 2 3 4;
#X obj 851 962 unpack;
#X floatatom 850 1007 0 0 0 0 - - -;
#X floatatom 865 989 0 0 0 0 - - -;
#X obj 923 964 unpack;
#X floatatom 953 1014 0 0 0 0 - - -;
#X floatatom 960 995 0 0 0 0 - - -;
#X floatatom 777 925 0 0 0 0 - - -;
#X obj 786 898 fiddle~ 1024 1 20 3;
#X obj 800 796 bng 15 250 50 0 empty empty empty 17 7 0 10 -262144
-1 -1;
#X obj 815 846 mod 2;
#X msg 811 866 auto \$1;
#X floatatom 851 1091 5 0 0 0 - - -;
#X obj 826 801 bng 15 250 50 0 empty empty empty 17 7 0 10 -262144
-1 -1;
#X obj 825 780 loadbang;
#X obj 727 570 env~;
#X floatatom 503 507 5 0 0 0 - - -;
#X floatatom 468 507 5 0 0 0 - - -;
#X obj 467 487 f;
#X obj 438 674 gaten;
#X floatatom 434 615 5 0 0 0 - - -;
#X obj 435 593 rmstodb;
#X obj 478 416 loadbang;
#X msg 504 467 10;
#X obj 478 436 t b b;
#X obj 482 954 unpack;
#X floatatom 482 1001 0 0 0 0 - - -;
#X floatatom 496 981 0 0 0 0 - - -;
#X obj 541 930 route 1 2 3 4;
#X obj 558 962 unpack;
#X floatatom 557 1007 0 0 0 0 - - -;
#X floatatom 572 989 0 0 0 0 - - -;
#X obj 630 964 unpack;
#X floatatom 654 1015 0 0 0 0 - - -;
#X floatatom 661 996 0 0 0 0 - - -;
#X floatatom 484 925 0 0 0 0 - - -;
#X obj 493 898 fiddle~ 1024 1 20 3;
#X obj 507 796 bng 15 250 50 0 empty empty empty 17 7 0 10 -262144
-1 -1;
#X obj 522 846 mod 2;
#X msg 525 871 auto \$1;
#X floatatom 558 1091 5 0 0 0 - - -;
#X obj 533 801 bng 15 250 50 0 empty empty empty 17 7 0 10 -262144
-1 -1;
#X obj 532 780 loadbang;
#X obj 434 570 env~;
#X floatatom 217 512 5 0 0 0 - - -;
#X floatatom 182 512 5 0 0 0 - - -;
#X obj 181 492 f;
#X obj 152 679 gaten;
#X floatatom 148 620 5 0 0 0 - - -;
#X obj 149 598 rmstodb;
#X obj 192 421 loadbang;
#X msg 218 472 10;
#X obj 192 441 t b b;
#X obj 196 959 unpack;
#X floatatom 196 1006 0 0 0 0 - - -;
#X floatatom 210 986 0 0 0 0 - - -;
#X obj 255 935 route 1 2 3 4;
#X obj 272 967 unpack;
#X floatatom 271 1012 0 0 0 0 - - -;
#X floatatom 286 994 0 0 0 0 - - -;
#X obj 344 969 unpack;
#X floatatom 372 1018 0 0 0 0 - - -;
#X floatatom 379 999 0 0 0 0 - - -;
#X floatatom 198 930 0 0 0 0 - - -;
#X obj 207 903 fiddle~ 1024 1 20 3;
#X obj 221 801 bng 15 250 50 0 empty empty empty 17 7 0 10 -262144
-1 -1;
#X obj 236 851 mod 2;
#X msg 239 876 auto \$1;
#X floatatom 272 1096 5 0 0 0 - - -;
#X obj 247 806 bng 15 250 50 0 empty empty empty 17 7 0 10 -262144
-1 -1;
#X obj 246 785 loadbang;
#X obj 148 575 env~;
#X obj 156 540 bp~ 100 10;
#X msg 182 472 100;
#X obj 442 534 bp~ 200 10;
#X obj 734 535 bp~ 400 10;
#X obj 1023 534 bp~ 800 10;
#X obj 270 1050 moses 50;
#X obj 1294 537 bp~ 1600 10;
#X obj 1562 539 bp~ 3200 10;
#X msg 1049 466 800;
#X msg 1323 463 1600;
#X msg 1588 471 3200;
#X msg 761 467 400;
#X msg 467 467 200;
#X floatatom 1965 508 5 0 0 0 - - -;
#X floatatom 1930 508 5 0 0 0 - - -;
#X obj 1929 488 f;
#X obj 1900 675 gaten;
#X floatatom 1896 616 5 0 0 0 - - -;
#X obj 1897 594 rmstodb;
#X obj 1940 417 loadbang;
#X msg 1966 468 10;
#X obj 1940 437 t b b;
#X obj 1944 955 unpack;
#X floatatom 1944 1002 0 0 0 0 - - -;
#X floatatom 1958 982 0 0 0 0 - - -;
#X obj 2003 931 route 1 2 3 4;
#X obj 2020 963 unpack;
#X floatatom 2019 1008 0 0 0 0 - - -;
#X floatatom 2034 990 0 0 0 0 - - -;
#X obj 2092 965 unpack;
#X floatatom 2120 1014 0 0 0 0 - - -;
#X floatatom 2127 995 0 0 0 0 - - -;
#X floatatom 1947 926 0 0 0 0 - - -;
#X obj 1955 899 fiddle~ 1024 1 20 3;
#X obj 1969 797 bng 15 250 50 0 empty empty empty 17 7 0 10 -262144
-1 -1;
#X obj 1984 847 mod 2;
#X msg 1987 872 auto \$1;
#X floatatom 2020 1092 5 0 0 0 - - -;
#X obj 1995 802 bng 15 250 50 0 empty empty empty 17 7 0 10 -262144
-1 -1;
#X obj 1994 781 loadbang;
#X obj 1896 571 env~;
#X obj 1140 1065 moses 1200;
#X obj 1408 1047 moses 1200;
#X obj 1411 1068 moses 2400;
#X obj 1676 1049 moses 2400;
#X obj 1904 536 bp~ 6400 10;
#X obj 2021 1067 moses 9600;
#X obj 1679 1070 moses 4800;
#X obj 2018 1046 moses 4800;
#X obj 1403 1117 s msgfreq;
#X obj 1678 1120 s msgfreq;
#X obj 2020 1122 s msgfreq;
#X obj 853 1112 s msgfreq;
#X obj 555 1115 s msgfreq;
#X obj 273 1118 s msgfreq;
#X obj 1143 1113 s msgfreq;
#X floatatom 1077 602 5 0 0 0 - - -;
#X obj 1078 621 rmstodb;
#X floatatom 1079 644 5 0 0 0 - - -;
#X obj 1081 581 env~;
#X floatatom 796 612 5 0 0 0 - - -;
#X obj 797 631 rmstodb;
#X floatatom 797 651 5 0 0 0 - - -;
#X obj 800 591 env~;
#X floatatom 506 605 5 0 0 0 - - -;
#X obj 507 624 rmstodb;
#X floatatom 507 644 5 0 0 0 - - -;
#X obj 510 584 env~;
#X floatatom 223 617 5 0 0 0 - - -;
#X obj 224 636 rmstodb;
#X floatatom 224 656 5 0 0 0 - - -;
#X obj 227 596 env~;
#X floatatom 1632 615 5 0 0 0 - - -;
#X obj 1633 634 rmstodb;
#X floatatom 1633 654 5 0 0 0 - - -;
#X obj 1636 594 env~;
#X floatatom 1979 608 5 0 0 0 - - -;
#X obj 1980 627 rmstodb;
#X floatatom 1980 647 5 0 0 0 - - -;
#X obj 1983 587 env~;
#X obj 797 567 *~ 0.3;
#X obj 1079 557 *~ 0.3;
#X obj 1344 570 *~ 0.3;
#X obj 1634 570 *~ 0.3;
#X obj 1981 563 *~ 0.3;
#X obj 507 559 *~ 0.3;
#X obj 225 572 *~ 0.3;
#X obj 852 1066 moses 650;
#X obj 1137 1044 moses 550;
#X obj 849 1045 moses 275;
#X obj 559 1066 moses 325;
#X obj 557 1045 moses 125;
#X obj 273 1071 moses 175;
#X msg 1332 872 \$1;
#X msg 766 863 \$1;
#X msg 204 875 \$1;
#X msg 492 869 \$1;
#X msg 1049 870 \$1;
#X obj 122 983 env~;
#X floatatom 122 1014 5 0 0 0 - - -;
#X obj 418 949 env~;
#X floatatom 422 988 5 0 0 0 - - -;
#X obj 717 954 env~;
#X floatatom 721 993 5 0 0 0 - - -;
#X obj 1000 974 env~;
#X floatatom 1001 1043 5 0 0 0 - - -;
#X obj 1280 1010 env~;
#X floatatom 1271 1050 5 0 0 0 - - -;
#X obj 1568 1025 env~;
#X floatatom 1551 1065 5 0 0 0 - - -;
#X obj 1873 991 env~;
#X obj 1266 139 env~;
#X obj 126 1074 /;
#X floatatom 128 1099 5 0 0 0 - - -;
#X obj 410 1067 /;
#X floatatom 412 1092 5 0 0 0 - - -;
#X obj 713 1069 /;
#X floatatom 715 1094 5 0 0 0 - - -;
#X obj 1008 1069 /;
#X floatatom 1010 1094 5 0 0 0 - - -;
#X obj 1280 1081 /;
#X floatatom 1272 1108 5 0 0 0 - - -;
#X obj 1556 1095 /;
#X floatatom 1558 1120 5 0 0 0 - - -;
#X floatatom 1851 1050 5 0 0 0 - - -;
#X obj 1858 1076 /;
#X floatatom 1860 1101 5 0 0 0 - - -;
#X obj 741 974 bng 15 250 50 0 empty empty empty 17 7 0 10 -262144
-1 -1;
#X obj 457 969 bng 15 250 50 0 empty empty empty 17 7 0 10 -262144
-1 -1;
#X obj 159 986 bng 15 250 50 0 empty empty empty 17 7 0 10 -262144
-1 -1;
#X obj 1020 1011 bng 15 250 50 0 empty empty empty 17 7 0 10 -262144
-1 -1;
#X obj 1309 1028 bng 15 250 50 0 empty empty empty 17 7 0 10 -262144
-1 -1;
#X obj 1098 820 compt;
#X obj 1369 823 compt;
#X obj 1637 825 compt;
#X obj 810 821 compt;
#X obj 517 821 compt;
#X obj 231 826 compt;
#X obj 1979 822 compt;
#X obj 125 1124 s env100;
#X obj 391 1133 s env200;
#X obj 1809 1146 s env6400;
#X obj 1555 1151 s env3200;
#X obj 1269 1134 s env1600;
#X obj 990 1133 s env800;
#X obj 688 1142 s env400;
#X obj 1266 179 s envglo;
#X floatatom 1279 159 5 0 0 0 - - -;
#X obj 1305 1050 r envglo;
#X obj 1043 1044 r envglo;
#X obj 1592 1060 r envglo;
#X obj 1893 1049 r envglo;
#X obj 732 1045 r envglo;
#X obj 427 1038 r envglo;
#X obj 147 1046 r envglo;
#X obj 705 1016 route 0;
#X msg 1930 468 6400;
#X msg 1583 880 \$1;
#X obj 1583 901 bng 15 250 50 0 empty empty empty 17 7 0 10 -262144
-1 -1;
#X msg 1926 876 \$1;
#X obj 1926 896 bng 15 250 50 0 empty empty empty 17 7 0 10 -262144
-1 -1;
#X connect 0 0 173 0;
#X connect 0 0 259 0;
#X connect 0 0 258 0;
#X connect 0 0 175 0;
#X connect 0 0 176 0;
#X connect 0 0 253 0;
#X connect 0 0 177 0;
#X connect 0 0 254 0;
#X connect 0 0 179 0;
#X connect 0 0 255 0;
#X connect 0 0 180 0;
#X connect 0 0 256 0;
#X connect 0 0 218 0;
#X connect 0 0 257 0;
#X connect 0 0 284 0;
#X connect 1 0 177 2;
#X connect 2 0 177 1;
#X connect 3 0 2 0;
#X connect 4 0 21 0;
#X connect 4 0 277 0;
#X connect 4 1 22 0;
#X connect 6 0 5 0;
#X connect 7 0 9 0;
#X connect 8 0 1 0;
#X connect 9 0 181 0;
#X connect 9 1 8 0;
#X connect 10 0 11 0;
#X connect 10 1 12 0;
#X connect 11 0 261 0;
#X connect 13 0 10 0;
#X connect 13 1 14 0;
#X connect 13 2 17 0;
#X connect 14 0 15 0;
#X connect 14 1 16 0;
#X connect 15 0 261 0;
#X connect 17 0 18 0;
#X connect 17 1 19 0;
#X connect 18 0 261 0;
#X connect 21 3 20 0;
#X connect 21 4 13 0;
#X connect 22 0 305 0;
#X connect 23 0 24 0;
#X connect 23 0 270 0;
#X connect 24 0 21 0;
#X connect 25 0 228 0;
#X connect 26 0 305 0;
#X connect 27 0 26 0;
#X connect 28 0 6 0;
#X connect 29 0 179 2;
#X connect 30 0 179 1;
#X connect 31 0 30 0;
#X connect 32 0 34 0;
#X connect 33 0 52 0;
#X connect 33 0 279 0;
#X connect 33 1 53 0;
#X connect 34 0 35 0;
#X connect 35 0 33 1;
#X connect 37 0 36 0;
#X connect 38 0 40 0;
#X connect 39 0 29 0;
#X connect 40 0 182 0;
#X connect 40 1 39 0;
#X connect 41 0 42 0;
#X connect 41 1 43 0;
#X connect 42 0 215 0;
#X connect 44 0 41 0;
#X connect 44 1 45 0;
#X connect 44 2 48 0;
#X connect 45 0 46 0;
#X connect 45 1 47 0;
#X connect 46 0 215 0;
#X connect 48 0 49 0;
#X connect 48 1 50 0;
#X connect 49 0 215 0;
#X connect 52 3 51 0;
#X connect 52 4 44 0;
#X connect 53 0 306 0;
#X connect 54 0 55 0;
#X connect 54 0 266 0;
#X connect 55 0 52 0;
#X connect 56 0 222 0;
#X connect 57 0 306 0;
#X connect 58 0 57 0;
#X connect 59 0 32 0;
#X connect 60 0 37 0;
#X connect 61 0 180 2;
#X connect 62 0 180 1;
#X connect 63 0 62 0;
#X connect 64 0 81 0;
#X connect 64 0 281 0;
#X connect 64 1 82 0;
#X connect 66 0 65 0;
#X connect 67 0 69 0;
#X connect 68 0 61 0;
#X connect 69 0 183 0;
#X connect 69 1 68 0;
#X connect 70 0 71 0;
#X connect 70 1 72 0;
#X connect 71 0 217 0;
#X connect 73 0 70 0;
#X connect 73 1 74 0;
#X connect 73 2 77 0;
#X connect 74 0 75 0;
#X connect 74 1 76 0;
#X connect 75 0 217 0;
#X connect 77 0 78 0;
#X connect 77 1 79 0;
#X connect 78 0 217 0;
#X connect 81 3 80 0;
#X connect 81 4 73 0;
#X connect 82 0 307 0;
#X connect 83 0 84 0;
#X connect 83 0 330 0;
#X connect 84 0 81 0;
#X connect 85 0 223 0;
#X connect 86 0 307 0;
#X connect 87 0 86 0;
#X connect 88 0 66 0;
#X connect 89 0 176 2;
#X connect 90 0 176 1;
#X connect 91 0 90 0;
#X connect 92 0 109 0;
#X connect 92 0 275 0;
#X connect 92 1 110 0;
#X connect 94 0 93 0;
#X connect 95 0 97 0;
#X connect 96 0 89 0;
#X connect 97 0 184 0;
#X connect 97 1 96 0;
#X connect 98 0 99 0;
#X connect 98 1 100 0;
#X connect 99 0 262 0;
#X connect 101 0 98 0;
#X connect 101 1 102 0;
#X connect 101 2 105 0;
#X connect 102 0 103 0;
#X connect 102 1 104 0;
#X connect 103 0 262 0;
#X connect 105 0 106 0;
#X connect 105 1 107 0;
#X connect 106 0 262 0;
#X connect 109 3 108 0;
#X connect 109 4 101 0;
#X connect 110 0 308 0;
#X connect 111 0 112 0;
#X connect 111 0 267 0;
#X connect 112 0 109 0;
#X connect 113 0 225 0;
#X connect 114 0 308 0;
#X connect 115 0 114 0;
#X connect 116 0 94 0;
#X connect 117 0 175 2;
#X connect 118 0 175 1;
#X connect 119 0 118 0;
#X connect 120 0 137 0;
#X connect 120 0 273 0;
#X connect 120 1 138 0;
#X connect 122 0 121 0;
#X connect 123 0 125 0;
#X connect 124 0 117 0;
#X connect 125 0 185 0;
#X connect 125 1 124 0;
#X connect 126 0 127 0;
#X connect 126 1 128 0;
#X connect 127 0 264 0;
#X connect 129 0 126 0;
#X connect 129 1 130 0;
#X connect 129 2 133 0;
#X connect 130 0 131 0;
#X connect 130 1 132 0;
#X connect 131 0 264 0;
#X connect 133 0 134 0;
#X connect 133 1 135 0;
#X connect 134 0 264 0;
#X connect 137 3 136 0;
#X connect 137 4 129 0;
#X connect 138 0 309 0;
#X connect 139 0 140 0;
#X connect 139 0 269 0;
#X connect 140 0 137 0;
#X connect 141 0 226 0;
#X connect 142 0 309 0;
#X connect 143 0 142 0;
#X connect 144 0 122 0;
#X connect 145 0 173 2;
#X connect 146 0 173 1;
#X connect 147 0 146 0;
#X connect 148 0 165 0;
#X connect 148 0 271 0;
#X connect 148 1 166 0;
#X connect 150 0 149 0;
#X connect 151 0 153 0;
#X connect 152 0 145 0;
#X connect 153 0 174 0;
#X connect 153 1 152 0;
#X connect 154 0 155 0;
#X connect 154 1 156 0;
#X connect 155 0 178 0;
#X connect 157 0 154 0;
#X connect 157 1 158 0;
#X connect 157 2 161 0;
#X connect 158 0 159 0;
#X connect 158 1 160 0;
#X connect 159 0 178 0;
#X connect 161 0 162 0;
#X connect 161 1 163 0;
#X connect 162 0 178 0;
#X connect 165 3 164 0;
#X connect 165 4 157 0;
#X connect 166 0 310 0;
#X connect 167 0 168 0;
#X connect 167 0 268 0;
#X connect 168 0 165 0;
#X connect 169 0 227 0;
#X connect 170 0 310 0;
#X connect 171 0 170 0;
#X connect 172 0 150 0;
#X connect 173 0 148 0;
#X connect 173 0 172 0;
#X connect 175 0 120 0;
#X connect 175 0 144 0;
#X connect 176 0 92 0;
#X connect 176 0 116 0;
#X connect 177 0 4 0;
#X connect 177 0 28 0;
#X connect 178 1 265 0;
#X connect 179 0 33 0;
#X connect 179 0 60 0;
#X connect 180 0 64 0;
#X connect 180 0 88 0;
#X connect 186 0 218 2;
#X connect 187 0 218 1;
#X connect 188 0 187 0;
#X connect 189 0 206 0;
#X connect 189 0 283 0;
#X connect 189 1 207 0;
#X connect 191 0 190 0;
#X connect 192 0 194 0;
#X connect 193 0 186 0;
#X connect 194 0 329 0;
#X connect 194 1 193 0;
#X connect 195 0 196 0;
#X connect 195 1 197 0;
#X connect 196 0 221 0;
#X connect 198 0 195 0;
#X connect 198 1 199 0;
#X connect 198 2 202 0;
#X connect 199 0 200 0;
#X connect 199 1 201 0;
#X connect 200 0 221 0;
#X connect 202 0 203 0;
#X connect 202 1 204 0;
#X connect 203 0 221 0;
#X connect 206 3 205 0;
#X connect 206 4 198 0;
#X connect 207 0 311 0;
#X connect 208 0 209 0;
#X connect 208 0 332 0;
#X connect 209 0 206 0;
#X connect 210 0 224 0;
#X connect 211 0 311 0;
#X connect 212 0 211 0;
#X connect 213 0 191 0;
#X connect 214 0 25 0;
#X connect 215 1 216 0;
#X connect 216 0 56 0;
#X connect 217 1 220 0;
#X connect 218 0 189 0;
#X connect 218 0 213 0;
#X connect 219 0 210 0;
#X connect 220 0 85 0;
#X connect 221 1 219 0;
#X connect 229 0 230 0;
#X connect 230 0 231 0;
#X connect 231 0 4 1;
#X connect 232 0 229 0;
#X connect 233 0 234 0;
#X connect 234 0 235 0;
#X connect 235 0 92 1;
#X connect 236 0 233 0;
#X connect 237 0 238 0;
#X connect 238 0 239 0;
#X connect 239 0 120 1;
#X connect 240 0 237 0;
#X connect 241 0 242 0;
#X connect 242 0 243 0;
#X connect 243 0 148 1;
#X connect 244 0 241 0;
#X connect 245 0 246 0;
#X connect 246 0 247 0;
#X connect 247 0 64 1;
#X connect 248 0 245 0;
#X connect 249 0 250 0;
#X connect 250 0 251 0;
#X connect 251 0 189 1;
#X connect 252 0 249 0;
#X connect 253 0 236 0;
#X connect 254 0 232 0;
#X connect 255 0 59 0;
#X connect 256 0 248 0;
#X connect 257 0 252 0;
#X connect 258 0 240 0;
#X connect 259 0 244 0;
#X connect 260 0 113 0;
#X connect 261 1 214 0;
#X connect 262 1 260 0;
#X connect 263 0 141 0;
#X connect 264 1 263 0;
#X connect 265 0 169 0;
#X connect 266 0 304 0;
#X connect 267 0 300 0;
#X connect 268 0 302 0;
#X connect 269 0 301 0;
#X connect 270 0 303 0;
#X connect 271 0 272 0;
#X connect 272 0 285 0;
#X connect 273 0 274 0;
#X connect 274 0 287 0;
#X connect 275 0 276 0;
#X connect 276 0 328 0;
#X connect 277 0 278 0;
#X connect 278 0 291 0;
#X connect 279 0 280 0;
#X connect 280 0 293 0;
#X connect 281 0 282 0;
#X connect 282 0 295 0;
#X connect 283 0 297 0;
#X connect 284 0 320 0;
#X connect 284 0 319 0;
#X connect 285 0 286 0;
#X connect 286 0 312 0;
#X connect 287 0 288 0;
#X connect 288 0 313 0;
#X connect 289 0 290 0;
#X connect 290 0 318 0;
#X connect 291 0 292 0;
#X connect 292 0 317 0;
#X connect 293 0 294 0;
#X connect 294 0 316 0;
#X connect 295 0 296 0;
#X connect 296 0 315 0;
#X connect 297 0 298 0;
#X connect 298 0 299 0;
#X connect 299 0 314 0;
#X connect 300 0 276 0;
#X connect 301 0 274 0;
#X connect 302 0 272 0;
#X connect 303 0 278 0;
#X connect 304 0 280 0;
#X connect 305 0 23 0;
#X connect 306 0 54 0;
#X connect 307 0 83 0;
#X connect 308 0 111 0;
#X connect 309 0 139 0;
#X connect 310 0 167 0;
#X connect 311 0 208 0;
#X connect 321 0 293 1;
#X connect 322 0 291 1;
#X connect 323 0 295 1;
#X connect 324 0 298 1;
#X connect 325 0 289 1;
#X connect 326 0 287 1;
#X connect 327 0 285 1;
#X connect 328 1 289 0;
#X connect 330 0 331 0;
#X connect 331 0 282 0;
#X connect 332 0 333 0;
#X connect 333 0 297 0;
#X restore 457 83 pd filtre;
#X obj 447 307 comptNote;
#X obj 440 221 ftom;
#X floatatom 441 280 5 0 0 0 - - -;
#X obj 499 255 loadbang;
#X floatatom 444 202 10 0 0 0 - - -;
#X obj 451 181 r msgfreq;
#X obj 436 249 round;
#X obj 700 44 r env100;
#X obj 716 82 r env200;
#X obj 732 120 r env400;
#X obj 748 159 r env800;
#X obj 764 197 r env1600;
#X obj 780 235 r env3200;
#X obj 797 272 r env6400;
#X obj 668 315 pack f f f f f f f f f;
#X obj 684 5 r envglo;
#X obj 466 327 print [comptNote];
#X obj 688 335 print [comptRepart];
#X obj 618 36 loadbang;
#X obj 617 129 metro;
#X obj 620 90 t b f f;
#X obj 596 180 bng 15 250 50 0 empty empty empty 17 7 0 10 -262144
-1 -1;
#X obj 732 139 moyenne;
#X obj 684 23 moyenne;
#X obj 748 177 moyenne;
#X obj 764 216 moyenne;
#X obj 780 253 moyenne;
#X obj 797 290 moyenne;
#X obj 716 101 moyenne;
#X obj 700 62 moyenne;
#X msg 619 59 1000;
#X obj 498 281 metro 1000;
#X obj 447 347 outlet;
#X obj 852 -13 pvu~;
#X floatatom 852 63 5 0 0 0 - - -;
#X obj 852 33 > -10;
#X obj 852 93 moses 1;
#X obj 852 11 spigot;
#X obj 891 242 outlet;
#X msg 919 -14 1;
#X msg 889 -15 0;
#X obj 919 -72 loadbang;
#X obj 923 126 s wait;
#X obj 906 190 s go;
#X obj 935 -56 r go;
#X obj 889 -41 r wait;
#X floatatom 808 30 5 0 0 0 - - -;
#X obj 906 159 delay 400;
#X connect 1 0 3 0;
#X connect 1 0 2 0;
#X connect 1 0 8 0;
#X connect 1 0 42 0;
#X connect 2 0 5 0;
#X connect 2 0 7 0;
#X connect 3 0 4 0;
#X connect 3 0 6 0;
#X connect 9 0 41 0;
#X connect 10 0 15 0;
#X connect 11 0 9 0;
#X connect 12 0 40 0;
#X connect 13 0 10 0;
#X connect 14 0 13 0;
#X connect 15 0 11 0;
#X connect 16 0 38 0;
#X connect 17 0 37 0;
#X connect 18 0 31 0;
#X connect 19 0 33 0;
#X connect 20 0 34 0;
#X connect 21 0 35 0;
#X connect 22 0 36 0;
#X connect 23 0 0 0;
#X connect 24 0 32 0;
#X connect 27 0 39 0;
#X connect 28 0 23 0;
#X connect 29 0 28 0;
#X connect 29 1 28 1;
#X connect 29 2 31 1;
#X connect 29 2 32 1;
#X connect 29 2 33 1;
#X connect 29 2 34 1;
#X connect 29 2 35 1;
#X connect 29 2 36 1;
#X connect 29 2 37 1;
#X connect 29 2 38 1;
#X connect 30 0 23 0;
#X connect 31 0 23 4;
#X connect 32 0 23 1;
#X connect 33 0 23 5;
#X connect 34 0 23 6;
#X connect 35 0 23 7;
#X connect 36 0 23 8;
#X connect 37 0 23 3;
#X connect 38 0 23 2;
#X connect 39 0 29 0;
#X connect 40 0 9 1;
#X connect 42 0 46 0;
#X connect 43 0 45 0;
#X connect 44 0 43 0;
#X connect 45 1 47 0;
#X connect 45 1 51 0;
#X connect 45 1 56 0;
#X connect 46 0 44 0;
#X connect 46 0 55 0;
#X connect 48 0 46 1;
#X connect 49 0 46 1;
#X connect 50 0 48 0;
#X connect 53 0 48 0;
#X connect 54 0 49 0;
#X connect 56 0 52 0;
#X restore 480 229 pd analyse;
#X obj 480 177 spigot~;
#X obj 519 153 r netprio;
#N canvas 65 82 927 998 traiterMessage 0;
#X obj 256 -71 inlet;
#X obj 230 -24 route tempe light humid;
#X obj 86 96 list append;
#X obj 86 124 list split 1;
#X obj 86 72 until;
#X msg 172 77 bang;
#X obj 86 40 t b l;
#X obj 113 183 compt;
#X obj 86 242 tabwrite temperature;
#N canvas 65 127 718 300 (subpatch) 0;
#X array temperature 256 float 1;
#A 0 19 19.3062 19.3133 19.3205 19.3276 19.349 19.3538 19.3585 19.3633
19.3776 19.4062 19.4062 19.4062 19.4157 19.4252 19.4347 19.4347 19.4347
19.4347 19.449 19.4633 19.4681 19.4728 19.4776 19.4812 19.4847 19.4883
19.4919 19.499 19.5062 19.5109 19.5157 19.5204 19.5276 19.5347 19.5419
19.549 19.549 19.549 19.549 19.549 19.549 19.549 19.5538 19.5585 19.5633
19.5633 19.5633 19.5633 19.5681 19.5728 19.5776 19.5776 19.5776 19.5776
19.5919 19.5919 19.5919 19.599 19.6062 19.6062 19.6062 19.6133 19.6204
19.6204 19.6204 19.6347 19.6347 19.6347 19.6419 19.649 19.649 19.6562
19.6633 19.6633 19.6633 19.6704 19.6776 19.6776 19.6776 19.7061 19.7061
19.7061 19.7204 19.7204 19.7347 19.7419 19.749 19.7633 19.7776 19.7776
19.7776 19.7776 19.8061 19.8061 19.8061 19.8061 19.8204 19.8347 19.8347
19.8419 19.849 19.8633 19.8633 19.8704 19.8919 19.8919 19.9061 19.9061
19.9061 19.9061 19.9204 19.9347 19.9347 19.9347 19.9347 19.9347 19.949
19.949 19.949 19.9561 19.9633 19.9633 19.9704 19.9776 19.9776 19.9776
19.9776 19.9776 19.9918 19.9918 19.9918 19.9918 19.9918 20.0061 20.0061
20.0061 20.0061 20.0061 20.0061 20.0061 20.0133 20.0204 20.0204 20.0204
20.0204 20.0204 20.0204 20.0204 20.0276 20.0347 20.0347 20.0347 20.0347
20.049 20.049 20.049 20.049 20.049 20.049 20.049 20.049 20.049 20.0633
20.0633 20.0633 20.0633 20.0633 20.0633 20.0704 20.0776 20.0776 20.0776
20.0776 20.0847 20.0918 20.0918 20.0918 20.0918 20.0918 20.1061 20.1061
20.1061 20.1061 20.1061 20.1061 20.1133 20.1204 20.1276 20.1347 20.1347
20.1347 20.1418 20.149 20.149 20.149 20.1633 20.1633 20.1633 20.1633
20.1776 20.1776 20.1776 20.1776 20.1776 20.1918 20.1918 20.1918 20.1918
20.1918 20.2061 20.2061 20.2061 20.2061 20.2204 20.2204 20.2204 20.2204
20.2347 20.2347 20.2347 20.2347 20.2347 20.2418 20.249 20.249 20.249
20.2561 20.2633 20.2633 20.2633 20.2633 20.2704 20.2776 20.2823 20.2871
20.2918 20.3061 20.3061 20.3109 20.3156 20.3204 20.3204 20.3276 20.3347
20.3347 20.3347 20.349 20.349 20.349 20.3633 20.3775 20.3775 20.3847
20.4061 21;
#X coords 0 1 255 -1 200 140 1 0 0;
#X restore 586 -63 graph;
#X obj 86 159 t f b;
#X obj 232 97 list append;
#X obj 232 125 list split 1;
#X obj 232 73 until;
#X msg 318 78 bang;
#X obj 232 41 t b l;
#X obj 259 184 compt;
#X obj 232 160 t f b;
#X obj 378 96 list append;
#X obj 378 124 list split 1;
#X obj 378 72 until;
#X msg 497 76 bang;
#X obj 378 40 t b l;
#X obj 405 186 compt;
#X obj 378 159 t f b;
#X obj 232 243 tabwrite lumiere;
#X obj 378 242 tabwrite humidite;
#N canvas 65 107 643 371 (subpatch) 0;
#X array lumiere 256 float 1;
#A 0 20.2386 20.1958 20.1958 20.1672 20.1672 20.1243 20.0886 20.0815
20.0815 20.0529 20.0386 20.0386 20.0386 20.0243 20.0243 20.0101 20.0101
20.0101 19.9958 19.9815 19.9815 19.9815 19.9672 19.9529 19.9529 19.9529
19.9386 19.9243 19.9243 19.9243 19.9243 19.9101 19.9101 19.9101 19.9101
19.9101 19.8958 19.8958 19.8958 19.8958 19.8958 19.8958 19.8958 19.8815
19.8815 19.8815 19.8815 19.8815 19.8672 19.8672 19.8672 19.8529 19.8529
19.8529 19.8529 19.8529 19.8529 19.8529 19.8529 19.8386 19.8386 19.8386
19.8386 19.8386 19.8386 19.8386 19.8243 19.8243 19.8243 19.8101 19.8101
19.8101 19.8101 19.7958 19.7958 19.7958 19.7958 19.7815 19.7815 19.7815
19.7743 19.7672 19.7672 19.7529 19.7529 19.7458 19.7386 19.7386 19.7386
19.7386 19.7386 19.7386 19.7243 19.7243 19.7243 19.7243 19.7101 19.7101
19.6958 19.6886 19.6815 19.6815 19.6529 19.6529 19.6529 19.6386 19.6386
19.6386 19.6243 19.6243 19.6243 19.6243 19.6243 19.6243 19.6243 19.6243
19.61 19.61 19.61 19.61 19.61 19.61 19.6029 19.5958 19.5958 19.5958
19.5958 19.5958 19.5958 19.5815 19.5815 19.5815 19.5815 19.5815 19.5815
19.5815 19.5815 19.5815 19.5672 19.5672 19.5672 19.5672 19.5672 19.5672
19.5672 19.5672 19.5672 19.5672 19.5672 19.5672 19.5672 19.5672 19.5672
19.5672 19.5672 19.5672 19.5672 19.5815 19.5815 19.5815 19.5815 19.5815
19.5815 19.5815 19.5886 19.5958 19.5958 19.5958 19.5958 19.5958 19.5958
19.5958 19.5958 19.5958 19.5958 19.5958 19.61 19.61 19.61 19.61 19.61
19.61 19.61 19.61 19.6243 19.6243 19.6243 19.6386 19.6386 19.6529 19.6529
19.66 19.6672 19.6672 19.6815 19.6815 19.6958 19.6958 19.7101 19.7243
19.7386 19.7386 19.7386 19.7529 19.7672 19.7815 19.7815 19.7958 19.8243
19.8243 19.8458 19.8529 19.8529 19.8672 19.8815 19.8815 19.8815 19.8958
19.9101 19.9101 19.9101 19.9243 19.9386 19.9529 19.9529 19.9529 19.9815
19.9815 19.9886 19.9958 20.0029 20.0101 20.0243 20.0243 20.0243 20.0386
20.0458 20.0529 20.0601 20.0672 20.0743 20.0815 20.0886 20.0958 20.1029
20.1101 20.1196 20.1291 20.1386 20.1529 20.1672 20.172 20.1767 20.1815
20.1958 20.3386;
#X coords 0 1 255 -1 200 140 1 0 0;
#X restore 584 92 graph;
#N canvas 65 82 450 300 (subpatch) 0;
#X array humidite 256 float 1;
#A 0 19.25 19.25 19.25 19.25 19.25 19.2643 19.2643 19.2643 19.2643
19.2643 19.2786 19.2786 19.2929 19.2929 19.2929 19.2929 19.3071 19.3071
19.3071 19.3214 19.3214 19.3214 19.3286 19.3357 19.3357 19.35 19.3643
19.3643 19.3643 19.3786 19.3929 19.3929 19.4071 19.4214 19.4357 19.45
19.45 19.4643 19.4786 19.4929 19.5 19.5214 19.5357 19.55 19.5643 19.5786
19.6071 19.6214 19.6357 19.65 19.65 19.65 19.6929 19.7357 19.7357 19.75
19.7643 19.7786 19.8071 19.8071 19.8214 19.8214 19.8357 19.8643 19.8643
19.8786 19.8929 19.9214 19.9214 19.9357 19.95 19.9643 19.9929 20 20.0214
20.0357 20.0643 20.0929 20.0929 20.1214 20.1357 20.15 20.1571 20.1643
20.1786 20.1929 20.2071 20.2143 20.2214 20.2357 20.25 20.25 20.2643
20.2786 20.2786 20.2786 20.2857 20.2929 20.3071 20.3071 20.3214 20.3214
20.3214 20.3357 20.3357 20.3429 20.35 20.35 20.3643 20.3643 20.3714
20.3786 20.3786 20.3786 20.3786 20.3786 20.3786 20.3929 20.3929 20.3929
20.3929 20.3929 20.3929 20.3929 20.3929 20.3929 20.3929 20.3929 20.3929
20.3929 20.3929 20.3929 20.3929 20.3929 20.3929 20.3929 20.3929 20.3929
20.3929 20.3929 20.3929 20.3929 20.3929 20.3929 20.3929 20.3929 20.3929
20.3857 20.3786 20.3786 20.3786 20.3643 20.3643 20.3643 20.3643 20.35
20.3429 20.3357 20.3357 20.3214 20.3071 20.3071 20.3071 20.3071 20.2786
20.2786 20.2714 20.2643 20.25 20.2357 20.2357 20.2214 20.1929 20.1786
20.1643 20.1571 20.15 20.1214 20.1214 20.0929 20.0929 20.0929 20.0786
20.0786 20.0786 20.0643 20.05 20.05 20.0357 20.0357 20.0214 20.0214
19.9929 19.9929 19.9929 19.9786 19.9643 19.9643 19.9571 19.95 19.9357
19.9214 19.9071 19.9071 19.9071 19.8929 19.8929 19.8929 19.8786 19.8643
19.8643 19.85 19.85 19.8357 19.8357 19.8214 19.8214 19.8214 19.8214
19.8214 19.8214 19.8214 19.8214 19.8071 19.8071 19.8071 19.8071 19.8071
19.8071 19.8071 19.8071 19.8071 19.8071 19.8071 19.8071 19.8071 19.8071
19.8071 19.8071 19.8071 19.8071 19.8071 19.8071 19.8071 19.8071 19.8071
19.8071 19.8071 19.8071 19.8071 19.8071 19.8071 19.8071 19.8071 19.8071
19.8357;
#X coords 0 1 255 -1 200 140 1 0 0;
#X restore 584 247 graph;
#X obj 165 447 tabread temperature;
#X obj 165 399 compt;
#X obj 165 423 moses 256;
#X msg 165 527 tmpvl: \$1 \;;
#X msg 237 526 tmpvr: \$1 \;;
#X obj 360 673 outlet;
#X obj 195 498 -;
#X obj 165 472 t f f f;
#X obj 310 398 compt;
#X obj 340 497 -;
#X obj 310 471 t f f f;
#X obj 457 397 compt;
#X obj 487 496 -;
#X obj 457 470 t f f f;
#X msg 310 526 lgtvl: \$1 \;;
#X msg 382 526 lgtvr: \$1 \;;
#X msg 457 525 hmdvl: \$1 \;;
#X obj 310 446 tabread lumiere;
#X obj 457 445 tabread humidite;
#X obj 164 340 metro 100;
#X obj 310 339 metro 100;
#X obj 457 339 metro 100;
#X obj 361 286 r netprio;
#X msg 361 312 stop;
#X obj 508 285 r netprio;
#X msg 508 311 stop;
#X obj 215 287 r netprio;
#X msg 215 313 stop;
#X obj 310 422 moses 257;
#X obj 406 210 moses 256;
#X obj 457 421 moses 256;
#X obj 113 209 moses 256;
#X obj 259 209 moses 256;
#X msg 529 524 hmdvr: \$1 \;;
#X connect 0 0 1 0;
#X connect 1 0 6 0;
#X connect 1 1 15 0;
#X connect 1 2 22 0;
#X connect 2 0 3 0;
#X connect 3 0 10 0;
#X connect 3 1 2 1;
#X connect 3 2 5 0;
#X connect 4 0 2 0;
#X connect 5 0 4 1;
#X connect 6 0 4 0;
#X connect 6 1 2 1;
#X connect 7 0 60 0;
#X connect 10 0 8 0;
#X connect 10 1 7 0;
#X connect 11 0 12 0;
#X connect 12 0 17 0;
#X connect 12 1 11 1;
#X connect 12 2 14 0;
#X connect 13 0 11 0;
#X connect 14 0 13 1;
#X connect 15 0 13 0;
#X connect 15 1 11 1;
#X connect 16 0 61 0;
#X connect 17 0 25 0;
#X connect 17 1 16 0;
#X connect 18 0 19 0;
#X connect 19 0 24 0;
#X connect 19 1 18 1;
#X connect 19 2 21 0;
#X connect 20 0 18 0;
#X connect 21 0 20 1;
#X connect 22 0 20 0;
#X connect 22 1 18 1;
#X connect 23 0 58 0;
#X connect 24 0 26 0;
#X connect 24 1 23 0;
#X connect 29 0 36 0;
#X connect 30 0 31 0;
#X connect 31 0 29 0;
#X connect 31 1 30 1;
#X connect 32 0 34 0;
#X connect 33 0 34 0;
#X connect 35 0 33 0;
#X connect 36 0 32 0;
#X connect 36 1 35 1;
#X connect 36 2 35 0;
#X connect 37 0 57 0;
#X connect 38 0 44 0;
#X connect 39 0 43 0;
#X connect 39 1 38 1;
#X connect 39 2 38 0;
#X connect 40 0 59 0;
#X connect 41 0 62 0;
#X connect 42 0 45 0;
#X connect 42 1 41 1;
#X connect 42 2 41 0;
#X connect 43 0 34 0;
#X connect 44 0 34 0;
#X connect 45 0 34 0;
#X connect 46 0 39 0;
#X connect 47 0 42 0;
#X connect 48 0 30 0;
#X connect 49 0 37 0;
#X connect 50 0 40 0;
#X connect 51 0 52 0;
#X connect 52 0 49 0;
#X connect 53 0 54 0;
#X connect 54 0 50 0;
#X connect 55 0 56 0;
#X connect 56 0 48 0;
#X connect 57 0 46 0;
#X connect 57 1 37 1;
#X connect 58 0 26 1;
#X connect 58 1 23 1;
#X connect 58 1 50 0;
#X connect 59 0 47 0;
#X connect 59 1 40 1;
#X connect 60 0 8 1;
#X connect 60 1 48 0;
#X connect 60 1 7 1;
#X connect 61 0 25 1;
#X connect 61 1 16 1;
#X connect 61 1 49 0;
#X connect 62 0 34 0;
#X restore 740 197 pd traiterMessage;
#X obj 276 265 print [capteur inconnu];
#X floatatom 46 260 5 0 0 0 - - -;
#X floatatom 138 260 5 0 0 0 - - -;
#X floatatom 92 260 5 0 0 0 - - -;
#X floatatom 0 260 5 0 0 0 - - -;
#X floatatom -45 259 5 0 0 0 - - -;
#X floatatom 184 261 5 0 0 0 - - -;
#X obj -45 231 route lgtvl: lgtvr: tmpvl: tmpvr: hmdvl: hmdvr: delay:
;
#X obj 230 262 bng 15 250 50 0 empty empty empty 17 7 0 10 -262144
-1 -1;
#X msg 6 131 delay:1000;
#X obj 1061 265 print [capteur inconnu];
#X floatatom 831 260 5 0 0 0 - - -;
#X floatatom 923 260 5 0 0 0 - - -;
#X floatatom 877 260 5 0 0 0 - - -;
#X floatatom 785 260 5 0 0 0 - - -;
#X floatatom 740 259 5 0 0 0 - - -;
#X floatatom 969 261 5 0 0 0 - - -;
#X obj 740 231 route lgtvl: lgtvr: tmpvl: tmpvr: hmdvl: hmdvr: delay:
;
#X obj 1015 262 bng 15 250 50 0 empty empty empty 17 7 0 10 -262144
-1 -1;
#N canvas 2760 502 450 300 diffusion 0;
#X obj 192 -68 inlet~;
#X obj 205 195 dac~;
#X obj 191 127 *~ 1;
#X obj 242 -68 loadbang;
#X obj 242 -38 vsl 15 128 0 1 0 0 empty empty empty 0 -9 0 10 -262144
-1 -1 0 1;
#X msg 242 102 1;
#X connect 0 0 2 0;
#X connect 2 0 1 0;
#X connect 2 0 1 1;
#X connect 3 0 4 0;
#X connect 4 0 5 0;
#X connect 5 0 2 1;
#X restore 481 618 pd diffusion;
#N canvas 1369 530 450 300 reception_modification 0;
#X obj 180 61 netreceive 4343;
#X floatatom 267 96 5 0 0 0 - - -;
#X obj 197 248 msgfile;
#X obj 267 124 moses 1;
#X obj 180 94 t b b b a;
#X msg 197 162 add;
#X msg 197 116 set add;
#X msg 267 217 clear;
#X obj 267 194 bng 15 250 50 0 empty empty empty 17 7 0 10 -262144
-1 -1;
#X msg 267 169 write creation.pd;
#X connect 0 0 4 0;
#X connect 0 1 1 0;
#X connect 1 0 3 0;
#X connect 3 0 9 0;
#X connect 4 1 6 0;
#X connect 4 2 5 0;
#X connect 4 3 5 0;
#X connect 5 0 2 0;
#X connect 6 0 5 0;
#X connect 7 0 2 0;
#X connect 8 0 7 0;
#X connect 9 0 2 0;
#X connect 9 0 8 0;
#X restore 1328 112 pd reception_modification boite;
#N canvas 65 102 927 998 synthese 1;
#X obj 409 38 inlet;
#X obj 464 38 inlet;
#X obj 515 38 inlet;
#X obj 571 38 inlet;
#X obj 625 38 inlet;
#X obj 677 38 inlet;
#X obj 354 428 outlet~;
#X obj 31 45 inlet;
#X text 119 0 micro;
#X obj 97 45 inlet;
#X obj 154 45 inlet;
#X obj 205 45 inlet;
#N canvas 0 0 450 300 (subpatch) 0;
#X array visu 441 float 3;
#A 0 0 0 0 0 0 0 0 0 0 0 0 0 0 0 0 0 0 0 0 0 0 0 0 0 0 0 0 0 0 0 0
0 0 0 0 0 0 0 0 0 0 0 0 0 0 0 0 0 0 0 0 0 0 0 0 0 0 0 0 0 0 0 0 0 0
0 0 0 0 0 0 0 0 0 0 0 0 0 0 0 0 0 0 0 0 0 0 0 0 0 0 0 0 0 0 0 0 0 0
0 0 0 0 0 0 0 0 0 0 0 0 0 0 0 0 0 0 0 0 0 0 0 0 0 0 0 0 0 0 0 0 0 0
0 0 0 0 0 0 0 0 0 0 0 0 0 0 0 0 0 0 0 0 0 0 0 0 0 0 0 0 0 0 0 0 0 0
0 0 0 0 0 0 0 0 0 0 0 0 0 0 0 0 0 0 0 0 0 0 0 0 0 0 0 0 0 0 0 0 0 0
0 0 0 0 0 0 0 0 0 0 0 0 0 0 0 0 0 0 0 0 0 0 0 0 0 0 0 0 0 0 0 0 0 0
0 0 0 0 0 0 0 0 0 0 0 0 0 0 0 0 0 0 0 0 0 0 0 0 0 0 0 0 0 0 0 0 0 0
0 0 0 0 0 0 0 0 0 0 0 0 0 0 0 0 0 0 0 0 0 0 0 0 0 0 0 0 0 0 0 0 0 0
0 0 0 0 0 0 0 0 0 0 0 0 0 0 0 0 0 0 0 0 0 0 0 0 0 0 0 0 0 0 0 0 0 0
0 0 0 0 0 0 0 0 0 0 0 0 0 0 0 0 0 0 0 0 0 0 0 0 0 0 0 0 0 0 0 0 0 0
0 0 0 0 0 0 0 0 0 0 0 0 0 0 0 0 0 0 0 0 0 0 0 0 0 0 0 0 0 0 0 0 0 0
0 0 0 0 0 0 0 0 0 0 0 0 0 0 0 0 0 0 0 0 0 0 0 0 0 0 0 0 0 0 0 0 0 0
0 0;
#X coords 0 1 440 -1 200 140 1;
#X restore 648 202 graph;
#X obj 525 338 metro 100;
#X obj 525 315 tgl 15 0 empty empty empty 17 7 0 10 -262144 -1 -1 1
1;
#X obj 525 290 loadbang;
#X obj 525 361 tabwrite~ visu;
#X text 144 15 cmpt note;
#X text 195 27 band freq;
#X text 5 11 pattern rythme;
#X text 62 24 pattern melodie;
#X text 409 14 lgtvl;
#X text 464 15 lgtvr;
#X text 514 14 tmpvl;
#X text 627 13 hmdvl;
#X text 682 14 hmdvr;
#X text 569 13 tmpvr;
#N canvas 589 82 927 998 creation_son 0;
#X obj 230 72 inlet;
#X text 193 46 pathern melodique;
#X obj 361 68 inlet;
#X obj 482 697 outlet~;
#X text 350 49 compt note;
#X obj 471 71 inlet;
#X text 455 46 val lumiere;
#X text 557 45 var lumiere;
#X obj 575 75 inlet;
#X obj 420 531 env~;
#X floatatom 411 560 5 0 0 0 - - -;
#X obj 469 148 * 10;
#X floatatom 575 219 5 0 0 0 - - -;
#X floatatom 446 244 5 0 0 0 - - -;
#X floatatom 526 305 5 0 0 0 - - -;
#X obj 722 72 inlet;
#X obj 459 448 *~;
#X obj 503 398 / 50;
#X obj 526 269 +;
#X obj 575 191 * 100;
#X floatatom 722 108 5 0 0 0 - - -;
#X floatatom 505 429 5 0 0 0 - - -;
#X obj 484 339 osc~ 440;
#X obj 364 323 osc~ 440;
#X obj 146 161 bng 15 250 50 0 empty empty empty 17 7 0 10 -262144
-1 -1;
#X obj 167 231 list append;
#X obj 167 259 list split 1;
#X obj 159 206 bng 15 250 50 0 empty empty empty 17 7 0 10 -262144
-1 -1;
#X obj 154 301 +;
#X floatatom 132 230 5 0 0 0 - - -;
#X obj 187 205 r suiv_note;
#X obj 154 345 mtof;
#X floatatom 172 325 5 0 0 0 - - -;
#X floatatom 154 367 5 0 0 0 - - -;
#X obj 469 172 +;
#X obj 146 184 shuffle 30 80;
#X obj 436 489 *~;
#X obj 10 269 s suiv_note;
#X obj -29 276 bng 15 250 50 0 empty empty empty 17 7 0 10 -262144
-1 -1;
#X obj 10 219 t b f;
#X floatatom -41 232 5 0 0 0 - - -;
#X obj 10 180 bng 15 250 50 0 empty empty empty 17 7 0 10 -262144 -1
-1;
#X obj 10 245 metro 100;
#X obj 10 200 shuffle 800 1600;
#X obj 236 283 s fin_note;
#X obj 275 136 r fin_note;
#X text 718 47 val humd;
#X obj 795 68 inlet;
#X floatatom 795 105 5 0 0 0 - - -;
#X text 791 43 var humd;
#X obj 795 124 + 200;
#X floatatom 795 145 5 0 0 0 - - -;
#X obj 481 218 +;
#X symbolatom 264 181 10 0 0 0 - - -;
#X obj 264 159 tosymbol;
#X obj 264 204 fromsymbol;
#X connect 0 0 25 1;
#X connect 0 0 24 0;
#X connect 0 0 54 0;
#X connect 5 0 11 0;
#X connect 8 0 19 0;
#X connect 9 0 10 0;
#X connect 11 0 34 0;
#X connect 12 0 18 1;
#X connect 15 0 17 0;
#X connect 15 0 20 0;
#X connect 16 0 36 1;
#X connect 17 0 16 1;
#X connect 17 0 21 0;
#X connect 18 0 14 0;
#X connect 18 0 22 0;
#X connect 19 0 12 0;
#X connect 22 0 16 0;
#X connect 23 0 36 0;
#X connect 24 0 35 0;
#X connect 24 0 41 0;
#X connect 25 0 26 0;
#X connect 26 0 28 0;
#X connect 26 1 25 1;
#X connect 26 2 44 0;
#X connect 27 0 25 0;
#X connect 28 0 31 0;
#X connect 28 0 32 0;
#X connect 29 0 28 1;
#X connect 30 0 25 0;
#X connect 31 0 33 0;
#X connect 33 0 34 1;
#X connect 34 0 13 0;
#X connect 34 0 23 0;
#X connect 34 0 52 0;
#X connect 35 0 27 0;
#X connect 35 0 29 0;
#X connect 36 0 9 0;
#X connect 36 0 3 0;
#X connect 39 0 42 0;
#X connect 39 1 42 1;
#X connect 41 0 43 0;
#X connect 42 0 37 0;
#X connect 42 0 38 0;
#X connect 43 0 39 0;
#X connect 43 0 40 0;
#X connect 45 0 53 0;
#X connect 47 0 48 0;
#X connect 48 0 50 0;
#X connect 50 0 51 0;
#X connect 51 0 52 1;
#X connect 52 0 18 0;
#X connect 53 0 55 0;
#X connect 54 0 53 0;
#X connect 55 0 25 0;
#X restore 374 125 pd creation_son;
#N canvas 964 212 648 748 rythme 0;
#X obj 159 -15 inlet~;
#X obj 159 498 outlet~;
#X obj 329 -63 inlet;
#X obj 209 8 bng 15 250 50 0 empty empty empty 17 7 0 10 -262144 -1
-1;
#X floatatom 209 127 5 0 0 0 - - -;
#X obj 323 217 list append;
#X obj 266 197 list split 1;
#X obj 326 195 bng 15 250 50 0 empty empty empty 17 7 0 10 -262144
-1 -1;
#X obj 229 226 *;
#X obj 247 314 delay 100;
#X obj 229 250 t b b f;
#X obj 257 361 delay 900;
#X obj 292 118 r suiv;
#X obj 257 395 s suiv;
#X obj 335 233 s fin;
#X msg 440 70 1;
#X obj 440 19 t b f;
#X obj 440 -61 inlet;
#X obj 440 -39 bng 15 250 50 0 empty empty empty 17 7 0 10 -262144
-1 -1;
#X text 439 -80 bang;
#X obj 439 105 t b f;
#X obj 440 45 delay;
#X obj 209 49 t b f;
#X obj 209 70 delay;
#X obj 209 28 shuffle 500 2000;
#X obj 440 -9 shuffle 500 2000;
#X obj 266 168 shuffle 900 2000;
#X obj 298 293 * 0.5;
#X obj 314 333 * 0.5;
#X obj 159 439 *~;
#X obj 184 392 line~;
#X msg 198 314 1 100;
#X msg 214 359 0 100;
#X connect 0 0 29 0;
#X connect 2 0 3 0;
#X connect 2 0 5 1;
#X connect 3 0 24 0;
#X connect 4 0 8 1;
#X connect 5 0 6 0;
#X connect 6 0 8 0;
#X connect 6 1 5 1;
#X connect 6 2 14 0;
#X connect 7 0 5 0;
#X connect 8 0 10 0;
#X connect 9 0 11 0;
#X connect 9 0 32 0;
#X connect 10 0 31 0;
#X connect 10 1 9 0;
#X connect 10 2 27 0;
#X connect 10 2 28 0;
#X connect 11 0 13 0;
#X connect 12 0 5 0;
#X connect 15 0 20 0;
#X connect 16 0 21 0;
#X connect 16 1 21 1;
#X connect 17 0 18 0;
#X connect 18 0 25 0;
#X connect 20 0 5 0;
#X connect 20 1 5 1;
#X connect 21 0 15 0;
#X connect 22 0 23 0;
#X connect 22 1 23 1;
#X connect 23 0 26 0;
#X connect 24 0 22 0;
#X connect 25 0 16 0;
#X connect 26 0 4 0;
#X connect 26 0 7 0;
#X connect 27 0 9 1;
#X connect 28 0 11 1;
#X connect 29 0 1 0;
#X connect 30 0 29 1;
#X connect 31 0 30 0;
#X connect 32 0 30 0;
#X restore 353 207 pd rythme;
#X obj 301 38 inlet;
#X text 302 20 bang;
#X msg 419 164 1 0.3 0.3 0.3 2 0.5 0.5 0.75 0.25;
#X msg 79 124 0 7 5 4 2;
#X connect 0 0 27 2;
#X connect 1 0 27 3;
#X connect 4 0 27 4;
#X connect 5 0 27 5;
#X connect 7 0 28 1;
#X connect 9 0 27 0;
#X connect 10 0 27 1;
#X connect 13 0 16 0;
#X connect 14 0 13 0;
#X connect 15 0 14 0;
#X connect 27 0 28 0;
#X connect 28 0 6 0;
#X connect 28 0 16 0;
#X connect 29 0 28 2;
#X connect 31 0 28 1;
#X connect 32 0 27 0;
#X restore 480 489 pd synthese;
#X connect 0 0 8 0;
#X connect 1 0 0 0;
#X connect 2 0 0 0;
#X connect 3 0 14 0;
#X connect 3 1 5 0;
#X connect 4 0 12 0;
#X connect 5 0 7 0;
#X connect 7 0 9 0;
#X connect 8 0 22 0;
#X connect 10 0 8 1;
#X connect 11 0 36 0;
#X connect 11 1 36 1;
#X connect 11 2 36 2;
#X connect 11 3 36 3;
#X connect 11 4 36 4;
#X connect 12 0 11 0;
#X connect 13 0 12 1;
#X connect 14 0 32 0;
#X connect 16 0 36 7;
#X connect 17 0 36 9;
#X connect 18 0 36 8;
#X connect 19 0 36 6;
#X connect 20 0 36 5;
#X connect 21 0 36 10;
#X connect 22 0 20 0;
#X connect 22 1 19 0;
#X connect 22 2 16 0;
#X connect 22 3 18 0;
#X connect 22 4 17 0;
#X connect 22 5 21 0;
#X connect 22 6 23 0;
#X connect 22 7 15 0;
#X connect 24 0 0 1;
#X connect 26 0 36 7;
#X connect 27 0 36 9;
#X connect 28 0 36 8;
#X connect 29 0 36 6;
#X connect 30 0 36 5;
#X connect 31 0 36 10;
#X connect 32 0 30 0;
#X connect 32 1 29 0;
#X connect 32 2 26 0;
#X connect 32 3 28 0;
#X connect 32 4 27 0;
#X connect 32 5 31 0;
#X connect 32 6 33 0;
#X connect 32 7 25 0;
#X connect 36 0 34 0;
