#N canvas 336 82 802 998 10;
#X obj 30 551 cnv 15 552 21 empty \$0-pddp.cnv.footer empty 20 12 0
14 -228856 -66577 0;
#X obj 32 32 cnv 15 552 40 empty \$0-pddp.cnv.header Moyenne 3 12 0
18 -204280 -1 0;
#X obj 30 270 cnv 3 550 3 empty \$0-pddp.cnv.inlets inlets 8 12 0 13
-228856 -1 0;
#X obj 30 374 cnv 3 550 3 empty \$0-pddp.cnv.outlets outlets 8 12 0
13 -228856 -1 0;
#X obj 30 416 cnv 3 550 3 empty \$0-pddp.cnv.argument arguments 8 12
0 13 -228856 -1 0;
#X obj 30 479 cnv 3 550 3 empty \$0-pddp.cnv.more_info more_info 8
12 0 13 -228856 -1 0;
#X obj 108 383 cnv 17 3 17 empty \$0-pddp.cnv.let.0 0 5 9 0 16 -228856
-162280 0;
#X obj 108 279 cnv 17 3 35 empty \$0-pddp.cnv.let.0 0 5 9 0 16 -228856
-162280 0;
#X obj 108 321 cnv 17 3 35 empty \$0-pddp.cnv.let.1 1 5 9 0 16 -228856
-162280 0;
#X obj 135 192 bng 15 250 50 0 empty empty empty 17 7 0 10 -262144
-1 -1;
#X obj 112 442 cnv 17 3 17 empty \$0-pddp.cnv.let.0 0 5 9 0 16 -228856
-162280 0;
#X text 132 441 (none);
#X text 128 383 (nombre);
#X text 128 319 bang;
#X text 141 488 This module was create by Pierre Mahé during Projet
Master Degree. Any question \, mahe.pierre@live.fr;
#X obj 520 44 moyenne;
#X obj 125 164 moyenne;
#X obj 125 216 print [moyenne];
#X msg 60 128 10;
#X msg 93 128 20;
#X text 42 53 Make average of;
#X text 128 277 numbre;
#X text 198 276 -differante value for average;
#X text 202 361;
#X text 197 382 - value of average;
#X text 203 318 -set nomber of value in average . Attention: first
average after set value is false;
#X msg 164 128 3;
#X msg 125 128 30;
#X connect 16 0 9 0;
#X connect 16 0 17 0;
#X connect 18 0 16 0;
#X connect 19 0 16 0;
#X connect 26 0 16 1;
#X connect 27 0 16 0;
