#N canvas 421 114 541 461 10;
#X obj 73 46 inlet;
#X obj 280 10 inlet;
#X obj 116 134 +;
#X obj 164 163 f;
#X floatatom 115 174 5 0 0 0 - - -;
#X obj 258 81 compt;
#X msg 179 132 0;
#X msg 73 116 1;
#X msg 42 126 3;
#X msg 157 45 10;
#X obj 194 254 /;
#X obj 280 40 t b b f f;
#X obj 203 291 outlet;
#X floatatom 157 341 5 0 0 0 - - -;
#X obj 262 107 moses;
#X obj 190 215 f;
#X obj 227 183 bng 15 250 50 0 empty empty empty 17 7 0 10 -262144
-1 -1;
#X obj 302 79 - 1;
#X connect 0 0 2 0;
#X connect 1 0 11 0;
#X connect 2 0 3 0;
#X connect 2 0 4 0;
#X connect 2 0 5 0;
#X connect 3 0 2 1;
#X connect 4 0 15 1;
#X connect 5 0 14 0;
#X connect 6 0 3 0;
#X connect 7 0 2 0;
#X connect 8 0 2 0;
#X connect 9 0 11 0;
#X connect 10 0 12 0;
#X connect 10 0 13 0;
#X connect 11 0 6 0;
#X connect 11 1 5 3;
#X connect 11 2 17 0;
#X connect 11 3 10 1;
#X connect 14 1 16 0;
#X connect 14 1 5 1;
#X connect 14 1 6 0;
#X connect 15 0 10 0;
#X connect 16 0 15 0;
#X connect 17 0 14 1;
