#N canvas 186 288 450 319 10;
#X floatatom 35 223 5 0 0 0 - - -;
#X floatatom 35 111 5 0 0 0 - - -;
#X floatatom 110 111 5 0 0 0 - - -;
#X obj 35 147 div 1;
#X obj 73 147 mod 1;
#X floatatom 95 199 5 0 0 0 - - delta_t_modulo;
#X obj 110 79 r time_base;
#N canvas 675 203 450 559 dispatch 1;
#N canvas 1192 204 585 558 note_durations 1;
#X obj 23 10 r beat;
#X msg 23 38 \; note_duration 1;
#X obj 23 74 r 15_16th;
#X msg 23 102 \; note_duration 0.9375;
#X obj 23 138 r 7_8th;
#X msg 23 166 \; note_duration 0.875;
#X obj 23 202 r 5_6th;
#X msg 23 230 \; note_duration 0.8333;
#X obj 24 265 r 13_16th;
#X msg 23 293 \; note_duration 0.8125;
#X obj 23 329 r 3_4th;
#X msg 23 357 \; note_duration 0.75;
#X obj 23 393 r 11_16th;
#X msg 23 421 \; note_duration 0.6875;
#X obj 23 457 r 2_3rd;
#X msg 23 485 \; note_duration 0.6667;
#X obj 164 10 r 5_8th;
#X msg 164 38 \; note_duration 0.625;
#X obj 164 74 r 9_16th;
#X msg 164 102 \; note_duration 0.5625;
#X obj 164 138 r half;
#X msg 164 166 \; note_duration 0.5;
#X obj 164 202 r 7_16th;
#X msg 164 230 \; note_duration 0.4375;
#X obj 164 265 r 3_8th;
#X msg 164 293 \; note_duration 0.375;
#X obj 164 329 r 1_3rd;
#X msg 164 357 \; note_duration 0.3333;
#X obj 164 393 r 5_16th;
#X msg 164 421 \; note_duration 0.3125;
#X obj 164 457 r 1_4th;
#X msg 164 485 \; note_duration 0.25;
#X obj 305 10 r 3_16th;
#X msg 305 38 \; note_duration 0.1875;
#X obj 305 74 r 1_6th;
#X msg 305 102 \; note_duration 0.1667;
#X obj 305 138 r 1_8th;
#X msg 305 166 \; note_duration 0.125;
#X obj 305 202 r 1_16th;
#X msg 305 230 \; note_duration 0.0625;
#X obj 305 265 r negligeable;
#X msg 305 293 \; note_duration 0;
#X connect 0 0 1 0;
#X connect 2 0 3 0;
#X connect 4 0 5 0;
#X connect 6 0 7 0;
#X connect 8 0 9 0;
#X connect 10 0 11 0;
#X connect 12 0 13 0;
#X connect 14 0 15 0;
#X connect 16 0 17 0;
#X connect 18 0 19 0;
#X connect 20 0 21 0;
#X connect 22 0 23 0;
#X connect 24 0 25 0;
#X connect 26 0 27 0;
#X connect 28 0 29 0;
#X connect 30 0 31 0;
#X connect 32 0 33 0;
#X connect 34 0 35 0;
#X connect 36 0 37 0;
#X connect 38 0 39 0;
#X connect 40 0 41 0;
#X restore 200 68 pd note_durations;
#X floatatom 26 25 5 0 1 0 - delta_t_modulo -;
#X obj 22 69 moses 0.96;
#X obj 96 71 bng 15 250 50 0 beat empty beat 17 7 0 10 -262144 -1 -1
;
#X obj 96 93 bng 15 250 50 0 15_16th empty 15_16th 17 7 0 10 -262144
-1 -1;
#X obj 96 114 bng 15 250 50 0 7_8th empty 7_8th 17 7 0 10 -262144 -1
-1;
#X obj 96 137 bng 15 250 50 0 5_6th empty 5_6th 17 7 0 10 -262144 -1
-1;
#X obj 96 158 bng 15 250 50 0 13_16th empty 13_16th 17 7 0 10 -262144
-1 -1;
#X obj 96 180 bng 15 250 50 0 3_4th empty 3_4th 17 7 0 10 -262144 -1
-1;
#X obj 96 202 bng 15 250 50 0 11_16th empty 11_16th 17 7 0 10 -262144
-1 -1;
#X obj 96 224 bng 15 250 50 0 2_3rd empty 2_3rd 17 7 0 10 -262144 -1
-1;
#X obj 22 91 moses 0.906;
#X obj 22 113 moses 0.854;
#X obj 22 135 moses 0.823;
#X obj 22 157 moses 0.781;
#X obj 22 179 moses 0.719;
#X obj 22 201 moses 0.677;
#X obj 22 223 moses 0.646;
#X obj 96 246 bng 15 250 50 0 5_8th empty 5_8th 17 7 0 10 -262144 -1
-1;
#X obj 96 268 bng 15 250 50 0 9_16th empty 9_16th 17 7 0 10 -262144
-1 -1;
#X obj 96 290 bng 15 250 50 0 half empty half 17 7 0 10 -262144 -1
-1;
#X obj 96 312 bng 15 250 50 0 7_16th empty 7_16th 17 7 0 10 -262144
-1 -1;
#X obj 96 334 bng 15 250 50 0 3_8th empty 3_8th 17 7 0 10 -262144 -1
-1;
#X obj 96 355 bng 15 250 50 0 1_3rd empty 1_3rd 17 7 0 10 -262144 -1
-1;
#X obj 96 377 bng 15 250 50 0 5_16th empty 5_16th 17 7 0 10 -262144
-1 -1;
#X obj 96 399 bng 15 250 50 0 1_4th empty 1_4th 17 7 0 10 -262144 -1
-1;
#X obj 22 245 moses 0.594;
#X obj 22 267 moses 0.531;
#X obj 22 289 moses 0.469;
#X obj 22 311 moses 0.406;
#X obj 22 333 moses 0.354;
#X obj 22 355 moses 0.323;
#X obj 22 377 moses 0.281;
#X obj 22 399 moses 0.219;
#X obj 96 420 bng 15 250 50 0 3_16th empty 3_16th 17 7 0 10 -262144
-1 -1;
#X obj 96 442 bng 15 250 50 0 1_6th empty 1_6th 17 7 0 10 -262144 -1
-1;
#X obj 96 464 bng 15 250 50 0 1_8th empty 1_8th 17 7 0 10 -262144 -1
-1;
#X obj 96 487 bng 15 250 50 0 1_16th empty 1_16th 17 7 0 10 -262144
-1 -1;
#X obj 22 509 bng 15 250 50 0 negligeable empty negligeable 17 7 0
10 -262144 -1 -1;
#X obj 22 421 moses 0.177;
#X obj 22 442 moses 0.146;
#X obj 22 464 moses 0.094;
#X obj 22 486 moses 0.031;
#X floatatom 287 247 7 0 0 0 note_duration note_duration delta_t_modulo_norm
;
#X obj 63 27 hsl 128 15 0 1 0 0 empty empty empty -2 -8 0 10 -262144
-1 -1 12700 1;
#X connect 1 0 2 0;
#X connect 2 0 11 0;
#X connect 2 1 3 0;
#X connect 11 0 12 0;
#X connect 11 1 4 0;
#X connect 12 0 13 0;
#X connect 12 1 5 0;
#X connect 13 0 14 0;
#X connect 13 1 6 0;
#X connect 14 0 15 0;
#X connect 14 1 7 0;
#X connect 15 0 16 0;
#X connect 15 1 8 0;
#X connect 16 0 17 0;
#X connect 16 1 9 0;
#X connect 17 0 26 0;
#X connect 17 1 10 0;
#X connect 26 0 27 0;
#X connect 26 1 18 0;
#X connect 27 0 28 0;
#X connect 27 1 19 0;
#X connect 28 0 29 0;
#X connect 28 1 20 0;
#X connect 29 0 30 0;
#X connect 29 1 21 0;
#X connect 30 0 31 0;
#X connect 30 1 22 0;
#X connect 31 0 32 0;
#X connect 31 1 23 0;
#X connect 32 0 33 0;
#X connect 32 1 24 0;
#X connect 33 0 39 0;
#X connect 33 1 25 0;
#X connect 39 0 40 0;
#X connect 39 1 34 0;
#X connect 40 0 41 0;
#X connect 40 1 35 0;
#X connect 41 0 42 0;
#X connect 41 1 36 0;
#X connect 42 0 38 0;
#X connect 42 1 37 0;
#X connect 44 0 2 0;
#X restore 216 41 pd dispatch;
#X obj 57 251 +;
#X floatatom 89 223 5 0 0 0 - delta_t_modulo_norm -;
#X obj 95 175 / 1;
#X floatatom 35 26 5 0 0 0 - indice -;
#X obj 35 50 tabread delta_t;
#X obj 57 277 tabwrite delta_t_norm;
#X floatatom 180 253 5 0 0 0 - indice -;
#X connect 0 0 8 0;
#X connect 1 0 3 0;
#X connect 1 0 4 0;
#X connect 2 0 3 1;
#X connect 2 0 4 1;
#X connect 2 0 10 1;
#X connect 3 0 0 0;
#X connect 4 0 10 0;
#X connect 6 0 2 0;
#X connect 8 0 13 0;
#X connect 9 0 8 1;
#X connect 10 0 5 0;
#X connect 11 0 12 0;
#X connect 12 0 1 0;
#X connect 14 0 13 1;
