#N canvas 64 564 927 998 10;
#N canvas 65 92 927 998 Pduino 0;
#X obj 267 344 comport 9600;
#X obj 411 47 inlet;
#X obj 411 76 tosymbol;
#X obj 411 102 arduinoPack;
#X obj 195 459 print;
#X obj 70 30 inlet;
#X msg 70 200 devicename /dev/ttymxc3;
#X msg 70 156 devicename /dev/ttyACM1;
#X obj 70 105 t b b;
#X msg 116 133 close;
#X obj 70 63 route start stop;
#X obj 126 104 print [Pduino] Erreur: commande de demarage;
#X obj 267 403 arduinoUnPack;
#X obj 297 599 outlet;
#X text 364 643 un outlet pour chaque valeur ? ou il faudra faire le
routage ailleurs ?;
#X connect 0 0 12 0;
#X connect 1 0 2 0;
#X connect 2 0 3 0;
#X connect 3 0 0 0;
#X connect 5 0 10 0;
#X connect 7 0 0 0;
#X connect 8 0 7 0;
#X connect 8 0 6 0;
#X connect 8 1 9 0;
#X connect 9 0 0 0;
#X connect 10 0 8 0;
#X connect 10 1 9 0;
#X connect 10 2 11 0;
#X connect 12 0 4 0;
#X connect 12 0 13 0;
#X restore 107 180 pd Pduino;
#X msg 85 131 start;
#X msg 107 150 stop;
#X msg 158 148 delay:1000;
#N canvas 65 92 927 998 reception_web 0;
#X obj 384 83 netreceive 7913;
#X obj 471 120 outlet;
#X obj 364 126 outlet;
#X connect 0 0 2 0;
#X connect 0 1 1 0;
#X restore 556 153 pd reception_web;
#N canvas 1176 129 742 901 reception_micro 1;
#X obj 360 733 outlet~;
#X obj 356 121 adc~ 1;
#X obj 357 401 *~;
#X obj 409 234 vsl 15 128 0 1 0 0 empty empty empty 0 -9 0 10 -262144
-1 -1 0 1;
#X obj 409 165 loadbang;
#X obj 409 204 f;
#X msg 410 184 1;
#X obj 413 481 hsl 128 15 0 10000 0 0 empty empty empty -2 -8 0 10
-262144 -1 -1 6350 1;
#X floatatom 408 501 10 0 0 0 - - -;
#X obj 358 520 lop~;
#X obj 410 420 loadbang;
#X obj 409 461 f;
#X msg 411 442 5000;
#X obj 359 671 hip~;
#X obj 415 560 loadbang;
#X msg 415 582 100;
#X obj 415 603 f;
#X obj 418 625 hsl 128 15 0 10000 0 0 empty empty empty -2 -8 0 10
-262144 -1 -1 0 1;
#X floatatom 415 647 10 0 0 0 - - -;
#X connect 1 0 2 0;
#X connect 2 0 9 0;
#X connect 3 0 2 1;
#X connect 4 0 6 0;
#X connect 5 0 3 0;
#X connect 6 0 5 0;
#X connect 7 0 8 0;
#X connect 8 0 9 1;
#X connect 9 0 13 0;
#X connect 10 0 12 0;
#X connect 11 0 7 0;
#X connect 12 0 11 0;
#X connect 13 0 0 0;
#X connect 14 0 15 0;
#X connect 15 0 16 0;
#X connect 16 0 17 0;
#X connect 17 0 18 0;
#X connect 18 0 13 1;
#X restore 384 151 pd reception_micro;
#X floatatom 649 182 5 0 0 0 - - -;
#X text 674 161 nb connexions;
#X obj 107 259 route light lightvar temp tempvar;
#X obj 302 293 bng 15 250 50 0 empty empty empty 17 7 0 10 -262144
-1 -1;
#X obj 652 205 == 0;
#X obj 107 232 spigot;
#X obj 653 230 s netprio;
#N canvas 1287 592 450 300 analyse 0;
#X obj 116 91 outlet;
#X obj 129 31 inlet~;
#X restore 417 236 pd analyse;
#X obj 452 203 spigot~;
#X obj 140 203 r netprio;
#X obj 491 176 r netprio;
#X connect 0 0 11 0;
#X connect 1 0 0 0;
#X connect 2 0 0 0;
#X connect 3 0 0 1;
#X connect 4 1 6 0;
#X connect 5 0 13 0;
#X connect 6 0 10 0;
#X connect 8 4 9 0;
#X connect 10 0 12 0;
#X connect 11 0 8 0;
#X connect 15 0 11 1;
#X connect 16 0 14 1;
