#N canvas 65 82 927 998 10;
#X obj 347 109 loadbang;
#X obj 349 137 t b b b;
#X msg 406 171 debounce 0;
#X obj 352 241 bonk~;
#X obj 355 87 bng 15 250 50 0 empty empty empty 17 7 0 10 -262144 -1
-1;
#X obj 381 266 unpack f f;
#X obj 432 338 bng 15 250 50 0 empty empty empty 17 7 0 10 -262144
-1 -1;
#X obj 399 338 bng 15 250 50 0 empty empty empty 17 7 0 10 -262144
-1 -1;
#X obj 403 387 timer;
#X floatatom 403 430 5 0 0 0 - - -;
#X msg 469 329 bang;
#X obj 488 393 bng 15 250 50 0 empty empty empty 17 7 0 10 -262144
-1 -1;
#X obj 382 288 t f b b b b;
#X obj 648 243 f 0;
#X obj 684 242 + 1;
#X obj 648 217 bng 15 250 50 0 empty empty empty 17 7 0 10 -262144
-1 -1;
#X obj 652 266 t f f;
#X floatatom 635 311 5 0 0 0 - - -;
#X msg 680 207 0;
#X msg 516 332 stop;
#X obj 699 314 t b b f;
#X text 548 385 limite temps entre deux pics;
#X obj 490 416 t b b b b;
#X obj 569 513 bng 15 250 50 0 empty empty empty 17 7 0 10 -262144
-1 -1;
#X msg 534 516 set;
#X obj 380 546 bng 15 250 50 0 empty empty empty 17 7 0 10 -262144
-1 -1;
#X obj 322 554 bng 15 250 50 0 empty empty empty 17 7 0 10 -262144
-1 -1;
#X obj 363 470 pack f f f;
#X msg 236 586 add2 \$3 \$2;
#X obj 351 514 route 1;
#X msg 237 545 add2 \$1;
#X msg 349 491 \$2 \$1 \$3;
#X msg 626 552 add2 stop;
#X obj 611 511 bng 15 250 50 0 empty empty empty 17 7 0 10 -262144
-1 -1;
#X msg 368 213 minvel 10;
#X msg 380 193 thresh 20 80;
#X obj 487 362 delay 2000;
#X obj 655 287 moses 15;
#X obj 209 124 inlet~;
#X obj 374 819 bng 15 250 50 0 empty empty empty 17 7 0 10 -262144
-1 -1;
#X floatatom 348 878 5 0 0 0 - - -;
#X obj 335 912 bng 15 250 50 0 empty empty empty 17 7 0 10 -262144
-1 -1;
#X msg 318 1402 list 20 1/1 1/1 1/1 1/2 1/1 1/1 1/1;
#X obj 338 955 t b b;
#X msg 323 1005 set list;
#X obj 454 984 f;
#X obj 430 942 bng 15 250 50 0 empty empty empty 17 7 0 10 -262144
-1 -1;
#X obj 715 948 f;
#X floatatom 499 1023 5 0 0 0 - - -;
#X obj 421 910 moses 1;
#X obj 686 972 /;
#X obj 711 1040 moses 0.96;
#X obj 785 1042 bng 15 250 50 0 beat empty beat 17 7 0 10 -262144 -1
-1;
#X obj 785 1064 bng 15 250 50 0 15_16th empty 15_16th 17 7 0 10 -262144
-1 -1;
#X obj 785 1085 bng 15 250 50 0 7_8th empty 7_8th 17 7 0 10 -262144
-1 -1;
#X obj 785 1108 bng 15 250 50 0 5_6th empty 5_6th 17 7 0 10 -262144
-1 -1;
#X obj 785 1129 bng 15 250 50 0 13_16th empty 13_16th 17 7 0 10 -262144
-1 -1;
#X obj 785 1151 bng 15 250 50 0 3_4th empty 3_4th 17 7 0 10 -262144
-1 -1;
#X obj 785 1173 bng 15 250 50 0 11_16th empty 11_16th 17 7 0 10 -262144
-1 -1;
#X obj 785 1195 bng 15 250 50 0 2_3rd empty 2_3rd 17 7 0 10 -262144
-1 -1;
#X obj 711 1062 moses 0.906;
#X obj 711 1084 moses 0.854;
#X obj 711 1106 moses 0.823;
#X obj 711 1128 moses 0.781;
#X obj 711 1150 moses 0.719;
#X obj 711 1172 moses 0.677;
#X obj 711 1194 moses 0.646;
#X obj 785 1217 bng 15 250 50 0 5_8th empty 5_8th 17 7 0 10 -262144
-1 -1;
#X obj 785 1239 bng 15 250 50 0 9_16th empty 9_16th 17 7 0 10 -262144
-1 -1;
#X obj 785 1261 bng 15 250 50 0 half empty half 17 7 0 10 -262144 -1
-1;
#X obj 785 1283 bng 15 250 50 0 7_16th empty 7_16th 17 7 0 10 -262144
-1 -1;
#X obj 785 1305 bng 15 250 50 0 3_8th empty 3_8th 17 7 0 10 -262144
-1 -1;
#X obj 785 1326 bng 15 250 50 0 1_3rd empty 1_3rd 17 7 0 10 -262144
-1 -1;
#X obj 785 1348 bng 15 250 50 0 5_16th empty 5_16th 17 7 0 10 -262144
-1 -1;
#X obj 785 1370 bng 15 250 50 0 1_4th empty 1_4th 17 7 0 10 -262144
-1 -1;
#X obj 711 1216 moses 0.594;
#X obj 711 1238 moses 0.531;
#X obj 711 1260 moses 0.469;
#X obj 711 1282 moses 0.406;
#X obj 711 1304 moses 0.354;
#X obj 711 1326 moses 0.323;
#X obj 711 1348 moses 0.281;
#X obj 711 1370 moses 0.219;
#X obj 785 1391 bng 15 250 50 0 3_16th empty 3_16th 17 7 0 10 -262144
-1 -1;
#X obj 785 1413 bng 15 250 50 0 1_6th empty 1_6th 17 7 0 10 -262144
-1 -1;
#X obj 785 1435 bng 15 250 50 0 1_8th empty 1_8th 17 7 0 10 -262144
-1 -1;
#X obj 785 1458 bng 15 250 50 0 1_16th empty 1_16th 17 7 0 10 -262144
-1 -1;
#X obj 711 1480 bng 15 250 50 0 negligeable empty negligeable 17 7
0 10 -262144 -1 -1;
#X obj 711 1392 moses 0.177;
#X obj 711 1413 moses 0.146;
#X obj 711 1435 moses 0.094;
#X obj 711 1457 moses 0.031;
#X msg 870 1050 add2 15/16;
#X msg 870 1076 add2 7/8;
#X msg 870 1098 add2 5/6;
#X msg 873 1120 add2 13/16;
#X msg 868 1147 add2 3/4;
#X msg 856 1174 add2 11/16;
#X msg 855 1198 add2 2/3;
#X msg 852 1220 add2 5/8;
#X msg 855 1240 add2 9/16;
#X msg 855 1262 add2 1/2;
#X msg 855 1285 add2 7/16;
#X msg 857 1304 add2 3/8;
#X msg 858 1324 add2 1/3;
#X msg 860 1345 add2 5/16;
#X msg 860 1365 add2 1/4;
#X msg 858 1388 add2 3/16;
#X msg 856 1413 add2 1/6;
#X msg 857 1435 add2 1/18;
#X msg 854 1464 add2 1/16;
#X obj 521 902 pack f f;
#X obj 522 940 route 0;
#X obj 575 1020 print [pack];
#X obj 429 756 t f f;
#X obj 481 863 t f f;
#X obj 681 913 t f b;
#X msg 597 950 \$2;
#X msg 861 1024 add2 1/1;
#X msg 465 1185 add2 \$1 1/1;
#X obj 427 675 / 10;
#X obj 429 717 * 10;
#X msg 439 642 1004;
#X obj 427 694 round;
#X obj 423 837 compt;
#X obj 366 1438 outlet;
#X msg 399 621 \$3;
#X obj 409 886 moses 14;
#X obj 209 178 adc~;
#X connect 0 0 1 0;
#X connect 1 0 34 0;
#X connect 1 1 35 0;
#X connect 1 2 2 0;
#X connect 2 0 3 0;
#X connect 3 1 5 0;
#X connect 4 0 0 0;
#X connect 5 1 12 0;
#X connect 6 0 8 1;
#X connect 7 0 8 0;
#X connect 8 0 9 0;
#X connect 9 0 27 2;
#X connect 10 0 36 0;
#X connect 11 0 22 0;
#X connect 12 0 27 0;
#X connect 12 1 7 0;
#X connect 12 2 6 0;
#X connect 12 3 10 0;
#X connect 12 4 13 0;
#X connect 13 0 16 0;
#X connect 14 0 13 1;
#X connect 15 0 13 0;
#X connect 16 0 37 0;
#X connect 16 1 14 0;
#X connect 17 0 27 1;
#X connect 18 0 13 0;
#X connect 19 0 36 0;
#X connect 20 0 11 0;
#X connect 20 1 19 0;
#X connect 20 2 18 0;
#X connect 22 0 24 0;
#X connect 22 1 23 0;
#X connect 22 2 18 0;
#X connect 22 2 33 0;
#X connect 27 0 31 0;
#X connect 29 0 26 0;
#X connect 29 0 30 0;
#X connect 29 1 25 0;
#X connect 29 1 28 0;
#X connect 29 1 126 0;
#X connect 31 0 29 0;
#X connect 33 0 32 0;
#X connect 34 0 3 0;
#X connect 35 0 3 0;
#X connect 36 0 11 0;
#X connect 37 0 17 0;
#X connect 37 1 20 0;
#X connect 39 0 124 0;
#X connect 42 0 125 0;
#X connect 43 0 44 0;
#X connect 43 1 42 0;
#X connect 44 0 42 0;
#X connect 45 0 119 0;
#X connect 45 0 48 0;
#X connect 45 0 47 1;
#X connect 46 0 45 0;
#X connect 47 0 50 1;
#X connect 49 0 46 0;
#X connect 50 0 51 0;
#X connect 51 0 60 0;
#X connect 51 1 52 0;
#X connect 51 1 118 0;
#X connect 60 0 61 0;
#X connect 60 1 53 0;
#X connect 60 1 92 0;
#X connect 61 0 62 0;
#X connect 61 1 54 0;
#X connect 61 1 93 0;
#X connect 62 0 63 0;
#X connect 62 1 55 0;
#X connect 62 1 94 0;
#X connect 63 0 64 0;
#X connect 63 1 56 0;
#X connect 63 1 95 0;
#X connect 64 0 65 0;
#X connect 64 1 57 0;
#X connect 64 1 96 0;
#X connect 65 0 66 0;
#X connect 65 1 58 0;
#X connect 65 1 97 0;
#X connect 66 0 75 0;
#X connect 66 1 59 0;
#X connect 66 1 98 0;
#X connect 75 0 76 0;
#X connect 75 1 67 0;
#X connect 75 1 99 0;
#X connect 76 0 77 0;
#X connect 76 1 68 0;
#X connect 76 1 100 0;
#X connect 77 0 78 0;
#X connect 77 1 69 0;
#X connect 77 1 101 0;
#X connect 78 0 79 0;
#X connect 78 1 70 0;
#X connect 78 1 102 0;
#X connect 79 0 80 0;
#X connect 79 1 71 0;
#X connect 79 1 103 0;
#X connect 80 0 81 0;
#X connect 80 1 72 0;
#X connect 80 1 104 0;
#X connect 81 0 82 0;
#X connect 81 1 73 0;
#X connect 81 1 105 0;
#X connect 82 0 88 0;
#X connect 82 1 74 0;
#X connect 82 1 106 0;
#X connect 88 0 89 0;
#X connect 88 1 83 0;
#X connect 88 1 107 0;
#X connect 89 0 90 0;
#X connect 89 1 84 0;
#X connect 89 1 108 0;
#X connect 90 0 91 0;
#X connect 90 1 85 0;
#X connect 90 1 109 0;
#X connect 91 0 87 0;
#X connect 91 1 86 0;
#X connect 91 1 110 0;
#X connect 92 0 42 0;
#X connect 93 0 42 0;
#X connect 94 0 42 0;
#X connect 95 0 42 0;
#X connect 96 0 42 0;
#X connect 97 0 42 0;
#X connect 98 0 42 0;
#X connect 99 0 42 0;
#X connect 100 0 42 0;
#X connect 101 0 42 0;
#X connect 102 0 42 0;
#X connect 103 0 42 0;
#X connect 104 0 42 0;
#X connect 105 0 42 0;
#X connect 106 0 42 0;
#X connect 107 0 42 0;
#X connect 108 0 42 0;
#X connect 109 0 42 0;
#X connect 110 0 42 0;
#X connect 111 0 112 0;
#X connect 112 0 45 1;
#X connect 112 1 117 0;
#X connect 114 0 124 0;
#X connect 114 1 111 1;
#X connect 115 0 127 0;
#X connect 115 1 111 0;
#X connect 116 0 50 0;
#X connect 116 1 47 0;
#X connect 117 0 116 0;
#X connect 118 0 42 0;
#X connect 119 0 42 0;
#X connect 120 0 123 0;
#X connect 121 0 114 0;
#X connect 122 0 120 0;
#X connect 123 0 121 0;
#X connect 124 0 40 0;
#X connect 124 0 115 0;
#X connect 126 0 120 0;
#X connect 127 0 41 0;
#X connect 127 0 49 0;
#X connect 127 1 43 0;
#X connect 127 1 124 1;
