#N canvas 805 87 1107 998 10;
#X obj 263 92 bng 15 250 50 0 empty empty empty 17 7 0 10 -262144 -1
-1;
#X obj 265 129 openpanel;
#X symbolatom 273 160 80 0 0 0 - - -;
#X text 285 90 push the button;
#X obj 311 257 textfile;
#X msg 319 192 read \$1;
#X obj 429 297 bng 15 250 50 0 empty empty empty 17 7 0 10 -262144
-1 -1;
#X msg 241 229 bang;
#X msg 417 220 print;
#X obj 299 524 netsend;
#X msg 199 439 connect 127.0.0.1 1234;
#X msg 199 461 disconnect;
#X floatatom 300 572 5 0 0 0 - - -;
#X obj 105 543 netreceive 1234;
#X floatatom 199 574 5 0 0 0 - - -;
#X obj 103 623 print;
#X msg 449 425 send \$1;
#X msg 625 250 add yolo;
#X msg 592 302 write test2.pd cr;
#X obj 850 437 msgfile;
#X msg 733 394 rewind;
#X msg 671 456 bang;
#X msg 828 372 read test.pd;
#X obj 721 481 tosymbol;
#X obj 472 601 msgfile;
#X msg 724 543 add \$1;
#X obj 885 482 bng 15 250 50 0 empty empty empty 17 7 0 10 -262144
-1 -1;
#X msg 477 547 write test5.pd;
#X connect 0 0 1 0;
#X connect 1 0 2 0;
#X connect 2 0 5 0;
#X connect 4 0 6 0;
#X connect 4 0 16 0;
#X connect 5 0 4 0;
#X connect 7 0 4 0;
#X connect 8 0 4 0;
#X connect 9 0 12 0;
#X connect 10 0 9 0;
#X connect 11 0 9 0;
#X connect 13 1 14 0;
#X connect 16 0 9 0;
#X connect 17 0 4 0;
#X connect 18 0 4 0;
#X connect 19 0 23 0;
#X connect 19 1 27 0;
#X connect 19 1 26 0;
#X connect 20 0 19 0;
#X connect 21 0 19 0;
#X connect 22 0 19 0;
#X connect 23 0 25 0;
#X connect 25 0 24 0;
#X connect 27 0 24 0;
