#N canvas 796 92 1107 998 10;
#X obj 263 92 bng 15 250 50 0 empty empty empty 17 7 0 10 -262144 -1
-1;
#X obj 265 129 openpanel;
#X symbolatom 273 160 80 0 0 0 - - -;
#X text 285 90 push the button;
#X obj 311 257 textfile;
#X msg 319 192 read \$1;
#X obj 429 297 bng 15 250 50 0 empty empty empty 17 7 0 10 -262144
-1 -1;
#X msg 241 229 bang;
#X msg 417 220 print;
#X obj 299 524 netsend;
#X msg 199 439 connect 127.0.0.1 1234;
#X msg 199 461 disconnect;
#X floatatom 300 572 5 0 0 0 - - -;
#X msg 449 425 send \$1;
#X msg 625 250 add yolo;
#X msg 530 283 write test2.pd cr;
#X obj 850 437 msgfile;
#X msg 795 397 rewind;
#X obj 737 502 tosymbol;
#X obj 469 616 msgfile;
#X obj 885 482 bng 15 250 50 0 empty empty empty 17 7 0 10 -262144
-1 -1;
#X msg 771 596;
#X msg 806 547 set;
#X msg 396 571 bang;
#X msg 450 522 clear;
#X msg 719 425 bang;
#X msg 836 365 read test.pd;
#X obj 592 491 t b b;
#X obj 336 724 print;
#X msg 379 626 rewind;
#X obj 738 333 t b b b b;
#X obj 718 379 metro 10;
#X msg 719 355 stop;
#X obj 764 289 bng 15 250 50 0 empty empty empty 17 7 0 10 -262144
-1 -1;
#X msg 475 551 write WORK.pd;
#X msg 852 329 read test2.pd;
#X msg 725 543 add \$1;
#X obj 105 543 netreceive 1234;
#X floatatom 199 574 5 0 0 0 - - -;
#X obj 103 623 print;
#X connect 0 0 1 0;
#X connect 1 0 2 0;
#X connect 2 0 5 0;
#X connect 4 0 6 0;
#X connect 4 0 13 0;
#X connect 5 0 4 0;
#X connect 7 0 4 0;
#X connect 8 0 4 0;
#X connect 9 0 12 0;
#X connect 10 0 9 0;
#X connect 11 0 9 0;
#X connect 13 0 9 0;
#X connect 14 0 4 0;
#X connect 15 0 4 0;
#X connect 16 0 18 0;
#X connect 16 1 20 0;
#X connect 16 1 22 0;
#X connect 16 1 27 0;
#X connect 16 1 32 0;
#X connect 17 0 16 0;
#X connect 18 0 36 0;
#X connect 19 0 28 0;
#X connect 22 0 21 0;
#X connect 23 0 19 0;
#X connect 24 0 19 0;
#X connect 25 0 16 0;
#X connect 26 0 16 0;
#X connect 27 0 24 0;
#X connect 27 1 34 0;
#X connect 29 0 19 0;
#X connect 30 1 31 0;
#X connect 30 2 17 0;
#X connect 30 3 26 0;
#X connect 31 0 25 0;
#X connect 32 0 31 0;
#X connect 33 0 30 0;
#X connect 34 0 19 0;
#X connect 35 0 16 0;
#X connect 36 0 21 0;
#X connect 36 0 19 0;
#X connect 37 1 38 0;
